<?xml version="1.0" standalone="no"?>
<!DOCTYPE svg PUBLIC "-//W3C//DTD SVG 20010904//EN"
 "http://www.w3.org/TR/2001/REC-SVG-20010904/DTD/svg10.dtd">
<svg version="1.0" xmlns="http://www.w3.org/2000/svg"
 width="500.000000pt" height="334.000000pt" viewBox="0 0 500.000000 334.000000"
 preserveAspectRatio="xMidYMid meet">

<g transform="translate(0.000000,334.000000) scale(0.100000,-0.100000)"
fill="#000000" stroke="none">
<path d="M0 3271 c0 -69 0 -70 22 -58 27 14 78 64 78 77 0 4 -10 6 -22 3 -18
-4 -16 0 11 21 l35 26 -62 0 -62 0 0 -69z"/>
<path d="M143 3324 c-3 -8 -12 -13 -19 -10 -17 6 -18 -17 -3 -45 5 -11 15 -16
21 -13 7 5 5 11 -6 20 -16 11 -16 13 1 26 10 7 19 19 21 26 3 17 -7 15 -15 -4z"/>
<path d="M180 3320 c-9 -6 -10 -10 -3 -10 6 0 15 5 18 10 8 12 4 12 -15 0z"/>
<path d="M300 3270 c0 -5 7 -10 15 -10 8 0 15 5 15 10 0 6 -7 10 -15 10 -8 0
-15 -4 -15 -10z"/>
<path d="M73 3228 c-1 -10 4 -18 10 -18 7 0 13 8 14 18 1 10 -4 19 -11 19 -6
0 -13 -9 -13 -19z"/>
<path d="M110 3210 c0 -5 5 -10 10 -10 6 0 10 5 10 10 0 6 -4 10 -10 10 -5 0
-10 -4 -10 -10z"/>
<path d="M32 3185 c2 -11 -6 -27 -17 -37 -11 -9 -18 -19 -15 -21 3 -3 17 5 32
18 24 21 25 25 12 41 -14 18 -15 18 -12 -1z"/>
<path d="M2346 3058 c-33 -17 -96 -85 -131 -143 -11 -16 -38 -51 -61 -76 -29
-32 -44 -59 -48 -85 -4 -22 -10 -57 -15 -79 -10 -43 0 -120 18 -138 6 -6 11
-26 11 -45 0 -27 11 -46 59 -99 l58 -65 -5 -70 c-4 -63 -3 -72 16 -87 13 -10
23 -33 27 -61 9 -65 26 -117 44 -138 9 -10 26 -36 37 -58 25 -45 102 -93 151
-94 25 0 33 -5 41 -29 9 -25 6 -33 -30 -75 -22 -25 -54 -54 -72 -63 -17 -9
-45 -28 -61 -42 -18 -16 -78 -42 -148 -65 -133 -44 -162 -67 -218 -178 -64
-127 -91 -216 -108 -355 -6 -43 -13 -87 -16 -99 -6 -18 -1 -22 25 -27 27 -6
30 -9 20 -26 -5 -11 -10 -37 -10 -58 -1 -21 -8 -51 -16 -68 -8 -16 -12 -21 -8
-10 21 70 9 145 -22 145 -15 0 -17 -8 -15 -50 1 -21 -9 -31 -71 -64 -40 -22
-89 -53 -110 -70 -20 -17 -50 -39 -67 -49 -29 -17 -30 -17 -41 2 -5 11 -33 50
-61 87 -30 39 -56 84 -61 108 -13 59 -64 131 -167 235 -80 80 -94 91 -125 91
-35 0 -93 18 -151 47 -40 20 -66 14 -84 -19 -14 -24 -14 -28 3 -47 11 -12 17
-22 15 -24 -2 -1 -13 -7 -24 -13 -11 -6 -24 -23 -29 -37 -8 -22 -6 -31 12 -50
19 -20 21 -28 13 -50 -7 -18 -7 -36 -1 -53 7 -18 7 -36 -1 -59 -7 -17 -9 -43
-6 -56 13 -51 125 -143 255 -208 34 -17 62 -38 62 -46 0 -12 13 -15 58 -15 31
0 64 -5 72 -11 11 -7 -15 -8 -85 -4 -84 5 -97 4 -80 -7 18 -11 11 -14 -55 -19
-41 -3 -120 -18 -174 -33 -78 -21 -111 -26 -153 -20 l-53 6 0 -36 c0 -43 -11
-45 -74 -14 -43 20 -46 21 -71 4 -36 -24 -64 -90 -65 -151 0 -27 5 -94 12
-147 l12 -98 511 0 510 0 33 59 c17 32 39 64 47 71 8 7 15 17 15 23 0 6 8 20
19 31 19 21 157 247 240 391 25 44 51 89 58 100 7 11 16 29 22 40 11 26 32 42
51 42 8 0 25 3 37 7 20 6 22 4 18 -25 -4 -34 -15 -53 -15 -26 0 24 -21 21 -27
-3 -3 -11 -11 -20 -19 -20 -14 0 -40 -39 -36 -53 1 -5 -6 -11 -17 -14 -20 -5
-37 -37 -33 -60 2 -6 -5 -17 -15 -25 -26 -19 -27 -51 -1 -45 16 5 19 1 16 -21
-2 -20 -10 -28 -27 -30 -15 -2 -21 0 -16 7 3 6 11 8 17 5 7 -4 8 -2 4 5 -6 9
-11 9 -21 1 -10 -8 -15 -7 -19 2 -3 7 -3 3 0 -10 4 -15 0 -24 -10 -28 -9 -3
-13 -10 -10 -15 3 -5 1 -9 -5 -9 -6 0 -7 -7 -4 -17 4 -10 2 -14 -4 -10 -7 4
-17 -6 -25 -23 -7 -16 -17 -30 -21 -30 -5 0 -1 -7 7 -16 9 -8 17 -27 17 -42 1
-18 3 -21 6 -9 3 12 10 16 20 13 12 -5 14 -1 9 19 -5 19 -2 25 9 25 9 0 13 5
10 10 -4 6 -11 8 -16 5 -5 -4 -9 -1 -9 5 0 6 10 10 23 8 14 -2 22 2 22 12 0 8
4 21 9 29 5 8 4 16 -4 21 -8 5 -7 9 5 14 24 9 25 8 25 -14 0 -11 -4 -20 -9
-20 -15 0 -3 -44 15 -57 18 -13 14 -31 -22 -106 -12 -27 -21 -54 -18 -61 3 -7
-2 -19 -11 -26 -17 -15 -20 -31 -4 -28 14 4 22 -39 9 -47 -6 -3 -10 -17 -10
-31 0 -20 5 -24 30 -24 31 0 64 36 65 69 0 9 9 16 19 16 11 0 22 7 24 15 4 12
2 13 -9 3 -12 -10 -18 -9 -32 7 -9 11 -12 22 -7 25 6 4 10 3 10 0 0 -4 7 0 15
9 8 8 15 19 15 25 0 6 5 11 11 11 8 0 8 4 -1 15 -14 17 -5 52 15 52 10 0 12
-4 5 -12 -12 -14 -3 -45 12 -45 5 0 7 8 4 18 -7 22 8 47 23 38 7 -4 11 0 11
11 0 11 5 24 12 31 9 9 7 13 -7 18 -10 4 -26 15 -35 24 -15 15 -15 18 -1 31 9
8 19 13 24 11 5 -1 11 7 15 20 5 21 6 21 13 2 5 -13 7 -4 6 26 -1 31 2 44 11
42 6 -1 12 7 12 19 0 11 -4 17 -10 14 -16 -10 -12 7 8 28 9 11 11 17 5 13 -16
-9 -16 -6 2 38 8 19 14 39 13 43 -4 20 16 43 32 38 27 -9 19 26 -8 36 -16 6
-22 5 -22 -6 0 -8 -4 -15 -9 -15 -5 0 -12 -7 -15 -16 -3 -8 -2 -12 4 -9 15 9
12 -11 -4 -24 -21 -17 -25 -2 -16 49 13 67 12 79 -5 56 -16 -21 -21 -10 -6 13
7 11 -2 25 -32 52 -22 21 -43 36 -46 35 -3 -2 -15 0 -26 4 -16 5 -10 10 30 25
63 23 85 42 85 71 0 32 -13 37 -93 37 -57 0 -67 2 -54 12 20 14 23 30 5 18
-14 -9 -68 -11 -68 -3 0 3 34 18 75 33 41 16 75 33 75 38 0 6 4 7 10 4 5 -3
20 -1 32 6 l23 12 -23 -25 -23 -25 53 9 c29 5 58 14 63 20 7 8 6 8 -4 3 -9 -5
-12 -4 -7 3 7 12 48 12 57 -1 3 -4 17 -3 32 4 34 15 57 6 50 -20 -5 -21 -43
-30 -43 -10 0 5 -5 7 -11 4 -15 -10 -10 -13 78 -39 70 -20 84 -21 106 -10 32
17 48 11 75 -26 20 -26 25 -28 52 -19 16 6 30 15 30 19 0 13 29 20 52 11 20
-7 20 -9 -14 -34 -19 -15 -58 -33 -87 -40 -28 -6 -51 -15 -51 -18 0 -3 35 -9
78 -12 139 -11 188 -34 259 -120 12 -15 19 -27 17 -27 -3 0 2 -7 11 -16 9 -10
14 -25 12 -35 -3 -11 -1 -19 3 -19 10 0 30 -64 30 -98 0 -13 -4 -21 -8 -18 -5
3 -7 -18 -4 -46 2 -34 0 -48 -7 -44 -7 5 -11 -2 -11 -16 0 -13 -18 -43 -40
-67 -22 -25 -40 -41 -40 -36 0 4 -7 2 -15 -5 -13 -11 -14 -10 -9 4 8 22 -12
21 -21 -1 -17 -39 -15 -73 5 -93 36 -36 20 -48 -33 -25 -9 4 -25 5 -35 3 -10
-3 -24 2 -32 11 -13 14 -15 14 -18 -3 -5 -23 23 -53 71 -77 40 -21 50 -56 22
-81 -45 -40 -47 -41 -66 -30 -17 11 -19 9 -19 -13 l0 -25 130 0 130 0 0 45 c0
25 -5 45 -10 45 -6 0 -9 -6 -8 -12 2 -7 -4 -12 -12 -10 -8 2 -20 -5 -27 -14
-16 -21 -17 -10 -3 17 9 15 7 19 -6 19 -14 0 -16 7 -10 53 4 28 15 68 24 87
16 32 20 35 62 35 l45 0 22 65 c20 62 21 68 7 135 -36 167 -67 285 -84 313
-23 37 -92 79 -161 97 -54 14 -69 27 -69 58 0 14 9 17 54 17 29 0 66 -4 82 -9
16 -5 42 -12 57 -16 16 -3 46 -24 67 -45 59 -60 78 -52 35 14 -34 50 -40 54
-95 66 -57 12 -81 33 -61 53 5 5 35 6 67 3 33 -3 76 -6 97 -6 79 1 116 -44
216 -256 27 -57 52 -104 54 -104 9 0 -15 98 -39 162 -24 60 -62 116 -129 189
-13 15 -38 29 -55 33 -44 8 -38 40 9 44 19 2 31 -1 27 -6 -3 -5 11 -21 32 -34
28 -19 46 -24 75 -20 20 2 52 -2 69 -9 47 -19 83 -13 157 28 127 71 181 112
181 142 0 27 -31 21 -58 -11 -29 -35 -141 -102 -205 -124 -54 -18 -77 -9 -77
31 0 17 7 25 28 30 76 17 109 92 99 231 -6 88 -26 139 -59 150 -29 9 -53 -4
-53 -28 -1 -13 -5 -34 -9 -47 -6 -18 -5 -22 5 -16 8 3 4 -2 -8 -13 -24 -21
-31 -52 -12 -52 6 0 20 5 31 11 17 9 18 13 7 20 -8 5 -9 9 -4 9 26 0 37 -17
26 -39 -13 -23 -2 -28 17 -9 9 9 12 2 11 -33 -1 -60 -12 -94 -29 -94 -8 0 -20
-6 -26 -14 -6 -8 -17 -15 -25 -17 -44 -6 -56 -6 -71 0 -9 4 -32 1 -52 -9 -26
-12 -57 -16 -123 -14 -50 1 -100 -3 -116 -9 -35 -15 -40 -15 -32 -2 3 6 -4 10
-17 10 -30 0 -45 11 -49 35 -5 25 -55 30 -64 6 -5 -13 -7 -14 -16 -1 -8 11 -9
9 -4 -10 4 -14 14 -30 22 -37 14 -11 12 -14 -13 -24 -38 -16 -170 -15 -188 1
-16 13 -18 99 -2 97 5 -1 11 4 13 11 3 7 -25 1 -74 -17 -61 -23 -77 -33 -75
-46 3 -17 2 -17 -14 0 -18 17 -16 20 54 84 39 37 72 71 72 77 0 19 26 35 45
28 11 -4 15 -13 11 -25 -3 -11 -9 -29 -12 -41 l-7 -23 26 24 c15 13 24 27 22
32 -3 4 4 5 14 2 14 -3 32 7 57 31 20 20 42 36 47 36 6 0 17 7 26 15 9 8 27
23 40 33 21 17 22 19 5 19 -10 0 -22 -5 -26 -11 -5 -6 -8 -1 -8 12 0 20 -4 22
-22 16 -26 -8 -68 -34 -68 -41 0 -3 12 -2 26 1 16 4 23 3 19 -3 -3 -6 -21 -13
-40 -17 -18 -3 -36 -13 -39 -21 -4 -9 -14 -13 -26 -10 -11 3 -20 0 -20 -5 0
-6 -9 -1 -20 12 -12 13 -18 30 -15 38 3 7 5 16 5 18 0 2 5 4 11 4 6 0 17 7 25
15 9 8 24 15 34 15 10 0 22 5 25 10 3 6 16 10 28 10 12 0 40 12 62 25 50 31
22 34 -36 4 -23 -11 -65 -24 -95 -29 -42 -7 -70 -21 -127 -64 -81 -59 -106
-88 -141 -168 -14 -29 -31 -62 -40 -73 -14 -18 -14 -16 0 20 38 94 67 135 143
207 45 42 91 78 104 81 98 23 154 43 165 58 7 11 22 19 33 19 10 0 18 6 16 13
-1 7 7 11 21 9 18 -1 22 2 18 16 -4 11 8 35 33 67 43 54 44 55 141 149 36 34
87 91 113 126 42 56 46 65 31 73 -19 11 -29 0 -86 -86 -31 -47 -52 -51 -28 -7
21 39 4 31 -30 -15 -36 -48 -47 -58 -30 -26 12 24 13 34 1 26 -14 -8 -21 9
-11 25 7 11 11 12 24 0 14 -11 16 -10 10 4 -4 11 -14 16 -24 13 -10 -2 -24 -1
-31 4 -9 5 -29 -1 -56 -17 -27 -15 -43 -20 -43 -13 0 7 -7 20 -15 29 -18 20
-37 80 -25 80 15 0 19 28 9 64 -8 28 -20 41 -51 57 -53 27 -69 43 -104 104
-15 28 -34 54 -42 58 -10 6 -10 12 -2 22 8 10 6 15 -10 20 -24 8 -17 25 10 25
17 0 18 6 14 53 -3 44 0 57 17 76 l21 22 -21 6 c-16 4 -19 9 -11 19 8 9 8 19
0 34 -6 12 -10 23 -8 24 2 2 12 8 23 14 18 10 18 11 -10 12 -29 1 -29 2 -6 11
26 10 76 -8 76 -29 0 -7 7 -17 15 -22 27 -17 29 0 5 37 -14 20 -25 40 -25 44
0 5 -7 9 -15 9 -8 0 -24 9 -35 20 -11 11 -24 20 -29 20 -5 0 -11 7 -14 14 -4
11 -1 13 11 10 15 -5 15 -4 -1 6 -9 6 -21 9 -26 6 -5 -3 -12 1 -15 10 -3 8 -2
12 3 9 5 -3 13 0 17 6 3 6 1 15 -6 19 -8 5 -7 9 4 13 20 8 21 46 1 53 -8 4
-15 13 -15 21 0 13 2 13 18 2 15 -13 16 -12 3 4 -8 10 -20 16 -26 13 -7 -2
-18 0 -26 5 -10 6 -10 9 -1 9 6 0 12 7 12 16 0 11 -6 15 -20 11 -13 -3 -20 0
-20 10 0 8 -5 11 -10 8 -6 -4 -10 -12 -9 -18 7 -58 -15 -77 -29 -24 -4 17 -14
33 -20 33 -7 1 -15 2 -19 3 -10 2 37 40 58 46 11 4 19 10 19 15 0 5 -6 7 -14
4 -8 -3 -23 3 -33 13 -23 23 -83 24 -127 1z m199 -261 c19 -5 19 -5 -2 -12
-14 -5 -23 -16 -23 -29 -1 -17 -3 -16 -14 9 -9 21 -10 34 -3 43 6 7 13 9 16 4
3 -5 15 -12 26 -15z m-66 -61 c-5 -17 -9 -32 -9 -33 0 -10 -17 1 -28 17 -7 11
-9 20 -5 19 20 -3 34 2 29 10 -4 5 -3 17 0 26 12 29 23 -5 13 -39z m135 -27
c-12 -20 -34 -8 -34 18 0 25 1 26 20 8 11 -10 17 -22 14 -26z m-122 -40 c-13
-5 -20 -14 -16 -20 4 -8 9 -7 15 2 14 23 10 4 -6 -27 l-14 -28 -11 29 c-15 38
-6 55 27 54 27 0 27 0 5 -10z m-187 -179 c5 -29 11 -40 22 -38 9 2 18 -3 20
-9 3 -10 -2 -11 -19 -4 -26 9 -48 45 -48 79 0 36 18 16 25 -28z m265 0 c18
-28 31 -52 29 -54 -2 -2 -19 -6 -36 -9 -29 -6 -33 -4 -33 14 0 19 -2 20 -17 8
-15 -12 -16 -12 -10 4 4 10 7 34 7 53 0 49 22 43 60 -16z m-169 -57 c1 -32 1
-67 -1 -78 -1 -11 -3 -63 -4 -117 0 -53 -4 -99 -8 -103 -11 -11 -21 61 -14 99
6 32 -12 65 -27 49 -4 -3 -6 7 -6 23 1 17 3 22 6 12 7 -27 17 -21 29 17 9 28
8 35 -4 40 -8 3 -12 8 -9 12 4 3 2 12 -4 19 -7 8 -7 14 1 19 6 3 8 10 5 15 -7
12 12 50 25 50 6 0 11 -26 11 -57z m209 -268 c9 0 16 -11 18 -27 4 -32 -22
-40 -31 -10 -2 9 -8 26 -12 37 -4 11 -3 16 2 10 4 -5 15 -10 23 -10z m-47 -20
c-3 -9 -8 -14 -10 -11 -3 3 -2 9 2 15 9 16 15 13 8 -4z m182 -1 c0 -5 9 -20
19 -34 10 -14 16 -17 13 -8 -4 10 -2 20 3 23 6 4 10 -8 10 -25 0 -17 -4 -29
-9 -25 -5 3 -16 -4 -24 -15 -14 -20 -14 -20 -25 6 -16 34 -16 97 1 92 6 -3 12
-9 12 -14z m-35 -180 c0 -28 -15 -25 -23 6 -3 13 0 20 9 20 8 0 14 -10 14 -26z
m27 -50 c-3 -3 -12 -4 -19 -1 -8 3 -5 6 6 6 11 1 17 -2 13 -5z m-427 -748 c0
-3 -4 -8 -10 -11 -5 -3 -10 -1 -10 4 0 6 5 11 10 11 6 0 10 -2 10 -4z m890
-112 c23 -9 39 -18 37 -20 -2 -3 -24 4 -48 15 -54 24 -45 27 11 5z m-340 -44
c0 -5 -2 -10 -4 -10 -3 0 -8 5 -11 10 -3 6 -1 10 4 10 6 0 11 -4 11 -10z
m-850 -78 c0 -5 -8 -16 -18 -26 -17 -15 -22 -15 -47 -2 l-28 15 34 9 c44 13
59 14 59 4z m-2 -212 c-7 -11 -19 -20 -27 -20 -9 0 -11 -7 -8 -21 3 -12 3 -19
0 -16 -6 6 -44 -32 -86 -87 -15 -20 -33 -36 -40 -36 -7 0 -2 8 9 18 12 9 30
31 40 47 25 40 34 52 64 85 14 15 24 32 22 39 -2 6 6 11 17 11 19 0 20 -2 9
-20z m142 -45 c0 -8 -2 -15 -4 -15 -2 0 -6 7 -10 15 -3 8 -1 15 4 15 6 0 10
-7 10 -15z m-570 -80 c0 -2 -10 -9 -22 -15 -22 -11 -22 -10 -4 4 21 17 26 19
26 11z m190 -145 c0 -5 -5 -10 -11 -10 -5 0 -7 5 -4 10 3 6 8 10 11 10 2 0 4
-4 4 -10z m-300 -64 c0 -8 -4 -17 -9 -20 -10 -7 -23 19 -14 28 11 11 23 6 23
-8z m580 -36 c0 -5 -5 -10 -11 -10 -5 0 -7 5 -4 10 3 6 8 10 11 10 2 0 4 -4 4
-10z m-441 -52 c-13 -10 -34 -28 -45 -38 -12 -11 -25 -20 -29 -20 -4 0 -20 -9
-37 -21 -16 -12 -31 -19 -34 -17 -2 3 33 35 78 72 50 41 84 63 87 55 2 -7 -7
-21 -20 -31z m431 22 c0 -5 -5 -10 -11 -10 -5 0 -7 5 -4 10 3 6 8 10 11 10 2
0 4 -4 4 -10z m10 -54 c0 -14 -4 -28 -10 -31 -6 -4 -10 7 -10 24 0 17 5 31 10
31 6 0 10 -11 10 -24z m786 -193 c-10 -10 -19 5 -10 18 6 11 8 11 12 0 2 -7 1
-15 -2 -18z m-836 -38 c-7 -8 -17 -15 -22 -15 -5 0 -2 7 6 16 9 8 16 21 17 27
0 8 2 8 6 -1 3 -7 -1 -19 -7 -27z"/>
<path d="M5 3010 c3 -5 8 -10 11 -10 2 0 4 5 4 10 0 6 -5 10 -11 10 -5 0 -7
-4 -4 -10z"/>
<path d="M2800 2850 c0 -20 -2 -21 -17 -9 -17 15 -17 12 4 -121 2 -14 6 -53 9
-87 4 -36 11 -63 18 -64 6 0 21 -2 34 -5 15 -3 22 1 22 11 0 8 4 15 8 15 4 0
5 25 2 55 -3 31 -4 58 -1 60 13 14 34 1 46 -27 l14 -33 1 28 c0 27 -12 43 -62
82 -14 11 -38 42 -52 69 -19 36 -26 43 -26 26z"/>
<path d="M2830 2844 c0 -19 37 -74 50 -74 5 0 -1 20 -13 45 -23 46 -37 57 -37
29z"/>
<path d="M2625 2810 c-3 -5 1 -10 10 -10 9 0 13 5 10 10 -3 6 -8 10 -10 10 -2
0 -7 -4 -10 -10z"/>
<path d="M2990 2563 c0 -4 5 -15 10 -23 8 -13 10 -13 10 2 0 9 -4 20 -10 23
-5 3 -10 3 -10 -2z"/>
<path d="M2947 2521 c-3 -13 -1 -18 9 -14 7 2 10 11 7 19 -7 19 -10 18 -16 -5z"/>
<path d="M2798 2468 c-2 -13 0 -39 4 -58 5 -26 3 -37 -8 -43 -10 -6 -12 -13
-4 -27 5 -10 10 -46 10 -79 0 -56 2 -61 32 -82 27 -20 31 -20 25 -5 -4 10 -7
22 -7 27 0 5 -8 9 -17 9 -12 0 -18 8 -19 25 -1 14 2 22 7 19 5 -3 10 12 11 33
2 56 2 66 -7 87 -7 16 -6 17 15 6 12 -7 25 -21 28 -32 4 -15 7 -16 13 -6 5 8
-2 30 -18 58 -15 25 -26 46 -25 48 4 4 -23 42 -30 42 -4 0 -8 -10 -10 -22z
m22 -118 c0 -5 -4 -10 -10 -10 -5 0 -10 5 -10 10 0 6 5 10 10 10 6 0 10 -4 10
-10z"/>
<path d="M2870 2146 c0 -2 7 -9 15 -16 9 -7 15 -8 15 -2 0 5 -7 12 -15 16 -8
3 -15 4 -15 2z"/>
<path d="M2897 2103 c-4 -3 -7 -13 -7 -22 1 -13 3 -13 11 2 11 19 8 33 -4 20z"/>
<path d="M3588 2003 c-9 -3 -22 -19 -28 -37 -6 -18 -22 -39 -35 -46 -14 -7
-25 -17 -25 -22 0 -5 -4 -6 -10 -3 -5 3 -10 -1 -10 -9 0 -9 -11 -26 -25 -38
-14 -12 -25 -27 -25 -34 0 -8 -10 -18 -21 -25 -13 -7 -17 -14 -11 -18 6 -3 10
-27 9 -53 -1 -25 -5 -42 -8 -37 -3 5 -11 -2 -18 -17 -10 -22 -9 -26 3 -21 10
4 13 1 9 -9 -5 -14 12 -21 19 -6 2 4 16 18 32 32 22 19 28 21 23 8 -7 -21 3
-24 21 -6 6 6 14 9 17 7 3 -3 -5 -10 -18 -16 -12 -6 -33 -16 -47 -22 -14 -6
-17 -9 -7 -7 21 6 23 -10 2 -18 -8 -3 -15 0 -15 6 0 7 -5 6 -15 -2 -10 -8 -15
-9 -15 -2 0 6 -7 9 -16 5 -8 -3 -13 -12 -10 -19 3 -8 0 -11 -8 -8 -10 4 -36
-33 -36 -53 0 -11 91 7 133 25 23 11 62 35 87 55 25 20 55 44 67 54 18 15 24
34 32 103 5 47 8 110 6 140 -2 30 -4 60 -4 67 -1 16 -31 31 -53 26z m2 -161
c0 -5 -11 -14 -25 -20 -26 -12 -33 -4 -13 16 14 14 38 16 38 4z m-22 -43 c-9
-5 -15 -16 -12 -24 4 -9 -4 -19 -21 -27 -24 -11 -25 -13 -8 -19 16 -7 15 -8
-5 -8 -13 -1 -21 -5 -18 -9 2 -4 1 -14 -3 -21 -7 -10 -13 -11 -27 -3 -18 10
-18 11 -1 17 9 4 17 13 17 20 0 16 68 85 84 85 6 0 3 -5 -6 -11z"/>
<path d="M3239 1943 c-1 -5 -1 -11 0 -15 0 -4 -5 -5 -12 -3 -6 3 -52 -29 -102
-71 -49 -42 -107 -88 -127 -102 -21 -13 -35 -29 -31 -35 3 -5 1 -7 -4 -4 -6 4
-19 -6 -29 -21 -24 -37 -42 -54 -52 -49 -13 9 -45 -21 -37 -34 5 -7 -2 -20
-16 -31 -13 -11 -17 -18 -8 -15 8 3 34 2 57 -3 54 -10 50 -12 220 153 55 53
97 97 93 97 -4 0 -12 -5 -19 -12 -6 -6 -14 -9 -17 -6 -6 6 -4 9 70 87 28 29
43 51 35 49 -8 -2 -14 3 -12 10 1 6 0 12 -3 12 -3 0 -6 -3 -6 -7z m-359 -313
c0 -5 -5 -10 -11 -10 -5 0 -7 5 -4 10 3 6 8 10 11 10 2 0 4 -4 4 -10z"/>
<path d="M3230 1840 c-9 -6 -10 -10 -3 -10 6 0 15 5 18 10 8 12 4 12 -15 0z"/>
<path d="M3140 1639 c-66 -61 -89 -89 -76 -89 20 0 190 166 178 174 -4 2 -50
-36 -102 -85z"/>
<path d="M3279 1693 c-25 -21 -73 -66 -106 -100 -57 -56 -60 -62 -40 -67 23
-6 30 -1 109 94 21 25 38 48 38 53 0 4 7 7 16 7 8 0 12 5 9 10 -3 6 1 10 9 10
9 0 16 7 16 15 0 20 1 20 -51 -22z"/>
<path d="M3634 1650 c-11 -4 -57 -33 -103 -64 -45 -31 -88 -56 -96 -56 -8 0
-15 -4 -15 -9 0 -5 26 -9 57 -9 49 1 60 4 77 26 22 27 109 72 143 72 12 0 35
-11 51 -25 34 -28 52 -32 52 -10 0 17 17 20 22 4 2 -6 4 7 5 29 2 33 -2 41
-20 46 -32 8 -149 6 -173 -4z"/>
<path d="M3883 1577 c29 -26 49 -36 90 -41 28 -3 66 -8 82 -11 17 -3 -15 11
-70 29 -55 19 -109 39 -120 46 -11 6 -3 -4 18 -23z"/>
<path d="M3224 1499 c-4 -8 47 -17 64 -11 7 2 12 8 12 13 0 11 -69 9 -76 -2z"/>
<path d="M3540 1431 c0 -17 2 -31 4 -31 8 0 13 51 5 56 -5 3 -9 -9 -9 -25z"/>
<path d="M3040 1368 c0 -4 7 -8 15 -8 8 0 15 4 15 8 0 5 -7 9 -15 9 -8 0 -15
-4 -15 -9z"/>
<path d="M3085 1360 c-3 -5 -2 -10 4 -10 5 0 13 5 16 10 3 6 2 10 -4 10 -5 0
-13 -4 -16 -10z"/>
<path d="M3140 1358 c0 -4 5 -8 10 -8 6 0 10 -9 10 -20 0 -28 30 -26 31 3 1
16 2 18 6 5 2 -10 8 -18 12 -18 11 0 9 25 -3 35 -13 12 -66 14 -66 3z"/>
<path d="M2671 1288 c-2 -30 11 -49 50 -67 29 -14 39 -16 39 -6 0 7 7 18 15
25 8 7 15 21 15 31 0 25 -25 24 -51 -2 -24 -24 -56 -18 -62 14 -3 13 -5 16 -6
5z"/>
<path d="M3638 1285 c-3 -11 -9 -33 -13 -49 -5 -26 -5 -27 10 -12 10 10 15 28
13 48 -3 26 -5 29 -10 13z"/>
<path d="M4240 1186 c0 -2 7 -7 16 -10 8 -3 12 -2 9 4 -6 10 -25 14 -25 6z"/>
<path d="M4311 1135 c15 -15 31 -26 37 -24 5 2 -7 14 -27 27 l-36 24 26 -27z"/>
<path d="M4480 1012 c0 -11 -6 -25 -14 -29 -8 -4 -21 -24 -29 -43 -12 -27 -16
-30 -16 -14 -1 12 -7 24 -14 27 -9 3 -18 -14 -30 -57 -23 -87 -60 -174 -90
-211 -36 -45 -99 -59 -241 -53 -87 4 -120 10 -153 27 -23 11 -47 21 -54 21 -6
0 -72 29 -147 65 -155 75 -202 85 -155 33 15 -17 15 -19 -2 -38 -10 -11 -16
-21 -14 -23 64 -48 317 -166 369 -173 14 -2 53 -6 87 -10 l63 -7 15 34 16 34
-6 -34 c-7 -48 -47 -96 -124 -150 -100 -70 -159 -133 -166 -178 -4 -21 -15
-70 -25 -110 -10 -39 -15 -83 -13 -97 l5 -26 188 0 c173 0 188 1 205 20 10 11
22 17 27 14 4 -3 7 -1 6 4 -2 6 1 12 7 14 21 7 95 83 85 86 -6 2 -19 -3 -29
-12 -10 -9 -21 -16 -26 -16 -4 0 2 9 14 19 12 11 22 22 22 25 -3 22 1 27 14
22 8 -3 14 -2 14 2 -1 4 0 10 1 15 1 4 3 10 4 15 2 16 66 95 66 82 0 -21 20 2
25 30 5 28 15 39 15 17 0 -10 7 -17 15 -17 8 0 15 -5 15 -11 0 -6 -9 -8 -20
-4 -15 5 -20 2 -20 -12 0 -10 -8 -35 -18 -55 -15 -28 -16 -35 -4 -31 12 5 11
1 -2 -25 -9 -17 -16 -35 -15 -39 0 -4 20 31 45 80 36 71 42 91 34 107 -8 16
-8 22 4 26 20 8 28 44 10 51 -8 3 -11 9 -8 14 3 5 9 7 13 5 4 -3 5 8 3 24 -2
17 -8 27 -13 24 -5 -3 -9 4 -9 15 0 12 4 21 9 21 5 0 11 10 13 22 2 13 11 24
23 27 15 2 17 0 9 -10 -19 -24 -25 -61 -9 -55 8 3 16 0 19 -7 2 -7 5 8 6 33 3
83 9 134 25 225 9 50 14 101 12 115 -2 14 2 35 10 46 18 28 8 80 -13 64 -7 -7
-15 -21 -17 -33 -3 -12 -4 2 -4 31 0 28 -3 55 -6 59 -4 3 -7 -3 -7 -15z m37
-104 c-3 -8 -6 -5 -6 6 -1 11 2 17 5 13 3 -3 4 -12 1 -19z m-40 -90 c-3 -8 -6
-5 -6 6 -1 11 2 17 5 13 3 -3 4 -12 1 -19z m-14 -233 c-3 -9 -8 -14 -10 -11
-3 3 -2 9 2 15 9 16 15 13 8 -4z m-86 -87 c-3 -8 -6 -5 -6 6 -1 11 2 17 5 13
3 -3 4 -12 1 -19z m-7 -68 c-6 -11 -15 -18 -21 -15 -5 4 -3 13 6 21 8 9 15 21
16 27 0 9 2 9 5 0 3 -7 0 -21 -6 -33z m40 -44 c0 -2 -8 -10 -17 -17 -16 -13
-17 -12 -4 4 13 16 21 21 21 13z"/>
<path d="M3050 991 c0 -6 4 -11 10 -11 36 0 60 -149 38 -245 -7 -35 -11 -89
-8 -130 l5 -70 19 75 c29 109 27 236 -5 320 -15 41 -30 66 -42 68 -9 2 -17 -1
-17 -7z"/>
<path d="M3246 945 c4 -8 11 -15 16 -15 6 0 5 6 -2 15 -7 8 -14 15 -16 15 -2
0 -1 -7 2 -15z"/>
<path d="M3280 913 c0 -4 5 -15 10 -23 8 -13 10 -13 10 2 0 9 -4 20 -10 23 -5
3 -10 3 -10 -2z"/>
<path d="M2308 893 c7 -3 16 -2 19 1 4 3 -2 6 -13 5 -11 0 -14 -3 -6 -6z"/>
<path d="M3310 849 c12 -22 37 -35 47 -25 9 8 -27 46 -44 46 -11 0 -11 -4 -3
-21z"/>
<path d="M3470 850 c0 -5 4 -10 9 -10 6 0 13 5 16 10 3 6 -1 10 -9 10 -9 0
-16 -4 -16 -10z"/>
<path d="M3366 784 c-8 -21 -8 -21 14 -27 16 -4 18 -2 10 13 -5 9 -6 20 -3 24
3 3 2 6 -4 6 -6 0 -14 -7 -17 -16z"/>
<path d="M3510 770 c0 -5 7 -10 16 -10 8 0 12 5 9 10 -3 6 -10 10 -16 10 -5 0
-9 -4 -9 -10z"/>
<path d="M2264 639 c-12 -20 -14 -89 -3 -89 6 0 9 -7 5 -15 -3 -8 -1 -15 4
-15 6 0 10 7 10 16 0 13 3 14 14 5 11 -9 15 -9 19 1 3 8 6 5 6 -6 1 -14 4 -17
11 -10 16 16 2 41 -20 39 -11 -1 -23 -4 -26 -8 -4 -3 -11 -4 -15 -1 -11 6 -12
24 -1 23 20 -3 33 2 27 11 -4 6 -10 8 -14 6 -4 -3 -5 8 -3 25 4 30 -1 38 -14
18z"/>
<path d="M2340 500 c-13 -8 -12 -10 3 -10 15 0 16 -2 5 -13 -7 -8 -20 -16 -28
-20 -10 -4 -8 -6 7 -6 22 -1 36 -15 39 -38 1 -7 -2 -13 -8 -13 -5 0 1 -13 14
-29 13 -17 29 -28 37 -25 11 4 11 2 1 -11 -7 -8 -16 -13 -20 -10 -13 8 -20
-25 -10 -46 7 -12 7 -25 1 -37 -7 -14 -6 -18 9 -19 13 -1 17 3 13 13 -3 8 0
14 7 14 6 0 9 4 6 8 -3 5 3 18 13 29 13 13 18 31 16 54 -3 31 -5 34 -34 31
-26 -2 -31 1 -30 20 0 36 -11 102 -19 110 -4 4 -14 3 -22 -2z"/>
<path d="M3482 423 c21 -41 38 -83 38 -92 0 -14 2 -14 10 -1 12 19 13 53 1 46
-5 -3 -11 10 -13 28 -2 19 0 32 4 30 14 -9 8 7 -9 24 -10 10 -29 23 -43 29
-25 10 -25 9 12 -64z"/>
<path d="M3255 393 c-4 -27 -11 -66 -15 -88 -10 -47 -6 -54 21 -36 12 7 22 11
23 9 2 -2 9 -12 15 -23 l13 -20 -7 20 c-3 11 -8 45 -10 76 -4 54 -19 109 -29
109 -3 0 -8 -21 -11 -47z m29 -81 c2 -4 -4 -8 -15 -8 -10 0 -19 4 -19 8 0 4 6
8 14 8 8 0 17 -4 20 -8z"/>
<path d="M2426 408 c3 -4 9 -8 15 -8 5 0 9 4 9 8 0 5 -7 9 -15 9 -8 0 -12 -4
-9 -9z"/>
<path d="M4450 395 c-7 -9 -10 -18 -7 -21 3 -3 10 4 17 15 13 25 8 27 -10 6z"/>
<path d="M2465 363 c14 -34 13 -114 -2 -120 -7 -3 -13 -15 -13 -27 0 -17 2
-18 10 -6 8 13 10 12 10 -2 0 -10 6 -18 13 -18 8 0 13 -9 13 -20 -1 -10 2 -18
6 -17 10 3 77 -99 84 -129 5 -18 12 -24 28 -22 21 3 25 23 4 23 -6 0 -13 6
-16 14 -3 9 0 11 9 6 8 -4 1 5 -16 20 -17 16 -25 29 -19 32 7 2 10 13 7 23 -5
18 -10 22 -29 19 -13 -2 -22 24 -22 61 0 21 -8 52 -16 69 -9 16 -18 40 -20 53
-3 13 -5 25 -6 28 -2 3 -2 8 -2 12 1 3 -6 9 -14 12 -12 5 -14 2 -9 -11z m40
-114 c-10 -15 -25 -10 -19 6 4 8 10 12 15 9 5 -3 7 -10 4 -15z"/>
<path d="M2319 313 c-12 -15 -12 -16 8 -11 41 11 31 -17 -23 -64 -33 -28 -60
-45 -69 -42 -8 4 -15 2 -15 -4 0 -33 59 -11 83 30 10 17 25 28 37 28 12 0 19
4 16 9 -4 5 -2 11 3 13 14 5 1 58 -14 58 -7 0 -19 -8 -26 -17z"/>
<path d="M1966 305 c4 -8 8 -15 10 -15 2 0 4 7 4 15 0 8 -4 15 -10 15 -5 0 -7
-7 -4 -15z"/>
<path d="M1830 291 c0 -6 5 -13 10 -16 6 -3 10 1 10 9 0 9 -4 16 -10 16 -5 0
-10 -4 -10 -9z"/>
<path d="M2154 265 c3 -9 -3 -20 -14 -27 -25 -16 -25 -28 0 -28 13 0 18 5 14
15 -4 8 -1 15 4 15 6 0 10 9 9 20 -1 11 -5 20 -10 20 -5 0 -7 -7 -3 -15z"/>
<path d="M3258 253 c-10 -2 -18 -12 -18 -21 0 -14 -2 -14 -9 -3 -10 15 -15 -2
-27 -91 -7 -52 4 -60 48 -37 56 30 92 93 47 82 -19 -5 -20 -4 -10 14 8 16 7
24 -4 33 -8 7 -12 16 -9 21 3 5 4 8 2 8 -2 -1 -11 -3 -20 -6z"/>
<path d="M2210 229 c13 -24 33 -20 39 7 3 16 1 17 -13 5 -10 -9 -16 -10 -16
-2 0 6 -5 11 -10 11 -7 0 -7 -7 0 -21z"/>
<path d="M2168 203 c-10 -2 -18 -12 -18 -21 0 -15 2 -15 10 -2 8 13 10 12 10
-3 0 -10 7 -20 15 -23 8 -4 12 -11 8 -17 -4 -6 -1 -7 6 -3 9 6 8 13 -5 27 -9
10 -13 19 -7 19 5 0 10 7 10 15 0 8 -3 14 -6 14 -3 -1 -14 -3 -23 -6z"/>
<path d="M1800 165 c0 -9 6 -12 15 -9 8 4 15 7 15 9 0 2 -7 5 -15 9 -9 3 -15
0 -15 -9z"/>
<path d="M2100 170 c0 -5 5 -10 10 -10 6 0 10 5 10 10 0 6 -4 10 -10 10 -5 0
-10 -4 -10 -10z"/>
<path d="M2540 170 c0 -5 5 -10 11 -10 5 0 7 5 4 10 -3 6 -8 10 -11 10 -2 0
-4 -4 -4 -10z"/>
<path d="M2066 144 c-4 -9 -3 -20 0 -23 4 -3 9 0 11 7 3 6 9 10 14 7 5 -4 6 1
3 9 -8 21 -20 20 -28 0z"/>
<path d="M3287 103 c-48 -30 -70 -37 -130 -42 -70 -6 -127 -29 -127 -51 0 -6
55 -10 140 -10 l139 0 18 49 c13 37 26 55 53 70 l35 21 -35 -1 c-23 0 -55 -12
-93 -36z"/>
<path d="M3471 123 c0 -10 4 -26 8 -36 6 -17 8 -17 20 -3 15 18 6 56 -15 56
-8 0 -14 -8 -13 -17z"/>
<path d="M4296 99 c-27 -32 -36 -60 -13 -41 14 12 50 72 43 72 -2 0 -16 -14
-30 -31z"/>
<path d="M2165 100 c-8 -13 3 -30 18 -29 8 0 8 2 -1 6 -10 4 -10 8 -1 19 8 9
8 14 1 14 -6 0 -14 -4 -17 -10z"/>
<path d="M3046 73 c-6 -14 -5 -15 5 -6 7 7 10 15 7 18 -3 3 -9 -2 -12 -12z"/>
<path d="M2123 35 l-32 -35 24 0 c16 0 25 6 25 15 0 8 8 15 18 16 9 0 12 3 5
5 -7 3 -9 12 -6 20 8 22 1 17 -34 -21z"/>
<path d="M1760 49 c0 -5 5 -7 10 -4 6 3 10 8 10 11 0 2 -4 4 -10 4 -5 0 -10
-5 -10 -11z"/>
<path d="M1907 20 c-3 -11 -1 -20 4 -20 5 0 9 9 9 20 0 11 -2 20 -4 20 -2 0
-6 -9 -9 -20z"/>
</g>
</svg>
