<?xml version="1.0" standalone="no"?>
<!DOCTYPE svg PUBLIC "-//W3C//DTD SVG 20010904//EN"
 "http://www.w3.org/TR/2001/REC-SVG-20010904/DTD/svg10.dtd">
<svg version="1.0" xmlns="http://www.w3.org/2000/svg"
 width="30px" height="30px" viewBox="0 0 512.000000 512.000000"
 preserveAspectRatio="xMidYMid meet">

<g transform="translate(0.000000,512.000000) scale(0.100000,-0.100000)"
fill="#d6d6d6" stroke="none">
<path d="M1737 5106 c-57 -21 -103 -61 -127 -111 -18 -37 -21 -59 -18 -114 7
-126 82 -197 226 -212 96 -10 154 -30 215 -74 95 -71 147 -176 147 -300 l0
-75 -152 0 c-245 0 -398 -23 -599 -90 -607 -201 -1049 -751 -1118 -1392 -84
-770 386 -1505 1118 -1748 201 -67 354 -90 599 -90 l152 0 0 -75 c0 -124 -52
-229 -147 -300 -61 -44 -119 -64 -215 -74 -93 -10 -156 -43 -196 -103 -24 -37
-27 -51 -27 -124 0 -75 3 -86 30 -125 19 -27 50 -54 84 -71 l53 -28 797 0 797
0 55 28 c35 18 64 42 84 70 27 40 30 51 30 127 0 76 -3 87 -30 127 -39 55
-119 98 -186 98 -66 0 -165 34 -222 75 -95 71 -147 176 -147 300 l0 75 150 0
c312 0 531 45 777 160 576 270 953 863 953 1500 0 625 -363 1208 -925 1487
-238 118 -431 162 -747 170 l-208 6 0 73 c0 123 52 229 147 299 61 44 118 64
216 75 96 11 150 39 192 98 28 40 30 50 30 127 0 76 -2 87 -30 126 -19 27 -50
54 -84 71 l-53 28 -792 0 c-635 -1 -798 -4 -829 -14z m1621 -156 c29 -27 29
-83 2 -110 -14 -14 -33 -20 -62 -20 -161 -1 -337 -101 -430 -244 -52 -80 -75
-161 -83 -291 -8 -127 3 -185 37 -203 14 -7 120 -13 278 -16 280 -5 364 -17
539 -75 520 -174 905 -620 1007 -1166 26 -138 26 -392 0 -530 -115 -615 -580
-1089 -1195 -1217 -76 -16 -148 -21 -351 -24 -158 -3 -264 -9 -278 -16 -34
-18 -45 -76 -37 -203 8 -130 31 -211 83 -291 92 -142 269 -243 428 -244 52 0
84 -28 84 -75 0 -22 -8 -41 -22 -55 -22 -20 -31 -20 -798 -20 -767 0 -776 0
-798 20 -14 14 -22 33 -22 55 0 47 32 75 84 75 159 1 336 102 428 244 52 80
75 161 83 291 8 127 -3 185 -37 203 -14 7 -120 13 -278 16 -203 3 -275 8 -351
24 -615 128 -1080 602 -1195 1217 -26 138 -26 392 0 530 115 615 580 1089
1195 1217 76 16 148 21 351 24 158 3 264 9 278 16 34 18 45 76 37 203 -8 130
-31 211 -83 291 -92 142 -269 243 -428 244 -52 0 -84 28 -84 75 0 24 7 39 26
54 26 21 33 21 798 21 763 0 772 0 794 -20z"/>
<path d="M2115 3913 c-169 -22 -325 -68 -460 -136 -88 -44 -213 -125 -245
-159 -38 -41 -16 -110 40 -123 20 -5 47 9 125 61 181 121 328 175 563 208 l42
6 0 -1210 0 -1210 -42 6 c-275 38 -505 140 -684 305 -252 230 -386 517 -401
854 -11 263 57 500 211 730 52 78 66 105 61 125 -13 56 -82 78 -123 40 -39
-36 -124 -171 -173 -274 -197 -414 -164 -920 86 -1308 237 -367 622 -593 1060
-624 113 -8 140 1 155 55 13 48 14 2553 0 2600 -14 50 -35 61 -115 59 -38 0
-83 -3 -100 -5z"/>
<path d="M2817 3907 c-10 -8 -22 -30 -27 -48 -14 -47 -13 -2552 0 -2600 15
-54 41 -63 157 -55 551 38 1016 394 1196 912 56 163 71 257 71 444 0 116 -5
191 -17 252 -98 491 -445 884 -919 1042 -160 52 -423 83 -461 53z m286 -163
c350 -66 671 -312 834 -639 96 -190 127 -327 127 -545 0 -218 -31 -355 -127
-545 -57 -115 -109 -188 -206 -288 -107 -111 -189 -174 -311 -236 -148 -76
-261 -111 -437 -135 l-43 -6 0 1210 0 1210 43 -6 c23 -3 77 -12 120 -20z"/>
</g>
</svg>
