<?xml version="1.0" standalone="no"?>
<!DOCTYPE svg PUBLIC "-//W3C//DTD SVG 20010904//EN"
 "http://www.w3.org/TR/2001/REC-SVG-20010904/DTD/svg10.dtd">
<svg version="1.0" xmlns="http://www.w3.org/2000/svg"
 width="50px" height="50px" viewBox="0 0 512.000000 512.000000"
 preserveAspectRatio="xMidYMid meet">

<g transform="translate(0.000000,512.000000) scale(0.100000,-0.100000)"
fill="#080808" stroke="none">
<path d="M1660 4971 l0 -148 66 -11 c190 -31 339 -175 374 -361 17 -89 18 -88
-52 -95 -185 -21 -418 -90 -591 -176 -738 -369 -1133 -1183 -966 -1992 110
-533 472 -1000 966 -1248 173 -86 406 -155 591 -176 70 -7 69 -6 52 -95 -35
-186 -184 -330 -374 -361 l-66 -11 0 -148 0 -149 900 0 900 0 0 149 0 148 -66
11 c-190 31 -339 175 -374 361 -17 89 -18 88 53 95 184 21 417 90 590 176 738
369 1133 1183 966 1992 -110 533 -472 1000 -966 1248 -173 86 -406 155 -590
176 -71 7 -70 6 -53 95 35 186 184 330 374 361 l66 11 0 148 0 149 -900 0
-900 0 0 -149z m1167 -204 c-87 -136 -117 -267 -117 -517 l0 -180 105 0 c351
0 660 -96 927 -287 104 -74 267 -236 341 -340 379 -530 379 -1236 0 -1766 -32
-44 -103 -126 -159 -181 -296 -297 -667 -446 -1109 -446 l-105 0 0 -180 c0
-250 30 -381 117 -517 l34 -53 -301 0 -301 0 34 53 c87 136 117 267 117 517
l0 180 -105 0 c-351 0 -660 96 -927 287 -104 74 -267 236 -341 340 -379 530
-379 1236 0 1766 32 44 103 126 159 181 296 297 667 446 1109 446 l105 0 0
180 c0 250 -30 381 -117 517 l-34 53 301 0 301 0 -34 -53z"/>
<path d="M2085 3755 c-264 -41 -505 -164 -687 -351 -96 -97 -162 -192 -224
-319 -164 -337 -164 -713 0 -1050 123 -251 311 -439 560 -560 176 -86 352
-125 564 -125 l112 0 0 1210 0 1210 -122 -1 c-68 -1 -159 -7 -203 -14z m23
-1644 l-3 -449 -75 19 c-198 50 -402 193 -520 364 -47 69 -107 201 -131 290
-32 115 -32 335 0 450 24 89 84 221 131 290 118 171 322 314 520 364 l75 19 3
-449 c1 -247 1 -651 0 -898z"/>
<path d="M2710 2560 l0 -1210 113 0 c211 0 387 39 563 125 180 87 337 219 455
380 64 88 152 267 179 365 84 302 59 592 -74 865 -123 251 -311 439 -560 560
-176 86 -352 125 -563 125 l-113 0 0 -1210z m435 863 c174 -56 359 -194 465
-348 47 -69 107 -201 131 -290 18 -65 22 -107 22 -225 0 -118 -4 -160 -22
-225 -24 -89 -84 -221 -131 -290 -126 -183 -339 -326 -557 -374 l-43 -9 0 898
0 898 43 -9 c23 -5 65 -17 92 -26z"/>
</g>
</svg>
