<?xml version="1.0" standalone="no"?>
<!DOCTYPE svg PUBLIC "-//W3C//DTD SVG 20010904//EN"
 "http://www.w3.org/TR/2001/REC-SVG-20010904/DTD/svg10.dtd">
<svg version="1.0" xmlns="http://www.w3.org/2000/svg"
 width="512.000000pt" height="512.000000pt" viewBox="0 0 512.000000 512.000000"
 preserveAspectRatio="xMidYMid meet">

<g transform="translate(0.000000,512.000000) scale(0.100000,-0.100000)"
fill="#000000" stroke="none">
<path d="M1423 5105 c-56 -16 -121 -46 -165 -76 -21 -15 -32 -17 -53 -9 -45
17 -159 12 -219 -10 -60 -23 -133 -82 -166 -135 -19 -31 -23 -33 -51 -23 -49
17 -176 5 -234 -23 -66 -31 -137 -105 -165 -172 -21 -50 -27 -56 -77 -77 -66
-27 -141 -98 -173 -165 -21 -43 -25 -65 -26 -151 -1 -92 -3 -104 -27 -135 -45
-59 -62 -117 -62 -204 0 -62 6 -92 24 -132 l23 -53 -22 -51 c-47 -111 -35
-257 31 -360 24 -37 29 -57 29 -106 0 -142 95 -292 226 -355 42 -21 44 -24 37
-53 -4 -16 -8 -62 -7 -102 1 -93 34 -163 109 -232 49 -44 55 -54 55 -89 0
-110 69 -230 168 -293 l44 -28 -64 -32 c-234 -118 -415 -323 -508 -576 -56
-156 -60 -200 -60 -719 0 -453 1 -476 20 -528 28 -73 99 -147 175 -183 l60
-28 1169 -3 c1041 -2 1176 -1 1224 13 102 30 173 92 221 195 l26 55 3 415 c4
480 -4 597 -52 748 -7 22 -7 22 108 22 l115 0 3 -602 3 -603 28 -53 c37 -70
97 -128 166 -161 l56 -26 725 0 725 0 56 28 c67 32 142 109 171 174 22 51 36
194 24 257 -9 46 -50 94 -101 117 -34 16 -67 19 -222 19 l-182 0 -3 763 -3
762 -28 60 c-46 99 -117 160 -219 190 -49 14 -139 15 -754 13 l-699 -3 -60
-28 c-76 -36 -147 -110 -175 -183 -16 -43 -20 -78 -20 -169 0 -67 -4 -115 -10
-115 -5 0 -24 13 -42 28 -45 39 -110 82 -186 124 l-63 35 30 13 c46 19 122 99
149 159 15 33 27 80 30 120 4 63 6 68 42 94 83 59 137 183 127 291 -3 34 -8
68 -11 76 -4 11 9 23 48 43 69 36 150 121 182 191 13 29 29 91 35 137 8 60 22
105 47 156 29 59 36 87 40 151 4 78 -15 179 -40 210 -7 8 -4 27 12 65 48 111
34 251 -34 340 -33 43 -33 46 -24 96 26 144 -64 303 -205 361 -47 20 -54 27
-77 78 -33 77 -112 154 -185 181 -60 23 -174 29 -219 11 -21 -8 -27 -6 -37 12
-23 43 -95 111 -144 136 -58 29 -191 42 -245 23 -29 -9 -37 -7 -77 20 -97 67
-260 95 -370 64z m239 -186 c24 -12 62 -39 85 -60 49 -45 75 -48 133 -19 46
24 119 26 159 5 36 -18 80 -69 86 -101 3 -13 7 -35 10 -49 7 -35 44 -65 80
-65 17 0 48 12 70 28 34 23 50 27 105 27 53 0 71 -5 99 -24 38 -27 70 -91 71
-139 0 -46 34 -77 93 -85 88 -12 140 -57 158 -138 7 -30 4 -52 -12 -100 -25
-73 -19 -95 41 -146 21 -19 44 -50 50 -69 16 -48 7 -120 -19 -153 -12 -14 -29
-41 -38 -58 -16 -31 -16 -35 1 -65 10 -18 29 -53 42 -78 41 -75 30 -166 -28
-235 -22 -26 -26 -43 -30 -120 -3 -50 -13 -109 -23 -133 -18 -44 -99 -126
-135 -135 -19 -5 -20 -1 -20 62 0 49 -6 78 -22 111 l-23 45 39 39 c21 21 50
63 64 95 24 51 27 69 30 198 4 141 4 142 -22 168 -36 36 -89 35 -124 -3 -35
-38 -64 -52 -102 -52 -39 0 -90 47 -90 84 0 43 -39 77 -99 87 -90 14 -145 71
-157 163 -10 69 -39 91 -120 88 -81 -3 -122 15 -171 75 -21 25 -47 49 -60 54
-33 12 -78 -7 -105 -46 -32 -47 -85 -75 -144 -75 -57 0 -100 23 -138 73 -31
41 -76 60 -109 48 -13 -5 -40 -30 -62 -56 -48 -60 -87 -76 -172 -73 -60 2 -67
0 -88 -24 -13 -15 -25 -46 -29 -77 -11 -83 -85 -151 -164 -151 -42 0 -81 -34
-88 -78 -7 -43 -20 -64 -51 -80 -47 -26 -98 -11 -141 39 -29 35 -86 40 -123
10 -23 -19 -24 -24 -24 -163 0 -136 1 -146 28 -204 16 -34 46 -78 66 -98 l38
-37 -24 -47 c-20 -39 -24 -59 -21 -115 2 -37 2 -67 0 -67 -17 0 -86 47 -111
76 -45 51 -53 75 -60 185 -6 88 -9 99 -39 136 -64 82 -67 180 -7 274 42 64 43
88 10 127 -32 38 -55 93 -55 129 1 44 35 108 74 138 43 33 55 78 32 123 -22
42 -20 115 4 161 24 48 72 79 136 88 62 8 89 35 97 97 14 103 85 162 183 154
36 -3 65 -13 92 -31 39 -28 80 -34 111 -17 19 9 34 42 46 95 9 39 49 91 85
110 41 21 118 19 163 -5 54 -29 80 -25 132 20 53 46 74 58 130 77 54 18 153 9
207 -18z m-286 -951 c55 -31 65 -33 159 -33 101 0 126 7 200 54 18 11 27 9 71
-19 28 -17 78 -36 110 -42 59 -12 60 -12 83 -65 29 -66 114 -146 180 -169 39
-14 52 -26 74 -66 49 -88 137 -133 249 -126 l60 3 -6 -33 c-12 -78 -74 -133
-163 -145 -36 -4 -53 -16 -130 -94 -59 -60 -106 -97 -143 -115 -98 -46 -94
-47 -120 24 -31 85 -95 150 -169 172 -78 23 -513 23 -590 0 -73 -21 -142 -90
-166 -165 -10 -30 -21 -58 -26 -63 -4 -5 -41 7 -86 28 -63 30 -94 54 -160 122
-73 76 -86 85 -132 94 -80 15 -117 43 -146 112 -25 61 -22 65 44 60 110 -8
222 54 259 143 10 23 24 35 62 48 65 23 152 104 186 173 21 42 31 54 50 54 32
0 128 37 156 60 13 11 26 19 29 20 3 0 32 -15 65 -32z m433 -832 c11 -10 30
-48 42 -85 48 -146 65 -161 174 -142 37 7 91 21 121 32 74 28 194 109 243 165
l40 45 20 -20 c27 -27 28 -84 1 -118 -39 -50 -23 -104 44 -148 31 -21 66 -91
66 -133 0 -69 -45 -131 -117 -163 -23 -10 -49 -29 -59 -44 -15 -23 -15 -32 -4
-79 16 -70 7 -118 -33 -163 -36 -41 -81 -63 -130 -63 -47 0 -82 -31 -101 -88
-17 -51 -78 -118 -131 -145 -52 -26 -109 -30 -175 -13 -34 9 -68 16 -76 16 -8
0 -36 -20 -62 -44 -60 -55 -81 -66 -131 -66 -57 0 -88 15 -144 67 -52 49 -46
48 -157 23 -114 -26 -227 36 -281 157 -32 70 -59 93 -107 93 -105 0 -193 112
-164 209 24 80 13 106 -61 141 -89 42 -130 121 -107 204 9 33 26 58 66 94 45
41 54 55 54 83 0 19 -9 48 -20 64 -26 39 -25 83 1 111 l21 23 63 -62 c108
-108 257 -178 383 -181 78 -1 89 9 128 127 29 90 38 105 69 118 11 4 129 7
261 6 220 -2 244 -4 263 -21z m1234 -930 c41 -17 88 -66 104 -108 7 -22 12
-111 12 -255 l1 -223 -170 0 -171 0 3 248 c3 237 4 248 25 278 26 37 95 74
136 74 15 0 42 -6 60 -14z m1292 -5 c22 -10 48 -28 58 -39 46 -51 46 -56 47
-829 l0 -733 -312 0 c-283 0 -317 -2 -353 -19 -79 -36 -105 -84 -105 -194 0
-76 -21 -137 -56 -169 -27 -24 -88 -48 -121 -48 -44 0 -110 38 -135 78 l-23
37 -5 915 -5 915 -22 53 -23 52 508 0 c471 0 510 -2 547 -19z m-3418 -302 c82
-75 212 -117 323 -104 54 6 61 5 100 -24 116 -84 304 -80 404 8 14 12 41 16
120 17 123 0 185 22 283 95 72 55 70 55 168 6 168 -84 325 -230 339 -316 4
-29 19 -53 51 -86 53 -55 87 -149 104 -290 17 -137 14 -869 -3 -918 -34 -95
-85 -116 -273 -117 l-143 0 0 526 0 526 -29 29 c-31 31 -59 36 -94 17 -36 -19
-46 -40 -47 -95 0 -62 8 -60 -149 -37 -467 68 -852 230 -1159 488 -85 72 -222
216 -222 235 0 9 149 81 169 81 8 0 34 -18 58 -41z m-317 -205 c103 -129 312
-302 499 -412 288 -169 690 -296 1044 -328 l77 -7 0 -170 0 -170 -52 7 c-102
13 -322 68 -461 116 -177 59 -214 74 -372 149 -71 34 -137 61 -147 61 -29 0
-78 -54 -78 -85 0 -47 19 -64 128 -119 238 -119 539 -221 799 -271 76 -15 148
-28 161 -31 21 -4 22 -8 22 -135 l0 -130 -217 3 -218 3 -120 54 c-214 95 -411
215 -598 363 -136 109 -370 345 -490 495 -116 146 -247 337 -247 361 0 48 183
302 218 302 4 0 27 -25 52 -56z m-234 -615 c75 -100 230 -283 283 -333 l31
-30 0 -273 0 -273 -142 0 c-163 0 -207 13 -249 71 l-24 34 -2 475 c-2 451 -1
474 15 450 9 -13 49 -68 88 -121z m587 -613 c117 -93 229 -171 347 -241 l94
-55 -272 0 -272 0 0 185 c0 102 2 185 5 185 3 0 47 -33 98 -74z m3997 -96 c0
-33 -6 -75 -14 -93 -16 -39 -61 -82 -99 -96 -19 -7 -202 -11 -537 -11 l-509 0
21 47 c13 29 22 77 26 130 l5 83 553 0 554 0 0 -60z"/>
<path d="M1414 2976 c-51 -22 -62 -95 -21 -134 21 -20 34 -22 143 -22 112 0
122 2 141 23 11 12 24 32 27 44 9 29 -16 76 -49 91 -35 16 -202 15 -241 -2z"/>
<path d="M3529 1851 c-37 -38 -39 -82 -4 -116 l24 -25 334 0 c333 0 334 0 354
23 29 31 36 60 21 92 -24 53 -39 55 -383 55 l-317 0 -29 -29z"/>
<path d="M3526 1425 c-28 -26 -35 -77 -13 -106 28 -37 50 -39 376 -39 l320 0
27 24 c39 33 39 89 0 122 l-27 24 -328 0 -328 0 -27 -25z"/>
<path d="M3525 995 c-32 -31 -32 -75 -1 -112 l24 -28 318 -3 c346 -3 364 -1
390 50 17 33 11 62 -19 96 -20 22 -21 22 -354 22 l-334 0 -24 -25z"/>
</g>
</svg>
