<?xml version="1.0" standalone="no"?>
<!DOCTYPE svg PUBLIC "-//W3C//DTD SVG 20010904//EN"
 "http://www.w3.org/TR/2001/REC-SVG-20010904/DTD/svg10.dtd">
<svg version="1.0" xmlns="http://www.w3.org/2000/svg"
 width="40px" height="40px" viewBox="0 0 512.000000 512.000000"
 preserveAspectRatio="xMidYMid meet">

<g transform="translate(0.000000,512.000000) scale(0.100000,-0.100000)"
fill="#080808" stroke="none">
<path d="M269 4496 c-101 -27 -199 -111 -245 -209 -20 -44 -24 -67 -24 -152 0
-90 3 -106 30 -162 35 -76 101 -142 178 -180 l57 -28 288 -3 287 -3 0 -395 c0
-381 1 -395 20 -414 27 -27 81 -26 106 1 18 20 19 44 19 563 0 530 0 542 -22
611 -24 76 -67 151 -116 203 l-31 32 1120 0 c963 0 1128 -2 1183 -15 184 -44
332 -192 376 -376 8 -35 15 -110 15 -166 l0 -101 -27 -6 c-16 -3 -86 -10 -158
-17 -151 -14 -192 -27 -201 -63 -11 -45 3 -70 65 -116 33 -25 60 -48 61 -52 0
-4 -18 -20 -40 -34 -43 -28 -56 -58 -46 -99 9 -34 30 -43 196 -85 l145 -36 3
-181 c2 -168 1 -187 -22 -267 -29 -99 -52 -226 -61 -341 l-7 -80 -184 -186
c-171 -172 -184 -188 -184 -221 0 -40 36 -78 73 -78 13 0 86 65 204 182 l183
182 0 -427 0 -427 -1020 0 -1021 0 -24 -25 c-14 -13 -25 -36 -25 -50 0 -34 42
-75 76 -75 55 0 109 -25 156 -71 113 -113 80 -293 -67 -360 -154 -71 -422 64
-526 266 -66 126 -69 155 -69 587 l0 386 106 93 c114 100 124 113 124 157 0
41 -22 56 -132 87 l-97 27 -3 203 c-3 183 -5 205 -22 224 -25 27 -79 28 -106
1 -19 -19 -20 -33 -20 -268 0 -284 -4 -270 91 -298 30 -9 56 -18 58 -20 2 -2
-31 -35 -73 -75 l-76 -71 0 -418 c0 -335 3 -433 15 -491 45 -215 177 -388 367
-484 160 -80 81 -76 1443 -73 l1210 3 66 32 c202 100 272 352 150 540 -72 112
-171 163 -328 171 l-103 5 0 437 0 437 59 7 c81 9 241 49 329 82 92 34 104 52
92 144 -8 69 -7 74 26 84 17 5 24 0 34 -24 23 -55 49 -80 83 -80 107 0 530
391 530 490 0 40 -29 70 -67 70 -41 0 -41 -1 -128 -105 -91 -110 -264 -265
-295 -265 -6 0 -20 22 -32 50 -36 84 -85 99 -149 46 -27 -23 -31 -24 -70 -13
l-41 13 452 452 c249 249 455 452 458 452 20 0 -49 -261 -97 -369 -29 -65 -30
-105 -4 -131 25 -25 81 -26 103 -2 19 21 71 150 102 252 30 101 54 242 62 367
10 162 -7 174 -219 153 -141 -13 -313 -54 -448 -106 -115 -45 -145 -71 -137
-120 7 -39 6 -39 -56 -18 -46 16 -48 15 -92 -10 -131 -77 -324 -261 -428 -408
l-62 -89 -3 53 c-5 102 -14 112 -117 137 -27 7 -67 17 -88 22 l-38 10 21 26
c28 36 25 69 -10 105 -17 17 -30 31 -28 33 2 1 50 7 108 13 95 10 107 13 129
38 23 27 23 30 19 208 -4 162 -8 190 -31 262 -74 225 -259 391 -490 438 -67
14 -241 16 -1449 15 -1055 0 -1384 -3 -1419 -13z m326 -166 c71 -28 169 -120
202 -190 24 -53 43 -135 43 -190 l0 -40 -262 0 c-298 0 -313 3 -380 78 -81 90
-77 214 12 302 59 60 92 70 220 66 81 -2 119 -8 165 -26z m4235 -593 c0 -1
-279 -281 -621 -622 l-621 -620 6 52 c10 80 58 238 106 347 87 198 266 424
445 561 l71 54 112 -39 c128 -45 154 -48 182 -20 27 27 25 66 -6 135 -22 47
-24 59 -13 66 50 31 339 105 339 86z m-846 -1223 l7 -61 -73 -21 c-90 -27
-211 -52 -217 -46 -3 3 56 65 129 140 l135 134 6 -42 c3 -24 9 -70 13 -104z
m-145 -1324 c94 -27 161 -116 161 -214 0 -95 -44 -167 -125 -205 -45 -21 -48
-21 -1061 -21 l-1016 0 20 33 c35 56 55 144 50 217 -5 60 -17 97 -66 193 -6
11 1997 9 2037 -3z"/>
<path d="M1663 3780 c-46 -19 -57 -83 -20 -118 l23 -22 612 0 c599 0 612 0
632 20 30 30 27 83 -6 109 -26 21 -34 21 -623 20 -328 0 -606 -4 -618 -9z"/>
<path d="M1645 3105 c-14 -13 -25 -36 -25 -50 0 -14 11 -37 25 -50 l24 -25
609 0 c598 0 609 0 630 20 30 28 30 82 0 110 -21 20 -32 20 -630 20 l-609 0
-24 -25z"/>
<path d="M1642 2447 c-29 -31 -28 -72 3 -102 l24 -25 604 0 c596 0 605 0 631
21 33 26 36 79 6 109 -20 20 -33 20 -633 20 l-614 0 -21 -23z"/>
<path d="M1640 1788 c-42 -45 -15 -111 52 -123 18 -3 295 -5 614 -3 556 3 583
4 603 22 27 25 29 86 3 109 -17 15 -75 17 -635 17 l-616 0 -21 -22z"/>
</g>
</svg>
