<?xml version="1.0" standalone="no"?>
<!DOCTYPE svg PUBLIC "-//W3C//DTD SVG 20010904//EN"
 "http://www.w3.org/TR/2001/REC-SVG-20010904/DTD/svg10.dtd">
<svg version="1.0" xmlns="http://www.w3.org/2000/svg"
 width="40px" height="40px" viewBox="0 0 512.000000 512.000000"
 preserveAspectRatio="xMidYMid meet">

<g transform="translate(0.000000,512.000000) scale(0.100000,-0.100000)"
fill="#d6d6d6" stroke="none">
<path d="M2395 5113 c-60 -5 -203 -32 -262 -49 -63 -17 -93 -51 -93 -104 0
-42 29 -86 67 -101 17 -6 60 -1 151 18 109 23 151 27 297 27 193 0 295 -16
463 -70 215 -70 393 -178 560 -338 139 -134 218 -242 302 -411 117 -236 155
-403 154 -685 -1 -268 -37 -476 -117 -676 -80 -197 -184 -340 -447 -609 -259
-265 -329 -365 -361 -523 l-13 -62 -536 0 -536 0 -11 53 c-36 168 -101 264
-358 527 -207 212 -300 326 -376 457 -85 149 -144 331 -176 538 -23 154 -23
459 0 577 50 250 141 458 282 643 30 39 59 84 65 99 31 82 -70 166 -147 123
-44 -25 -184 -221 -252 -355 -66 -129 -132 -338 -163 -512 -19 -111 -16 -457
6 -600 34 -230 84 -388 178 -571 85 -165 186 -294 425 -540 210 -216 265 -287
297 -382 22 -66 21 -74 -19 -93 -54 -25 -118 -87 -148 -142 -92 -170 -27 -381
146 -468 l47 -24 0 -115 0 -115 -32 0 c-76 -1 -125 -97 -82 -158 18 -26 64
-52 92 -52 17 0 20 -10 24 -93 8 -145 67 -240 183 -298 l50 -24 505 0 c497 0
506 0 552 22 61 28 127 95 157 158 18 37 25 74 29 142 4 83 7 93 24 93 28 0
74 26 92 52 43 61 -6 157 -81 158 l-33 0 0 115 0 115 50 25 c132 67 208 221
180 363 -22 107 -94 203 -185 246 -41 20 -42 27 -15 102 33 94 77 150 294 374
115 118 244 262 286 319 212 281 318 609 336 1037 22 520 -157 975 -523 1324
-355 340 -836 508 -1328 463z m862 -3813 c18 -10 39 -30 48 -44 21 -32 22 -94
1 -134 -33 -64 -7 -62 -747 -62 -655 0 -672 0 -704 20 -38 23 -59 67 -57 117
2 44 23 78 65 103 31 19 55 20 697 20 642 0 666 -1 697 -20z m-167 -565 l0
-105 -530 0 -530 0 0 105 0 105 530 0 530 0 0 -105z m0 -375 c0 -72 -19 -114
-60 -135 -44 -23 -896 -23 -940 0 -41 21 -60 63 -60 135 l0 60 530 0 530 0 0
-60z"/>
<path d="M1641 4844 c-57 -48 -47 -135 19 -169 72 -37 149 8 150 88 0 49 -13
73 -50 92 -43 22 -84 19 -119 -11z"/>
<path d="M239 4801 c-37 -38 -40 -97 -6 -136 29 -34 465 -285 495 -285 90 0
143 119 78 179 -11 11 -120 76 -240 145 -248 143 -273 150 -327 97z"/>
<path d="M4579 4719 c-244 -141 -271 -158 -288 -193 -29 -61 28 -146 98 -146
32 0 457 242 494 281 60 65 17 169 -71 169 -31 0 -76 -22 -233 -111z"/>
<path d="M2445 4409 c-224 -35 -422 -162 -549 -353 -120 -180 -161 -445 -91
-575 100 -183 334 -226 488 -90 60 52 97 129 107 220 9 78 26 110 80 147 113
77 273 -45 231 -176 -7 -24 -55 -84 -136 -172 -143 -154 -210 -246 -265 -363
-83 -179 -88 -341 -15 -457 l25 -40 -24 -38 c-14 -20 -33 -66 -41 -101 -38
-146 39 -299 184 -364 72 -33 179 -30 253 6 100 49 162 137 183 258 9 47 -18
152 -51 201 l-24 38 25 40 c25 40 55 135 55 175 0 33 59 112 183 242 130 138
164 182 212 286 57 120 70 184 70 342 -1 131 -3 146 -33 233 -36 104 -65 160
-128 242 -104 137 -264 242 -435 284 -83 20 -226 28 -304 15z m250 -221 c155
-32 311 -157 383 -308 65 -136 78 -255 42 -394 -30 -118 -71 -184 -198 -320
-177 -187 -252 -296 -252 -366 0 -83 -45 -140 -110 -140 -152 0 -133 230 38
455 33 44 109 131 167 194 137 145 160 190 160 316 0 77 -4 99 -27 147 -35 76
-107 151 -177 185 -50 25 -67 28 -161 28 -94 0 -111 -3 -161 -28 -113 -55
-194 -175 -206 -304 -5 -59 -10 -72 -39 -100 -45 -46 -93 -46 -140 1 -28 28
-34 41 -34 78 0 141 66 296 169 399 151 150 331 202 546 157z m-64 -1777 c43
-43 43 -100 -1 -145 -76 -78 -207 9 -165 110 29 69 114 87 166 35z"/>
<path d="M163 3526 c-52 -24 -77 -90 -52 -139 27 -53 42 -57 217 -57 l164 0
29 29 c41 41 41 98 0 143 l-29 33 -149 3 c-111 2 -156 -1 -180 -12z"/>
<path d="M4643 3533 c-37 -7 -73 -59 -73 -105 0 -30 7 -46 29 -69 l29 -29 164
0 c175 0 190 4 217 57 25 50 -1 116 -54 139 -33 13 -253 18 -312 7z"/>
<path d="M482 2353 c-123 -71 -234 -139 -248 -152 -36 -35 -34 -103 5 -142 54
-53 77 -46 336 104 203 116 232 136 248 169 33 67 -5 135 -80 145 -34 4 -59
-7 -261 -124z"/>
<path d="M4340 2467 c-14 -7 -33 -29 -43 -50 -16 -31 -17 -43 -7 -71 6 -19 18
-40 27 -48 9 -7 115 -70 237 -140 250 -144 274 -152 327 -99 39 39 41 106 5
142 -38 38 -466 279 -495 279 -14 0 -37 -6 -51 -13z"/>
</g>
</svg>
