<?xml version="1.0" standalone="no"?>
<!DOCTYPE svg PUBLIC "-//W3C//DTD SVG 20010904//EN"
 "http://www.w3.org/TR/2001/REC-SVG-20010904/DTD/svg10.dtd">
<svg version="1.0" xmlns="http://www.w3.org/2000/svg"
 width="40px" height="40px" viewBox="0 0 512.000000 512.000000"
 preserveAspectRatio="xMidYMid meet">

<g transform="translate(0.000000,512.000000) scale(0.100000,-0.100000)"
fill="#d6d6d6" stroke="none">
<path d="M2377 5109 c-306 -35 -602 -156 -842 -344 -91 -72 -240 -221 -307
-310 -347 -457 -432 -1077 -224 -1622 51 -134 95 -216 243 -453 222 -354 318
-571 357 -805 29 -174 36 -201 65 -247 16 -25 45 -55 65 -67 l36 -23 0 -366
c0 -225 4 -382 11 -405 12 -43 59 -101 100 -122 21 -11 29 -25 34 -57 18 -106
102 -214 202 -261 47 -22 56 -22 443 -22 l395 0 56 26 c101 47 182 152 195
253 5 34 13 47 35 60 39 23 67 53 90 98 18 35 19 63 19 418 0 209 4 380 8 380
20 0 92 74 112 114 12 25 29 98 40 168 45 291 130 487 385 888 121 192 155
254 209 386 95 232 131 439 123 704 -5 192 -26 314 -79 475 -57 171 -206 447
-257 474 -11 6 -29 11 -41 11 -27 0 -70 -43 -70 -71 0 -12 22 -56 49 -98 107
-167 180 -343 223 -532 20 -91 23 -130 23 -314 -1 -178 -4 -225 -23 -311 -49
-224 -121 -389 -286 -648 -174 -274 -256 -426 -319 -596 -36 -98 -80 -281 -92
-385 -4 -33 -13 -72 -21 -87 -31 -60 -7 -58 -779 -58 l-705 0 -36 32 c-33 31
-36 38 -50 141 -40 286 -129 507 -345 853 -179 288 -217 355 -259 461 -212
533 -137 1100 205 1538 224 288 555 488 930 562 135 27 425 24 561 -5 258 -55
496 -170 684 -330 35 -30 74 -59 87 -65 55 -25 117 36 93 92 -13 33 -123 127
-239 204 -313 210 -728 310 -1104 266z m823 -3969 l0 -70 -414 0 -415 0 -27
-23 c-35 -31 -38 -82 -5 -109 22 -17 50 -18 442 -18 l419 0 0 -70 0 -70 -640
0 -640 0 0 70 0 70 100 0 c87 0 103 3 120 20 30 30 27 83 -6 109 -23 18 -41
21 -120 21 l-94 0 0 70 0 70 640 0 640 0 0 -70z m0 -572 c0 -107 59 -98 -641
-98 l-608 0 -15 22 c-10 14 -16 44 -16 80 l0 58 640 0 640 0 0 -62z m-140
-257 c0 -46 -55 -114 -115 -142 -36 -17 -70 -19 -385 -19 -314 0 -349 2 -385
19 -22 10 -50 29 -62 42 -26 28 -55 94 -46 103 10 10 993 7 993 -3z"/>
<path d="M2435 4321 c-70 -32 -104 -91 -105 -184 0 -36 -4 -49 -17 -54 -10 -3
-45 -17 -78 -30 -96 -40 -100 -40 -146 1 -47 43 -76 56 -129 56 -58 0 -85 -14
-152 -78 -116 -109 -128 -194 -42 -298 35 -43 41 -63 25 -79 -5 -6 -23 -44
-39 -85 l-30 -75 -58 -6 c-139 -14 -191 -86 -182 -255 7 -131 60 -191 178
-201 58 -6 60 -7 71 -42 6 -20 25 -65 40 -100 l29 -63 -31 -36 c-59 -67 -72
-130 -44 -200 20 -46 107 -137 157 -163 70 -36 147 -21 214 42 l30 29 65 -28
c35 -16 80 -35 100 -41 35 -11 36 -13 42 -71 6 -71 34 -120 84 -152 44 -27
188 -38 246 -19 79 26 126 95 127 184 0 36 4 49 18 54 9 3 54 21 99 40 l83 35
43 -36 c67 -55 129 -70 192 -46 38 14 155 129 171 167 16 38 18 101 4 137 -5
14 -26 44 -46 66 l-38 42 18 46 c10 26 26 70 36 97 l18 50 65 7 c145 14 192
80 186 255 -4 81 -7 93 -33 127 -36 48 -96 75 -164 76 -52 0 -53 1 -68 38 -8
20 -26 63 -41 94 l-26 57 42 46 c23 25 46 57 51 71 14 37 12 111 -4 142 -21
39 -136 149 -169 161 -71 27 -142 7 -209 -57 l-38 -36 -57 27 c-32 14 -74 33
-94 41 -37 14 -37 14 -41 84 -7 127 -75 182 -228 182 -61 0 -96 -6 -125 -19z
m206 -208 c6 -81 33 -132 84 -157 83 -41 228 -96 254 -96 44 0 81 17 133 61
26 21 50 39 54 39 15 0 94 -84 94 -100 0 -9 -16 -32 -36 -51 -41 -39 -64 -85
-64 -129 0 -27 55 -173 97 -258 25 -49 75 -75 157 -81 l71 -6 0 -75 0 -75 -70
-6 c-38 -3 -80 -10 -91 -17 -36 -19 -71 -68 -89 -124 -10 -29 -28 -74 -41
-100 -28 -55 -32 -134 -10 -176 8 -15 28 -40 45 -56 17 -17 31 -37 31 -45 0
-18 -79 -101 -96 -101 -6 0 -18 8 -25 17 -8 9 -34 29 -58 45 -58 36 -116 37
-191 2 -30 -14 -82 -37 -114 -50 -97 -39 -127 -79 -136 -179 l-5 -60 -63 -3
c-78 -4 -92 6 -92 65 0 90 -38 138 -141 176 -36 14 -83 34 -105 45 -88 45
-169 35 -229 -28 -16 -17 -34 -30 -42 -30 -15 0 -80 56 -94 81 -8 15 -2 29 30
69 48 60 60 116 38 175 -18 49 -63 159 -82 202 -22 51 -77 86 -143 91 -31 2
-63 9 -69 14 -13 11 -18 104 -7 132 4 12 20 16 54 16 27 0 61 5 77 11 45 17
91 69 109 123 9 28 30 77 45 108 39 77 39 138 1 199 -16 24 -36 50 -45 58 -9
7 -17 18 -17 24 0 18 82 97 100 97 9 0 29 -14 46 -31 34 -36 57 -49 101 -60
41 -9 73 -1 198 51 141 58 175 95 175 189 0 80 2 82 84 79 l71 -3 6 -72z"/>
<path d="M2450 3794 c-196 -42 -360 -195 -415 -387 -31 -108 -16 -287 31 -380
147 -287 477 -392 759 -244 162 86 285 291 285 477 0 251 -189 483 -437 535
-83 18 -138 18 -223 -1z m253 -164 c266 -100 340 -447 137 -650 -157 -157
-413 -151 -566 12 -150 160 -141 404 20 556 113 107 262 137 409 82z"/>
</g>
</svg>
