<?xml version="1.0" standalone="no"?>
<!DOCTYPE svg PUBLIC "-//W3C//DTD SVG 20010904//EN"
 "http://www.w3.org/TR/2001/REC-SVG-20010904/DTD/svg10.dtd">
<svg version="1.0" xmlns="http://www.w3.org/2000/svg"
 width="40px" height="40px" viewBox="0 0 512.000000 512.000000"
 preserveAspectRatio="xMidYMid meet">

<g transform="translate(0.000000,512.000000) scale(0.100000,-0.100000)"
fill="#d6d6d6" stroke="none">
<path d="M2534 4920 c-54 -22 -54 -19 -54 -495 l0 -440 -118 -17 c-155 -22
-272 -57 -409 -123 -393 -188 -662 -516 -776 -943 -30 -114 -31 -123 -31 -337
-1 -207 1 -226 26 -325 70 -276 192 -494 383 -685 118 -118 243 -206 398 -280
137 -66 254 -101 409 -123 l118 -17 0 -442 0 -442 23 -27 c33 -37 81 -37 114
0 l23 27 0 443 0 443 68 7 c633 65 1155 559 1257 1191 8 49 15 151 15 225 0
228 -41 411 -135 607 -217 453 -647 759 -1137 809 l-68 7 0 443 0 443 -22 25
c-27 29 -55 38 -84 26z m-54 -2360 l0 -1260 -29 0 c-16 0 -66 7 -112 16 -395
75 -726 320 -904 670 -156 304 -179 674 -65 999 125 356 425 651 783 771 92
31 233 62 290 63 l37 1 0 -1260z"/>
<path d="M1655 4735 c-14 -13 -25 -33 -25 -45 0 -30 230 -602 251 -624 24 -26
81 -26 109 -1 12 11 20 31 20 52 0 38 -220 595 -246 624 -25 28 -79 25 -109
-6z"/>
<path d="M950 4287 c-36 -18 -53 -58 -40 -93 9 -23 120 -144 400 -436 46 -47
62 -58 88 -58 43 0 82 38 82 80 0 27 -24 56 -162 202 -90 94 -192 201 -228
239 -69 73 -99 87 -140 66z"/>
<path d="M426 3559 c-31 -25 -35 -76 -8 -107 24 -28 569 -275 609 -275 60 -2
96 58 69 111 -10 20 -35 38 -78 57 -35 15 -166 75 -292 132 -126 56 -239 103
-251 103 -12 0 -34 -9 -49 -21z"/>
<path d="M224 2617 c-37 -33 -37 -81 0 -114 l27 -23 319 0 c216 0 327 4 344
11 55 26 55 112 0 138 -17 7 -128 11 -344 11 l-319 0 -27 -23z"/>
<path d="M725 1820 c-159 -72 -298 -140 -307 -152 -27 -31 -23 -82 8 -107 15
-12 36 -21 48 -21 11 0 153 59 314 132 247 111 296 136 308 160 16 31 10 69
-14 91 -40 36 -58 31 -357 -103z"/>
<path d="M1310 1362 c-280 -292 -391 -413 -400 -436 -20 -54 37 -115 95 -100
14 3 53 37 88 74 34 37 135 144 225 238 138 146 162 175 162 202 0 42 -39 80
-82 80 -26 0 -42 -11 -88 -58z"/>
<path d="M1888 1058 c-18 -16 -62 -114 -142 -316 -64 -160 -116 -301 -116
-312 0 -56 96 -93 134 -51 26 29 246 586 246 624 0 64 -76 98 -122 55z"/>
</g>
</svg>
