<?xml version="1.0" standalone="no"?>
<!DOCTYPE svg PUBLIC "-//W3C//DTD SVG 20010904//EN"
 "http://www.w3.org/TR/2001/REC-SVG-20010904/DTD/svg10.dtd">
<svg version="1.0" xmlns="http://www.w3.org/2000/svg"
 width="400.000000pt" height="400.000000pt" viewBox="0 0 400.000000 400.000000"
 preserveAspectRatio="xMidYMid meet">

<g transform="translate(0.000000,400.000000) scale(0.100000,-0.100000)"
fill="#d6d6d6" stroke="none">
<path d="M1340 3954 c-362 -49 -700 -231 -935 -502 -200 -231 -320 -500 -360
-805 -19 -148 -19 -226 0 -374 44 -339 191 -639 430 -878 266 -266 607 -416
1000 -441 320 -20 704 99 967 300 l34 25 67 -67 66 -67 -14 -40 c-19 -54 -19
-131 1 -191 15 -44 59 -91 408 -442 438 -440 445 -446 561 -446 101 0 145 23
265 141 120 119 144 165 144 268 0 53 -5 81 -23 115 -30 58 -779 812 -836 842
-54 28 -156 35 -215 14 l-45 -15 -67 66 -67 67 25 34 c201 263 320 647 300
967 -25 393 -175 734 -441 1000 -239 239 -539 386 -878 430 -141 18 -246 18
-387 -1z m396 -279 c129 -23 239 -58 353 -115 366 -184 606 -521 672 -942 15
-96 7 -305 -16 -408 -107 -488 -473 -852 -965 -957 -118 -25 -362 -25 -480 0
-375 80 -681 312 -853 644 -381 738 64 1629 888 1777 107 19 292 19 401 1z"/>
<path d="M718 2765 c-65 -142 -73 -182 -72 -360 0 -154 1 -164 33 -255 92
-272 302 -473 573 -550 94 -27 255 -37 353 -21 119 20 269 77 330 126 19 15
17 15 -35 9 -65 -7 -242 11 -320 32 -305 85 -546 274 -693 544 -74 136 -116
285 -126 454 l-6 100 -37 -79z"/>
</g>
</svg>
