<?xml version="1.0" standalone="no"?>
<!DOCTYPE svg PUBLIC "-//W3C//DTD SVG 20010904//EN"
 "http://www.w3.org/TR/2001/REC-SVG-20010904/DTD/svg10.dtd">
<svg version="1.0" xmlns="http://www.w3.org/2000/svg"
 width="768.000000pt" height="512.000000pt" viewBox="0 0 768.000000 512.000000"
 preserveAspectRatio="xMidYMid meet">

<g transform="translate(0.000000,512.000000) scale(0.100000,-0.100000)"
fill="#080808" stroke="none">
<path d="M0 2560 l0 -2560 1449 0 1450 0 7 48 c3 26 11 54 16 62 6 10 7 3 3
-22 -4 -25 -2 -38 5 -38 7 0 5 -7 -4 -16 -29 -28 -17 -34 73 -34 l88 0 -5 51
c-3 35 -1 54 8 59 15 10 27 100 12 100 -5 0 -8 9 -5 21 4 12 0 25 -8 30 -12 8
-12 11 1 22 9 6 14 20 12 30 -3 13 -7 15 -15 8 -9 -7 -19 -2 -34 15 -12 14
-17 26 -11 30 5 3 7 13 4 21 -4 9 1 17 14 20 26 7 26 23 0 23 -11 0 -20 4 -20
10 0 5 6 9 13 7 6 -1 12 8 12 20 0 12 11 32 23 44 13 11 21 23 18 26 -3 3 -17
-9 -32 -26 -14 -17 -30 -29 -35 -25 -9 5 -16 -7 -22 -41 -2 -11 -7 -28 -12
-37 -4 -10 -4 -26 -1 -35 4 -10 4 -14 -1 -10 -6 7 -52 -157 -53 -192 0 -7 -11
-24 -24 -36 -14 -13 -22 -26 -19 -29 4 -3 1 -6 -5 -6 -6 0 -14 -21 -18 -48 -8
-45 -9 -43 -20 58 -15 135 -3 223 59 420 25 80 50 170 57 200 20 92 107 351
154 457 24 54 60 148 79 208 19 61 66 175 105 255 38 80 91 192 118 250 94
205 154 282 327 422 131 105 298 217 323 218 7 0 14 -15 17 -32 27 -164 35
-206 41 -216 4 -7 3 -12 -2 -12 -6 0 -21 -19 -35 -42 -14 -24 -43 -58 -66 -76
-46 -37 -50 -47 -21 -62 17 -9 23 -5 49 37 19 30 41 52 60 60 28 10 32 9 50
-15 20 -27 20 -27 35 -7 8 11 16 16 16 10 1 -5 5 -1 10 10 7 17 9 17 9 3 1
-10 6 -18 11 -18 6 0 9 14 8 30 -1 17 -8 30 -15 30 -7 0 -13 5 -13 10 0 6 5
10 11 10 6 0 8 9 4 20 -3 11 -4 20 -1 20 6 0 32 -90 42 -145 7 -37 6 -39 -10
-26 -19 16 -20 15 -46 -31 -6 -9 -20 -18 -32 -20 -22 -3 -21 -4 7 -20 l30 -17
-37 -1 c-29 0 -36 -3 -32 -15 4 -8 2 -15 -4 -15 -21 0 -20 -41 3 -68 21 -25
24 -26 50 -12 15 8 36 32 46 53 11 21 24 35 28 32 5 -2 8 3 7 13 -1 13 5 16
24 13 31 -4 46 -24 22 -31 -33 -10 -50 -25 -54 -50 -2 -14 -9 -24 -16 -23 -6
2 -12 -4 -12 -13 0 -12 7 -15 25 -12 21 4 23 3 13 -9 -6 -8 -21 -13 -32 -11
-12 1 -23 0 -26 -2 -8 -7 61 -80 76 -80 7 0 15 -6 17 -12 4 -10 8 -9 17 2 9
12 10 11 5 -7 -4 -14 -2 -23 5 -23 6 0 20 -9 32 -20 12 -10 24 -17 28 -15 4 3
20 -14 36 -38 16 -23 40 -51 53 -61 13 -11 49 -58 80 -105 83 -128 112 -161
140 -161 13 0 39 -12 58 -26 43 -32 180 -96 215 -99 14 -1 41 -12 60 -23 28
-18 30 -22 12 -22 -36 0 -71 -44 -94 -116 -12 -38 -24 -82 -26 -99 -3 -16 -11
-64 -19 -105 -7 -41 -16 -95 -20 -120 -3 -25 -15 -103 -26 -175 -11 -71 -20
-157 -20 -190 0 -41 -3 -55 -9 -45 -5 8 -10 10 -10 5 0 -6 4 -15 10 -21 5 -5
6 -24 1 -45 -5 -20 -5 -43 -1 -50 4 -8 4 -39 0 -69 -5 -30 -9 -81 -9 -112 l-1
-58 81 0 81 0 -6 27 c-3 16 -8 60 -10 98 -3 39 -2 57 1 41 3 -22 7 -26 14 -15
7 11 9 11 9 1 0 -10 4 -10 15 2 10 10 14 28 12 51 -3 24 0 35 9 35 7 0 15 6
18 13 3 6 5 -5 3 -25 -3 -34 0 -38 20 -38 14 0 23 -6 23 -15 0 -17 16 -20 25
-5 4 6 15 2 27 -10 25 -23 46 -27 28 -5 -7 8 -9 15 -4 15 5 0 -2 6 -15 13 -24
12 -49 57 -32 57 5 0 12 -7 15 -15 3 -9 19 -21 36 -26 38 -14 52 -56 25 -76
-18 -13 -18 -13 -1 -13 11 0 25 -8 32 -17 20 -27 17 -38 -6 -18 -13 11 -25 15
-37 10 -10 -5 -20 -9 -23 -9 -3 -1 -10 -5 -17 -9 -7 -4 -16 -1 -21 8 -8 15
-10 15 -21 1 -11 -13 -16 -12 -39 9 -15 14 -29 25 -33 25 -13 0 -52 -54 -41
-58 7 -2 12 -15 12 -28 l0 -24 156 0 c147 0 156 1 161 20 5 19 67 40 80 26 4
-3 -1 -6 -10 -6 -9 0 -19 -5 -23 -12 -4 -7 -3 -8 4 -4 7 4 12 1 12 -8 0 -23
28 -19 35 4 4 12 4 40 1 63 -4 31 -3 35 3 17 5 -14 9 -42 10 -62 l1 -38 70 0
c40 0 70 4 70 10 0 6 -4 10 -9 10 -5 0 -12 7 -15 16 -4 12 -2 15 9 11 8 -4 17
-2 20 4 11 17 25 -2 19 -27 l-6 -24 1026 0 1026 0 0 2560 0 2560 -3840 0
-3840 0 0 -2560z m4964 1797 l65 -32 -38 -32 -38 -32 5 26 c5 25 5 25 -26 9
-40 -21 -40 -21 -34 9 2 14 9 25 15 25 6 0 2 7 -9 15 -19 15 -19 15 1 9 16 -5
17 -4 5 5 -8 6 -27 8 -42 5 -31 -6 -71 3 -63 16 3 4 -12 4 -33 0 -88 -18 -103
-20 -96 -9 14 23 -96 -56 -177 -127 -26 -22 -77 -53 -113 -70 -70 -31 -70 -32
-57 -53 7 -11 21 -8 75 13 95 38 210 66 273 66 47 0 54 2 49 18 -3 9 -2 23 3
31 7 11 16 10 53 -8 24 -11 51 -21 59 -22 8 0 -2 -6 -21 -12 -34 -10 -33 -11
50 -22 47 -7 116 -20 153 -30 58 -15 70 -16 77 -5 5 8 7 17 4 21 -2 4 0 10 6
14 5 3 10 14 10 24 0 10 9 26 20 36 11 10 17 22 14 26 -3 5 2 6 12 2 14 -5 15
-3 5 18 l-12 24 21 -24 c16 -19 21 -36 19 -80 -1 -31 2 -65 6 -76 6 -19 6 -19
-8 -2 -13 16 -15 15 -27 -13 -7 -16 -18 -30 -26 -30 -7 0 -15 -4 -18 -9 -7
-11 22 -71 35 -71 14 0 11 -28 -3 -33 -7 -2 -5 -3 5 -1 12 1 25 -9 38 -29 l19
-32 -27 -13 -28 -13 34 4 c30 3 35 0 47 -30 15 -34 11 -58 -7 -47 -5 3 -8 0
-7 -7 2 -7 -8 -16 -22 -20 -25 -7 -25 -7 4 -8 16 -1 34 6 40 13 10 13 14 13
36 0 l25 -15 -27 4 c-21 3 -29 -1 -34 -15 -4 -15 -9 -17 -17 -9 -6 6 -23 11
-39 11 -20 0 -26 -4 -22 -15 4 -9 0 -15 -9 -15 -9 0 -22 7 -31 15 -8 8 -23 15
-33 15 -12 0 -9 -5 12 -16 17 -8 35 -20 40 -26 6 -7 -2 -4 -17 5 -34 21 -52
21 -72 2 -13 -13 -15 -13 -21 5 -7 23 -25 27 -25 5 0 -8 -6 -15 -13 -15 -15 0
-48 36 -40 44 10 10 -19 7 -53 -6 -18 -6 -35 -20 -37 -30 -3 -12 -11 -16 -21
-12 -9 3 -16 1 -16 -5 0 -18 -79 -63 -101 -56 -10 4 -19 10 -19 15 0 4 -11 10
-24 12 -19 4 -24 1 -23 -14 1 -14 7 -18 21 -14 30 8 73 -21 78 -51 1 -5 7 -12
13 -18 7 -5 19 -28 26 -50 7 -22 14 -34 16 -27 6 17 23 15 23 -3 0 -8 -6 -15
-12 -16 -36 -3 -75 4 -89 17 -21 19 -30 18 -23 -3 5 -17 5 -17 -5 -1 -12 17
-66 48 -85 48 -6 -1 0 -10 13 -21 13 -11 21 -22 18 -25 -9 -9 -64 6 -76 20 -9
10 -23 11 -59 4 -70 -14 -142 -38 -142 -48 0 -5 -13 -4 -30 1 -20 7 -40 7 -62
1 -35 -11 -173 -10 -184 1 -4 3 -20 -1 -37 -9 -22 -12 -31 -13 -37 -4 -5 8
-14 3 -29 -16 -28 -35 -38 -24 -18 19 9 19 21 71 26 116 7 67 17 98 51 164 80
153 141 247 193 293 49 44 50 46 22 40 -47 -10 -75 -14 -75 -10 0 2 19 29 42
60 40 52 43 55 49 33 5 -24 5 -24 11 3 3 15 1 25 -3 22 -20 -12 -7 15 14 30
12 9 15 14 7 11 -10 -4 -9 -2 3 8 9 8 17 19 17 25 0 24 25 23 81 -3 l59 -29
64 62 c91 87 108 94 238 87 96 -5 115 -9 172 -38z m103 -33 c-3 -3 -12 -4 -19
-1 -8 3 -5 6 6 6 11 1 17 -2 13 -5z m177 -240 c12 -5 9 -11 -14 -31 -36 -29
-61 -24 -58 12 2 20 8 25 29 25 15 0 34 -3 43 -6z m-1040 -29 c-4 -8 -11 -15
-16 -15 -6 0 -5 6 2 15 7 8 14 15 16 15 2 0 1 -7 -2 -15z m1039 -346 c-8 -8
-19 -8 -40 -1 -28 10 -28 10 12 11 28 1 36 -2 28 -10z m31 2 c3 -5 -1 -11 -9
-14 -9 -4 -12 -1 -8 9 6 16 10 17 17 5z m-64 -21 c14 -4 18 -9 10 -10 -9 -1
-5 -6 10 -13 l25 -11 -28 -4 c-20 -2 -34 3 -48 19 -10 12 -19 24 -19 26 0 5
22 2 50 -7z m-290 -16 c0 -2 -4 -12 -9 -22 -5 -9 -14 -39 -20 -67 -14 -58 -17
-63 -33 -47 -8 8 -8 15 2 27 7 8 10 24 7 35 -3 11 0 35 5 54 8 26 15 32 29 29
11 -3 19 -7 19 -9z m50 -29 c10 -11 8 -19 -8 -39 -23 -30 -32 -24 -32 21 0 36
18 44 40 18z m-146 -33 c2 -4 1 -14 -4 -21 -6 -11 -10 -9 -19 8 -10 17 -9 21
3 21 8 0 17 -4 20 -8z m493 -37 c17 -24 12 -28 -23 -15 -23 9 -32 8 -54 -8
-14 -11 -36 -22 -48 -26 -21 -7 -22 -5 -16 21 12 48 23 56 78 50 32 -3 54 -11
63 -22z m-367 -9 c0 -3 -4 -8 -10 -11 -5 -3 -10 -1 -10 4 0 6 5 11 10 11 6 0
10 -2 10 -4z m147 -11 c0 -8 -6 -15 -14 -15 -14 0 -17 12 -6 23 11 11 20 8 20
-8z m23 -40 c-7 -8 -20 -15 -29 -15 -13 1 -13 3 3 15 26 19 42 19 26 0z m-73
-47 c-3 -8 -6 -5 -6 6 -1 11 2 17 5 13 3 -3 4 -12 1 -19z m-413 -35 c41 -6 83
-33 52 -33 -8 0 -26 4 -40 9 -13 6 -47 11 -75 13 -35 2 -51 7 -51 17 0 10 9
12 38 7 20 -4 55 -9 76 -13z m-475 -59 c2 -2 -7 -4 -22 -4 -14 0 -38 -5 -53
-10 -33 -13 -40 -8 -19 13 11 11 26 14 53 10 20 -3 39 -7 41 -9z m735 -15 c-3
-5 -9 -7 -14 -4 -4 3 -11 -2 -14 -10 -3 -8 -9 -14 -13 -14 -16 4 -43 -14 -43
-28 0 -12 2 -12 16 1 19 20 34 20 34 2 0 -8 8 -17 18 -21 22 -6 48 -55 31 -55
-6 0 -24 -9 -40 -21 -16 -11 -29 -17 -29 -12 0 4 -8 -7 -16 -24 -12 -24 -23
-33 -40 -33 -13 0 -24 -4 -24 -10 0 -5 -5 -10 -11 -10 -6 0 -26 -7 -45 -16
-33 -16 -34 -16 -99 22 -64 38 -83 57 -46 47 10 -2 26 3 35 13 10 9 27 18 39
20 12 1 34 7 50 13 15 6 27 8 27 5 0 -3 14 3 30 13 22 12 30 25 30 45 0 28 33
68 58 68 7 0 20 7 28 15 15 15 48 10 38 -6z m277 -22 c-12 -12 -31 0 -31 19 0
12 3 12 20 2 11 -7 16 -16 11 -21z m-765 -5 c-4 -3 3 -11 15 -18 l22 -12 -21
-6 c-25 -8 -28 -19 -8 -35 10 -8 16 -9 21 -1 3 5 0 10 -7 11 -7 0 -2 6 11 12
17 8 26 8 28 1 2 -6 14 -26 28 -44 20 -27 22 -36 13 -56 -6 -13 -15 -24 -19
-24 -10 0 0 -30 17 -50 11 -13 9 -19 -12 -39 -26 -25 -88 -38 -99 -21 -3 5 -1
10 4 10 6 0 11 8 11 17 0 14 -4 13 -23 -6 -13 -12 -31 -19 -39 -16 -8 3 -32
-4 -52 -16 -46 -27 -70 -20 -62 18 14 62 15 73 5 68 -14 -9 -11 32 4 47 7 7
28 39 45 71 44 80 81 118 105 105 10 -5 16 -12 13 -16z m694 18 c0 -5 -2 -10
-4 -10 -3 0 -8 5 -11 10 -3 6 -1 10 4 10 6 0 11 -4 11 -10z m-472 -6 c-10 -9
-118 -21 -118 -13 0 4 8 10 18 12 26 7 106 8 100 1z m-462 -59 c-11 -8 -35
-15 -53 -15 -37 0 -37 1 -23 -36 8 -21 8 -29 -2 -36 -20 -13 33 -55 81 -63 44
-7 59 -29 36 -51 -8 -9 -15 -22 -15 -30 0 -8 -4 -14 -10 -14 -5 0 -10 -9 -10
-20 0 -21 -42 -46 -48 -29 -7 19 -32 8 -32 -13 -1 -22 -1 -22 -12 -3 -6 11
-16 23 -21 27 -18 11 -24 108 -13 197 l11 86 55 4 c30 1 57 5 59 7 2 2 7 4 10
4 3 0 -3 -7 -13 -15z m552 -4 c-10 -17 -48 -36 -48 -25 0 10 36 44 47 44 11 0
11 -4 1 -19z m522 -71 c0 -5 -2 -10 -4 -10 -3 0 -8 5 -11 10 -3 6 -1 10 4 10
6 0 11 -4 11 -10z m30 -60 c0 -5 -4 -10 -10 -10 -5 0 -10 5 -10 10 0 6 5 10
10 10 6 0 10 -4 10 -10z m7 -42 c-3 -8 -6 -5 -6 6 -1 11 2 17 5 13 3 -3 4 -12
1 -19z m-203 -64 c3 -8 2 -12 -4 -9 -6 3 -10 10 -10 16 0 14 7 11 14 -7z m11
-53 c-3 -6 -11 -8 -17 -5 -6 4 -5 9 3 15 16 10 23 4 14 -10z m-486 -43 c26
-24 62 -55 81 -70 22 -19 28 -28 18 -28 -9 0 -20 5 -23 10 -3 6 -17 7 -31 4
-18 -5 -24 -3 -22 7 2 10 -7 14 -29 13 -18 -1 -33 3 -33 8 0 6 -7 8 -15 4 -23
-8 -45 4 -45 25 0 15 35 64 49 68 2 1 25 -18 50 -41z m-287 -38 c7 -19 -18
-46 -26 -27 -3 8 -10 6 -20 -7 -9 -11 -16 -16 -16 -10 0 5 -4 3 -9 -5 -5 -8
-16 -16 -25 -17 -14 -2 -14 2 -1 34 9 21 27 47 41 60 25 22 27 22 39 5 6 -10
14 -25 17 -33z m-232 -32 c0 -15 8 -32 18 -37 11 -7 12 -10 3 -11 -10 0 -11
-7 -5 -27 4 -16 10 -48 14 -73 l7 -45 2 55 c2 41 5 50 11 35 5 -11 9 -37 9
-57 1 -21 6 -38 11 -38 6 0 10 6 10 14 0 8 5 18 12 22 8 5 9 0 6 -14 -4 -12
-2 -22 3 -22 5 0 8 -19 8 -42 l-2 -43 -7 35 -6 35 -9 -28 c-5 -21 -10 -25 -16
-15 -6 8 -9 1 -9 -22 -1 -28 -3 -31 -10 -18 -12 20 -15 58 -6 79 5 10 2 16 -9
16 -10 0 -15 -11 -16 -36 -1 -28 -4 -22 -14 29 -14 75 -25 266 -13 247 4 -6 8
-24 8 -39z m1518 -84 c75 -30 152 -59 170 -64 19 -4 41 -15 50 -23 9 -8 28
-18 42 -22 46 -14 307 -142 356 -175 165 -111 264 -239 314 -403 30 -97 80
-304 96 -391 13 -75 13 -79 -6 -95 -18 -15 -19 -21 -10 -78 6 -34 10 -75 11
-90 0 -16 2 -77 5 -137 4 -77 3 -106 -5 -102 -6 4 -11 32 -11 62 0 40 -3 54
-12 51 -7 -2 -13 -18 -13 -35 0 -16 -3 -33 -6 -37 -4 -3 -5 -24 -2 -45 3 -24
0 -48 -10 -66 -50 -91 -83 -176 -96 -244 -8 -36 -6 -46 7 -57 13 -10 13 -13 3
-11 -8 2 -17 -6 -19 -17 -2 -11 -13 -26 -24 -34 -15 -10 -19 -21 -14 -43 9
-45 -4 -110 -20 -104 -8 3 -14 0 -14 -7 0 -7 -16 5 -35 26 -18 20 -37 37 -41
37 -4 0 -12 7 -19 16 -6 10 -24 18 -39 20 l-28 3 23 -20 22 -19 -24 0 c-24 -1
-24 -1 4 -16 15 -8 27 -21 27 -29 0 -8 6 -15 13 -15 7 0 21 -11 31 -25 10 -14
25 -25 32 -25 8 0 14 -4 14 -9 0 -4 -12 -7 -27 -5 -16 2 -21 1 -12 -2 9 -3 21
-15 26 -27 38 -81 35 -97 -7 -52 -12 13 -27 22 -33 18 -6 -3 -7 -1 -4 4 4 6
-11 31 -33 55 -22 25 -36 48 -33 52 3 3 0 6 -8 6 -15 0 -69 78 -69 99 0 7 -4
10 -9 7 -4 -3 -17 4 -27 15 -10 12 -49 39 -86 61 -37 22 -72 46 -79 54 -6 8
-17 14 -23 14 -7 0 -18 6 -24 12 -7 7 -20 13 -30 13 -9 0 -16 6 -14 13 1 6 -7
12 -17 12 -11 0 -26 7 -35 15 -17 17 -32 19 -41 5 -4 -6 12 -19 34 -29 23 -10
38 -21 35 -24 -4 -4 2 -10 12 -14 10 -3 26 -14 34 -23 8 -10 25 -20 38 -24 12
-4 22 -15 22 -26 0 -13 5 -17 14 -14 8 3 17 0 22 -7 4 -8 3 -10 -4 -5 -25 15
-10 -9 28 -46 22 -22 44 -37 49 -34 5 3 8 -2 7 -12 0 -10 5 -16 13 -14 10 2
12 -4 7 -23 -4 -15 -2 -25 4 -25 6 0 8 4 5 10 -9 14 8 13 23 -2 13 -13 16 -32
4 -24 -4 2 -9 -5 -9 -16 -2 -20 -1 -20 19 -2 21 19 21 19 15 -8 -8 -31 11 -43
30 -19 11 14 12 14 13 -5 0 -11 -6 -26 -12 -33 -10 -11 -10 -14 0 -18 6 -3 12
-11 12 -19 0 -7 -6 -11 -13 -8 -8 3 -19 -2 -26 -10 -10 -12 -9 -17 8 -25 25
-14 31 -14 31 -1 0 6 -10 11 -22 11 -19 1 -20 2 -4 6 28 7 45 -15 24 -31 -20
-14 -23 -43 -8 -66 13 -22 -17 -52 -40 -40 -10 5 -21 6 -25 2 -4 -4 -5 3 -2
16 3 12 2 22 -2 22 -11 0 -8 44 3 52 7 5 7 8 -1 8 -7 0 -13 9 -13 20 0 10 -9
24 -20 30 -14 7 -20 7 -20 0 0 -5 -5 -10 -11 -10 -6 0 -9 7 -5 15 3 9 -3 24
-13 34 -17 17 -20 18 -26 3 -5 -13 -8 -12 -22 7 -10 15 -19 19 -25 13 -7 -7
-20 -4 -40 11 -18 14 -40 20 -63 19 -32 -2 -40 4 -36 30 0 5 -5 8 -12 8 -7 0
-26 14 -42 30 -16 17 -37 30 -47 30 -12 0 -23 11 -30 31 -9 27 -21 31 -24 8
-1 -5 -2 -12 -3 -16 0 -3 -12 3 -25 16 -13 12 -36 23 -52 24 -27 2 -29 0 -34
-45 -3 -26 -9 -51 -14 -55 -4 -4 -5 3 -1 17 3 15 0 33 -7 43 -12 15 -13 9 -7
-45 4 -35 10 -74 14 -88 6 -23 5 -23 -6 -5 -6 11 -20 28 -31 38 -14 14 -16 22
-8 37 8 16 7 20 -3 20 -8 0 -18 8 -21 18 -4 9 -13 35 -21 57 -7 22 -14 33 -14
24 -1 -9 -7 -19 -14 -22 -10 -4 -13 2 -9 18 2 12 -2 26 -9 30 -6 5 -10 4 -7
-1 3 -5 2 -18 -3 -29 -6 -17 -8 -15 -8 10 -2 52 -13 105 -23 105 -5 0 -7 -3
-5 -7 3 -5 7 -73 9 -153 3 -80 3 -133 1 -117 -5 32 -16 34 -44 6 -11 -11 -26
-18 -33 -16 -7 3 -17 -8 -23 -24 -10 -25 -9 -29 5 -29 12 -1 9 -5 -9 -15 -15
-8 -29 -21 -33 -30 -3 -8 -14 -15 -24 -15 -33 0 -57 -38 -58 -91 -1 -80 -19
-79 -22 1 -2 45 1 70 7 70 6 0 11 7 11 15 0 9 11 21 25 27 20 9 25 19 26 47 0
20 1 57 2 83 1 31 -3 50 -10 53 -8 2 -13 -3 -13 -14 0 -10 -8 -21 -18 -23 -15
-4 -17 -13 -14 -42 3 -26 -1 -43 -13 -56 -18 -19 -17 -20 8 -20 15 0 27 -4 27
-10 0 -5 -7 -10 -15 -10 -8 0 -15 -7 -15 -15 0 -8 -6 -15 -14 -15 -19 0 -29
-35 -26 -97 2 -49 1 -51 -20 -46 -19 5 -21 3 -16 -15 4 -11 2 -23 -4 -27 -6
-3 -10 3 -10 15 0 12 -4 18 -10 15 -5 -3 -10 -18 -10 -32 0 -15 -3 -23 -7 -19
-4 3 -12 -6 -19 -21 -11 -27 -11 -26 -18 27 -10 87 -15 198 -9 204 4 3 13 0
21 -7 13 -10 15 -8 9 13 -4 14 -7 33 -7 42 0 12 -5 15 -16 11 -12 -4 -15 -2
-12 8 3 9 17 13 37 11 25 -2 31 2 31 18 0 13 7 20 20 20 11 0 20 5 20 10 0 6
-10 10 -22 10 -19 0 -20 2 -8 10 13 9 13 10 0 11 -8 1 -21 2 -29 3 -7 0 -15
14 -16 31 -1 17 -6 49 -9 72 -6 35 -5 42 11 46 14 4 13 5 -5 6 -21 1 -23 5
-17 31 5 22 3 30 -7 30 -10 0 -10 2 1 9 7 5 10 14 7 20 -4 6 -2 11 4 11 6 0 8
5 5 10 -3 6 -1 10 6 10 7 0 6 8 -5 25 -9 14 -12 25 -7 25 5 0 7 9 4 21 -8 30
28 166 49 189 22 23 55 26 83 7 17 -12 99 -35 187 -52 19 -4 30 -13 34 -30 5
-21 13 -25 62 -30 32 -3 69 -8 83 -10 39 -6 52 10 89 108 18 48 37 90 42 93 4
3 8 13 8 22 0 9 11 46 24 82 26 69 55 164 60 192 1 10 5 20 8 23 10 11 142 14
160 4 18 -10 31 1 20 18 -11 16 -111 46 -134 40 -16 -5 -18 -3 -9 6 16 16 14
66 -4 83 -8 9 -18 27 -22 42 -3 15 -26 68 -50 119 -23 50 -43 101 -43 112 0
12 -4 21 -9 21 -5 0 -12 15 -15 33 -3 17 -17 54 -31 81 -16 31 -23 57 -19 72
5 17 2 24 -9 24 -8 0 -23 3 -32 7 -15 5 -16 1 -10 -28 12 -59 16 -69 27 -63 8
5 9 -3 5 -24 -4 -21 -2 -36 8 -46 8 -8 15 -28 15 -45 0 -29 16 -70 69 -183 13
-26 20 -52 16 -58 -3 -5 -2 -10 3 -10 8 0 32 -42 32 -55 0 -14 -20 -2 -25 15
-3 11 -13 20 -20 20 -8 0 -18 6 -22 14 -4 8 -17 14 -28 13 -13 -1 -20 4 -20
16 0 10 -7 22 -15 27 -13 8 -12 11 5 24 19 15 19 15 1 16 -12 0 -16 5 -12 15
3 8 1 15 -4 15 -5 0 -6 8 -3 17 5 14 0 12 -24 -7 -38 -30 -39 -35 -13 -57 32
-27 26 -47 -7 -29 -60 31 -105 109 -95 163 2 10 -4 10 -24 3 -15 -6 -34 -10
-43 -9 -25 4 -81 -12 -81 -22 0 -5 -5 -9 -11 -9 -7 0 -18 -8 -25 -17 -9 -12
-13 -14 -14 -5 0 28 67 72 109 72 16 0 33 5 36 10 3 6 17 10 31 10 13 0 24 5
24 11 0 6 -10 10 -22 9 -37 -3 -41 -1 -28 14 6 8 18 12 26 9 11 -4 14 5 14 43
0 34 3 45 11 37 5 -5 11 -20 12 -32 1 -12 6 -20 13 -17 7 3 20 -1 29 -8 15
-11 16 -16 5 -36 -10 -18 -9 -24 1 -31 22 -13 33 -10 20 5 -7 8 -9 25 -5 40 4
17 2 26 -6 26 -7 0 -9 8 -5 20 3 11 2 28 -4 37 -6 10 -11 12 -11 6 0 -7 -5
-13 -10 -13 -6 0 -10 6 -9 13 5 41 -15 50 -43 18 -8 -10 -22 -21 -29 -23 -8
-3 -13 -16 -11 -31 1 -21 -3 -27 -18 -27 -11 0 -20 -6 -21 -12 0 -7 -5 -2 -10
11 -8 19 -12 21 -24 11 -10 -9 -15 -9 -15 -1 0 6 -14 11 -30 11 -21 0 -30 -4
-28 -14 4 -20 -110 -110 -166 -131 -25 -10 -58 -15 -73 -12 -15 3 -38 1 -51
-4 -29 -11 -62 -3 -62 15 0 14 71 83 115 113 17 11 52 23 80 27 27 3 53 13 58
21 5 10 25 15 55 16 42 1 44 2 17 9 -16 4 -25 8 -19 9 7 0 15 8 18 17 5 13 2
15 -14 11 -11 -3 -18 -1 -14 4 3 5 12 9 20 9 8 0 13 4 10 9 -3 5 6 30 20 56
20 35 29 43 36 33 5 -8 6 -3 2 16 -4 15 -2 31 3 35 6 3 18 20 27 36 13 23 16
25 13 8 -5 -22 17 -40 28 -23 3 4 0 10 -7 12 -8 3 -8 9 0 24 11 18 11 18 13
-3 5 -51 3 -56 -15 -59 -10 -1 -26 -10 -34 -18 -15 -15 -8 -16 51 -7 4 0 7 8
7 17 0 8 5 12 11 8 8 -5 9 6 4 36 -5 28 -4 40 3 36 6 -3 13 2 15 11 4 14 5 13
6 -4 0 -12 5 -24 9 -27 5 -3 5 22 0 55 -4 32 -6 117 -4 187 2 70 4 170 5 222
l2 95 40 -43 c33 -35 64 -52 177 -98z m-1118 116 c0 -5 -5 -10 -11 -10 -5 0
-7 5 -4 10 3 6 8 10 11 10 2 0 4 -4 4 -10z m-37 -27 c18 -10 -5 -22 -28 -13
-17 6 -27 5 -36 -6 -12 -15 -58 -14 -62 1 -3 16 104 31 126 18z m628 -80 c-3
-49 -6 -78 -8 -65 -6 29 -23 18 -23 -14 0 -29 -14 -31 -37 -5 -9 11 -20 18
-25 15 -4 -3 -8 5 -8 18 l-1 23 -13 -24 -13 -24 -7 26 c-3 14 -2 36 3 49 7 17
10 18 10 6 1 -31 21 -19 21 12 0 23 4 30 20 30 15 0 22 -9 27 -30 6 -31 6 -31
24 -11 11 11 19 31 19 44 0 19 7 37 14 37 1 0 -1 -39 -3 -87z m-880 -30 c-8
-15 -9 -12 -6 12 6 48 7 51 12 28 2 -12 0 -30 -6 -40z m1167 25 c1 -7 5 -31 8
-53 4 -22 4 -38 1 -35 -9 9 -25 88 -19 95 8 7 8 7 10 -7z m-453 -45 c-6 -59
-19 -74 -43 -48 -16 18 -16 18 1 6 21 -17 23 1 2 23 -17 16 -20 30 -5 21 5 -3
17 6 26 20 9 14 18 25 20 25 2 0 2 -21 -1 -47z m-101 -70 c-9 -51 -11 -51 -16
-4 -2 29 0 41 10 41 10 0 11 -10 6 -37z m143 -15 c-2 -13 -4 -5 -4 17 -1 22 1
32 4 23 2 -10 2 -28 0 -40z m-2926 -5 c12 -36 8 -170 -6 -205 -12 -29 -46 -33
-67 -8 -14 18 -18 40 -18 110 0 113 10 140 49 140 25 0 31 -5 42 -37z m2889
-3 c0 -11 -2 -20 -4 -20 -2 0 -6 9 -9 20 -3 11 -1 20 4 20 5 0 9 -9 9 -20z
m-436 -65 c-3 -33 -1 -45 9 -45 9 0 12 11 9 36 -3 28 -1 35 8 29 8 -5 10 -22
6 -53 -5 -38 -4 -43 9 -32 8 7 22 10 30 6 8 -3 15 -2 15 3 0 5 11 16 25 25 27
18 52 13 37 -7 -4 -7 -14 -31 -22 -55 -7 -23 -19 -47 -27 -53 -7 -6 -13 -26
-13 -43 0 -24 -3 -27 -10 -16 -5 8 -8 22 -6 30 3 8 7 25 11 37 5 18 3 22 -9
17 -8 -3 -17 -15 -20 -27 -3 -16 -4 -13 -4 8 0 48 -2 51 -17 25 -8 -14 -14
-37 -15 -52 0 -16 -4 -28 -8 -28 -5 0 -8 9 -8 20 1 30 -19 28 -22 -2 -3 -29
-22 -40 -22 -13 0 8 -4 15 -10 15 -5 0 -10 -6 -10 -13 0 -20 -38 -14 -55 9 -8
10 -15 27 -15 37 0 16 -13 21 -48 20 -10 -1 -11 8 -6 31 8 40 13 48 25 41 5
-4 9 1 9 9 0 10 9 16 25 16 20 0 25 -5 25 -26 0 -19 4 -25 15 -20 10 4 15 -1
15 -14 0 -11 5 -20 11 -20 13 0 1 92 -14 101 -13 9 6 42 27 45 9 1 16 -3 16
-9 0 -7 5 -4 11 6 17 28 28 10 23 -38z m473 -17 c-2 -13 -4 -3 -4 22 0 25 2
35 4 23 2 -13 2 -33 0 -45z m413 -44 c0 -8 -4 -14 -10 -14 -5 0 -10 9 -10 21
0 11 5 17 10 14 6 -3 10 -13 10 -21z m-1132 -80 l-3 -49 -5 57 c-3 31 -1 53 3
49 5 -5 7 -30 5 -57z m399 34 c-3 -8 -6 -5 -6 6 -1 11 2 17 5 13 3 -3 4 -12 1
-19z m140 -10 c-3 -8 -6 -5 -6 6 -1 11 2 17 5 13 3 -3 4 -12 1 -19z m298 3 c3
-5 1 -12 -5 -16 -5 -3 -10 1 -10 9 0 18 6 21 15 7z m224 -65 c-9 -8 -10 -7 -5
7 3 10 7 24 7 30 1 7 3 4 6 -7 3 -10 -1 -23 -8 -30z m-774 -46 c-9 -41 -17
-33 -9 9 4 17 9 30 11 27 3 -2 2 -19 -2 -36z m292 5 c0 -8 -6 -16 -14 -19 -15
-6 -15 -4 -7 18 8 20 21 21 21 1z m-9 -100 c-1 -30 -5 -55 -9 -55 -5 0 -8 25
-8 55 1 30 5 55 9 55 4 0 8 -25 8 -55z m-561 18 c-3 -3 -11 -2 -17 2 -9 6 -9
10 1 16 14 8 27 -7 16 -18z m-54 -13 c-3 -11 -7 -20 -9 -20 -2 0 -4 9 -4 20 0
11 4 20 9 20 5 0 7 -9 4 -20z m524 -32 c-3 -8 -6 -5 -6 6 -1 11 2 17 5 13 3
-3 4 -12 1 -19z m73 -102 c0 -3 -4 -8 -10 -11 -5 -3 -10 -1 -10 4 0 6 5 11 10
11 6 0 10 -2 10 -4z m-290 -51 c0 -8 -2 -15 -4 -15 -2 0 -6 7 -10 15 -3 8 -1
15 4 15 6 0 10 -7 10 -15z m800 -60 c0 -8 -4 -15 -10 -15 -5 0 -7 7 -4 15 4 8
8 15 10 15 2 0 4 -7 4 -15z m-800 -30 c0 -8 -4 -15 -10 -15 -5 0 -10 7 -10 15
0 8 5 15 10 15 6 0 10 -7 10 -15z m655 -65 c-10 -11 -21 -18 -23 -15 -3 3 3
12 14 20 27 20 30 18 9 -5z m-688 -52 c-3 -7 -5 -2 -5 12 0 14 2 19 5 13 2 -7
2 -19 0 -25z m536 25 c-7 -2 -21 -2 -30 0 -10 3 -4 5 12 5 17 0 24 -2 18 -5z
m-173 -13 c0 -5 -5 -10 -11 -10 -5 0 -7 5 -4 10 3 6 8 10 11 10 2 0 4 -4 4
-10z m267 4 c-3 -3 -12 -4 -19 -1 -8 3 -5 6 6 6 11 1 17 -2 13 -5z m-58 -18
c-7 -6 -124 -18 -118 -12 3 3 30 9 60 14 50 8 68 7 58 -2z m-598 -22 c11 -14
10 -15 -11 -12 -13 1 -25 9 -28 16 -5 17 23 15 39 -4z m954 2 c-11 -8 -23 -12
-27 -10 -10 7 -65 -23 -71 -38 -4 -10 -6 -10 -6 0 -1 17 34 46 67 53 48 11 57
10 37 -5z m332 -238 c-3 -8 -6 -5 -6 6 -1 11 2 17 5 13 3 -3 4 -12 1 -19z
m-667 -67 c0 -5 -14 -14 -31 -21 -24 -10 -32 -10 -42 0 -10 10 -8 11 9 6 11
-3 28 0 40 9 23 17 24 18 24 6z m-93 -17 c-3 -3 -12 -4 -19 -1 -8 3 -5 6 6 6
11 1 17 -2 13 -5z m383 -29 c0 -8 -14 -21 -32 -29 -37 -19 -48 -20 -48 -4 0 6
3 9 6 5 10 -9 44 26 44 46 0 16 3 17 15 7 8 -7 15 -18 15 -25z m50 -45 c0 -6
-5 -10 -10 -10 -6 0 -31 -19 -55 -41 -36 -33 -54 -42 -88 -45 -23 -2 -66 -6
-95 -9 -47 -6 -53 -4 -50 10 2 13 18 17 70 21 84 5 106 14 154 61 29 29 43 36
57 30 9 -4 17 -12 17 -17z m-347 -17 c3 -5 -12 -8 -34 -8 -26 -1 -46 -8 -64
-25 -14 -13 -25 -19 -25 -14 0 9 31 32 60 46 21 9 58 10 63 1z m357 -20 c-1
-14 -89 -73 -95 -64 -3 5 14 23 37 40 42 31 58 38 58 24z m-185 -93 c-51 -14
-109 -20 -99 -10 11 10 47 17 94 18 l35 0 -30 -8z m1496 -360 c11 -6 19 -21
19 -36 0 -26 -29 -84 -41 -84 -10 0 -23 106 -14 119 8 14 11 14 36 1z m-1304
-302 c-3 -8 -6 -5 -6 6 -1 11 2 17 5 13 3 -3 4 -12 1 -19z m753 -46 c-7 -3
-16 2 -21 9 -16 25 -9 32 12 13 13 -12 16 -20 9 -22z m40 -26 c0 -11 -19 -15
-25 -6 -3 5 1 10 9 10 9 0 16 -2 16 -4z m-510 -36 c0 -5 -5 -10 -11 -10 -5 0
-7 5 -4 10 3 6 8 10 11 10 2 0 4 -4 4 -10z m10 -49 c0 -12 -20 -25 -27 -18 -7
7 6 27 18 27 5 0 9 -4 9 -9z m-710 -36 c0 -8 -2 -15 -4 -15 -2 0 -6 7 -10 15
-3 8 -1 15 4 15 6 0 10 -7 10 -15z m376 -29 c-36 -22 -66 -48 -62 -54 2 -4 -1
-20 -8 -36 l-11 -28 -14 25 c-12 23 -11 29 9 57 12 17 36 37 53 44 36 15 61 8
33 -8z m110 -13 c-11 -11 -17 4 -9 23 7 18 8 18 11 1 2 -10 1 -21 -2 -24z
m1179 -64 c-19 -86 -38 -124 -67 -140 -19 -10 -26 -7 -61 32 -22 24 -59 66
-84 92 -24 27 -43 50 -41 52 5 6 73 -58 85 -79 6 -10 25 -25 42 -32 31 -13 34
-12 62 18 16 18 29 38 29 45 0 7 5 13 11 13 6 0 8 7 5 16 -3 8 -2 13 3 9 5 -3
13 14 17 37 4 24 9 35 12 25 2 -9 -4 -49 -13 -88z m-1120 81 c3 -5 1 -10 -4
-10 -6 0 -11 5 -11 10 0 6 2 10 4 10 3 0 8 -4 11 -10z m-20 -120 c3 -5 1 -10
-4 -10 -6 0 -11 5 -11 10 0 6 2 10 4 10 3 0 8 -4 11 -10z m-126 -40 c1 -3 -10
-7 -24 -8 -30 -2 -31 1 -8 28 16 19 18 19 25 3 3 -10 7 -20 7 -23z m188 -7
c-3 -10 -5 -2 -5 17 0 19 2 27 5 18 2 -10 2 -26 0 -35z m707 -23 c15 0 73
-107 63 -116 -9 -9 -27 5 -27 22 0 8 -4 14 -10 14 -5 0 -10 -7 -10 -15 0 -8
-4 -15 -10 -15 -5 0 -10 15 -10 34 0 19 -4 38 -10 41 -5 3 -10 0 -10 -7 0 -8
-9 -14 -20 -14 -11 0 -20 6 -20 13 0 8 -8 26 -17 40 l-17 26 27 -7 c15 -3 27
-3 26 1 -4 23 3 25 17 5 8 -12 21 -22 28 -22z m-3223 8 c22 -25 22 -28 9 -64
-14 -37 -22 -25 -10 15 8 29 7 34 -10 38 -11 3 -20 12 -20 19 0 20 10 17 31
-8z m3109 -15 c0 -7 -4 -13 -10 -13 -5 0 -10 12 -10 28 0 21 2 24 10 12 5 -8
10 -21 10 -27z m-733 5 c-1 -13 -6 -26 -12 -30 -6 -5 -5 -8 3 -8 6 0 12 -7 12
-16 0 -13 -3 -14 -14 -5 -11 9 -16 9 -22 -1 -4 -7 -4 -10 1 -6 9 8 35 -9 35
-23 0 -5 -7 -6 -15 -3 -12 5 -15 -2 -15 -30 0 -41 -2 -42 -35 -20 -14 9 -25
12 -25 6 0 -6 7 -15 16 -20 15 -8 15 -10 0 -15 -10 -4 -15 -3 -11 3 3 6 0 10
-7 10 -8 0 -23 7 -34 15 -19 15 -19 15 1 10 11 -3 5 2 -13 10 -18 8 -36 23
-39 33 -4 9 -12 21 -20 25 -21 13 -15 25 11 23 13 0 24 -3 24 -6 -1 -18 4 -23
11 -11 11 17 31 6 31 -18 0 -31 21 -43 43 -23 18 16 19 16 16 -7 -2 -13 2 -26
9 -28 8 -3 11 5 8 29 -2 18 -9 32 -15 31 -6 -2 -11 2 -11 7 0 6 5 10 10 10 6
0 10 7 10 15 0 11 35 58 47 64 2 1 2 -9 0 -21z m733 -44 c0 -8 -4 -12 -10 -9
-5 3 -10 10 -10 16 0 5 5 9 10 9 6 0 10 -7 10 -16z m-10 -27 c0 -1 4 -17 9
-35 6 -20 6 -32 0 -32 -5 0 -9 11 -9 25 0 14 -4 25 -10 25 -5 0 -10 5 -10 10
0 6 5 10 10 10 6 0 10 -1 10 -3z m-3073 -49 c-3 -7 -5 -2 -5 12 0 14 2 19 5
13 2 -7 2 -19 0 -25z m2508 -17 c3 -5 1 -12 -5 -16 -5 -3 -10 1 -10 9 0 18 6
21 15 7z m595 -32 c0 -5 -4 -9 -10 -9 -5 0 -10 7 -10 16 0 8 5 12 10 9 6 -3
10 -10 10 -16z m-795 -9 c-3 -5 -12 -10 -18 -10 -7 0 -6 4 3 10 19 12 23 12
15 0z m530 0 c3 -5 -3 -10 -14 -10 -11 0 -23 5 -26 10 -3 6 3 10 14 10 11 0
23 -4 26 -10z m-492 -17 c-4 -11 -8 -13 -11 -5 -2 7 -9 9 -14 6 -7 -4 -8 -2
-4 4 12 19 36 15 29 -5z"/>
<path d="M5080 3861 c0 -7 24 -11 60 -11 33 0 60 3 60 8 0 4 -27 9 -60 10 -38
2 -60 -1 -60 -7z"/>
<path d="M5082 3831 c-10 -6 -5 -11 19 -20 39 -13 123 -15 114 -2 -3 6 3 15
12 21 17 10 16 10 -2 8 -11 -2 -25 -9 -30 -16 -12 -15 -85 -7 -85 9 0 11 -11
11 -28 0z"/>
<path d="M4447 3658 c-7 -4 -24 -8 -38 -8 -27 0 -76 -29 -50 -30 18 0 151 39
151 45 0 7 -50 1 -63 -7z"/>
<path d="M4235 3631 c-3 -5 -2 -12 3 -15 5 -3 9 1 9 9 0 17 -3 19 -12 6z"/>
<path d="M4279 3638 c-6 -21 -5 -37 2 -32 5 3 9 1 9 -5 0 -13 -45 -25 -65 -17
-21 8 -19 -20 3 -48 17 -22 34 -23 82 -6 14 4 37 11 52 14 15 4 32 15 38 26
12 23 -3 36 -22 17 -11 -11 -20 -11 -48 -1 -19 7 -29 13 -22 13 21 2 14 41 -8
41 -11 0 -20 -1 -21 -2z"/>
<path d="M4185 3570 c3 -5 8 -10 11 -10 2 0 4 5 4 10 0 6 -5 10 -11 10 -5 0
-7 -4 -4 -10z"/>
<path d="M4435 3191 c-3 -12 -11 -19 -16 -16 -5 4 -9 -7 -9 -23 0 -26 3 -29
26 -24 22 4 25 8 21 39 -6 43 -13 51 -22 24z"/>
<path d="M4171 3064 c0 -11 3 -14 6 -6 3 7 2 16 -1 19 -3 4 -6 -2 -5 -13z"/>
<path d="M4525 2930 c3 -5 8 -10 11 -10 2 0 4 5 4 10 0 6 -5 10 -11 10 -5 0
-7 -4 -4 -10z"/>
<path d="M5391 2824 c0 -11 3 -14 6 -6 3 7 2 16 -1 19 -3 4 -6 -2 -5 -13z"/>
<path d="M5761 2353 c-1 -6 -4 -20 -7 -30 -5 -17 -5 -17 6 0 6 10 9 23 6 30
-3 9 -5 9 -5 0z"/>
<path d="M5480 2340 c0 -5 10 -10 23 -10 18 0 19 2 7 10 -19 13 -30 13 -30 0z"/>
<path d="M5382 2315 c0 -16 2 -22 5 -12 2 9 2 23 0 30 -3 6 -5 -1 -5 -18z"/>
<path d="M5500 2311 c0 -5 5 -13 10 -16 6 -3 10 -2 10 4 0 5 -4 13 -10 16 -5
3 -10 2 -10 -4z"/>
<path d="M5741 2287 c-1 -9 -6 -25 -11 -35 -16 -27 -54 -116 -54 -127 -1 -5
-5 -13 -11 -17 -6 -5 -3 -8 6 -8 9 0 19 8 22 18 3 9 17 50 32 90 14 40 24 79
21 85 -2 7 -5 4 -5 -6z"/>
<path d="M5320 2280 c0 -5 5 -10 10 -10 6 0 10 5 10 10 0 6 -4 10 -10 10 -5 0
-10 -4 -10 -10z"/>
<path d="M5520 2264 c-13 -32 -13 -34 3 -34 7 0 12 13 12 30 0 37 -3 37 -15 4z"/>
<path d="M5370 2239 c0 -5 5 -7 10 -4 6 3 10 8 10 11 0 2 -4 4 -10 4 -5 0 -10
-5 -10 -11z"/>
<path d="M5196 2195 c4 -8 7 -15 9 -15 2 0 5 7 9 15 3 9 0 15 -9 15 -9 0 -12
-6 -9 -15z"/>
<path d="M5378 2184 c4 -22 6 -24 14 -10 9 16 3 36 -11 36 -5 0 -6 -12 -3 -26z"/>
<path d="M5250 2182 c0 -14 6 -22 16 -22 14 0 15 3 3 18 -7 9 -15 19 -16 21
-2 2 -3 -5 -3 -17z"/>
<path d="M5232 2141 c-11 -7 -10 -10 3 -15 9 -3 24 -1 33 5 16 10 16 10 0 5
-9 -3 -18 -1 -20 4 -2 5 -9 6 -16 1z"/>
<path d="M5125 2100 c-4 -6 11 -10 37 -9 36 1 39 2 18 9 -36 11 -48 11 -55 0z"/>
<path d="M5846 2067 c-9 -13 -16 -29 -14 -33 1 -5 -6 -22 -16 -37 -10 -15 -15
-31 -11 -35 4 -4 10 -1 12 6 3 7 15 25 27 40 29 34 36 55 26 72 -6 9 -12 6
-24 -13z"/>
<path d="M5435 2023 c1 -21 -2 -41 -7 -44 -5 -3 10 -11 33 -18 l41 -12 -21
-20 c-31 -29 -10 -64 26 -41 6 4 16 19 22 34 9 23 7 27 -15 32 -14 4 -22 11
-19 16 6 9 -8 14 -27 11 -7 -1 -21 40 -23 61 0 3 -3 9 -6 13 -4 3 -6 -11 -4
-32z"/>
<path d="M5750 2049 c0 -5 5 -7 10 -4 6 3 10 8 10 11 0 2 -4 4 -10 4 -5 0 -10
-5 -10 -11z"/>
<path d="M5721 2011 c-18 -12 -10 -55 12 -59 16 -3 18 1 13 28 -6 38 -8 41
-25 31z"/>
<path d="M5510 1970 c0 -5 5 -10 11 -10 5 0 7 5 4 10 -3 6 -8 10 -11 10 -2 0
-4 -4 -4 -10z"/>
<path d="M5770 1961 c0 -5 8 -12 17 -15 11 -5 13 -10 7 -14 -16 -11 -24 -41
-14 -47 6 -4 10 1 10 9 0 9 5 16 10 16 15 0 12 29 -4 46 -17 16 -26 18 -26 5z"/>
<path d="M5427 1942 c1 -8 3 -18 3 -23 0 -5 4 -9 10 -9 5 0 7 6 4 14 -3 8 0
16 8 19 7 2 5 3 -4 2 -9 -2 -19 0 -21 4 -2 3 -2 0 0 -7z"/>
<path d="M5873 1901 c-23 -11 -44 -17 -47 -13 -4 3 -6 -8 -4 -26 2 -32 18 -46
18 -16 0 8 5 12 10 9 6 -3 10 -1 10 6 0 7 3 9 6 6 9 -9 47 20 50 38 1 8 2 15
1 15 -1 0 -21 -9 -44 -19z"/>
<path d="M6166 1346 c-27 -19 -56 -32 -64 -29 -8 3 -17 2 -21 -3 -7 -10 -38
-26 -144 -73 -37 -17 -75 -37 -83 -46 -9 -8 -24 -15 -35 -15 -10 0 -19 -4 -19
-10 0 -5 -12 -10 -26 -10 -17 0 -28 -6 -31 -19 -3 -11 -20 -23 -44 -30 -21 -7
-39 -16 -39 -22 0 -6 -4 -8 -9 -4 -11 6 -26 -13 -17 -22 3 -3 11 -1 18 4 7 6
38 16 68 23 30 7 62 17 70 21 36 18 92 38 185 68 118 37 123 40 128 69 3 23
17 43 17 25 0 -6 11 -13 24 -15 17 -3 23 -1 19 8 -2 7 8 20 24 30 15 10 30 19
32 21 2 2 5 11 6 21 0 9 4 23 9 30 14 22 -18 12 -68 -22z"/>
<path d="M6225 1284 c-19 -16 -19 -16 5 -9 14 4 32 11 40 16 12 7 11 8 -5 8
-11 0 -29 -7 -40 -15z"/>
<path d="M5550 1036 c0 -2 7 -6 15 -10 8 -3 15 -1 15 4 0 6 -7 10 -15 10 -8 0
-15 -2 -15 -4z"/>
<path d="M5600 999 c0 -5 5 -7 10 -4 6 3 10 8 10 11 0 2 -4 4 -10 4 -5 0 -10
-5 -10 -11z"/>
<path d="M5685 990 c3 -5 12 -10 18 -10 7 0 25 -7 41 -15 35 -19 47 -12 14 8
-30 19 -82 31 -73 17z"/>
<path d="M5070 834 c1 -19 38 -53 66 -60 26 -7 28 -6 15 9 -7 10 -18 17 -24
17 -6 0 -21 10 -34 22 -13 12 -23 17 -23 12z"/>
<path d="M5200 832 c0 -12 72 -42 100 -42 35 0 22 15 -22 26 -24 6 -51 14 -60
19 -11 4 -18 3 -18 -3z"/>
<path d="M6420 800 c0 -19 3 -21 12 -12 9 9 9 15 0 24 -9 9 -12 7 -12 -12z"/>
<path d="M5048 662 c20 -22 25 -21 16 2 -3 9 -12 16 -20 16 -11 0 -10 -4 4
-18z"/>
<path d="M5220 670 c0 -22 45 -38 85 -30 32 6 35 8 12 9 -15 0 -43 8 -62 15
-19 8 -35 11 -35 6z"/>
<path d="M5063 533 c2 -12 1 -21 -3 -20 -5 1 -8 -1 -9 -5 -3 -22 0 -29 9 -23
6 3 10 1 10 -4 0 -6 -9 -11 -20 -11 -16 0 -20 -7 -20 -35 0 -35 -19 -51 -21
-17 0 12 -3 10 -10 -8 -12 -30 3 -70 26 -70 18 0 20 26 3 33 -7 3 2 8 19 12
30 7 32 10 28 37 -3 17 -2 35 3 42 5 6 12 28 16 49 4 21 11 35 17 32 5 -4 9
-1 9 5 0 5 -14 9 -31 8 -26 -2 -30 -6 -26 -25z"/>
<path d="M5101 504 c0 -11 3 -14 6 -6 3 7 2 16 -1 19 -3 4 -6 -2 -5 -13z"/>
<path d="M4990 2805 c0 -8 2 -15 4 -15 2 0 6 7 10 15 3 8 1 15 -4 15 -6 0 -10
-7 -10 -15z"/>
<path d="M5012 2744 c-1 -13 3 -24 8 -24 12 0 14 37 2 44 -4 2 -9 -6 -10 -20z"/>
<path d="M4104 2130 c-22 -33 -24 -43 -14 -55 7 -8 10 -21 7 -29 -8 -20 3 -27
24 -15 31 16 74 111 54 118 -5 2 -18 7 -27 12 -14 8 -23 1 -44 -31z"/>
<path d="M3905 2008 c4 -12 30 -46 58 -74 59 -58 68 -71 98 -132 12 -24 32
-50 45 -59 13 -8 21 -20 17 -26 -3 -6 -1 -7 5 -3 7 4 12 2 12 -3 0 -6 10 -11
23 -11 16 0 18 -3 9 -9 -10 -6 -5 -14 22 -30 19 -12 47 -24 61 -27 21 -4 25
-1 25 21 0 22 -9 29 -31 27 -3 -1 -12 16 -19 37 -6 20 -21 41 -33 47 -23 9
-69 72 -63 83 2 3 -15 7 -39 8 -31 1 -49 8 -69 28 -14 14 -26 30 -26 35 0 5
-6 15 -13 22 -7 7 -20 25 -30 40 -9 15 -26 32 -38 39 -19 10 -20 9 -14 -13z"/>
<path d="M3828 1915 c7 -11 17 -33 24 -50 9 -24 12 -27 16 -11 2 10 -2 22 -8
26 -8 5 -10 15 -6 26 4 10 4 15 0 11 -4 -4 -14 -1 -22 6 -13 10 -14 9 -4 -8z"/>
<path d="M3655 1832 c6 -4 11 -22 11 -41 1 -18 5 -36 10 -40 5 -3 15 -18 21
-33 12 -27 60 -69 77 -67 5 0 13 -5 18 -13 7 -9 8 -8 4 5 -3 10 -6 23 -6 28 0
5 -5 9 -11 9 -5 0 -7 -5 -3 -12 4 -7 3 -8 -4 -4 -7 4 -12 14 -12 22 0 8 -11
32 -25 52 -14 20 -25 41 -25 47 -1 16 -37 55 -52 55 -8 0 -9 -3 -3 -8z"/>
<path d="M3923 1717 c2 -53 51 -114 114 -145 45 -21 53 -20 53 10 0 10 5 18
10 18 30 0 -25 56 -77 79 -13 6 -23 19 -23 30 0 22 -25 45 -39 37 -5 -4 -12
-2 -16 4 -14 22 -24 8 -22 -33z"/>
<path d="M3640 1654 c0 -20 32 -54 51 -54 12 0 19 5 17 11 -2 6 -6 9 -10 7 -3
-2 -18 8 -32 21 -14 14 -26 20 -26 15z"/>
<path d="M3823 1643 c-7 -3 -13 -9 -13 -14 0 -6 4 -8 8 -5 5 3 8 -9 7 -26 -2
-26 26 -99 45 -118 3 -3 5 -9 6 -15 3 -31 18 -56 33 -53 9 1 22 -1 28 -5 14
-9 53 8 53 22 0 35 -65 135 -81 126 -5 -4 -9 2 -9 12 -1 23 -61 82 -77 76z"/>
<path d="M4365 1630 c-28 -14 -35 -15 -39 -4 -3 8 -10 14 -16 14 -6 0 -8 -4
-5 -10 3 -5 2 -10 -3 -10 -6 0 -8 -10 -4 -22 3 -14 1 -19 -6 -14 -8 5 -10 2
-6 -8 3 -9 15 -16 25 -16 10 0 19 -5 19 -11 0 -5 14 -23 31 -39 26 -23 36 -27
60 -20 22 7 29 5 29 -6 0 -21 38 -17 50 6 9 16 8 20 -5 20 -9 0 -13 5 -10 11
4 6 -1 17 -11 24 -17 13 -17 14 -2 15 16 0 16 3 -1 43 -15 34 -23 42 -45 43
-15 1 -43 -7 -61 -16z"/>
<path d="M3670 1574 c0 -10 23 -48 37 -62 7 -7 13 -20 13 -28 0 -8 6 -14 14
-14 15 0 14 67 -1 79 -13 12 -63 31 -63 25z"/>
<path d="M4280 1540 c-18 -12 -2 -12 25 0 13 6 15 9 5 9 -8 0 -22 -4 -30 -9z"/>
<path d="M4156 1514 c-3 -7 7 -14 22 -17 15 -3 35 -9 45 -12 10 -4 17 -2 17 5
0 6 -4 8 -10 5 -5 -3 -10 1 -10 9 0 9 -3 16 -7 17 -5 0 -18 2 -30 3 -12 1 -24
-3 -27 -10z"/>
<path d="M4260 1500 c0 -5 6 -10 13 -10 7 0 17 -8 24 -19 6 -10 25 -21 42 -24
31 -7 41 -29 19 -43 -7 -4 -8 -3 -4 4 11 19 -5 14 -19 -5 -13 -17 -14 -17 -32
0 -11 9 -23 17 -28 17 -5 0 -19 9 -31 21 -21 19 -24 20 -52 5 -32 -17 -45 -38
-36 -61 4 -8 2 -15 -4 -15 -5 0 -13 12 -16 26 -5 19 -12 25 -29 22 -12 -2 -22
-9 -22 -17 0 -18 -21 -26 -30 -12 -3 6 -17 11 -31 11 -23 0 -29 -9 -25 -39 2
-8 -2 -10 -11 -5 -7 4 -6 -1 3 -12 18 -21 31 -74 18 -74 -5 0 -9 -7 -9 -15 0
-8 -6 -15 -12 -15 -18 1 -48 25 -48 39 0 6 -4 11 -10 11 -5 0 -10 4 -10 9 0 5
-16 26 -35 47 -19 20 -33 40 -30 42 2 2 -3 11 -11 19 -8 8 -12 19 -9 24 4 5
-1 6 -10 3 -12 -5 -16 -2 -13 12 2 15 -3 19 -26 17 -16 -1 -31 -4 -34 -7 -2
-3 10 -28 28 -56 23 -36 33 -63 33 -91 0 -25 5 -39 13 -39 7 0 10 -8 7 -20 -4
-14 0 -20 12 -20 11 0 15 -5 11 -15 -4 -10 1 -15 17 -16 l22 0 -22 -9 c-13 -5
-23 -14 -23 -20 0 -6 -4 -8 -10 -5 -6 3 -7 -1 -4 -9 3 -9 1 -16 -6 -16 -6 0
-9 -4 -5 -9 3 -5 1 -12 -5 -16 -6 -4 -10 9 -10 34 0 23 -3 41 -8 41 -7 0 -9
-21 -15 -122 -2 -48 -17 -38 -17 12 0 21 -4 41 -9 45 -5 3 -9 -8 -9 -23 1 -16
-2 -34 -6 -41 -12 -18 -16 -51 -6 -51 11 0 0 -43 -14 -52 -7 -5 -4 -8 8 -8 12
0 16 -5 12 -16 -3 -9 -6 -43 -7 -77 -1 -44 -3 -55 -8 -37 -5 14 -6 40 -4 58 2
23 0 31 -8 26 -8 -4 -9 0 -4 15 7 22 -1 26 -23 13 -11 -8 -17 -49 -21 -147 -1
-26 -3 -27 -15 -15 -23 23 -23 176 -1 278 3 12 1 22 -5 22 -5 0 -10 -5 -10
-11 0 -5 -4 -8 -9 -4 -5 3 -12 1 -16 -5 -3 -5 2 -10 11 -10 15 0 15 -3 -4 -23
-12 -13 -22 -35 -22 -50 0 -15 -4 -35 -9 -45 -29 -56 -47 -286 -54 -704 l-3
-218 107 0 c59 0 114 3 122 6 11 4 13 17 9 52 -3 26 -9 50 -15 53 -5 4 -6 12
-2 19 6 9 10 9 17 -1 6 -10 8 -3 4 21 -10 63 -12 104 -6 140 4 25 8 4 13 -70
4 -58 10 -131 14 -162 l6 -58 450 0 450 0 -8 68 c-12 108 -22 366 -13 376 4 5
14 3 24 -5 16 -13 17 -12 11 11 -4 14 -7 36 -7 50 l0 25 -20 -30 -20 -30 -1
40 c0 22 -2 49 -4 60 -5 25 13 37 37 24 13 -7 18 -6 16 3 -2 7 -7 16 -13 20
-6 5 -5 8 3 8 7 0 11 4 8 8 -4 7 -6 54 -6 140 0 12 5 22 10 22 6 0 10 5 10 10
0 6 -3 9 -7 8 -14 -5 -55 30 -44 37 6 3 11 1 11 -4 0 -6 5 -11 10 -11 6 0 8
11 4 26 -6 24 -5 26 17 19 23 -7 23 -7 4 8 -11 9 -17 19 -12 23 4 4 7 2 7 -5
0 -8 7 -10 21 -6 16 6 20 4 13 -6 -6 -11 -4 -11 10 0 9 8 15 23 13 32 -3 10 1
20 9 23 8 3 14 1 14 -4 0 -6 6 -10 13 -10 6 1 1 10 -12 20 -25 21 -46 27 -36
10 10 -16 -15 -12 -31 5 -9 8 -12 19 -9 25 3 5 -1 10 -9 10 -9 0 -16 -4 -16
-10 0 -17 -18 -11 -24 8 -3 9 -4 0 -3 -20 2 -20 0 -35 -4 -32 -4 2 -10 0 -14
-6 -3 -5 -1 -10 4 -10 6 0 11 -4 11 -10 0 -5 -6 -10 -14 -10 -16 0 -15 72 2
167 8 47 7 52 -11 57 -11 3 -16 9 -12 17 4 6 11 28 16 48 l8 36 -20 -23 -19
-24 -10 27 c-12 31 -4 49 17 40 13 -5 14 -3 3 10 -11 13 -10 18 8 31 12 8 22
22 22 31 0 14 -2 14 -16 -3 -8 -10 -12 -13 -8 -5 5 10 1 11 -16 6 -15 -5 -20
-4 -16 4 4 6 -5 16 -21 22 -59 24 -79 35 -110 58 -17 14 -41 26 -54 28 -13 2
-30 10 -39 18 -9 8 -21 15 -27 15 -5 0 -20 9 -33 20 -24 21 -60 27 -60 10z
m-50 -64 c0 -3 -4 -8 -10 -11 -5 -3 -10 -1 -10 4 0 6 5 11 10 11 6 0 10 -2 10
-4z m-85 -86 c3 -5 28 -10 56 -10 27 0 49 -4 49 -10 0 -13 -102 1 -118 17 -7
7 -9 13 -3 13 5 0 13 -4 16 -10z m291 -20 c8 0 29 -13 47 -30 18 -16 35 -30
40 -30 4 0 7 -4 7 -9 0 -5 -13 -9 -30 -9 -27 1 -28 2 -12 15 15 11 14 12 -10
3 -15 -5 -27 -6 -25 -2 3 10 -40 51 -47 45 -3 -4 -6 -1 -6 5 0 5 -3 19 -7 29
-7 17 -6 17 11 1 9 -10 24 -18 32 -18z m-146 -74 c0 -3 -4 -8 -10 -11 -5 -3
-10 -1 -10 4 0 6 5 11 10 11 6 0 10 -2 10 -4z m-205 -26 c3 -5 16 -10 28 -10
24 0 106 -72 89 -78 -6 -2 -20 2 -31 7 -14 8 -22 8 -27 0 -5 -8 -8 -8 -14 0
-3 7 -22 20 -40 30 -21 11 -34 26 -35 39 -2 22 19 30 30 12z m510 -50 c10 -11
14 -20 9 -20 -12 1 -44 25 -44 34 0 12 17 6 35 -14z m-673 -134 c3 -5 -5 -24
-18 -41 -16 -22 -24 -46 -25 -76 -1 -40 -2 -41 -9 -14 -17 71 23 171 52 131z
m842 -117 c-32 -13 -44 -10 -44 10 0 18 3 19 32 9 28 -10 30 -12 12 -19z m-71
-46 c3 -5 -1 -13 -8 -20 -10 -10 -14 -9 -18 1 -8 21 15 37 26 19z m-4 -110 c1
-7 -3 -13 -7 -13 -4 0 -8 15 -9 33 -2 26 0 28 7 12 5 -11 9 -26 9 -32z m-149
-8 c-18 -19 -36 -33 -38 -30 -5 5 56 65 66 65 3 0 -9 -16 -28 -35z m-770 -28
c0 -5 -4 -5 -10 -2 -5 3 -10 14 -10 23 0 15 2 15 10 2 5 -8 10 -19 10 -23z
m421 -57 c5 0 9 -11 9 -24 0 -13 7 -29 15 -36 9 -7 14 -19 11 -27 -3 -8 1 -24
9 -36 13 -21 13 -24 -6 -35 -19 -12 -19 -11 -9 7 10 19 8 20 -18 15 -29 -6
-29 -5 -36 46 -4 29 -3 73 1 98 6 37 8 41 11 20 2 -16 8 -28 13 -28z m98 9
c-7 -14 -14 -18 -21 -11 -13 13 -2 32 18 32 12 0 13 -4 3 -21z m-599 -5 c0 -8
-4 -12 -10 -9 -5 3 -10 10 -10 16 0 5 5 9 10 9 6 0 10 -7 10 -16z m88 -39 c-3
-3 -9 2 -12 12 -6 14 -5 15 5 6 7 -7 10 -15 7 -18z m614 -37 c-17 -18 -40 -44
-52 -58 -12 -14 -18 -18 -14 -10 12 23 88 110 92 105 2 -2 -10 -18 -26 -37z
m308 27 c-7 -9 -15 -13 -19 -10 -3 3 1 10 9 15 21 14 24 12 10 -5z m-1000 -9
c0 -11 -19 -15 -25 -6 -3 5 1 10 9 10 9 0 16 -2 16 -4z m80 -16 c0 -5 -4 -10
-10 -10 -5 0 -10 5 -10 10 0 6 5 10 10 10 6 0 10 -4 10 -10z m-103 -72 c-2
-13 -4 -5 -4 17 -1 22 1 32 4 23 2 -10 2 -28 0 -40z m113 -83 c0 -38 -5 -77
-11 -85 -9 -12 -10 -12 -5 3 3 10 1 27 -4 37 -7 13 -6 20 2 22 9 3 9 11 -1 35
-7 17 -9 42 -5 57 11 46 24 9 24 -69z m495 37 c-3 -3 -11 0 -18 7 -9 10 -8 11
6 5 10 -3 15 -9 12 -12z m-604 -63 c-9 -22 -10 -22 -10 -3 -1 11 2 24 6 27 12
12 14 0 4 -24z m-44 -161 c-3 -8 -6 -5 -6 6 -1 11 2 17 5 13 3 -3 4 -12 1 -19z
m50 -15 c-3 -10 -5 -4 -5 12 0 17 2 24 5 18 2 -7 2 -21 0 -30z m-47 -160 c0
-44 -5 -41 -14 10 -5 27 -4 37 3 32 6 -3 11 -22 11 -42z"/>
<path d="M3720 1449 c0 -5 5 -7 10 -4 6 3 10 8 10 11 0 2 -4 4 -10 4 -5 0 -10
-5 -10 -11z"/>
<path d="M3758 1363 c-10 -3 -18 -14 -19 -26 0 -12 -2 -34 -4 -49 -2 -16 1
-28 6 -28 5 0 9 -5 9 -11 0 -8 -11 -9 -32 -5 -29 5 -31 4 -15 -8 24 -18 21
-29 -5 -21 -19 5 -20 4 -7 -4 12 -8 27 -7 53 4 30 13 36 20 36 45 0 17 -5 30
-12 30 -10 0 -10 2 -1 8 15 9 27 58 16 64 -4 3 -16 3 -25 1z"/>
<path d="M3280 1040 c-12 -8 -12 -10 3 -16 9 -3 17 -15 17 -27 0 -11 3 -17 7
-14 3 4 11 0 17 -8 9 -12 15 -12 35 -2 35 18 34 29 -5 55 -39 24 -52 26 -74
12z"/>
<path d="M4700 1040 c-8 -5 -12 -11 -9 -14 2 -3 11 -1 19 4 8 5 12 11 9 14 -2
3 -11 1 -19 -4z"/>
<path d="M3694 975 c-9 -22 1 -29 15 -11 8 10 9 16 1 21 -5 3 -13 -1 -16 -10z"/>
<path d="M3398 953 c-15 -18 -31 -53 -24 -53 2 0 13 16 25 35 22 38 22 44 -1
18z"/>
<path d="M3428 899 c-37 -37 -40 -52 -7 -26 15 11 56 68 48 66 -2 0 -21 -18
-41 -40z"/>
<path d="M3483 883 c-25 -26 -28 -33 -14 -33 9 0 45 50 39 54 -2 1 -13 -9 -25
-21z"/>
<path d="M3338 845 c-20 -26 -24 -50 -8 -40 14 9 42 65 33 65 -5 0 -16 -11
-25 -25z"/>
<path d="M4784 830 c0 -11 1 -20 3 -20 1 0 7 9 13 20 8 15 8 20 -3 20 -7 0
-13 -9 -13 -20z"/>
<path d="M3431 788 c-12 -32 -77 -88 -102 -88 -11 0 -17 -4 -14 -10 10 -16 40
-11 69 11 28 22 71 97 62 106 -3 3 -10 -5 -15 -19z"/>
<path d="M4782 780 c0 -14 2 -19 5 -12 2 6 2 18 0 25 -3 6 -5 1 -5 -13z"/>
<path d="M3028 698 c-35 -43 -58 -80 -58 -94 0 -8 47 53 77 101 29 47 23 44
-19 -7z"/>
<path d="M3256 657 c-9 -23 -16 -50 -16 -59 0 -9 -4 -19 -9 -22 -5 -3 -8 -19
-7 -35 1 -17 -1 -28 -4 -26 -4 2 -12 -36 -19 -85 -12 -75 -12 -95 0 -122 8
-18 14 -36 14 -40 0 -3 3 -10 8 -14 4 -4 7 0 7 9 0 9 3 18 8 20 4 3 7 -15 7
-39 0 -24 -3 -44 -7 -44 -5 0 -8 7 -8 15 0 13 -3 13 -13 3 -8 -7 -12 -26 -11
-43 3 -22 1 -26 -6 -15 -5 8 -10 23 -10 33 0 9 -4 17 -10 17 -5 0 -10 -24 -10
-54 0 -30 -3 -61 -6 -70 -4 -12 0 -16 15 -16 12 0 21 -4 21 -10 0 -5 -9 -10
-20 -10 -11 0 -20 -4 -20 -9 0 -5 -3 -17 -6 -25 -5 -14 7 -16 106 -15 93 1
109 3 94 13 -10 8 -15 20 -11 29 3 9 2 19 -3 22 -6 4 -10 -1 -10 -9 0 -9 -5
-16 -12 -16 -6 0 -9 3 -5 6 3 4 0 13 -8 21 -8 8 -15 24 -16 36 -1 12 -2 44 -3
70 -1 27 -8 52 -15 57 -9 5 -10 9 -2 14 6 4 9 12 6 17 -4 5 0 9 7 9 8 0 18
-18 24 -42 5 -23 14 -43 21 -45 13 -5 12 14 -1 36 -7 10 -2 20 15 34 13 10 24
23 24 27 0 5 3 12 8 16 4 4 7 20 7 36 0 15 5 28 10 28 6 0 10 9 10 21 0 12 4
17 11 13 7 -4 9 2 7 17 -2 13 -9 23 -16 22 -6 -2 -12 2 -12 7 0 6 4 10 9 10 5
0 5 15 -1 35 -6 19 -16 31 -21 28 -6 -3 -7 -1 -3 5 4 7 14 12 22 12 19 0 18
44 -1 60 -8 6 -19 9 -25 5 -6 -4 -17 -1 -25 5 -26 21 -45 5 -35 -29 5 -17 6
-31 2 -31 -4 0 4 -6 18 -13 14 -8 24 -19 23 -25 -2 -6 6 -14 17 -17 21 -7 27
-31 11 -37 -6 -1 -12 -14 -14 -28 -16 -85 -20 -100 -33 -110 -7 -7 -22 -9 -34
-5 -14 5 -20 2 -20 -9 0 -9 -3 -16 -8 -16 -8 0 2 179 13 229 3 17 3 41 -2 53
-6 19 -9 14 -13 -27 -4 -40 -9 -50 -25 -53 -12 -2 -16 0 -9 5 10 6 21 57 23
107 1 4 8 6 16 2 8 -3 15 0 16 7 0 7 2 32 4 57 l4 45 -14 -30 -14 -30 5 28 c9
40 -1 33 -20 -16z m-1 -273 c-9 -85 -24 -91 -22 -9 1 36 5 65 10 65 4 0 7 8 8
18 0 11 2 13 6 4 3 -8 2 -42 -2 -78z m-38 24 c-3 -7 -5 -2 -5 12 0 14 2 19 5
13 2 -7 2 -19 0 -25z m43 -293 c-6 -8 -10 -18 -7 -22 2 -4 1 -17 -4 -28 -6
-16 -8 -12 -8 18 -1 41 21 91 27 62 2 -9 -2 -22 -8 -30z"/>
<path d="M3424 606 c-12 -12 -2 -72 15 -89 8 -8 11 2 11 34 0 52 -10 72 -26
55z"/>
<path d="M4776 564 c-4 -9 -4 -19 -2 -21 9 -10 46 9 46 23 0 19 -36 18 -44 -2z"/>
<path d="M2943 486 c-12 -6 -26 -21 -32 -34 -14 -29 -14 -82 -1 -82 6 0 10 -7
10 -15 0 -8 5 -15 10 -15 6 0 10 14 10 30 0 18 5 29 12 28 16 -4 33 58 22 80
-7 14 -14 16 -31 8z"/>
<path d="M3090 450 c0 -5 5 -10 11 -10 5 0 7 5 4 10 -3 6 -8 10 -11 10 -2 0
-4 -4 -4 -10z"/>
<path d="M3164 424 c4 -16 3 -23 -3 -20 -12 8 -25 -30 -15 -45 4 -7 12 1 20
21 17 39 18 70 3 70 -7 0 -9 -10 -5 -26z"/>
<path d="M3290 439 c0 -5 5 -7 10 -4 6 3 10 8 10 11 0 2 -4 4 -10 4 -5 0 -10
-5 -10 -11z"/>
<path d="M3320 435 c0 -8 4 -15 10 -15 5 0 7 7 4 15 -4 8 -8 15 -10 15 -2 0
-4 -7 -4 -15z"/>
<path d="M3286 404 c-3 -9 -6 -29 -6 -46 0 -26 2 -29 15 -18 12 10 13 16 3 27
-9 11 -9 19 0 34 7 10 8 19 3 19 -5 0 -12 -7 -15 -16z"/>
<path d="M3440 395 c0 -14 -9 -42 -20 -62 -11 -21 -20 -43 -20 -50 0 -7 -4
-13 -9 -13 -12 0 -31 -48 -35 -90 -2 -19 -7 -44 -12 -54 -7 -17 -8 -17 -19 -2
-11 14 -12 13 -12 -9 0 -20 5 -25 23 -25 23 0 40 24 58 82 3 10 11 15 20 12
10 -4 16 6 21 35 4 23 11 43 16 47 5 3 9 12 9 20 0 12 -2 12 -14 2 -8 -7 -12
-16 -10 -19 2 -4 -2 -12 -10 -18 -11 -9 -12 -6 -8 16 3 15 11 34 19 41 12 12
19 112 8 112 -3 0 -5 -11 -5 -25z m-35 -175 c-3 -5 -13 -10 -21 -10 -8 0 -12
5 -9 10 3 6 13 10 21 10 8 0 12 -4 9 -10z"/>
<path d="M3083 398 c-12 -21 -14 -46 -2 -53 16 -10 37 13 37 40 0 26 -21 34
-35 13z"/>
<path d="M4725 370 c4 -6 11 -8 16 -5 14 9 11 15 -7 15 -8 0 -12 -5 -9 -10z"/>
<path d="M4803 367 c4 -10 7 -24 7 -30 0 -8 3 -8 11 0 9 9 7 16 -7 30 -17 17
-18 17 -11 0z"/>
<path d="M4701 308 c-1 -67 8 -89 27 -65 11 14 9 73 -3 85 -4 4 -4 -4 0 -18 4
-14 4 -22 0 -18 -5 4 -11 25 -15 45 -7 33 -8 29 -9 -29z"/>
<path d="M2885 350 c3 -5 10 -10 16 -10 5 0 9 5 9 10 0 6 -7 10 -16 10 -8 0
-12 -4 -9 -10z"/>
<path d="M3462 335 c0 -16 2 -22 5 -12 2 9 2 23 0 30 -3 6 -5 -1 -5 -18z"/>
<path d="M2889 281 c3 -25 6 -38 9 -28 2 9 7 17 11 17 4 0 6 13 3 28 -7 49
-27 34 -23 -17z"/>
<path d="M4787 203 c-2 -5 -7 -20 -11 -35 -7 -32 -26 -38 -26 -9 0 27 -19 36
-27 14 -6 -15 -8 -95 -4 -150 1 -7 10 -13 22 -13 18 0 20 5 17 42 -2 37 0 43
18 46 19 3 22 -2 22 -44 2 -92 12 -55 12 44 0 88 -9 129 -23 105z"/>
<path d="M4842 190 c0 -14 2 -19 5 -12 2 6 2 18 0 25 -3 6 -5 1 -5 -13z"/>
<path d="M5107 155 c-8 -20 -4 -29 11 -24 5 2 6 13 2 23 -6 19 -7 19 -13 1z"/>
<path d="M3400 86 c0 -38 17 -57 31 -35 5 8 4 15 -1 17 -6 2 -10 15 -10 28 0
13 -4 24 -10 24 -5 0 -10 -15 -10 -34z"/>
<path d="M5130 109 c0 -5 5 -7 10 -4 6 3 10 8 10 11 0 2 -4 4 -10 4 -5 0 -10
-5 -10 -11z"/>
<path d="M5020 100 c0 -5 5 -10 10 -10 6 0 10 5 10 10 0 6 -4 10 -10 10 -5 0
-10 -4 -10 -10z"/>
<path d="M5388 3 c7 -3 16 -2 19 1 4 3 -2 6 -13 5 -11 0 -14 -3 -6 -6z"/>
</g>
</svg>
