<?xml version="1.0" standalone="no"?>
<!DOCTYPE svg PUBLIC "-//W3C//DTD SVG 20010904//EN"
 "http://www.w3.org/TR/2001/REC-SVG-20010904/DTD/svg10.dtd">
<svg version="1.0" xmlns="http://www.w3.org/2000/svg"
 width="800.000000pt" height="979.000000pt" viewBox="0 0 800.000000 979.000000"
 preserveAspectRatio="xMidYMid meet">

<g transform="translate(0.000000,979.000000) scale(0.100000,-0.100000)"
fill="#080808" stroke="none">
<path d="M0 4895 l0 -4895 3411 0 c3020 0 3410 2 3399 15 -7 8 -16 12 -21 9
-5 -3 -9 2 -9 11 0 8 8 19 18 22 14 6 13 8 -8 13 -14 4 -29 4 -35 0 -25 -18
-43 -6 -49 32 -3 21 -10 38 -15 38 -6 0 -10 8 -10 18 0 9 -5 50 -11 91 -6 41
-9 83 -7 93 3 10 2 16 -2 13 -5 -2 -7 16 -7 40 1 40 4 45 23 45 16 0 29 -12
45 -43 20 -37 23 -39 26 -19 2 13 -6 43 -17 68 -12 24 -21 50 -21 58 0 7 -7
30 -15 49 -8 20 -15 53 -15 73 0 20 -8 58 -17 84 -16 44 -16 49 0 73 37 57
119 41 152 -30 20 -45 45 -57 45 -23 0 23 28 40 68 40 22 0 39 -10 61 -35 17
-20 32 -40 32 -45 2 -15 5 -22 16 -51 6 -14 9 -46 6 -72 -5 -39 -2 -52 15 -70
20 -22 38 -65 34 -81 -2 -5 3 -16 11 -25 21 -24 27 -47 15 -59 -7 -7 -3 -14
12 -22 l23 -12 -5 131 c-5 125 -4 133 16 147 72 50 152 -35 160 -169 3 -37 9
-73 14 -80 5 -7 12 -25 16 -41 4 -16 20 -45 37 -65 16 -20 29 -46 29 -58 0
-13 5 -23 10 -23 6 0 10 6 10 13 0 24 40 51 73 51 34 0 127 -41 127 -57 0 -5
18 -27 40 -49 23 -22 43 -52 46 -67 l6 -27 134 -3 134 -3 0 2120 c0 1687 -3
2122 -12 2126 -10 5 -10 7 -1 12 10 4 13 578 13 2770 l0 2764 -4000 0 -4000 0
0 -4895z m4388 2939 c6 3 13 -3 17 -13 3 -11 12 -18 18 -15 7 2 24 -7 37 -21
13 -14 29 -25 35 -25 6 0 34 -23 63 -52 29 -28 52 -46 52 -39 0 11 3 11 15 1
8 -7 15 -17 15 -22 0 -6 -6 -6 -14 1 -11 9 -15 7 -19 -11 -7 -27 8 -48 35 -48
15 0 18 5 13 23 l-6 22 20 -24 c12 -12 19 -27 16 -31 -3 -5 4 -12 15 -15 18
-6 19 -9 8 -22 -11 -14 -10 -15 11 -8 21 6 22 5 10 -8 -8 -8 -17 -13 -20 -11
-3 2 -15 -3 -25 -11 -10 -8 -27 -15 -36 -15 -10 0 -18 -4 -18 -10 0 -5 -6 -10
-14 -10 -15 0 -57 -39 -96 -88 -14 -18 -30 -30 -37 -28 -7 3 -15 0 -19 -6 -4
-7 -10 -6 -16 3 -8 11 -9 11 -5 -1 2 -8 12 -14 21 -13 12 1 15 -4 11 -15 -18
-45 -16 -91 8 -162 29 -87 36 -133 27 -175 -4 -20 2 -49 17 -86 12 -31 25 -80
29 -110 4 -30 10 -56 15 -59 4 -3 10 -17 14 -31 6 -23 1 -32 -34 -60 -41 -33
-56 -64 -24 -52 23 9 8 -14 -19 -28 -15 -8 -19 -8 -13 0 4 7 1 19 -6 27 -10
13 -14 12 -30 -5 -11 -11 -19 -27 -19 -36 0 -25 -63 -20 -80 8 -31 47 -89 95
-122 101 -42 8 -117 -19 -100 -36 6 -6 41 -14 77 -17 69 -7 95 -24 95 -62 0
-9 7 -19 15 -23 19 -7 20 -42 1 -49 -18 -7 -28 -57 -11 -57 7 0 18 -6 24 -14
9 -11 20 -12 44 -5 33 9 102 11 80 2 -10 -3 -10 -10 -2 -26 10 -22 10 -22 -6
-2 -10 12 -19 16 -23 10 -13 -19 -61 -35 -68 -23 -5 7 -3 8 6 3 7 -5 11 -4 7
1 -6 10 -106 10 -185 0 -38 -5 -58 -3 -70 6 -12 10 -14 10 -8 1 9 -16 5 -16
-31 -1 -15 6 -34 10 -40 9 -7 -1 -13 2 -13 6 0 12 116 44 134 37 9 -4 22 -1
30 5 8 7 18 11 22 10 5 -1 19 -1 32 0 26 1 30 32 6 52 -18 14 -56 20 -64 9 -9
-12 -60 -21 -60 -11 0 6 -8 7 -17 4 -12 -5 -15 -2 -10 10 3 9 2 19 -3 22 -6 4
-10 -3 -10 -14 0 -16 -6 -19 -27 -17 -19 2 -37 -6 -56 -23 -26 -24 -29 -25
-38 -8 -6 9 -15 17 -21 17 -20 0 -48 -32 -48 -55 0 -26 -15 -41 -50 -50 -15
-3 -37 -24 -52 -48 -26 -40 -27 -42 -8 -51 13 -6 31 -2 62 14 103 55 91 53
191 40 99 -14 257 -21 404 -20 52 0 94 -4 98 -10 3 -6 -4 -10 -17 -11 -13 0
-17 -3 -10 -6 23 -9 12 -20 -14 -15 -21 4 -25 2 -19 -8 6 -10 4 -12 -8 -7 -10
3 -17 2 -17 -3 0 -8 -181 -6 -219 2 -3 1 -18 -4 -33 -11 -21 -11 -27 -21 -30
-57 -2 -32 0 -43 9 -40 7 3 15 1 18 -4 4 -6 13 -10 21 -10 17 0 19 30 2 30 -8
0 -6 5 4 11 9 5 15 15 12 22 -2 7 5 18 16 25 17 10 21 10 24 0 2 -7 7 -21 10
-31 3 -10 2 -16 -3 -13 -8 5 -23 -20 -34 -56 -3 -9 1 -24 10 -35 12 -15 14
-15 9 -1 -7 23 9 74 23 70 6 -1 11 9 11 23 0 25 29 45 65 45 14 0 43 -70 43
-107 1 -22 -17 -33 -19 -13 -3 20 -5 25 -16 45 -11 18 -12 18 -13 3 0 -10 -5
-18 -11 -18 -5 0 -7 -5 -3 -11 4 -8 9 -8 13 -1 3 6 7 -12 7 -39 0 -36 -3 -49
-12 -45 -19 7 -24 -41 -5 -58 11 -10 29 -13 59 -9 41 6 42 5 42 -24 0 -17 -7
-36 -15 -43 -8 -6 -13 -15 -12 -18 2 -10 -45 -62 -56 -62 -4 0 -14 -6 -22 -12
-7 -7 -22 -21 -33 -30 -20 -16 -21 -16 -27 3 -4 11 -1 27 6 35 6 8 9 17 6 21
-4 3 -21 -11 -39 -31 -29 -33 -58 -50 -43 -26 9 15 -8 12 -34 -6 -19 -14 -25
-14 -31 -3 -7 10 -12 10 -23 1 -8 -7 -22 -10 -31 -6 -9 3 -16 3 -16 0 0 -10
24 -50 35 -58 18 -13 -11 -9 -50 8 -20 8 -39 13 -41 11 -8 -8 98 -97 114 -97
13 0 12 3 -4 15 -31 23 2 17 57 -11 37 -18 65 -25 103 -24 75 2 76 2 76 -25 0
-27 30 -63 47 -58 14 5 161 -159 156 -174 -3 -7 1 -13 9 -13 14 0 29 -15 66
-67 l23 -32 -58 -37 c-32 -21 -121 -66 -198 -101 -262 -120 -285 -133 -609
-369 -34 -25 -64 -40 -71 -36 -6 4 -41 41 -76 82 -101 119 -174 188 -319 299
-74 58 -171 136 -215 175 -104 91 -354 336 -366 358 -8 14 -5 16 19 12 15 -3
45 -11 67 -18 22 -7 58 -12 80 -9 22 2 60 5 85 7 59 5 57 5 40 19 -14 11 -14
14 4 31 16 16 18 17 13 3 -5 -14 0 -17 33 -17 33 0 40 3 40 20 0 13 -7 20 -20
20 -12 0 -34 10 -50 22 -23 17 -32 19 -44 9 -11 -9 -17 -8 -30 4 -17 17 -11
45 10 45 8 0 14 8 14 18 0 13 18 25 62 43 34 13 64 31 66 39 4 12 3 13 -10 3
-8 -7 -36 -16 -61 -19 l-47 -7 11 32 c6 17 14 31 18 31 3 0 12 13 19 29 8 19
18 28 27 24 8 -2 22 3 31 12 16 16 18 16 34 -4 36 -49 41 25 5 84 -28 46 -31
59 -10 51 24 -9 17 11 -11 33 -15 12 -23 21 -19 21 10 0 65 -33 65 -40 0 -3 9
-16 20 -30 l20 -25 -2 77 c-2 79 6 104 22 78 7 -11 10 -12 10 -2 0 23 18 3 25
-28 8 -36 17 -42 45 -32 21 8 21 8 -5 37 -29 33 -65 98 -65 117 0 6 13 -8 28
-33 16 -24 39 -53 52 -64 22 -19 22 -17 -4 25 -15 25 -32 57 -38 73 -5 15 -14
27 -18 27 -5 0 -11 14 -15 31 -4 18 -16 35 -31 41 -19 9 -23 17 -21 49 1 22 7
39 14 39 6 0 9 9 6 20 -3 11 -2 55 2 98 6 58 9 72 16 55 5 -13 13 -23 19 -23
14 0 12 74 -4 142 -7 32 -11 60 -8 63 3 3 0 5 -6 5 -7 0 -12 8 -12 18 1 16 1
16 11 0 5 -10 9 -21 9 -24 -1 -4 3 -10 8 -13 5 -3 19 -24 30 -46 17 -33 21
-36 22 -17 0 12 -7 39 -15 58 -8 20 -13 46 -11 58 2 11 1 15 -1 9 -3 -7 -9
-13 -15 -13 -6 0 -8 14 -3 37 6 31 4 35 -8 25 -11 -10 -16 -5 -26 29 -7 23
-15 48 -18 57 -4 10 -2 13 5 8 14 -9 15 4 2 38 -8 21 -7 24 8 19 14 -5 15 -3
5 8 -7 7 -13 20 -13 28 0 12 2 13 8 3 12 -17 38 16 90 115 23 45 53 99 67 119
14 21 35 70 47 110 11 41 24 71 28 69 12 -7 33 23 25 35 -7 12 52 40 85 40 11
0 20 4 20 10 0 5 16 12 36 16 20 4 55 21 79 39 23 18 63 42 89 53 l46 21 -6
-27 c-4 -15 -11 -31 -15 -36 -5 -6 -9 -16 -9 -23 0 -13 42 11 78 45 19 17 20
16 16 -23 l-2 -35 39 31 c23 18 37 24 33 15 -3 -9 -1 -16 4 -16 16 0 59 61 68
94 4 16 15 37 25 47 21 21 49 25 49 8 0 -6 7 -9 16 -7 9 2 48 -28 91 -69 108
-104 228 -169 144 -78 -22 24 -41 49 -41 55 0 14 6 13 24 -6 21 -21 20 -2 -2
38 -10 18 -17 39 -14 47 3 8 0 11 -6 7 -6 -4 -8 2 -5 15 4 14 8 17 13 9 4 -7
12 -10 18 -6z m212 -134 c0 -5 -2 -10 -4 -10 -3 0 -8 5 -11 10 -3 6 -1 10 4
10 6 0 11 -4 11 -10z m152 -388 c-22 -7 -13 -31 18 -47 17 -9 30 -17 30 -18 0
-5 -99 1 -108 6 -9 6 -92 -32 -118 -54 -11 -9 -14 -8 -14 4 0 9 8 21 18 26 9
6 13 11 9 11 -5 0 -1 7 7 15 9 9 24 15 33 13 10 -2 17 2 16 9 -2 7 9 15 25 19
15 3 33 7 40 10 6 2 12 -2 13 -9 0 -7 5 -2 11 10 6 12 16 19 21 16 8 -5 7 -8
-1 -11z m-167 -181 c3 -12 22 -23 50 -30 25 -6 45 -13 45 -16 0 -2 -22 -3 -49
-2 -27 1 -47 6 -43 11 3 5 -5 7 -16 4 -23 -6 -28 5 -16 36 8 22 21 20 29 -3z
m132 -37 c-3 -3 -12 -4 -19 -1 -8 3 -5 6 6 6 11 1 17 -2 13 -5z m113 -250 c0
-7 -5 -16 -10 -19 -6 -4 -8 -15 -5 -25 9 -27 -22 -59 -51 -54 -15 3 -24 0 -24
-8 0 -7 -7 -2 -16 10 -9 13 -14 25 -13 27 2 2 19 22 38 43 33 39 81 55 81 26z
m-1653 -276 c-3 -7 -5 -2 -5 12 0 14 2 19 5 13 2 -7 2 -19 0 -25z m768 -137
c-3 -6 -11 -11 -17 -11 -6 0 -6 6 2 15 14 17 26 13 15 -4z m-680 -81 c5 -17 4
-22 -3 -15 -5 6 -13 21 -17 35 -5 17 -4 22 3 15 5 -5 13 -21 17 -35z m-5 -95
c14 -19 14 -19 -2 -6 -10 7 -18 18 -18 24 0 6 1 8 3 6 1 -2 9 -13 17 -24z
m1190 -106 c0 -6 -4 -7 -10 -4 -5 3 -10 11 -10 16 0 6 5 7 10 4 6 -3 10 -11
10 -16z m-1375 -467 c-3 -3 -11 0 -18 7 -9 10 -8 11 6 5 10 -3 15 -9 12 -12z
m1119 6 c-2 -3 1 -8 8 -11 7 -2 2 -2 -12 0 -34 6 -48 21 -17 20 14 -1 23 -5
21 -9z m141 -18 c4 -6 -7 -10 -24 -10 -17 0 -31 5 -31 10 0 6 11 10 24 10 14
0 28 -4 31 -10z m205 -105 c0 -6 12 -17 26 -23 14 -7 23 -16 19 -21 -3 -5 3
-12 12 -15 10 -3 33 -27 51 -53 17 -26 32 -41 32 -33 0 8 6 4 13 -10 8 -15 20
-24 30 -22 10 2 17 -4 17 -13 0 -8 4 -15 8 -15 4 0 16 -15 26 -32 20 -35 63
-78 78 -78 5 0 19 -10 31 -21 l22 -22 -25 6 c-14 4 -38 7 -53 7 -16 0 -37 10
-50 23 -34 36 -70 79 -95 115 -13 17 -28 32 -35 32 -8 0 -8 -3 1 -12 21 -21
13 -32 -10 -12 -34 30 -136 161 -143 184 -4 12 -1 28 7 37 11 14 11 16 -3 11
-12 -5 -16 1 -16 22 l0 29 29 -36 c15 -20 28 -41 28 -48z m165 -444 c-6 -5
-25 10 -25 20 0 5 6 4 14 -3 8 -7 12 -15 11 -17z m-35 -15 c0 -8 4 -18 10 -21
6 -4 7 1 4 12 -6 15 -4 15 9 -2 9 -11 17 -39 17 -62 0 -24 4 -43 8 -43 4 0 6
-16 4 -35 -3 -25 1 -43 14 -58 11 -12 12 -17 4 -10 -13 10 -16 8 -15 -18 0
-16 4 -29 9 -29 6 0 5 -5 -1 -11 -8 -8 -17 -7 -32 3 -20 12 -23 23 -26 103 -2
42 -14 65 -35 65 -11 0 -20 10 -24 24 -7 28 8 76 24 76 6 0 8 5 5 10 -3 6 1
10 9 10 9 0 16 -6 16 -14z m266 -305 c-8 -42 -22 -107 -31 -146 -9 -38 -19
-87 -22 -107 -3 -21 -10 -38 -15 -38 -6 0 -8 11 -6 25 4 18 1 25 -11 25 -10 0
-12 3 -5 8 12 8 41 114 50 187 1 11 7 38 12 60 6 22 13 78 17 125 10 140 20
156 23 41 2 -63 -3 -134 -12 -180z m-139 182 c-4 -21 19 -73 33 -73 5 0 5 -13
-1 -32 -11 -41 -11 -41 1 -33 6 3 10 16 10 28 0 19 2 20 15 6 14 -14 14 -20 0
-58 -17 -50 -19 -62 -5 -41 9 13 10 13 10 0 0 -9 -5 -21 -10 -26 -6 -6 -11
-38 -13 -71 -1 -34 -5 -56 -9 -50 -5 9 -10 9 -19 0 -9 -9 -8 -17 4 -36 15 -24
13 -37 -5 -37 -4 0 -7 3 -6 8 1 4 -2 22 -6 41 -6 23 -4 36 4 41 9 6 14 124 8
215 0 6 3 19 6 30 5 13 2 11 -7 -5 -9 -14 -19 -24 -24 -23 -4 1 -13 -3 -20 -8
-7 -7 -14 -6 -18 1 -4 6 -1 9 6 8 7 -2 13 2 14 9 0 6 4 15 9 20 5 5 6 3 2 -4
-4 -7 -3 -13 2 -13 12 0 22 25 21 48 0 14 -2 13 -9 -3 -7 -15 -8 -12 -5 15 1
19 3 41 4 48 0 6 4 12 7 12 3 0 4 -8 1 -17z m73 -53 c0 -5 -4 -10 -10 -10 -5
0 -10 5 -10 10 0 6 5 10 10 10 6 0 10 -4 10 -10z m-70 -104 c0 -19 -4 -22 -23
-19 -13 3 -24 11 -24 20 0 9 7 13 19 10 10 -3 16 -1 12 4 -3 5 0 9 5 9 6 0 11
-11 11 -24z m-12 -38 c7 -7 12 -21 11 -32 0 -12 -3 -15 -6 -8 -2 6 -9 12 -14
12 -6 0 -7 -5 -3 -12 4 -7 3 -8 -4 -4 -18 11 -14 26 6 27 16 1 16 2 0 6 -10 2
-18 9 -18 14 0 13 14 11 28 -3z m-1 -84 c13 -27 9 -49 -7 -39 -5 3 -7 12 -4
19 3 8 1 17 -5 21 -13 7 -15 25 -3 25 4 0 12 -12 19 -26z m214 -244 c23 -41
34 -67 26 -58 -8 10 -17 15 -21 11 -4 -4 -4 1 -1 12 5 13 4 16 -2 8 -6 -9 -17
4 -36 42 -30 62 -32 68 -16 63 6 -2 28 -37 50 -78z m-44 -18 c57 -50 69 -58
87 -65 11 -4 16 -13 12 -22 -3 -9 0 -18 8 -21 7 -3 22 -21 32 -39 15 -29 16
-37 5 -47 -12 -11 -13 -10 -8 5 4 9 4 24 1 32 -9 22 -26 7 -19 -16 4 -11 2
-19 -5 -19 -6 0 -8 5 -4 11 5 9 -2 10 -22 6 -16 -3 -23 -4 -16 -1 19 9 15 20
-29 66 -38 41 -96 138 -81 138 4 0 21 -13 39 -28z m-62 -99 c3 -12 11 -20 18
-18 6 2 20 -7 31 -21 l19 -26 -24 7 c-13 4 -33 19 -44 33 -11 14 -28 32 -37
41 -26 22 -22 31 7 18 13 -7 27 -22 30 -34z m121 -102 c-4 -5 6 -14 21 -19 16
-6 21 -11 12 -11 -9 -1 -27 8 -40 19 -21 17 -22 19 -6 20 10 0 16 -4 13 -9z"/>
<path d="M4470 7753 c0 -11 124 -122 129 -117 6 6 -88 102 -111 115 -10 5 -18
6 -18 2z"/>
<path d="M3800 7600 c-14 -4 -43 -8 -66 -9 -55 -1 -134 -43 -172 -91 -37 -45
-39 -54 -12 -45 l21 7 -21 -34 c-22 -36 -26 -58 -9 -58 5 0 7 5 4 10 -3 6 -3
10 2 10 4 0 29 20 56 44 26 25 61 47 79 51 18 3 64 14 102 22 64 15 75 15 155
-1 47 -9 107 -27 132 -40 53 -27 105 -25 114 5 4 10 4 23 1 28 -6 10 -179 73
-251 91 -68 18 -105 20 -135 10z"/>
<path d="M3990 7303 c19 -24 19 -28 6 -31 -13 -3 -11 -8 9 -30 32 -35 32 -49
0 -28 -14 9 -50 21 -79 27 -46 8 -63 7 -110 -10 -31 -11 -62 -26 -68 -33 -63
-69 -65 -71 -40 -64 13 5 22 3 22 -3 0 -22 16 -10 28 22 l12 32 19 -32 c11
-17 29 -34 41 -38 49 -16 110 21 110 67 0 24 15 23 40 -4 24 -26 24 -26 1 -64
-18 -30 -72 -54 -120 -54 -12 0 -19 -4 -16 -10 9 -14 129 -12 162 2 32 15 60
43 73 77 6 13 16 21 24 18 7 -3 20 3 28 13 9 10 22 20 29 22 9 3 14 20 13 51
-1 68 -39 105 -39 39 0 -19 -5 -26 -16 -24 -11 1 -19 -7 -24 -25 l-7 -28 -12
31 c-14 38 -45 77 -73 92 -33 18 -36 14 -13 -15z"/>
<path d="M4027 7031 c-15 -18 -24 -38 -21 -42 8 -14 64 23 80 52 13 25 12 27
-10 25 -13 0 -34 -15 -49 -35z"/>
<path d="M4051 6779 c-13 -11 -28 -18 -34 -16 -5 1 -53 -39 -105 -90 -70 -69
-93 -96 -84 -105 8 -8 7 -15 -4 -25 -31 -31 -12 -32 26 -2 22 18 40 36 40 40
0 4 25 23 55 44 30 20 55 39 55 43 0 4 20 20 45 35 26 17 48 39 51 53 4 13 14
29 23 34 13 7 10 9 -14 9 -16 0 -41 -9 -54 -20z"/>
<path d="M3260 6570 c0 -5 5 -10 11 -10 5 0 7 5 4 10 -3 6 -8 10 -11 10 -2 0
-4 -4 -4 -10z"/>
<path d="M3267 6544 c-9 -9 18 -77 53 -130 35 -55 32 -30 -6 53 -13 28 -24 56
-24 62 0 12 -15 22 -23 15z"/>
<path d="M3846 6438 c-18 -26 -21 -68 -5 -68 6 0 9 7 5 15 -3 8 -2 15 3 15 7
0 31 43 31 55 0 13 -21 2 -34 -17z"/>
<path d="M3780 6229 c0 -5 5 -7 10 -4 6 3 10 8 10 11 0 2 -4 4 -10 4 -5 0 -10
-5 -10 -11z"/>
<path d="M3345 6120 c3 -5 10 -10 16 -10 5 0 9 5 9 10 0 6 -7 10 -16 10 -8 0
-12 -4 -9 -10z"/>
<path d="M3437 6104 c-11 -12 21 -58 65 -95 52 -44 163 -102 180 -97 15 5 -43
38 -65 38 -8 0 -17 9 -20 20 -3 11 -10 20 -17 20 -6 0 -8 -6 -5 -12 4 -7 0 -5
-8 5 -8 9 -17 17 -21 17 -11 0 -103 99 -98 105 3 3 3 5 0 5 -2 0 -7 -3 -11 -6z"/>
<path d="M3665 5990 c3 -5 8 -10 11 -10 2 0 4 5 4 10 0 6 -5 10 -11 10 -5 0
-7 -4 -4 -10z"/>
<path d="M3721 5943 c0 -18 -6 -33 -12 -33 -5 0 -7 -5 -4 -10 5 -8 12 -7 23 2
13 11 15 10 9 -4 -3 -10 -2 -18 4 -18 18 0 23 32 7 44 -9 6 -18 20 -21 31 -3
13 -5 9 -6 -12z"/>
<path d="M4681 5071 c-8 -6 -9 -11 -3 -15 6 -3 14 -1 17 5 9 14 2 20 -14 10z"/>
<path d="M6760 275 c-1 -32 63 -153 88 -166 12 -7 22 -18 22 -25 0 -8 6 -11
17 -7 10 4 14 2 10 -4 -9 -15 59 -73 84 -73 15 0 19 5 15 15 -3 8 -1 15 3 15
5 0 11 -7 14 -15 5 -12 32 -14 146 -14 l140 0 -11 25 c-9 20 -9 27 1 34 10 6
8 10 -10 15 -28 9 -58 44 -59 68 0 10 -7 20 -15 23 -8 4 -15 12 -15 20 0 8 -4
14 -10 14 -5 0 -7 -7 -4 -15 4 -8 1 -15 -6 -15 -6 0 -8 -5 -3 -12 21 -34 -5
-78 -46 -78 -11 0 -21 -5 -23 -11 -7 -20 -63 45 -97 114 -43 85 -56 96 -57 51
-1 -41 -2 -43 -45 -48 -42 -5 -96 19 -105 47 -4 12 -13 31 -20 42 -14 19 -14
19 -14 0z"/>
<path d="M7440 81 c0 -6 5 -13 11 -16 5 -4 8 -12 6 -18 -5 -15 42 -47 69 -47
27 0 72 22 79 38 3 9 0 10 -14 3 -13 -7 -24 -6 -36 3 -10 7 -28 11 -41 8 -17
-3 -24 0 -24 11 0 8 -7 18 -16 21 -22 9 -34 7 -34 -3z m115 -52 c11 -16 1 -19
-13 -3 -7 8 -8 14 -3 14 5 0 13 -5 16 -11z"/>
<path d="M7426 15 c4 -8 10 -15 15 -15 4 0 6 7 3 15 -4 8 -10 15 -15 15 -4 0
-6 -7 -3 -15z"/>
</g>
</svg>
