<?xml version="1.0" standalone="no"?>
<!DOCTYPE svg PUBLIC "-//W3C//DTD SVG 20010904//EN"
 "http://www.w3.org/TR/2001/REC-SVG-20010904/DTD/svg10.dtd">
<svg version="1.0" xmlns="http://www.w3.org/2000/svg"
 width="685.000000pt" height="440.000000pt" viewBox="0 0 685.000000 440.000000"
 preserveAspectRatio="xMidYMid meet">

<g transform="translate(0.000000,440.000000) scale(0.100000,-0.100000)"
fill="#080808" stroke="none">
<path d="M0 2200 l0 -2200 2260 0 c1500 0 2260 3 2260 10 0 6 5 10 11 10 5 0
7 -4 4 -10 -4 -7 383 -10 1154 -10 l1161 0 0 2200 0 2200 -3425 0 -3425 0 0
-2200z m3248 2105 c-5 -24 2 -32 16 -18 12 13 51 11 84 -3 29 -13 44 -34 25
-34 -5 0 -8 -13 -8 -30 0 -34 3 -35 30 -16 26 17 112 29 120 16 3 -6 -1 -10
-9 -10 -11 0 -8 -7 11 -26 14 -14 31 -23 39 -20 8 3 18 -4 24 -15 6 -11 14
-18 18 -15 4 2 24 7 46 10 31 5 37 4 32 -9 -3 -9 0 -15 9 -15 20 0 35 -32 35
-77 0 -21 8 -47 17 -58 l16 -20 -8 20 c-4 11 -10 39 -12 63 -5 34 -3 42 10 42
11 0 17 -14 22 -47 3 -27 7 -62 10 -80 2 -18 -1 -34 -8 -37 -7 -2 -3 -5 9 -5
11 -1 26 5 32 11 10 10 14 10 21 0 4 -7 15 -10 24 -6 13 4 16 2 11 -9 -3 -8
-1 -18 5 -22 6 -3 11 -1 11 4 0 6 9 11 20 11 11 0 20 5 20 10 0 6 11 10 24 10
14 0 27 4 30 8 3 4 21 6 40 4 20 -2 34 -8 31 -12 -3 -5 12 -7 32 -5 25 2 53
-5 83 -21 25 -13 51 -24 58 -24 20 0 97 -84 97 -106 0 -12 6 -18 17 -16 11 2
18 -7 23 -27 7 -31 29 -56 42 -48 4 3 9 -7 9 -21 2 -30 11 -53 54 -129 33 -60
23 -79 -18 -38 -24 25 -27 25 -30 9 -2 -11 -11 -25 -20 -31 -14 -12 -14 -14 0
-25 22 -18 30 -116 10 -127 -10 -6 -11 -10 -3 -15 6 -4 11 -30 11 -57 0 -27 7
-66 15 -86 18 -43 19 -82 3 -85 -7 -1 -31 -3 -53 -4 -85 -7 -141 -17 -160 -30
-11 -8 -27 -14 -36 -14 -10 0 -19 -4 -21 -8 -1 -4 -17 -18 -35 -30 -18 -12
-42 -43 -54 -67 -12 -24 -26 -42 -31 -39 -4 3 -8 -6 -8 -20 0 -14 -4 -28 -10
-31 -5 -3 -10 -17 -10 -30 0 -30 27 -133 38 -149 11 -15 29 -80 37 -134 7 -51
33 -112 80 -193 19 -33 35 -69 35 -79 0 -24 -55 -107 -80 -120 -10 -6 -30 -10
-44 -10 -16 0 -26 -6 -26 -15 0 -22 -8 -19 -58 22 -37 31 -51 36 -89 34 -46
-1 -97 -26 -87 -42 3 -6 -6 -7 -22 -3 l-27 7 22 -22 c21 -21 29 -22 91 -16 46
5 82 3 107 -6 37 -12 37 -12 13 -21 l-25 -10 25 -10 c14 -5 28 -16 33 -24 4
-8 18 -14 30 -14 26 -1 50 -17 66 -47 9 -18 17 -21 41 -16 18 3 30 1 30 -5 0
-5 9 -8 19 -5 18 4 19 1 11 -33 -5 -21 -7 -42 -4 -46 7 -12 -8 -10 -55 7 -39
13 -45 13 -79 -5 -27 -15 -48 -19 -77 -15 -29 4 -59 -1 -109 -20 -84 -30 -98
-31 -154 -4 -37 19 -47 20 -68 9 -23 -13 -41 -46 -31 -56 3 -3 18 1 34 9 18 9
38 11 58 6 102 -26 123 -30 148 -26 15 2 27 0 27 -5 0 -4 15 -8 33 -8 18 0 41
-6 52 -14 38 -26 63 -28 70 -8 3 11 16 22 30 24 19 4 25 0 30 -19 7 -30 -3
-66 -16 -58 -5 4 -12 -1 -15 -9 -4 -11 -14 -14 -30 -10 -15 4 -24 2 -24 -5 0
-6 -17 -11 -39 -11 -31 0 -40 -4 -44 -21 -10 -38 2 -49 57 -50 46 -2 83 -5
141 -12 14 -1 19 3 17 16 -2 9 2 17 8 17 5 0 10 7 10 17 0 9 12 31 26 50 20
26 25 43 23 75 -4 45 9 56 64 57 21 1 27 6 27 23 0 15 3 19 10 12 7 -7 8 -33
1 -80 -9 -70 -11 -91 -10 -156 0 -27 -9 -46 -33 -75 -18 -21 -37 -40 -41 -41
-4 -2 -21 -30 -37 -61 -54 -108 -99 -143 -136 -106 -21 21 -29 19 -67 -15 -19
-16 -37 -27 -41 -23 -5 6 -26 -2 -78 -28 -23 -12 -242 -3 -268 11 -12 6 -27 9
-34 7 -15 -6 -147 29 -155 41 -7 10 -43 26 -54 23 -4 -1 -18 5 -30 14 -25 17
-47 20 -47 5 0 -5 6 -10 14 -10 7 0 16 -9 19 -20 3 -11 12 -20 21 -20 9 0 16
-4 16 -10 0 -5 4 -10 10 -10 5 0 33 -16 62 -35 141 -94 161 -107 172 -110 6
-1 28 -9 48 -19 21 -9 43 -16 50 -16 7 0 22 -7 32 -15 11 -8 41 -15 67 -15 26
0 51 -4 54 -10 3 -5 34 -10 68 -11 62 -1 62 -1 27 -13 -73 -26 -101 -38 -98
-45 2 -3 10 -23 18 -43 8 -21 20 -38 28 -38 9 0 12 -6 8 -15 -4 -10 2 -19 17
-25 12 -5 16 -9 10 -9 -7 -1 -13 -10 -13 -22 0 -11 4 -17 10 -14 5 3 10 1 10
-5 0 -6 4 -9 9 -5 22 13 22 -19 0 -37 -16 -13 -18 -18 -7 -14 10 3 20 1 23 -4
4 -6 1 -10 -4 -10 -6 0 -11 -7 -11 -15 0 -8 4 -15 9 -15 5 0 11 -6 14 -14 4
-10 0 -12 -15 -8 -20 5 -21 4 -5 -18 8 -12 13 -29 10 -37 -3 -8 -1 -18 5 -22
15 -9 4 -22 -45 -58 -23 -17 -39 -33 -36 -37 10 -10 43 -7 43 4 0 6 7 10 15
10 8 0 15 -9 15 -20 0 -17 -7 -20 -44 -20 -30 0 -46 5 -50 15 -4 11 -15 14
-38 10 -18 -3 -49 -8 -68 -11 -58 -9 -68 -15 -45 -24 15 -6 11 -8 -15 -7 -36
2 -90 36 -90 56 0 8 -5 9 -19 1 -29 -15 -41 -12 -41 8 0 22 -19 42 -38 42 -8
0 -23 11 -33 24 -11 14 -36 35 -57 47 -20 13 -39 27 -43 31 -3 4 -33 19 -66
33 -73 29 -117 58 -191 125 -30 27 -60 50 -66 51 -9 0 -81 78 -151 162 -5 7
-37 44 -70 82 -90 104 -145 190 -161 248 -18 66 -18 154 -1 160 9 3 8 23 -6
89 -9 48 -20 120 -23 162 -6 65 -5 76 10 82 10 4 16 18 16 40 0 33 1 34 38 34
29 0 45 7 66 28 32 34 48 102 23 102 -9 0 -19 -4 -22 -10 -20 -32 -146 5 -162
48 -13 32 -53 85 -112 148 -53 56 -92 118 -62 100 6 -4 11 -13 11 -20 0 -8 9
-16 20 -19 22 -6 26 3 9 20 -16 16 -1 35 18 24 9 -4 35 -6 58 -3 38 4 45 1 55
-19 15 -29 45 -59 60 -59 23 0 4 45 -42 94 -10 11 -18 27 -18 35 0 9 -3 25 -6
36 -6 23 46 89 54 67 2 -6 8 -12 13 -12 6 0 8 4 5 9 -4 5 -1 11 4 13 6 2 13
17 15 33 9 56 17 80 26 86 5 3 11 23 13 45 2 21 7 57 11 78 7 34 6 38 -9 33
-14 -6 -15 -3 -6 14 15 28 22 58 21 92 -1 15 5 40 13 56 9 16 13 31 10 33 -2
3 0 17 5 30 7 18 6 29 -2 37 -8 8 -8 11 1 11 7 0 12 10 12 23 0 12 9 33 20 47
11 14 20 30 20 37 0 6 5 13 11 15 5 2 11 18 11 36 1 18 5 35 10 38 14 9 9 52
-8 58 -19 7 -49 -10 -84 -49 -53 -58 -74 -75 -94 -75 -25 -1 -78 -29 -56 -30
11 0 11 -3 -3 -11 -11 -6 -54 -13 -98 -16 -43 -3 -79 -10 -79 -14 0 -17 -17
-9 -28 14 l-11 22 0 -22 c-1 -25 3 -26 69 -24 25 1 56 -2 70 -8 16 -6 19 -10
8 -10 -9 -1 -18 -7 -21 -13 -2 -9 -25 -13 -66 -13 -59 1 -62 0 -58 -21 3 -18
0 -21 -14 -16 -10 4 -29 17 -43 29 -19 17 -26 19 -26 8 0 -8 20 -28 45 -45 25
-17 45 -35 45 -40 0 -14 -18 -12 -27 3 -4 6 -20 18 -35 26 -45 23 -64 80 -59
186 l1 40 45 -50 c25 -27 45 -44 45 -37 0 7 -12 24 -26 37 -15 14 -28 36 -29
49 -2 13 -8 32 -13 43 -6 11 -8 30 -5 41 3 12 -1 29 -8 38 -10 13 -10 17 1 24
9 6 17 4 22 -3 6 -9 8 -9 8 1 0 7 -11 18 -25 24 -14 6 -25 15 -25 20 0 4 -6 8
-14 8 -11 0 -13 -9 -9 -37 3 -21 11 -41 17 -45 8 -5 7 -11 -1 -19 -10 -10 -16
-9 -31 4 -10 9 -23 17 -29 17 -15 0 -23 48 -17 100 8 67 12 74 29 60 11 -9 16
-5 24 28 6 22 18 45 25 52 12 9 18 5 34 -25 14 -29 21 -34 29 -23 8 9 8 26 1
60 -10 40 -8 54 7 87 9 22 24 42 32 45 8 3 11 10 8 16 -9 14 1 12 43 -9 31
-16 92 -26 92 -15 0 2 -18 8 -39 14 -68 18 -98 95 -54 138 10 11 12 8 7 -17
-4 -19 -2 -31 4 -31 5 0 15 28 21 62 6 35 15 64 21 66 5 2 10 10 10 18 0 9 5
12 10 9 10 -6 40 17 40 32 1 9 72 88 113 123 21 18 26 20 21 7 -3 -9 -2 -17 3
-17 5 0 15 16 23 35 15 38 46 55 125 67 11 2 27 11 36 20 17 19 69 35 69 21 0
-5 -5 -14 -12 -21 -9 -9 -9 -12 0 -12 7 0 12 4 12 10 0 5 18 19 39 30 36 18
41 18 55 4 15 -14 19 -14 51 6 34 21 47 16 23 -8 -18 -18 7 -15 38 4 33 22 43
10 13 -15 -13 -11 -21 -22 -18 -25 8 -8 78 46 79 62 0 6 3 12 6 12 4 0 4 -11
2 -25z m-158 11 c0 -3 -4 -8 -10 -11 -5 -3 -10 -1 -10 4 0 6 5 11 10 11 6 0
10 -2 10 -4z m1590 -741 c0 -14 -2 -25 -4 -25 -2 0 -6 11 -8 25 -3 14 -1 25 3
25 5 0 9 -11 9 -25z m-2533 -197 c-2 -13 -4 -5 -4 17 -1 22 1 32 4 23 2 -10 2
-28 0 -40z m72 -58 c6 -22 16 -40 22 -40 6 0 7 -5 3 -11 -3 -6 -14 -9 -24 -6
-13 3 -16 0 -13 -13 4 -14 0 -17 -21 -13 -15 3 -26 1 -26 -6 0 -6 -9 -11 -20
-11 -11 0 -20 -6 -20 -12 0 -9 -4 -8 -10 2 -15 23 -12 94 5 116 8 11 15 14 15
7 0 -25 19 -12 31 22 12 31 14 33 29 20 9 -9 22 -33 29 -55z m13 -162 c-28
-14 -23 -34 9 -31 21 2 22 1 8 -10 -13 -10 -27 -45 -30 -74 0 -5 -5 -14 -11
-20 -6 -7 -7 -13 -2 -13 5 0 -2 -6 -16 -13 -17 -9 -27 -10 -32 -3 -6 8 -10 7
-16 -1 -4 -7 -17 -10 -30 -6 -18 4 -21 11 -18 40 9 67 74 138 129 140 30 2 31
1 9 -9z m2478 -33 c0 -8 -4 -15 -10 -15 -5 0 -7 7 -4 15 4 8 8 15 10 15 2 0 4
-7 4 -15z m-2654 -54 c-11 -12 -20 -42 -23 -73 -2 -29 -11 -63 -19 -75 -8 -12
-14 -40 -14 -63 0 -22 -4 -40 -8 -40 -17 0 -44 40 -38 55 3 9 2 14 -3 11 -16
-10 -19 19 -7 65 14 55 24 72 41 65 8 -3 15 5 19 17 3 12 18 30 33 39 36 23
40 22 19 -1z m-61 -21 c-3 -5 -12 -10 -18 -10 -7 0 -6 4 3 10 19 12 23 12 15
0z m373 -50 c39 -37 51 -54 44 -65 -7 -13 -16 -8 -50 24 -23 22 -42 44 -43 48
0 4 -2 16 -4 26 -2 9 -2 17 -1 17 1 0 25 -23 54 -50z m422 14 c0 -8 -4 -12
-10 -9 -5 3 -10 10 -10 16 0 5 5 9 10 9 6 0 10 -7 10 -16z m-319 -27 c-1 -12
-15 -9 -19 4 -3 6 1 10 8 8 6 -3 11 -8 11 -12z m1946 -33 c57 -15 25 -64 -43
-64 -45 0 -61 -16 -21 -22 37 -5 25 -23 -18 -26 -76 -4 -147 -34 -197 -83 -41
-38 -48 -42 -48 -24 0 28 50 86 94 110 20 11 36 27 36 37 0 9 9 20 20 23 11 3
20 10 20 14 0 23 111 47 157 35z m-2130 -27 c-6 -20 -27 -19 -27 2 0 14 5 19
15 14 9 -3 14 -10 12 -16z m2503 -29 c0 -51 -5 -47 -14 10 -4 29 -3 41 4 37 5
-3 10 -25 10 -47z m-2427 -38 c60 -28 55 -37 -8 -15 -45 15 -74 13 -47 -4 17
-10 8 -140 -12 -179 -9 -18 -16 -35 -15 -39 1 -14 -18 -13 -31 1 -9 12 -17 13
-31 5 -10 -5 -19 -7 -19 -3 0 4 -9 -1 -20 -11 -11 -10 -20 -25 -20 -34 0 -12
-6 -9 -21 9 -18 22 -20 22 -16 5 3 -11 8 -29 12 -40 7 -18 5 -17 -18 4 -15 14
-27 19 -27 13 0 -6 -7 -9 -15 -6 -9 4 -15 0 -15 -10 0 -9 -7 -16 -15 -16 -8 0
-15 -4 -15 -10 0 -16 -22 -12 -35 7 -11 15 -15 15 -29 4 -9 -7 -16 -20 -16
-27 0 -8 -4 -14 -10 -14 -5 0 -10 21 -10 48 0 26 -5 54 -10 62 -6 10 -10 11
-10 3 0 -7 -5 -13 -11 -13 -16 0 -4 66 15 86 9 8 16 20 16 26 0 7 17 9 45 5
28 -3 51 0 58 7 7 6 22 11 35 10 12 -1 31 8 40 20 42 49 103 99 124 102 13 1
26 3 30 3 4 1 9 10 13 21 5 15 10 17 23 10 9 -5 39 -18 65 -30z m407 30 c0 -5
-5 -10 -11 -10 -5 0 -7 5 -4 10 3 6 8 10 11 10 2 0 4 -4 4 -10z m1612 -113 c8
-8 13 -33 12 -60 -2 -50 5 -57 30 -32 8 8 17 11 20 6 9 -14 -34 -39 -97 -58
-25 -8 -23 -9 39 -30 l66 -21 21 24 c11 13 27 24 35 24 10 0 12 7 7 28 -5 22
-4 25 7 14 7 -7 13 -36 14 -67 0 -30 6 -60 13 -69 8 -9 9 -16 1 -21 -5 -3 -10
-25 -10 -47 0 -42 -27 -118 -42 -118 -4 0 -8 -8 -8 -17 0 -10 -6 -35 -14 -58
-8 -22 -20 -61 -26 -87 -7 -26 -16 -45 -21 -42 -5 3 -9 -4 -9 -15 0 -11 -5
-23 -11 -26 -6 -4 -8 -13 -6 -19 4 -9 -3 -11 -19 -8 -19 3 -24 0 -24 -17 0
-11 6 -21 13 -21 6 0 13 -10 13 -22 1 -13 5 -33 9 -45 13 -39 -15 -26 -31 15
-9 20 -33 73 -54 117 -38 78 -108 257 -115 296 -2 10 -11 31 -19 46 -17 30
-86 225 -86 243 0 5 5 10 10 10 6 0 20 9 32 20 27 25 35 25 43 1 10 -34 41
-52 90 -54 61 -3 90 28 82 85 -5 41 9 51 35 25z m-62 -23 c0 -8 -4 -12 -10 -9
-5 3 -10 10 -10 16 0 5 5 9 10 9 6 0 10 -7 10 -16z m280 -740 c0 -8 -4 -12
-10 -9 -5 3 -10 10 -10 16 0 5 5 9 10 9 6 0 10 -7 10 -16z m-90 -399 c-19 -20
-21 -30 -15 -79 4 -31 12 -56 18 -56 6 0 8 -2 5 -5 -13 -13 -38 9 -38 33 0 14
-3 23 -6 20 -3 -3 -5 -24 -6 -46 0 -51 -12 -72 -30 -54 -10 10 -10 17 0 32 6
11 12 25 12 32 -1 7 -9 -3 -20 -22 -11 -22 -15 -39 -9 -45 5 -5 9 -22 9 -37 0
-35 13 -36 39 -1 27 33 36 24 23 -24 -5 -21 -10 -30 -11 -21 -1 13 -7 15 -28
9 -16 -4 -34 -6 -40 -5 -7 1 -20 2 -28 3 -26 2 -17 48 31 149 62 130 67 144
65 165 -1 9 2 17 7 17 5 0 16 15 23 33 l14 32 3 -54 c3 -44 -1 -58 -18 -76z
m7 -62 c-4 -3 1 -12 11 -19 16 -13 16 -13 0 -14 -10 0 -18 2 -18 4 0 2 -3 11
-6 20 -4 10 -1 16 7 16 7 0 9 -3 6 -7z m-2022 -323 c-6 -63 -9 -71 -17 -50
-11 27 -4 173 9 193 12 18 16 -57 8 -143z m1968 83 c-13 -2 -23 -9 -23 -15 0
-6 11 -8 25 -6 14 3 25 2 25 -2 0 -12 -47 -21 -74 -14 -17 4 -22 11 -19 25 4
15 14 19 47 18 23 -1 31 -4 19 -6z m-116 -29 c-3 -3 -12 -4 -19 -1 -8 3 -5 6
6 6 11 1 17 -2 13 -5z m-1916 -215 l-9 -34 -1 35 c0 19 3 46 7 60 l7 25 3 -26
c2 -15 -1 -42 -7 -60z m1739 -314 c0 -3 -12 -17 -26 -30 -21 -19 -23 -25 -10
-25 9 0 16 -6 17 -12 0 -10 2 -10 6 0 4 10 10 9 25 -4 15 -15 23 -16 38 -7 15
10 19 8 23 -13 3 -18 0 -24 -14 -24 -11 0 -19 5 -19 10 0 16 -83 11 -105 -6
-14 -11 -15 -15 -5 -14 8 1 22 2 30 1 13 -1 13 -3 0 -11 -12 -8 -12 -11 3 -28
9 -10 17 -26 17 -35 0 -8 7 -17 15 -19 10 -2 12 -7 5 -18 -12 -19 -46 0 -42
24 2 9 -4 16 -13 16 -12 0 -15 -6 -10 -20 5 -15 3 -18 -9 -14 -9 3 -16 10 -16
16 0 5 -4 6 -10 3 -5 -3 -10 -31 -10 -62 0 -46 3 -56 20 -60 11 -3 20 -11 20
-18 0 -8 -8 -11 -20 -8 -15 4 -20 0 -20 -15 0 -18 3 -19 35 -11 61 17 71 -7
15 -35 -29 -14 -32 -13 -61 12 -18 14 -38 40 -45 58 -15 36 -8 101 13 122 7 7
13 21 13 30 0 9 3 28 7 41 4 17 3 22 -5 17 -8 -5 -11 3 -8 25 2 18 9 35 16 37
9 3 11 -3 6 -23 -6 -25 -6 -27 9 -15 21 17 42 56 25 45 -9 -6 -9 -2 -1 14 7
11 16 21 21 21 6 0 10 7 10 16 0 8 3 13 8 11 4 -3 16 -1 27 4 26 10 25 10 25
4z m190 -35 c0 -11 -6 -20 -14 -20 -8 0 -17 -6 -19 -12 -3 -7 -6 -8 -6 -3 -1
9 29 54 37 55 1 0 2 -9 2 -20z m33 -30 c-3 -11 -10 -23 -16 -27 -7 -4 -8 0 -4
11 4 10 7 24 7 32 0 9 4 13 9 10 5 -3 7 -15 4 -26z m-72 -71 c-19 -24 -27 -9
-11 22 9 16 14 18 20 9 4 -7 1 -21 -9 -31z m-119 6 c-2 -16 -1 -17 7 -5 9 13
12 12 25 -5 9 -11 14 -24 12 -30 -4 -14 -46 -19 -46 -5 0 6 -4 8 -10 5 -5 -3
-10 1 -10 9 0 9 -4 16 -8 16 -4 0 -8 9 -9 21 -1 15 3 20 20 17 16 -2 21 -9 19
-23z m182 -35 c-6 -5 -24 21 -24 34 0 6 6 1 14 -10 8 -10 12 -21 10 -24z m-69
-10 c3 -5 1 -10 -4 -10 -6 0 -11 5 -11 10 0 6 2 10 4 10 3 0 8 -4 11 -10z
m-1030 -80 c7 -24 6 -24 -7 -5 -8 11 -18 29 -22 40 -6 18 -5 18 7 5 8 -8 18
-26 22 -40z m997 36 c16 -12 15 -13 -12 -14 -20 0 -30 4 -30 14 0 17 19 18 42
0z m-882 -42 c0 -8 -5 -12 -10 -9 -6 4 -8 11 -5 16 9 14 15 11 15 -7z m135 6
c4 -6 15 -8 26 -5 11 4 19 2 19 -4 0 -6 -8 -11 -17 -11 -29 0 -63 12 -63 21 0
12 27 11 35 -1z m765 0 c0 -5 -5 -10 -11 -10 -5 0 -7 5 -4 10 3 6 8 10 11 10
2 0 4 -4 4 -10z m-162 -45 c32 6 34 5 23 -9 -11 -14 -11 -16 5 -16 16 -1 15
-3 -5 -14 -28 -16 -51 -11 -51 10 0 8 -3 14 -8 14 -13 0 -33 40 -26 52 5 8 11
2 17 -16 8 -25 12 -27 45 -21z m2 35 c12 -7 10 -9 -8 -7 -12 0 -22 5 -22 9 0
11 12 10 30 -2z m60 -4 c0 -8 -4 -18 -10 -21 -5 -3 -10 3 -10 14 0 12 5 21 10
21 6 0 10 -6 10 -14z m-330 -21 c-16 -19 -27 -19 -27 0 0 8 4 12 8 9 4 -2 11
1 14 7 4 5 9 8 12 5 3 -3 0 -12 -7 -21z m-400 -15 c8 -5 11 -10 5 -10 -5 0
-17 5 -25 10 -8 5 -10 10 -5 10 6 0 17 -5 25 -10z m1145 -400 c3 -5 1 -10 -4
-10 -6 0 -11 5 -11 10 0 6 2 10 4 10 3 0 8 -4 11 -10z"/>
<path d="M2803 4202 c-16 -10 -28 -82 -14 -82 6 0 12 -12 12 -27 1 -16 5 4 9
42 4 39 7 71 6 72 -1 1 -7 -1 -13 -5z"/>
<path d="M2998 4178 c-24 -29 -23 -60 2 -76 19 -12 20 -10 20 43 0 30 -1 55
-2 55 -2 0 -11 -10 -20 -22z"/>
<path d="M2920 4159 c0 -5 5 -7 10 -4 6 3 10 8 10 11 0 2 -4 4 -10 4 -5 0 -10
-5 -10 -11z"/>
<path d="M2874 4149 c-3 -6 -1 -16 5 -22 6 -6 11 -20 10 -31 0 -12 -3 -15 -6
-8 -5 13 -35 17 -46 6 -8 -9 36 -95 61 -117 19 -17 20 -17 25 2 4 15 15 20 62
23 31 1 59 0 62 -4 10 -17 31 -7 26 11 -6 23 -70 38 -86 22 -18 -18 -36 -13
-62 15 -19 20 -25 38 -25 70 0 42 -11 56 -26 33z"/>
<path d="M3155 4121 c-7 -24 -23 -28 -31 -7 -5 12 -9 11 -25 -5 -24 -24 -24
-33 0 -26 28 7 49 -9 33 -25 -9 -9 -12 -9 -12 0 0 7 -9 12 -20 12 -11 0 -20
-6 -20 -13 0 -8 9 -24 20 -37 17 -19 20 -20 20 -6 0 9 5 14 10 11 6 -4 8 -11
5 -16 -4 -5 1 -9 9 -9 9 0 15 3 15 8 -1 4 -1 14 0 22 1 11 4 11 13 2 19 -19
26 -14 30 23 3 27 0 36 -14 41 -10 3 -16 9 -14 13 3 4 1 13 -4 20 -6 10 -9 8
-15 -8z"/>
<path d="M3215 4130 c-3 -5 -1 -10 4 -10 6 0 11 5 11 10 0 6 -2 10 -4 10 -3 0
-8 -4 -11 -10z"/>
<path d="M3236 4068 c9 -51 12 -58 29 -58 9 0 16 10 17 25 0 14 1 31 2 38 1 6
-7 11 -16 9 -10 -2 -18 2 -18 8 0 5 -4 10 -10 10 -5 0 -7 -14 -4 -32z"/>
<path d="M3310 4079 c0 -38 39 -54 41 -16 1 19 2 18 9 -6 5 -16 6 -35 3 -43
-3 -8 0 -14 6 -14 6 0 11 9 11 20 0 11 7 20 15 20 17 0 19 9 6 29 -10 15 -91
24 -91 10z"/>
<path d="M2815 3994 c9 -9 19 -13 23 -10 3 4 0 11 -8 16 -24 15 -33 11 -15 -6z"/>
<path d="M2724 3988 c-4 -5 0 -14 7 -19 10 -6 11 -9 2 -9 -7 0 -13 -6 -13 -14
0 -19 14 -23 94 -25 52 -2 67 1 64 11 -3 7 -23 14 -46 16 -23 2 -42 8 -42 13
0 6 -9 8 -20 4 -15 -5 -18 -3 -14 8 6 17 -22 31 -32 15z"/>
<path d="M3660 3939 c0 -24 23 -21 28 4 2 10 -3 17 -12 17 -10 0 -16 -9 -16
-21z"/>
<path d="M2526 3935 c-3 -9 0 -15 9 -15 9 0 12 6 9 15 -4 8 -7 15 -9 15 -2 0
-5 -7 -9 -15z"/>
<path d="M2675 3920 c-3 -5 -1 -10 4 -10 6 0 11 5 11 10 0 6 -2 10 -4 10 -3 0
-8 -4 -11 -10z"/>
<path d="M2645 3903 c-4 -13 -12 -23 -17 -23 -5 0 -8 -6 -6 -12 6 -17 106 -21
136 -6 31 16 28 38 -5 38 -16 0 -34 -4 -42 -9 -19 -12 -49 -2 -54 18 -4 13 -6
11 -12 -6z"/>
<path d="M2549 3814 c9 -12 18 -18 19 -13 2 5 9 9 16 9 9 0 12 -9 8 -27 -4
-22 -2 -26 8 -16 10 9 16 9 26 -2 32 -31 11 -55 -49 -55 -50 0 -68 -17 -26
-25 86 -15 127 10 127 77 0 35 -2 37 -29 33 -24 -3 -28 0 -26 18 2 20 -3 22
-44 22 -47 1 -47 1 -30 -21z"/>
<path d="M2640 3820 c0 -5 9 -10 20 -10 11 0 20 5 20 10 0 6 -9 10 -20 10 -11
0 -20 -4 -20 -10z"/>
<path d="M2615 3670 c-3 -5 -3 -15 0 -21 5 -7 -3 -10 -21 -8 -51 4 -64 0 -64
-20 0 -11 -8 -22 -17 -24 -10 -3 -4 -5 12 -4 23 2 30 -2 29 -16 -1 -10 1 -16
5 -14 3 2 21 10 39 18 30 13 32 17 30 56 -3 47 -4 48 -13 33z"/>
<path d="M2640 3622 c0 -19 3 -23 9 -13 5 7 14 17 21 21 8 5 5 9 -9 13 -17 4
-21 1 -21 -21z"/>
<path d="M2506 3545 c5 -12 -2 -15 -30 -15 -28 0 -34 -3 -29 -16 3 -8 19 -18
35 -21 16 -3 32 -12 35 -19 6 -16 33 -19 33 -4 0 6 8 10 18 10 14 1 13 4 -7
20 -13 11 -20 20 -16 20 5 0 0 9 -10 20 -21 24 -37 26 -29 5z"/>
<path d="M2560 3540 c0 -5 9 -10 20 -10 11 0 20 5 20 10 0 6 -9 10 -20 10 -11
0 -20 -4 -20 -10z"/>
<path d="M2324 3524 c3 -10 1 -26 -4 -34 -5 -8 -10 -11 -10 -6 0 5 -7 3 -15
-4 -21 -18 -19 -25 10 -26 17 -1 25 3 25 15 1 12 7 9 25 -12 14 -15 25 -24 25
-18 0 21 -22 67 -42 85 -20 18 -20 18 -14 0z"/>
<path d="M4300 3460 c0 -5 5 -10 10 -10 6 0 10 5 10 10 0 6 -4 10 -10 10 -5 0
-10 -4 -10 -10z"/>
<path d="M2715 3440 c-3 -5 -1 -10 4 -10 6 0 11 5 11 10 0 6 -2 10 -4 10 -3 0
-8 -4 -11 -10z"/>
<path d="M2466 3425 c4 -8 8 -15 10 -15 2 0 4 7 4 15 0 8 -4 15 -10 15 -5 0
-7 -7 -4 -15z"/>
<path d="M2503 3433 c9 -2 23 -2 30 0 6 3 -1 5 -18 5 -16 0 -22 -2 -12 -5z"/>
<path d="M2630 3409 c-15 -27 -6 -36 15 -15 9 9 21 16 26 16 5 0 9 5 9 10 0
19 -39 10 -50 -11z"/>
<path d="M2567 3399 c7 -7 15 -10 18 -7 3 3 -2 9 -12 12 -14 6 -15 5 -6 -5z"/>
<path d="M2400 3383 c0 -13 -5 -23 -10 -23 -7 0 -7 -7 0 -21 7 -12 17 -18 26
-15 9 3 25 1 36 -5 11 -6 31 -8 45 -4 20 5 23 8 13 20 -7 8 -16 12 -22 9 -10
-6 -57 21 -75 45 -11 14 -12 13 -13 -6z m20 -33 c0 -5 -4 -10 -10 -10 -5 0
-10 5 -10 10 0 6 5 10 10 10 6 0 10 -4 10 -10z"/>
<path d="M2610 3290 c-12 -8 -11 -10 8 -10 12 0 22 5 22 10 0 13 -11 13 -30 0z"/>
<path d="M3395 3050 c-136 -33 -170 -46 -209 -78 l-41 -35 40 7 c22 4 46 12
52 18 7 6 59 13 116 15 123 7 207 -13 207 -48 0 -16 5 -19 20 -14 24 8 25 2 4
-19 -8 -9 -31 -16 -49 -16 -19 0 -37 -4 -40 -10 -3 -6 4 -10 17 -10 20 0 73
-28 58 -30 -3 -1 -34 -3 -70 -6 -69 -6 -164 -36 -191 -60 -9 -8 -34 -16 -55
-17 -31 -2 -39 -6 -39 -22 0 -26 42 -36 78 -18 26 13 30 12 56 -16 38 -41 72
-48 113 -24 31 18 33 23 33 71 -1 45 2 52 19 52 29 0 105 -39 116 -61 6 -10
17 -16 24 -13 8 3 17 0 21 -5 3 -6 11 -9 17 -5 5 4 -2 19 -19 37 -27 29 -27
30 -5 24 19 -4 22 -2 17 11 -19 44 -17 53 21 87 22 19 44 35 51 35 17 0 43 29
43 48 0 20 -40 45 -124 78 -68 27 -215 39 -281 24z m5 -290 c0 -5 -4 -10 -10
-10 -5 0 -10 5 -10 10 0 6 5 10 10 10 6 0 10 -4 10 -10z m80 -20 c0 -10 -4
-21 -9 -24 -10 -7 -23 33 -15 46 8 13 24 -1 24 -22z"/>
<path d="M3249 2790 c-13 -10 -19 -19 -13 -20 6 0 19 9 29 20 23 26 14 26 -16
0z"/>
<path d="M4311 1564 c0 -11 3 -14 6 -6 3 7 2 16 -1 19 -3 4 -6 -2 -5 -13z"/>
<path d="M4228 1553 c7 -3 16 -2 19 1 4 3 -2 6 -13 5 -11 0 -14 -3 -6 -6z"/>
<path d="M3848 953 c7 -3 16 -2 19 1 4 3 -2 6 -13 5 -11 0 -14 -3 -6 -6z"/>
<path d="M3683 505 c29 -26 47 -32 47 -16 0 13 -41 41 -60 41 -10 -1 -6 -9 13
-25z"/>
<path d="M2250 2824 c0 -8 5 -12 10 -9 6 3 10 10 10 16 0 5 -4 9 -10 9 -5 0
-10 -7 -10 -16z"/>
<path d="M4061 584 c0 -11 3 -14 6 -6 3 7 2 16 -1 19 -3 4 -6 -2 -5 -13z"/>
</g>
</svg>
