<?xml version="1.0" standalone="no"?>
<!DOCTYPE svg PUBLIC "-//W3C//DTD SVG 20010904//EN"
 "http://www.w3.org/TR/2001/REC-SVG-20010904/DTD/svg10.dtd">
<svg version="1.0" xmlns="http://www.w3.org/2000/svg"
 width="260.000000pt" height="334.000000pt" viewBox="0 0 260.000000 334.000000"
 preserveAspectRatio="xMidYMid meet">

<g transform="translate(0.000000,334.000000) scale(0.100000,-0.100000)"
fill="#080808" stroke="none">
<path d="M0 2201 l0 -1139 43 -5 c23 -3 61 -4 85 -2 36 3 42 1 42 -16 0 -13
-4 -18 -12 -13 -18 11 -158 16 -158 5 0 -5 38 -12 85 -16 76 -7 85 -10 85 -27
0 -14 5 -18 16 -14 58 22 110 9 154 -40 l25 -27 -40 26 c-22 15 -46 27 -55 27
-8 -1 -1 -7 15 -14 17 -7 41 -25 54 -39 22 -25 23 -31 17 -99 -5 -53 -12 -78
-27 -94 -13 -14 -16 -23 -9 -26 8 -2 7 -8 -4 -17 -14 -12 -16 -9 -16 25 l-1
39 -19 -24 c-16 -19 -23 -21 -35 -11 -8 6 -20 8 -26 4 -8 -5 -9 -3 -5 5 5 7
15 10 23 7 9 -4 21 1 27 9 6 9 20 17 31 19 16 2 21 12 23 43 l3 41 -51 -25
c-35 -17 -59 -37 -78 -67 -17 -27 -33 -42 -42 -39 -10 3 -9 0 3 -7 18 -12 24
-60 7 -60 -14 0 -30 44 -30 79 0 16 9 40 20 54 11 14 20 31 20 38 0 7 -14 -6
-30 -28 -17 -23 -38 -44 -48 -46 -16 -4 -16 -5 1 -6 11 -1 17 -9 17 -26 0 -33
-18 -32 -30 1 -16 40 -12 60 16 94 15 17 24 33 21 36 -2 3 -15 -9 -27 -25 -12
-17 -28 -31 -36 -31 -16 0 -19 26 -4 35 5 3 15 16 20 28 8 15 3 13 -14 -8 -29
-33 -34 -65 -11 -65 10 0 15 -9 14 -27 0 -16 -3 -22 -6 -15 -2 6 -9 10 -14 6
-12 -7 -17 9 -23 73 l-4 52 59 37 c32 20 59 39 59 41 0 4 -53 -25 -112 -61
-15 -9 -18 -25 -18 -92 l0 -82 57 -33 c60 -34 106 -54 158 -69 18 -5 -19 -6
-92 -3 l-123 6 0 -296 0 -297 113 0 c61 0 117 4 122 8 6 4 11 50 13 102 4 153
18 447 20 420 1 -14 3 -139 3 -277 l1 -253 1164 0 1164 0 0 1670 0 1670 -1300
0 -1300 0 0 -1139z m1135 729 c3 -6 19 -17 35 -25 27 -14 35 -13 95 6 l66 22
24 -23 25 -23 -22 -38 c-15 -27 -19 -48 -16 -77 l6 -39 -42 4 c-50 6 -120 -25
-106 -47 4 -7 17 -11 29 -7 12 3 21 0 21 -5 0 -6 6 -5 15 2 10 9 15 9 15 1 0
-6 7 -11 16 -11 8 0 12 -4 9 -10 -10 -16 7 -12 27 7 11 10 18 12 18 4 0 -7 8
-6 25 5 15 10 25 26 25 40 0 17 6 24 20 24 11 0 20 -4 20 -10 0 -5 -5 -10 -11
-10 -6 0 -9 -6 -6 -14 4 -9 -8 -25 -29 -41 -18 -14 -37 -38 -40 -52 -4 -15
-22 -41 -40 -59 -27 -28 -30 -35 -18 -45 21 -17 10 -23 -16 -9 -27 14 -70 5
-70 -15 0 -16 -12 -18 -47 -9 -13 4 -20 10 -17 15 3 5 -2 12 -11 16 -10 3 -21
0 -26 -8 -7 -11 -9 -9 -9 7 0 12 -10 34 -22 49 -15 19 -23 46 -26 86 -4 56 -3
58 19 56 13 -1 29 -8 35 -15 9 -12 15 -12 44 3 l33 17 -32 20 c-20 13 -43 19
-65 16 l-33 -4 4 46 c2 25 5 64 7 87 2 24 9 50 16 58 14 17 46 20 55 5z m64
-468 c29 -3 39 -7 30 -13 -7 -4 -11 -11 -8 -14 9 -8 48 8 47 20 -1 6 7 11 18
13 11 2 15 0 9 -5 -5 -4 -17 -21 -25 -38 -14 -27 -21 -30 -66 -31 -50 -2 -52
-1 -68 36 -20 47 -20 54 2 44 9 -4 37 -9 61 -12z m22 -151 c12 -20 14 -32 6
-40 -11 -11 28 -31 62 -31 27 0 128 37 166 60 38 23 59 26 30 4 -70 -54 -186
-91 -232 -73 -43 16 -73 49 -73 81 0 36 20 36 41 -1z m596 -693 c1 -47 0 -50
-9 -25 -8 23 -5 77 5 77 1 0 3 -24 4 -52z m-31 -120 c-18 -26 -22 -17 -5 14 6
11 13 17 16 15 3 -3 -2 -16 -11 -29z m44 -11 c0 -2 -12 -14 -27 -28 l-28 -24
24 28 c23 25 31 32 31 24z m-73 -139 c-3 -8 -6 -5 -6 6 -1 11 2 17 5 13 3 -3
4 -12 1 -19z m27 -32 c-21 -15 -30 -14 -19 3 3 6 14 11 23 11 13 0 13 -2 -4
-14z m-4 -60 c0 -2 -9 -6 -20 -9 -11 -3 -18 -1 -14 4 5 9 34 13 34 5z m-97
-91 c-3 -9 -8 -14 -10 -11 -3 3 -2 9 2 15 9 16 15 13 8 -4z m147 -57 c15 -21
17 -28 6 -19 -16 13 -41 51 -33 51 2 0 14 -15 27 -32z m131 -5 c13 -16 12 -17
-3 -4 -17 13 -22 21 -14 21 2 0 10 -8 17 -17z m-873 -122 l30 -49 -39 -38 -39
-38 -25 24 -26 25 10 -28 c12 -31 9 -34 -13 -12 -23 23 -9 73 33 122 20 22 37
42 38 42 1 1 15 -21 31 -48z m399 11 c-10 -10 -14 -22 -10 -26 5 -4 4 -7 -2
-6 -5 1 -25 2 -43 1 -28 -1 -35 -7 -53 -43 -11 -24 -17 -35 -14 -25 3 10 5 25
5 32 0 21 40 55 64 55 12 0 30 7 40 15 27 20 32 19 13 -3z m-208 -46 c13 -7
32 -11 42 -9 16 5 17 1 9 -26 -12 -42 -14 -126 -4 -175 5 -29 4 -37 -4 -32 -8
5 -12 0 -12 -13 0 -38 -126 -82 -145 -51 -3 6 -14 10 -23 10 -9 0 -24 5 -32
10 -13 8 -12 11 5 25 19 16 19 16 -10 9 -58 -14 -80 -11 -83 12 -3 20 8 33 64
72 18 12 18 13 -1 6 -11 -3 -37 -8 -57 -11 -30 -4 -39 -2 -44 12 -9 23 21 49
80 69 65 21 145 68 126 74 -36 9 -41 12 -35 22 9 14 96 12 124 -4z m154 -11
c-3 -9 -8 -14 -10 -11 -3 3 -2 9 2 15 9 16 15 13 8 -4z m-12 -105 c-9 -23 -10
-23 -10 11 -1 20 2 39 7 43 11 12 14 -27 3 -54z m-1156 -220 c3 -5 2 -10 -4
-10 -5 0 -13 5 -16 10 -3 6 -2 10 4 10 5 0 13 -4 16 -10z m1079 2 c-11 -7 -1
-52 11 -52 4 0 4 10 0 23 -5 19 -5 20 5 4 18 -27 50 -128 50 -154 0 -50 -53
-11 -79 59 -7 18 -19 47 -27 65 -12 30 -12 33 9 48 12 8 26 15 32 15 6 0 6 -3
-1 -8z m-84 -58 c0 -8 3 -13 8 -11 4 3 8 -7 9 -21 8 -101 19 -124 46 -98 14
14 16 14 21 0 10 -25 7 -51 -7 -62 -10 -9 -20 0 -44 41 -18 29 -42 74 -55 100
-19 41 -20 49 -8 57 22 14 30 12 30 -6z"/>
<path d="M1182 2646 c-6 -15 -12 -43 -12 -63 0 -27 -3 -34 -15 -29 -8 3 -15 1
-15 -5 0 -5 7 -12 15 -15 10 -4 14 -14 10 -28 -2 -11 -2 -15 1 -8 4 8 10 10
18 3 7 -6 18 -5 30 4 15 11 18 23 14 57 -3 24 -12 58 -19 77 l-15 34 -12 -27z"/>
<path d="M1178 2443 c7 -3 16 -2 19 1 4 3 -2 6 -13 5 -11 0 -14 -3 -6 -6z"/>
<path d="M1316 577 c3 -10 9 -15 12 -12 3 3 0 11 -7 18 -10 9 -11 8 -5 -6z"/>
<path d="M1335 540 c-9 -14 16 -78 39 -99 l24 -23 -2 23 c-9 74 -43 129 -61
99z"/>
<path d="M1320 410 c-12 -7 -12 -12 -3 -21 15 -15 26 -7 21 15 -2 11 -7 13
-18 6z"/>
<path d="M0 958 l0 -39 31 18 c66 37 74 43 64 43 -5 1 -29 5 -52 9 l-43 8 0
-39z"/>
</g>
</svg>
