<?xml version="1.0" standalone="no"?>
<!DOCTYPE svg PUBLIC "-//W3C//DTD SVG 20010904//EN"
 "http://www.w3.org/TR/2001/REC-SVG-20010904/DTD/svg10.dtd">
<svg version="1.0" xmlns="http://www.w3.org/2000/svg"
 width="200.000000pt" height="300.000000pt" viewBox="0 0 200.000000 300.000000"
 preserveAspectRatio="xMidYMid meet">

<g transform="translate(0.000000,300.000000) scale(0.100000,-0.100000)"
fill="#080808" stroke="none">
<path d="M902 2758 c5 -15 28 -23 28 -10 0 5 -7 13 -16 16 -10 4 -14 1 -12 -6z"/>
<path d="M1010 2760 c0 -5 4 -10 9 -10 6 0 13 5 16 10 3 6 -1 10 -9 10 -9 0
-16 -4 -16 -10z"/>
<path d="M1148 2758 c5 -5 16 -8 23 -6 8 3 3 7 -10 11 -17 4 -21 3 -13 -5z"/>
<path d="M1095 2750 c-4 -6 5 -10 20 -10 15 0 24 4 20 10 -3 6 -12 10 -20 10
-8 0 -17 -4 -20 -10z"/>
<path d="M1239 2746 c6 -8 25 -16 41 -18 28 -4 29 -4 13 14 -20 22 -72 26 -54
4z"/>
<path d="M729 2724 c-12 -15 -11 -16 11 -9 35 10 49 25 23 25 -11 0 -27 -7
-34 -16z"/>
<path d="M827 2721 c-17 -6 -16 -8 5 -27 13 -11 32 -26 42 -34 18 -14 19 -14
6 10 -9 17 -10 25 -2 28 8 2 7 8 -2 18 -16 15 -22 16 -49 5z"/>
<path d="M1119 2721 c-19 -6 -43 -31 -30 -31 6 0 11 -8 11 -17 1 -17 1 -17 11
0 6 9 14 15 19 12 4 -3 15 6 24 19 15 23 14 25 -3 23 -10 0 -24 -3 -32 -6z"/>
<path d="M1350 2683 c0 -19 -3 -24 -9 -15 -6 10 -12 7 -24 -12 -10 -14 -17
-30 -17 -36 0 -14 17 -13 24 3 3 7 5 7 3 -3 -1 -8 3 -16 8 -18 6 -1 11 6 13
18 2 13 8 18 15 13 12 -8 32 -13 54 -15 6 -1 14 -9 16 -19 4 -14 -1 -16 -27
-14 -33 2 -59 -11 -50 -26 3 -5 -2 -6 -10 -3 -11 4 -16 0 -16 -14 0 -11 -6
-25 -14 -32 -12 -9 -16 -5 -21 24 -9 44 -30 65 -38 36 -3 -11 -1 -20 4 -20 5
0 9 -21 8 -47 l-1 -48 -10 34 c-11 39 -38 84 -46 76 -3 -3 3 -14 13 -25 25
-28 17 -121 -13 -153 -28 -30 -28 -40 1 -26 12 7 29 15 37 19 8 3 23 22 32 41
10 19 18 26 18 17 0 -14 5 -12 27 10 l28 27 6 -40 c3 -22 9 -57 14 -78 7 -37
7 -37 -18 -28 -28 11 -29 10 -55 -38 -10 -20 -10 -26 0 -33 10 -6 9 -8 -4 -8
-14 0 -15 -4 -7 -30 6 -16 16 -30 21 -30 6 0 5 -6 -2 -15 -7 -8 -16 -12 -21
-9 -5 3 -6 -2 -3 -11 9 -23 -4 -65 -21 -65 -9 0 -15 -9 -15 -22 0 -18 2 -20
10 -8 5 8 15 15 22 16 7 0 21 2 32 2 12 1 16 7 12 18 -4 9 -2 13 5 8 6 -3 9
-17 7 -29 -4 -18 0 -23 16 -23 27 0 96 -20 76 -21 -8 -1 -26 -4 -39 -8 -17 -4
-22 -3 -17 5 9 14 5 15 -28 2 -19 -7 -24 -6 -21 3 3 7 0 19 -5 27 -9 13 -11
13 -20 0 -5 -8 -10 -11 -10 -7 0 4 -9 3 -20 -3 -12 -6 -43 -13 -70 -15 -57 -4
-71 -10 -64 -30 5 -11 -2 -13 -30 -8 -29 4 -36 2 -36 -10 0 -9 -7 -20 -16 -25
-10 -5 -15 -23 -16 -51 0 -30 -7 -50 -21 -64 -11 -11 -22 -36 -23 -56 -2 -20
-6 -51 -10 -68 -5 -27 -3 -33 10 -33 9 0 16 5 16 12 0 6 3 8 6 5 4 -3 -1 -22
-10 -41 -20 -42 -20 -50 -2 -43 9 4 16 -5 20 -26 4 -19 2 -33 -4 -35 -5 -2
-10 -14 -10 -27 0 -13 -5 -27 -10 -30 -8 -5 -8 -11 -1 -19 8 -10 5 -18 -9 -31
-11 -10 -20 -13 -20 -7 0 6 4 12 10 14 5 2 6 9 1 16 -6 10 -12 5 -21 -18 -7
-17 -11 -32 -9 -34 2 -3 22 -7 44 -11 107 -16 110 -18 107 -56 -5 -44 -10 -49
-28 -25 -14 19 -14 19 -14 -2 0 -26 -36 -52 -73 -52 l-28 0 20 29 c30 42 32
73 3 76 -18 1 -24 -4 -29 -27 -3 -16 -14 -33 -24 -39 -11 -5 -19 -7 -19 -4 0
3 -16 -4 -36 -14 -24 -13 -47 -18 -66 -14 -32 6 -68 -18 -68 -47 0 -10 -9 -20
-21 -23 -13 -4 -18 -10 -13 -18 4 -8 3 -10 -4 -5 -6 4 -9 13 -5 21 3 8 0 15
-7 15 -9 0 -11 -11 -7 -34 4 -24 1 -39 -9 -47 -8 -6 -14 -17 -14 -23 0 -8 3
-8 8 0 11 16 41 24 48 13 3 -6 -3 -13 -15 -16 -28 -7 -26 -15 8 -36 38 -22 44
-54 23 -114 -22 -63 -51 -99 -95 -118 -20 -8 -39 -20 -43 -27 -6 -10 -4 -10 7
-2 8 6 32 17 54 24 83 27 103 51 115 139 14 95 37 162 70 196 41 42 128 68
190 56 25 -5 48 -7 53 -4 4 2 16 1 27 -2 16 -5 17 -9 8 -18 -17 -16 -78 -37
-106 -37 -12 0 -22 -4 -22 -10 0 -5 -18 -10 -40 -10 -22 0 -40 -3 -40 -8 0
-13 39 -32 54 -26 10 4 17 -2 22 -20 3 -14 10 -26 16 -26 5 0 6 9 3 20 -4 12
-2 20 5 20 6 0 8 5 5 10 -3 5 2 10 11 10 10 0 15 -3 11 -6 -3 -3 2 -14 11 -23
13 -13 23 -15 41 -9 16 6 27 5 31 -2 10 -15 50 -21 50 -7 0 9 2 9 8 0 4 -7 21
-11 37 -9 17 2 37 4 45 5 12 1 14 11 12 44 -4 46 11 97 28 97 7 0 7 -6 0 -20
-14 -25 -5 -41 18 -33 14 5 15 3 5 -8 -15 -15 -17 -33 -4 -24 5 3 12 1 15 -4
4 -5 2 -12 -3 -15 -11 -7 -2 -46 11 -46 5 0 7 -4 4 -9 -3 -5 6 -12 20 -15 18
-5 24 -12 20 -22 -3 -9 -6 -20 -6 -25 0 -5 -12 -6 -27 -3 -25 7 -27 6 -14 -9
7 -10 10 -17 6 -17 -4 0 -2 -7 5 -16 8 -8 17 -32 21 -52 l7 -37 1 36 c0 19 -4
40 -11 47 -9 9 -9 12 0 12 7 0 18 -11 24 -25 9 -19 8 -33 -4 -64 -13 -32 -13
-41 -3 -45 8 -3 15 0 18 7 2 7 9 2 16 -10 9 -19 9 -22 -3 -17 -9 3 -17 -3 -21
-15 -7 -22 -39 -29 -50 -11 -11 18 -25 11 -25 -13 0 -13 -5 -28 -12 -35 -9 -9
-8 -12 6 -12 9 0 15 -4 12 -9 -11 -16 5 -40 22 -34 10 3 13 1 7 -4 -9 -7 -15
-63 -7 -63 1 0 7 10 12 22 8 22 9 22 9 2 1 -11 -8 -29 -19 -39 -20 -18 -20
-17 -20 27 0 39 -5 51 -44 92 -25 26 -47 42 -51 36 -3 -5 -2 -10 4 -10 15 0
18 -32 5 -70 -8 -22 -9 -37 -2 -41 5 -3 11 -26 14 -50 l4 -44 -11 36 c-6 20
-27 52 -47 70 -31 30 -34 31 -20 8 13 -20 14 -29 5 -39 -9 -10 -9 -11 0 -6 13
7 20 -11 28 -73 10 -76 -18 -116 -30 -43 -7 41 -24 90 -34 96 -3 2 -6 -26 -5
-62 0 -37 -3 -77 -8 -89 -6 -17 -3 -25 12 -33 15 -8 20 -8 20 1 0 9 4 8 14 0
12 -10 13 -8 8 11 -5 20 -4 21 11 9 9 -7 24 -11 32 -7 9 3 13 2 10 -4 -3 -5 4
-14 15 -20 32 -17 15 -29 -39 -26 -30 1 -55 8 -65 19 -10 9 -23 17 -29 17 -21
-1 57 -59 82 -62 30 -4 41 -28 12 -28 -30 0 -35 -17 -7 -24 14 -3 32 -13 40
-22 20 -20 21 -55 2 -48 -9 4 -23 -9 -38 -35 -13 -23 -30 -41 -38 -41 -8 0
-24 -7 -34 -15 -27 -20 -39 -8 -16 15 16 16 18 25 10 46 -6 14 -8 29 -5 33 2
5 -2 17 -10 27 -17 22 -19 58 -5 84 7 13 7 28 -1 47 -6 15 -15 52 -20 81 -6
30 -24 77 -42 105 -29 47 -31 60 -36 163 -4 62 -10 116 -15 121 -5 4 -6 -8 -2
-30 7 -37 -8 -107 -23 -107 -7 0 -41 -53 -41 -66 0 -4 6 1 14 12 14 18 15 18
12 -6 -6 -62 -39 -84 -89 -59 -15 7 -13 2 8 -16 35 -30 107 -53 113 -36 7 22
17 10 20 -25 1 -19 -2 -33 -7 -30 -5 3 -11 -17 -13 -44 -5 -53 -38 -96 -65
-86 -8 3 -16 -1 -20 -9 -3 -9 -10 -15 -17 -14 -43 5 -64 -29 -46 -75 7 -20 8
-19 15 6 8 30 45 70 45 48 0 -10 3 -10 15 0 13 11 15 7 14 -31 -2 -67 -12 -94
-37 -95 -12 -1 -19 3 -15 9 4 6 0 8 -10 4 -11 -4 -28 5 -49 24 -18 17 -26 29
-18 27 9 -2 16 6 18 19 3 23 -12 31 -23 13 -17 -28 -21 -3 -8 53 17 73 7 125
-33 159 -13 12 -24 27 -24 34 0 7 -5 14 -11 16 -6 2 -12 17 -13 34 -2 17 -6
36 -10 42 -4 6 -2 20 4 32 5 11 15 29 20 40 23 46 3 54 -38 14 -18 -18 -21
-25 -9 -21 21 8 21 3 3 -26 -7 -12 -16 -38 -20 -57 -3 -21 -2 -30 3 -22 6 10
12 5 25 -20 9 -18 26 -45 37 -59 16 -20 22 -45 25 -97 3 -42 0 -73 -6 -77 -6
-4 -10 5 -10 20 0 15 -4 24 -10 20 -6 -3 -10 -14 -10 -25 0 -10 -7 -20 -15
-24 -8 -3 -15 -10 -15 -16 0 -6 6 -8 13 -5 6 4 3 -1 -8 -10 -15 -12 -17 -19
-9 -33 17 -26 126 -89 149 -85 16 3 17 2 3 -4 -21 -10 -7 -39 14 -30 8 3 21 1
29 -5 11 -8 10 -8 -5 -4 -16 5 -17 4 -7 -8 7 -8 21 -13 32 -11 11 2 17 0 14
-5 -3 -5 6 -12 20 -16 30 -7 33 -24 4 -24 -11 0 -17 5 -14 10 3 6 2 10 -4 10
-5 0 -12 -6 -15 -12 -4 -10 -8 -10 -11 -2 -3 7 -14 10 -24 7 -28 -7 -101 16
-101 32 0 9 10 15 25 15 17 0 23 4 19 14 -4 10 -14 12 -42 5 -20 -4 -47 -6
-59 -2 -13 3 -23 1 -23 -5 0 -6 -10 -13 -22 -15 -20 -4 -19 -4 5 -6 15 0 27 4
27 9 0 6 4 10 10 10 5 0 8 -6 6 -12 -1 -7 -1 -10 1 -5 9 14 34 7 31 -10 -2
-12 8 -20 37 -28 36 -11 40 -15 43 -48 l3 -37 156 0 155 0 -4 40 -3 39 47 13
c27 6 57 20 68 30 10 10 27 18 37 18 36 0 122 61 169 117 44 54 94 144 94 170
0 6 16 27 36 47 32 32 35 39 33 88 -2 29 3 63 10 76 7 13 10 35 6 52 -3 15 -2
37 4 47 30 56 51 117 55 160 5 46 9 74 36 243 7 41 9 102 6 135 -5 46 -2 66 9
80 8 11 15 27 15 35 0 9 8 27 18 40 25 37 40 117 29 168 -7 34 -6 47 6 60 15
18 38 130 38 192 0 19 1 76 2 125 1 82 -2 100 -41 212 -23 67 -42 130 -42 140
0 30 -52 104 -106 152 -27 24 -61 54 -76 68 -15 13 -29 31 -32 41 -4 9 -23 28
-44 41 -32 21 -35 21 -19 3 30 -33 3 -34 -31 0 -18 16 -32 34 -32 39 0 5 -8 9
-18 9 -10 0 -28 7 -40 16 -21 15 -22 14 -22 -13z m157 -240 c4 -34 2 -49 -9
-57 -8 -6 -20 -33 -28 -61 -15 -58 -30 -80 -30 -45 0 16 -3 21 -8 13 -4 -7 -8
21 -9 62 -1 41 3 75 8 75 5 0 9 12 9 26 0 15 10 35 22 46 19 16 23 17 30 3 5
-8 12 -36 15 -62z m168 9 c-7 -7 -45 29 -45 41 0 6 11 0 25 -13 14 -13 23 -26
20 -28z m-266 17 c-11 -21 -8 -72 6 -118 6 -16 5 -22 -3 -17 -6 3 -16 31 -23
61 -11 49 -10 57 6 75 23 26 29 25 14 -1z m261 -89 c0 -15 -9 -35 -21 -46 -22
-19 -22 -19 -10 3 14 27 14 68 0 96 -10 21 -9 21 10 -2 12 -13 21 -36 21 -51z
m-60 50 c0 -5 -2 -10 -4 -10 -3 0 -8 5 -11 10 -3 6 -1 10 4 10 6 0 11 -4 11
-10z m-241 -297 c-4 -46 0 -53 26 -43 14 5 25 7 25 5 0 -3 0 -7 0 -10 0 -3 -2
-4 -3 -2 -2 1 -10 -3 -18 -10 -17 -14 -31 -7 -48 25 -8 14 -8 22 -1 22 5 0 10
7 10 15 0 8 3 15 6 15 3 0 4 -8 3 -17z m-64 -103 c3 -5 1 -10 -4 -10 -6 0 -11
5 -11 10 0 6 2 10 4 10 3 0 8 -4 11 -10z m-15 -174 c0 -3 -4 -16 -10 -30 -5
-14 -6 -25 -2 -25 4 1 25 1 47 -1 32 -1 36 -3 20 -10 -26 -11 -112 -12 -119
-2 -8 13 32 72 49 72 8 0 15 -2 15 -4z m200 -97 c0 -4 -11 -10 -24 -13 -21 -5
-47 -38 -28 -35 31 5 38 -19 14 -43 -8 -8 -8 -15 -2 -23 7 -9 5 -16 -5 -25 -8
-7 -16 -22 -16 -34 -1 -17 -2 -17 -6 -3 -2 9 -7 17 -10 17 -13 0 -42 -32 -39
-43 2 -7 1 -9 -2 -4 -2 4 -13 12 -25 19 -19 10 -20 9 -9 -4 10 -12 10 -18 1
-23 -6 -4 -16 -1 -21 6 -8 11 -8 11 -4 -1 3 -8 9 -23 12 -32 4 -10 11 -18 16
-18 6 0 3 -11 -6 -25 -9 -14 -12 -25 -6 -25 6 0 -3 -14 -19 -30 -25 -27 -32
-29 -55 -20 -22 8 -25 13 -17 28 7 12 2 37 -15 86 -28 82 -25 136 13 174 7 7
13 22 13 32 0 16 4 18 23 11 37 -14 162 3 170 23 5 12 47 17 47 5z m-100 -273
c0 -3 -4 -8 -10 -11 -5 -3 -10 -1 -10 4 0 6 5 11 10 11 6 0 10 -2 10 -4z
m-169 -89 c9 -7 15 -22 14 -34 -2 -24 -15 -45 -15 -24 0 7 -5 9 -12 5 -7 -4
-10 -4 -6 1 10 11 -11 47 -23 40 -5 -4 -7 -10 -5 -14 3 -4 0 -13 -6 -21 -8
-12 -9 -12 -4 3 3 11 0 17 -9 17 -8 0 -16 -8 -16 -17 -1 -10 -4 -4 -8 12 -4
17 -2 33 4 37 16 12 68 9 86 -5z m143 -42 c3 -8 1 -15 -4 -15 -6 0 -10 7 -10
15 0 8 2 15 4 15 2 0 6 -7 10 -15z m-44 -81 c0 -8 -5 -12 -10 -9 -6 4 -8 11
-5 16 9 14 15 11 15 -7z m169 -58 c-9 -8 -10 -7 -5 7 3 10 7 26 7 35 1 9 4 6
6 -7 3 -13 -1 -28 -8 -35z m-26 -35 c-13 -11 -23 -24 -23 -30 0 -6 -5 -11 -11
-11 -7 0 -10 -12 -7 -29 2 -17 1 -28 -4 -25 -4 3 -8 19 -8 35 0 30 40 79 64
79 6 -1 1 -9 -11 -19z m-363 -56 c-14 -17 -40 -20 -40 -6 0 8 18 16 44 20 5 0
3 -6 -4 -14z m343 -10 c-3 -9 -8 -14 -10 -11 -3 3 -2 9 2 15 9 16 15 13 8 -4z
m107 -6 c0 -6 -4 -7 -10 -4 -5 3 -10 11 -10 16 0 6 5 7 10 4 6 -3 10 -11 10
-16z m-52 -129 c13 -11 20 -24 17 -30 -5 -8 -15 -4 -31 11 -40 38 -28 54 14
19z m-66 -22 c-3 -14 -2 -19 6 -14 21 13 13 -27 -11 -56 l-22 -27 2 52 c2 70
1 67 17 67 10 0 12 -7 8 -22z m93 -38 c3 -5 2 -10 -4 -10 -5 0 -13 5 -16 10
-3 6 -2 10 4 10 5 0 13 -4 16 -10z m-12 -56 c9 -10 -4 -34 -18 -34 -17 0 -28
17 -20 30 7 11 28 13 38 4z m42 -74 c3 -5 -1 -35 -9 -66 -8 -31 -12 -63 -8
-72 5 -15 4 -15 -11 -3 -19 15 -23 56 -6 67 7 4 9 21 5 45 -5 30 -3 39 8 39 8
0 18 -4 21 -10z m-218 -22 c-3 -8 -6 -5 -6 6 -1 11 2 17 5 13 3 -3 4 -12 1
-19z m83 -58 c0 -31 -15 -30 -16 1 -1 15 3 26 7 23 5 -3 9 -14 9 -24z m60 8
c0 -16 -3 -19 -11 -11 -6 6 -8 16 -5 22 11 17 16 13 16 -11z m-28 -35 c2 -27
-1 -51 -6 -55 -10 -7 7 -13 27 -9 5 1 0 -9 -10 -23 -26 -35 -42 -16 -39 47 5
85 6 87 15 87 5 0 11 -21 13 -47z m-456 -87 c10 -21 9 -25 -7 -29 -15 -4 -19
0 -19 24 0 35 11 37 26 5z m430 -63 c19 -26 17 -44 -11 -104 -22 -49 -23 -55
-8 -71 9 -10 11 -18 6 -18 -15 0 -33 24 -42 58 -7 23 -5 33 10 46 13 11 19 29
19 61 0 49 6 55 26 28z m60 -4 c2 -30 5 -33 15 -19 9 12 10 12 5 -3 -3 -10 -6
-24 -6 -30 -1 -13 -39 52 -40 66 0 15 25 1 26 -14z m-469 -101 c-3 -8 -6 -5
-6 6 -1 11 2 17 5 13 3 -3 4 -12 1 -19z m263 -8 c0 -5 -5 -10 -11 -10 -5 0 -7
5 -4 10 3 6 8 10 11 10 2 0 4 -4 4 -10z m-310 -94 c0 -3 -4 -8 -10 -11 -5 -3
-10 -1 -10 4 0 6 5 11 10 11 6 0 10 -2 10 -4z m86 -98 c-14 -20 -16 -20 -16
-4 0 15 -3 16 -15 6 -12 -10 -15 -7 -20 13 -8 29 13 77 24 58 6 -9 12 -7 22 5
13 16 14 14 17 -19 2 -22 -3 -46 -12 -59z m-35 -55 c-9 -16 -10 -14 -11 12 0
21 3 26 11 18 8 -8 8 -16 0 -30z"/>
<path d="M1296 1584 c-5 -14 -4 -15 9 -4 17 14 19 20 6 20 -5 0 -12 -7 -15
-16z"/>
<path d="M995 2690 c3 -5 8 -10 11 -10 2 0 4 5 4 10 0 6 -5 10 -11 10 -5 0 -7
-4 -4 -10z"/>
<path d="M1280 2689 c0 -5 5 -7 10 -4 6 3 10 8 10 11 0 2 -4 4 -10 4 -5 0 -10
-5 -10 -11z"/>
<path d="M1217 2673 c-14 -14 -6 -53 13 -63 23 -13 27 2 5 20 -9 7 -13 21 -10
31 7 20 3 24 -8 12z"/>
<path d="M980 2660 c0 -7 11 -21 25 -32 14 -11 23 -23 20 -28 -3 -4 2 -10 10
-14 24 -9 17 7 -20 48 -19 21 -35 33 -35 26z"/>
<path d="M915 2610 c-3 -5 0 -10 8 -10 14 0 16 -37 3 -59 -3 -5 1 -17 10 -25
10 -10 13 -23 9 -34 -21 -50 -23 -72 -9 -72 8 0 14 6 14 14 0 8 5 16 12 18 7
3 11 24 9 57 -2 69 -38 140 -56 111z"/>
<path d="M1140 2618 c0 -2 9 -11 20 -21 11 -9 20 -13 20 -7 0 5 -9 14 -20 20
-11 6 -20 9 -20 8z"/>
<path d="M1305 2591 c-3 -5 -1 -12 5 -16 5 -3 10 1 10 9 0 18 -6 21 -15 7z"/>
<path d="M807 2570 c-3 -11 -1 -20 4 -20 5 0 9 9 9 20 0 11 -2 20 -4 20 -2 0
-6 -9 -9 -20z"/>
<path d="M1080 2580 c0 -5 9 -14 20 -20 12 -7 22 -25 26 -50 6 -36 14 -45 37
-41 10 1 9 -17 -4 -62 -13 -49 -5 -58 15 -19 19 37 23 132 7 158 -10 16 -11
14 -6 -13 4 -21 3 -33 -4 -33 -6 0 -10 3 -9 8 3 14 -14 42 -26 42 -6 0 -17 9
-24 20 -13 21 -32 27 -32 10z"/>
<path d="M834 2525 c-3 -14 -4 -31 -1 -39 3 -7 2 -17 -2 -22 -5 -5 -13 -25
-20 -44 l-11 -35 19 25 c11 13 17 29 13 35 -3 5 1 4 10 -3 14 -11 18 -9 31 18
12 24 13 30 2 30 -14 0 -29 28 -26 48 4 23 -9 12 -15 -13z"/>
<path d="M1032 2535 c24 -14 26 -19 22 -58 -3 -23 -14 -57 -24 -74 -11 -18
-17 -33 -14 -33 13 0 64 35 65 45 5 41 3 82 -3 78 -5 -2 -8 1 -8 6 0 6 5 11
10 11 6 0 10 6 10 14 0 9 -7 12 -20 9 -11 -3 -20 0 -20 6 0 6 -10 11 -22 11
-22 -1 -22 -2 4 -15z"/>
<path d="M746 2497 c3 -10 9 -15 12 -12 3 3 0 11 -7 18 -10 9 -11 8 -5 -6z"/>
<path d="M794 2359 c-19 -22 -19 -22 4 -8 12 8 22 17 22 21 0 12 -6 9 -26 -13z"/>
<path d="M610 2340 c0 -11 -9 -39 -20 -60 -24 -48 -8 -54 20 -7 22 35 26 72
10 82 -5 3 -10 -3 -10 -15z"/>
<path d="M438 2300 c-3 -18 0 -30 7 -30 6 0 11 11 10 24 0 37 -12 41 -17 6z"/>
<path d="M524 2221 c-11 -64 -2 -71 14 -11 5 19 6 43 3 53 -5 12 -10 -2 -17
-42z"/>
<path d="M1255 2260 c3 -5 8 -10 11 -10 2 0 4 5 4 10 0 6 -5 10 -11 10 -5 0
-7 -4 -4 -10z"/>
<path d="M440 2219 c0 -11 -4 -28 -9 -37 -5 -10 -12 -40 -15 -67 -8 -77 -26
-154 -37 -161 -17 -10 -20 2 -10 29 14 36 -4 45 -29 15 l-19 -23 6 23 c3 12 9
22 14 22 5 0 9 7 9 15 0 9 6 18 13 20 7 3 13 23 13 45 1 33 -1 38 -12 29 -8
-6 -12 -15 -9 -19 3 -4 -5 -19 -16 -34 -11 -14 -17 -26 -14 -26 4 0 0 -11 -9
-25 -19 -29 -22 -69 -3 -59 10 6 10 4 0 -7 -25 -26 -8 -111 23 -123 10 -4 11
0 3 17 -7 16 -7 31 2 52 12 28 13 29 16 8 5 -27 23 -31 23 -5 0 10 6 26 14 37
7 11 17 35 21 53 3 17 11 32 16 32 5 0 8 3 7 8 0 4 2 16 6 27 4 11 12 32 18
47 6 15 7 35 4 44 -4 10 1 22 11 30 17 12 16 13 -4 7 -19 -4 -21 -2 -17 21 2
14 0 26 -6 26 -5 0 -10 -9 -10 -21z"/>
<path d="M371 2214 c0 -11 3 -14 6 -6 3 7 2 16 -1 19 -3 4 -6 -2 -5 -13z"/>
<path d="M1267 2130 c3 -11 7 -20 9 -20 2 0 4 9 4 20 0 11 -4 20 -9 20 -5 0
-7 -9 -4 -20z"/>
<path d="M240 2038 c0 -8 -3 -30 -6 -47 -4 -18 -2 -31 3 -31 14 0 25 72 13 84
-7 7 -10 4 -10 -6z"/>
<path d="M367 2039 c7 -7 15 -10 18 -7 3 3 -2 9 -12 12 -14 6 -15 5 -6 -5z"/>
<path d="M198 2003 c-5 -25 3 -73 11 -73 9 0 7 77 -1 86 -4 3 -8 -3 -10 -13z"/>
<path d="M757 2013 c-2 -1 -25 -3 -51 -4 -35 -2 -57 -10 -75 -26 l-26 -22 30
-1 30 0 -30 -19 c-42 -26 -115 -96 -115 -109 0 -7 10 -12 22 -12 14 0 41 20
73 54 54 58 85 72 140 62 46 -9 45 -26 -2 -26 -59 0 -107 -17 -138 -50 -35
-36 -27 -38 23 -6 20 14 46 25 57 26 44 5 73 -1 72 -12 -1 -37 4 -47 20 -41
12 5 14 3 8 -7 -6 -10 -2 -11 20 -6 30 8 54 32 55 54 0 6 5 12 11 12 6 0 9 9
6 19 -5 20 17 36 35 25 5 -3 8 0 7 7 -1 8 2 23 6 33 6 13 4 21 -3 24 -7 2 -10
8 -6 13 3 5 -2 9 -10 9 -9 0 -16 -7 -16 -14 0 -12 -6 -13 -30 -5 -16 6 -30 14
-30 19 0 6 -77 9 -83 3z m37 -151 c3 -5 -1 -9 -9 -9 -8 0 -12 4 -9 9 3 4 7 8
9 8 2 0 6 -4 9 -8z"/>
<path d="M1043 2003 c-4 -10 -11 -22 -17 -26 -7 -5 -3 -7 8 -5 12 2 20 12 21
26 2 26 -3 29 -12 5z"/>
<path d="M276 1945 c-3 -8 -1 -15 4 -15 6 0 10 7 10 15 0 8 -2 15 -4 15 -2 0
-6 -7 -10 -15z"/>
<path d="M1000 1949 c0 -5 5 -7 10 -4 6 3 10 8 10 11 0 2 -4 4 -10 4 -5 0 -10
-5 -10 -11z"/>
<path d="M495 1905 c-15 -15 -25 -29 -22 -32 3 -3 18 7 32 22 35 34 27 43 -10
10z"/>
<path d="M160 1895 c0 -8 4 -15 10 -15 5 0 7 7 4 15 -4 8 -8 15 -10 15 -2 0
-4 -7 -4 -15z"/>
<path d="M200 1855 c0 -9 60 -35 82 -35 22 0 22 0 3 13 -20 14 -85 30 -85 22z"/>
<path d="M145 1820 c3 -5 8 -10 11 -10 2 0 4 5 4 10 0 6 -5 10 -11 10 -5 0 -7
-4 -4 -10z"/>
<path d="M376 1785 c-3 -8 -1 -25 4 -37 8 -20 9 -18 9 15 1 39 -3 47 -13 22z"/>
<path d="M783 1773 c-13 -2 -23 -11 -23 -19 0 -8 -4 -12 -10 -9 -6 3 -7 -1 -4
-9 7 -19 6 -19 38 -6 14 5 26 16 26 24 0 8 6 17 13 19 15 7 -8 6 -40 0z"/>
<path d="M253 1749 c-1 -10 2 -21 8 -24 5 -4 6 2 2 12 -6 16 -5 16 10 4 10 -8
20 -12 23 -9 2 3 -6 12 -19 21 -21 14 -23 13 -24 -4z"/>
<path d="M330 1752 c0 -4 4 -12 9 -17 15 -16 13 -153 -3 -197 -14 -40 -15 -49
-6 -43 39 24 56 166 26 228 -18 36 -26 45 -26 29z"/>
<path d="M213 1661 c2 -70 16 -68 19 3 2 31 -1 51 -9 53 -8 3 -11 -14 -10 -56z"/>
<path d="M265 1700 c-3 -5 -1 -10 4 -10 6 0 11 5 11 10 0 6 -2 10 -4 10 -3 0
-8 -4 -11 -10z"/>
<path d="M294 1586 c-3 -21 -4 -39 -1 -42 3 -4 9 10 13 30 3 21 4 39 1 42 -3
4 -9 -10 -13 -30z"/>
<path d="M790 1530 c0 -5 5 -10 10 -10 6 0 10 5 10 10 0 6 -4 10 -10 10 -5 0
-10 -4 -10 -10z"/>
<path d="M910 1500 c0 -5 7 -10 16 -10 8 0 12 5 9 10 -3 6 -10 10 -16 10 -5 0
-9 -4 -9 -10z"/>
<path d="M272 1375 c-35 -19 -38 -25 -10 -25 15 0 29 7 32 16 8 22 6 23 -22 9z"/>
<path d="M280 1245 c0 -11 -3 -30 -6 -42 -4 -13 -2 -23 4 -23 15 0 24 48 13
68 -9 15 -10 15 -11 -3z"/>
<path d="M405 1250 c3 -5 8 -10 11 -10 2 0 4 5 4 10 0 6 -5 10 -11 10 -5 0 -7
-4 -4 -10z"/>
<path d="M497 1213 c-4 -3 -7 -13 -7 -22 1 -13 3 -13 11 2 11 19 8 33 -4 20z"/>
<path d="M544 1195 c-9 -14 -14 -28 -11 -31 3 -3 13 8 22 25 19 37 12 41 -11
6z"/>
<path d="M422 1165 c0 -16 2 -22 5 -12 2 9 2 23 0 30 -3 6 -5 -1 -5 -18z"/>
<path d="M402 1083 c-7 -3 -20 -19 -28 -36 l-16 -32 33 32 c32 32 36 45 11 36z"/>
<path d="M1255 1071 c-3 -6 -1 -11 4 -11 6 0 11 -5 11 -11 0 -5 -6 -7 -12 -3
-7 4 -9 3 -5 -1 4 -5 14 -10 22 -11 12 -2 13 2 4 19 -16 30 -16 30 -24 18z"/>
<path d="M700 1064 c0 -7 7 -27 15 -45 13 -32 14 -32 15 -8 0 14 -7 34 -15 45
-8 10 -15 14 -15 8z"/>
<path d="M1345 1030 c3 -5 8 -10 11 -10 2 0 4 5 4 10 0 6 -5 10 -11 10 -5 0
-7 -4 -4 -10z"/>
<path d="M433 973 c-10 -25 -10 -107 0 -111 5 -1 10 27 12 63 4 65 0 80 -12
48z"/>
<path d="M1283 977 c6 -15 3 -17 -14 -12 -20 7 -20 6 -4 -24 8 -17 11 -31 6
-31 -5 0 -12 6 -14 13 -3 6 -6 -6 -6 -28 -1 -30 -9 -50 -32 -78 -17 -21 -28
-41 -24 -45 10 -10 69 67 73 97 7 50 12 33 12 -39 0 -40 3 -71 6 -68 3 3 12
35 20 69 17 71 11 131 -14 151 -14 11 -15 10 -9 -5z"/>
<path d="M1130 944 c0 -27 -41 -113 -71 -149 -22 -28 -28 -47 -18 -70 6 -16 8
-17 8 -3 2 32 24 69 39 63 10 -4 12 0 8 10 -3 9 -2 13 4 10 6 -3 13 2 17 11 3
10 15 26 26 37 15 15 18 28 14 65 -3 26 -6 48 -6 50 -1 1 -5 2 -11 2 -5 0 -10
-12 -10 -26z"/>
<path d="M1170 951 c0 -6 4 -13 10 -16 6 -3 7 1 4 9 -7 18 -14 21 -14 7z"/>
<path d="M1201 927 c12 -41 11 -43 -3 -29 -9 9 -16 1 -30 -36 -36 -94 -20
-102 38 -20 26 36 30 48 22 74 -4 18 -14 34 -22 37 -12 5 -12 0 -5 -26z"/>
<path d="M648 793 c-10 -3 -18 -9 -18 -14 0 -10 7 -11 34 0 23 9 9 19 -16 14z"/>
<path d="M902 734 c-27 -41 -20 -61 9 -25 15 19 27 61 17 61 -2 0 -13 -16 -26
-36z"/>
<path d="M814 715 c-7 -19 -21 -51 -29 -71 -19 -46 -19 -64 -1 -38 14 18 15
18 22 -11 4 -17 16 -46 28 -66 18 -33 19 -40 6 -65 -14 -29 -20 -74 -10 -74
12 0 50 68 50 90 0 13 -12 43 -26 67 -21 36 -25 57 -25 114 0 38 3 74 6 79 3
6 3 10 0 10 -3 0 -13 -16 -21 -35z"/>
<path d="M517 703 c-4 -3 -7 -11 -7 -17 0 -6 5 -5 12 2 6 6 9 14 7 17 -3 3 -9
2 -12 -2z"/>
<path d="M757 667 c-27 -32 -33 -47 -19 -47 9 0 55 70 50 76 -3 2 -16 -11 -31
-29z"/>
<path d="M1195 690 c-3 -5 -2 -10 4 -10 5 0 13 5 16 10 3 6 2 10 -4 10 -5 0
-13 -4 -16 -10z"/>
<path d="M444 668 c-4 -6 -2 -14 4 -16 7 -2 12 -8 12 -13 0 -4 -7 -6 -15 -3
-23 9 -18 -8 15 -46 l29 -35 1 33 c0 29 -23 92 -35 92 -2 0 -7 -5 -11 -12z"/>
<path d="M610 580 c-11 -7 -12 -12 -3 -21 13 -13 33 -4 33 17 0 16 -9 18 -30
4z"/>
<path d="M641 546 c-9 -10 -8 -15 4 -20 10 -4 15 1 15 14 0 24 -4 25 -19 6z"/>
<path d="M924 518 c-1 -13 -5 -41 -9 -63 l-8 -40 22 24 c21 24 26 55 15 85 -9
23 -19 20 -20 -6z"/>
<path d="M791 527 c2 -1 13 -9 24 -17 19 -14 19 -14 6 3 -7 9 -18 17 -24 17
-6 0 -8 -1 -6 -3z"/>
<path d="M701 424 c0 -11 3 -14 6 -6 3 7 2 16 -1 19 -3 4 -6 -2 -5 -13z"/>
<path d="M590 406 c-5 -14 -14 -26 -20 -26 -20 0 1 -20 42 -41 38 -19 40 -20
33 -2 -4 10 -10 29 -13 43 -3 13 -11 31 -19 38 -11 11 -15 9 -23 -12z"/>
<path d="M921 409 c-22 -20 -23 -38 -2 -24 11 6 35 45 28 45 -2 0 -13 -9 -26
-21z"/>
<path d="M1130 317 c0 -8 6 -20 14 -26 12 -10 13 -8 9 9 -7 25 -23 37 -23 17z"/>
<path d="M1160 320 c0 -5 5 -10 11 -10 5 0 7 5 4 10 -3 6 -8 10 -11 10 -2 0
-4 -4 -4 -10z"/>
<path d="M1174 253 c4 -12 2 -24 -4 -28 -19 -12 -11 -26 10 -15 24 13 26 33 4
51 -15 12 -16 11 -10 -8z"/>
<path d="M610 190 c-8 -5 -23 -7 -32 -4 -10 3 -18 0 -18 -6 0 -6 -6 -8 -12 -5
-7 4 -4 -1 6 -9 23 -18 36 -20 36 -6 0 6 6 10 14 10 7 0 19 7 26 15 14 17 3
20 -20 5z"/>
<path d="M847 99 c7 -7 15 -10 18 -7 3 3 -2 9 -12 12 -14 6 -15 5 -6 -5z"/>
</g>
</svg>
