<?xml version="1.0" standalone="no"?>
<!DOCTYPE svg PUBLIC "-//W3C//DTD SVG 20010904//EN"
 "http://www.w3.org/TR/2001/REC-SVG-20010904/DTD/svg10.dtd">
<svg version="1.0" xmlns="http://www.w3.org/2000/svg"
 width="655.000000pt" height="368.000000pt" viewBox="0 0 655.000000 368.000000"
 preserveAspectRatio="xMidYMid meet">

<g transform="translate(0.000000,368.000000) scale(0.100000,-0.100000)"
fill="#080808" stroke="none">
<path d="M0 1840 l0 -1840 920 0 c729 0 920 3 921 13 1 6 0 89 -1 184 -2 150
1 177 18 215 25 58 69 93 145 117 34 10 80 29 101 42 40 23 85 27 452 32 78 1
110 5 107 13 -5 14 60 65 103 83 17 7 36 23 42 37 7 13 26 33 44 44 26 16 33
27 33 52 0 17 6 33 13 35 6 3 12 -2 12 -11 0 -10 9 -16 23 -16 13 0 28 -5 35
-12 8 -8 23 -7 59 7 83 30 117 58 153 126 27 51 34 76 37 136 2 59 0 75 -12
79 -22 9 -18 30 10 52 29 23 34 75 10 108 -8 12 -25 50 -39 85 l-25 64 0 -40
c-1 -47 -20 -86 -22 -45 0 14 -3 20 -5 13 -9 -21 -72 26 -91 68 -10 23 -24 39
-34 39 -9 0 -27 11 -40 25 -27 29 -68 53 -111 66 -38 10 -35 2 11 -37 21 -18
50 -57 65 -86 28 -55 60 -162 46 -153 -4 3 -10 -4 -13 -15 -3 -11 -2 -18 3
-15 15 9 18 -46 3 -61 -17 -17 -33 -18 -33 -3 0 6 -9 8 -20 4 -15 -5 -22 0
-30 20 -14 38 -12 71 5 85 17 14 20 50 5 50 -5 0 -10 -8 -10 -19 0 -10 -7 -24
-15 -31 -12 -10 -15 -10 -15 3 0 10 -6 14 -14 11 -9 -4 -20 6 -30 25 -21 40
-20 60 4 69 20 7 20 7 0 20 -14 8 -20 9 -20 1 0 -6 -10 -19 -22 -29 l-23 -19
27 -51 c25 -48 28 -80 7 -80 -4 0 -6 7 -2 15 5 13 2 14 -21 4 -27 -13 -33 -24
-17 -33 5 -4 12 0 14 6 3 7 6 3 6 -9 1 -17 -5 -23 -19 -23 -15 0 -20 -7 -20
-24 0 -14 -5 -28 -10 -31 -5 -3 -10 -9 -10 -13 0 -12 63 -33 70 -23 3 5 23 12
45 16 l40 7 -49 -26 c-42 -22 -50 -24 -63 -11 -17 18 -33 19 -33 4 0 -6 -10
-9 -23 -7 -17 3 -23 0 -23 -13 0 -10 3 -17 6 -17 11 2 40 -14 40 -22 0 -18
-36 -14 -45 5 -6 11 -20 20 -32 20 -20 0 -63 43 -63 62 0 5 -11 20 -24 32 -27
25 -27 37 0 196 39 222 140 291 314 215 79 -35 149 -50 226 -50 l54 0 0 119
c0 87 -6 143 -21 208 -33 138 -14 262 57 364 32 46 112 89 166 89 l38 0 -6 73
c-3 39 -16 106 -28 147 -18 60 -23 97 -22 185 1 61 5 117 9 126 6 12 2 18 -13
22 -16 4 -19 2 -11 -7 6 -7 6 -17 0 -26 -8 -13 -12 -12 -24 4 -16 21 -19 42
-16 121 2 28 -2 61 -8 75 l-10 25 0 -27 c-1 -16 -6 -28 -12 -28 -15 0 -2 99
27 196 13 45 24 87 24 94 0 38 45 98 104 138 101 69 166 85 321 79 97 -4 144
-10 185 -26 60 -22 156 -99 149 -119 -3 -8 -18 0 -43 23 l-39 35 5 -52 c3 -29
3 -47 1 -40 -4 10 -8 10 -19 1 -12 -10 -21 -5 -51 28 l-36 39 -23 -23 c-14
-14 -35 -23 -54 -23 -18 0 -29 -4 -25 -10 9 -15 68 -12 93 6 12 8 22 10 22 5
0 -14 -53 -41 -80 -41 -19 0 -19 -1 -2 -18 9 -11 20 -17 24 -15 3 2 18 -1 33
-7 23 -9 28 -7 32 10 8 31 66 27 92 -6 23 -29 31 -78 9 -56 -9 9 -14 8 -23 -4
-9 -13 -15 -14 -40 -2 -17 7 -34 17 -38 23 -5 5 -6 -1 -2 -15 15 -53 16 -76 6
-100 -9 -24 -10 -24 -10 9 -1 42 -22 112 -31 106 -5 -3 -10 2 -14 10 -7 19
-26 20 -26 1 0 -9 -7 -13 -19 -11 -18 3 -38 -20 -23 -27 4 -2 5 -30 2 -63 l-5
-60 -35 -3 c-85 -8 -180 -37 -180 -54 0 -5 -4 -7 -9 -4 -5 4 -12 0 -14 -6 -4
-9 -6 -8 -6 2 -1 13 -13 15 -68 12 -38 -2 -72 -8 -78 -13 -5 -6 -2 -9 10 -9
17 0 16 -2 -5 -26 -29 -30 -21 -39 51 -48 57 -8 86 4 91 36 4 32 29 33 64 3
33 -28 66 -32 84 -10 16 20 35 19 56 -2 15 -16 20 -16 60 -1 25 9 47 12 50 7
10 -17 -17 -87 -46 -117 -16 -18 -30 -36 -30 -41 0 -5 -3 -16 -6 -25 -4 -11 0
-16 14 -16 11 0 25 -7 33 -16 11 -14 14 -14 24 -1 5 8 30 24 55 37 25 13 60
38 78 57 30 33 32 33 32 11 -1 -29 -20 -54 -45 -60 -11 -2 -19 -10 -18 -16 2
-7 -1 -12 -6 -12 -12 0 -61 -44 -61 -54 0 -4 4 -4 10 -1 5 3 10 2 10 -4 0 -6
7 -8 15 -5 26 11 47 -3 36 -24 -11 -21 4 -166 21 -197 6 -11 13 -56 15 -101 3
-79 2 -82 -23 -99 -23 -15 -25 -22 -21 -63 6 -68 27 -166 38 -176 5 -6 9 -30
9 -54 0 -26 4 -41 10 -37 6 3 7 -1 4 -10 -4 -9 8 -61 27 -115 27 -82 41 -110
80 -152 26 -29 50 -65 53 -81 3 -15 10 -26 16 -22 6 4 10 -5 10 -20 0 -15 10
-41 22 -57 13 -19 23 -50 24 -80 2 -27 6 -53 9 -58 4 -6 1 -10 -6 -10 -7 0 -9
-10 -6 -27 3 -16 1 -48 -5 -73 -12 -50 -73 -138 -81 -118 -3 9 -11 7 -26 -8
-25 -23 -20 -47 12 -61 13 -6 61 -42 107 -80 59 -48 96 -72 121 -76 20 -3 56
-17 78 -32 23 -14 47 -23 52 -19 24 14 39 76 39 159 0 47 6 129 14 183 23 152
30 256 18 248 -5 -3 -13 -18 -17 -33 -7 -31 -80 -133 -94 -133 -5 0 5 28 22
62 49 93 51 98 58 98 9 0 -1 82 -10 93 -4 4 -14 -5 -21 -20 -8 -16 -23 -41
-35 -58 -11 -16 -27 -43 -35 -60 -8 -16 -29 -38 -47 -48 l-32 -18 -14 48 c-8
26 -29 76 -47 111 -51 97 -51 216 -1 334 15 35 17 54 11 103 -14 99 -11 213 4
243 8 15 39 50 70 77 30 28 56 53 56 56 0 4 7 23 16 44 15 37 15 37 37 19 12
-10 0 5 -27 33 -46 48 -49 54 -38 78 17 36 87 36 132 -1 27 -24 33 -25 48 -12
32 28 53 29 85 6 18 -12 38 -29 45 -38 49 -60 113 -210 117 -272 2 -38 -8 -50
-19 -25 -4 6 -4 2 -2 -10 2 -13 0 -23 -5 -23 -5 0 -9 -9 -9 -21 0 -11 -5 -17
-10 -14 -6 4 -10 -5 -10 -19 0 -15 -6 -26 -14 -26 -9 0 -12 -8 -8 -27 5 -26 4
-27 -13 -13 -17 14 -18 13 -13 -20 4 -19 10 -44 14 -54 5 -14 4 -17 -4 -12 -7
4 -12 16 -12 27 0 10 -5 19 -11 19 -7 0 -9 -10 -7 -25 3 -14 1 -25 -3 -25 -14
0 -11 -24 7 -59 12 -23 13 -35 5 -45 -6 -7 -11 -24 -10 -37 2 -34 -23 -147
-60 -273 -31 -103 -32 -115 -29 -246 2 -76 0 -136 -4 -133 -5 2 -8 -6 -8 -19
0 -19 2 -20 11 -8 8 12 9 10 5 -10 -4 -14 -9 -77 -12 -140 -7 -152 -10 -163
-35 -155 -11 4 -27 1 -35 -6 -22 -18 -60 6 -68 42 -5 28 -6 28 -34 12 -29 -17
-29 -16 -79 25 -27 23 -59 42 -72 42 -13 0 -40 19 -69 50 -62 67 -134 126
-125 104 4 -12 3 -15 -5 -10 -7 4 -12 18 -12 30 0 13 -7 30 -17 37 -15 13 -15
12 -4 -8 21 -40 3 -25 -67 60 -38 45 -85 91 -103 101 -29 17 -32 17 -20 3 9
-12 10 -17 2 -17 -17 0 -28 -36 -35 -115 -8 -89 -30 -118 -37 -50 -2 17 -8 33
-14 37 -6 5 -5 8 3 8 6 0 12 5 12 10 0 12 -10 13 -29 1 -10 -6 -10 -13 -3 -28
6 -10 7 -25 3 -32 -6 -10 -10 -9 -15 4 -10 28 -7 65 7 66 12 0 -20 17 -37 18
-13 1 3 -349 30 -664 5 -61 60 -458 70 -507 l6 -28 255 0 256 0 -6 133 c-3 73
-2 138 2 145 11 18 78 27 95 13 8 -7 13 -21 11 -31 -2 -11 1 -19 7 -17 11 2
56 -172 57 -220 1 -23 2 -23 149 -23 l148 0 11 28 11 27 1 -27 1 -28 860 0
860 0 0 1840 0 1840 -3275 0 -3275 0 0 -1840z m4053 1497 c3 -22 0 -34 -5 -30
-14 8 -48 85 -42 95 10 16 43 -29 47 -65z m5 -82 c-3 -3 -9 2 -12 12 -6 14 -5
15 5 6 7 -7 10 -15 7 -18z m-66 -68 c18 -18 33 -39 33 -47 0 -8 15 -20 34 -26
20 -7 29 -14 22 -18 -6 -4 -15 -5 -19 -2 -5 3 -26 6 -46 8 -46 3 -66 27 -66
80 0 21 2 38 5 38 2 0 19 -15 37 -33z m-256 -102 c-15 -11 -16 -15 -5 -16 8 0
1 -5 -15 -10 -17 -4 -32 -7 -34 -5 -8 9 34 44 53 45 20 0 20 0 1 -14z m279
-55 c4 -11 10 -18 15 -15 7 4 24 -24 18 -31 -2 -1 -18 4 -35 11 -22 9 -33 21
-33 35 0 26 27 26 35 0z m-565 0 c-20 -13 -43 -13 -35 0 3 6 16 10 28 10 18 0
19 -2 7 -10z m615 -210 c-4 -12 -9 -19 -12 -17 -3 3 -2 15 2 27 4 12 9 19 12
17 3 -3 2 -15 -2 -27z m-42 -2 c5 -18 -3 -48 -14 -48 -5 0 -9 6 -9 14 0 12 -5
12 -30 3 -16 -6 -32 -8 -36 -5 -10 10 20 36 47 41 13 2 27 5 31 6 3 0 8 -5 11
-11z m-15 -116 c4 -25 -13 -30 -22 -6 -9 25 -7 36 7 32 6 -3 13 -14 15 -26z
m851 -409 c5 -17 5 -36 0 -44 -11 -19 -15 -11 -23 46 -7 54 7 53 23 -2z
m-4154 -494 c4 -5 19 -8 33 -4 36 7 58 -24 41 -58 -21 -41 -42 -57 -73 -57
-17 0 -44 -10 -59 -23 -23 -18 -30 -35 -42 -102 -7 -44 -16 -104 -19 -132 -2
-29 -9 -67 -15 -85 -6 -18 -13 -45 -16 -60 -3 -16 -16 -32 -33 -40 -28 -14
-30 -26 -17 -84 5 -23 2 -35 -11 -48 -26 -27 -152 -14 -176 17 -15 19 -15 25
-2 44 7 12 14 29 14 37 0 8 11 27 25 42 14 15 25 37 25 50 0 13 13 38 29 56
28 33 28 33 23 143 -5 123 10 225 33 225 8 0 22 11 31 25 17 26 43 32 60 15
11 -11 87 20 99 40 8 13 42 13 50 -1z m5060 -299 c4 -6 1 -9 -7 -8 -10 2 -13
-25 -14 -124 0 -70 -3 -130 -6 -133 -2 -3 -22 21 -44 52 -21 31 -61 84 -87
117 -27 33 -44 62 -39 64 116 38 186 50 197 32z m-1099 -210 c-18 -93 -24
-114 -25 -80 -1 57 16 166 32 205 21 53 18 4 -7 -125z m-3886 84 c0 -27 -15
-32 -24 -9 -7 20 -25 19 -33 -2 -4 -10 -13 -28 -21 -40 -12 -19 -17 -20 -33
-10 -21 13 -23 25 -10 59 8 21 16 24 65 24 52 1 56 0 56 -22z m2260 -5 c0 -6
-4 -7 -10 -4 -5 3 -10 11 -10 16 0 6 5 7 10 4 6 -3 10 -11 10 -16z m47 -72
c29 -20 63 -65 63 -84 -1 -4 -10 3 -20 16 -23 26 -25 23 -9 -13 10 -21 8 -29
-15 -58 -36 -45 -38 -48 -61 -93 -11 -21 -26 -41 -33 -43 -22 -7 -10 59 12 72
11 6 28 19 39 30 16 15 17 20 6 27 -10 6 -11 9 -1 9 21 0 13 14 -22 37 -26 17
-36 19 -47 10 -11 -10 -12 -9 -3 1 7 8 10 30 7 53 -6 44 11 73 36 64 9 -3 30
-16 48 -28z m-240 -17 c7 -14 10 -26 8 -29 -8 -7 -33 19 -38 40 -7 27 15 19
30 -11z m1052 -235 c15 -203 23 -606 11 -578 -23 55 -53 410 -48 573 1 52 2
122 2 155 -1 57 -1 58 11 30 7 -16 18 -97 24 -180z m-1104 185 c3 -5 -1 -10
-10 -10 -9 0 -13 5 -10 10 3 6 8 10 10 10 2 0 7 -4 10 -10z m95 -40 c0 -5 -5
-10 -11 -10 -5 0 -7 5 -4 10 3 6 8 10 11 10 2 0 4 -4 4 -10z m138 -47 c-8 -10
-20 -27 -26 -38 -10 -19 -11 -19 -18 -2 -4 12 1 24 16 37 28 25 49 26 28 3z
m772 -85 c0 -5 -7 -3 -15 6 -8 8 -15 18 -15 22 0 3 7 1 15 -6 8 -7 15 -17 15
-22z m-1030 -50 c0 -5 -4 -7 -8 -4 -4 2 -6 -11 -4 -30 5 -38 -12 -47 -22 -11
-8 30 -8 102 1 110 6 7 33 -45 33 -65z"/>
<path d="M3061 1273 c-1 -43 1 -47 23 -50 14 -3 16 0 9 9 -6 7 -15 27 -21 43
l-10 30 -1 -32z"/>
<path d="M3728 3523 c7 -3 16 -2 19 1 4 3 -2 6 -13 5 -11 0 -14 -3 -6 -6z"/>
<path d="M3770 3477 c-53 -54 -52 -62 5 -58 44 3 62 12 72 34 9 19 7 26 -13
44 l-24 22 -40 -42z m40 -37 c-8 -5 -19 -10 -25 -10 -5 0 -3 5 5 10 8 5 20 10
25 10 6 0 3 -5 -5 -10z"/>
<path d="M3930 3445 c0 -5 9 -21 20 -35 11 -14 20 -20 20 -15 0 6 -9 21 -20
35 -11 14 -20 21 -20 15z"/>
<path d="M3322 3313 c5 -24 25 -27 31 -3 4 15 0 20 -15 20 -13 0 -18 -6 -16
-17z"/>
<path d="M3336 3130 c-10 -19 -25 -43 -34 -52 -14 -17 -13 -18 7 -18 18 0 20
-4 15 -27 l-7 -28 22 27 c18 22 21 38 19 80 l-3 53 -19 -35z"/>
<path d="M3632 2948 c-8 -8 -8 -15 -1 -24 15 -18 1 -38 -16 -24 -13 11 -45 4
-45 -11 0 -5 -7 -9 -15 -9 -8 0 -15 -4 -15 -10 0 -5 -10 -10 -21 -10 -18 0
-15 -6 22 -40 40 -36 42 -39 20 -40 -25 0 -94 -67 -85 -82 3 -4 8 -20 10 -35
8 -42 12 -43 49 -8 34 33 102 54 125 40 7 -4 9 -18 6 -31 -8 -32 20 -33 35 -1
8 17 6 32 -9 65 -11 24 -22 43 -26 43 -3 -1 -8 0 -11 0 -3 1 -9 3 -15 4 -5 1
-17 3 -25 4 -22 2 -18 19 5 26 11 3 20 13 20 22 0 8 9 17 20 20 25 7 25 20 2
72 -14 30 -21 38 -30 29z"/>
<path d="M3470 2850 c-6 -12 -9 -24 -7 -27 3 -2 11 5 17 17 6 12 9 24 7 27 -3
2 -11 -5 -17 -17z"/>
<path d="M3750 2727 c3 -45 9 -88 13 -95 5 -8 -3 -34 -23 -70 -29 -51 -30 -55
-9 -36 13 12 33 26 45 32 24 13 25 37 1 72 -11 18 -16 45 -15 93 0 38 -3 72
-8 77 -5 5 -7 -24 -4 -73z"/>
<path d="M3818 2773 c7 -3 16 -2 19 1 4 3 -2 6 -13 5 -11 0 -14 -3 -6 -6z"/>
<path d="M3784 2713 c0 -33 3 -48 7 -37 10 25 11 82 2 87 -5 3 -8 -20 -9 -50z"/>
<path d="M3372 2657 c-18 -21 -12 -70 6 -58 8 5 12 21 10 41 -3 29 -5 31 -16
17z"/>
<path d="M3660 2594 c0 -8 5 -12 10 -9 6 3 10 10 10 16 0 5 -4 9 -10 9 -5 0
-10 -7 -10 -16z"/>
<path d="M3470 2535 c0 -8 2 -15 4 -15 2 0 6 7 10 15 3 8 1 15 -4 15 -6 0 -10
-7 -10 -15z"/>
<path d="M3566 2503 c15 -23 15 -24 -5 -14 -25 14 -42 14 -18 0 19 -11 23 -44
7 -54 -13 -8 -13 -75 0 -75 10 0 2 -31 -11 -40 -4 -3 -11 -18 -14 -33 -6 -23
-4 -27 13 -27 11 0 27 -6 34 -13 11 -11 13 10 12 122 -1 163 0 158 -19 158
-13 0 -13 -3 1 -24z"/>
<path d="M3434 2486 c-6 -17 2 -36 17 -36 12 0 12 37 -1 45 -6 3 -13 -1 -16
-9z"/>
<path d="M3495 2436 c11 -8 16 -19 12 -30 -4 -9 -2 -16 3 -16 17 0 11 47 -6
54 -25 10 -29 7 -9 -8z"/>
<path d="M3435 2390 c3 -5 10 -10 16 -10 5 0 9 5 9 10 0 6 -7 10 -16 10 -8 0
-12 -4 -9 -10z"/>
<path d="M3478 2335 c-32 -37 -38 -71 -11 -61 9 4 20 1 25 -6 5 -8 8 0 9 22 3
49 4 53 12 68 16 25 -9 9 -35 -23z"/>
<path d="M3410 2350 c0 -5 5 -10 11 -10 5 0 7 5 4 10 -3 6 -8 10 -11 10 -2 0
-4 -4 -4 -10z"/>
<path d="M3516 2221 c-4 -6 -2 -11 3 -11 6 0 11 -7 11 -16 0 -8 5 -12 11 -8 6
3 15 1 19 -6 5 -8 10 -9 14 -2 4 6 -4 16 -16 23 -13 7 -26 16 -29 22 -4 5 -9
5 -13 -2z"/>
<path d="M3589 2199 c0 -13 -2 -32 -4 -41 -2 -10 1 -18 7 -18 18 0 67 -40 71
-58 2 -9 2 -1 0 18 -7 58 -14 75 -24 59 -7 -11 -9 -9 -9 7 0 11 -9 29 -20 39
-19 18 -20 17 -21 -6z"/>
<path d="M4687 1874 c-6 -6 16 -34 26 -34 3 0 3 9 0 20 -5 20 -15 25 -26 14z"/>
<path d="M4166 1530 c6 -42 10 -47 17 -21 3 11 -1 28 -9 38 -13 16 -13 14 -8
-17z"/>
<path d="M2855 1477 c-4 -10 -5 -21 -1 -24 10 -10 18 4 13 24 -4 17 -4 17 -12
0z"/>
<path d="M4126 1451 c-10 -11 -15 -24 -12 -30 4 -5 -3 -15 -14 -21 -16 -9 -18
-13 -8 -24 18 -19 35 -3 49 46 12 48 8 55 -15 29z"/>
<path d="M2710 1345 c0 -8 5 -15 10 -15 6 0 10 7 10 15 0 8 -4 15 -10 15 -5 0
-10 -7 -10 -15z"/>
<path d="M3840 1290 c0 -5 5 -10 11 -10 5 0 7 5 4 10 -3 6 -8 10 -11 10 -2 0
-4 -4 -4 -10z"/>
<path d="M2640 1170 c0 -5 5 -10 11 -10 5 0 7 5 4 10 -3 6 -8 10 -11 10 -2 0
-4 -4 -4 -10z"/>
<path d="M2890 766 c0 -8 105 -56 120 -56 26 0 5 17 -42 34 -29 10 -59 21 -65
23 -7 3 -13 2 -13 -1z"/>
<path d="M3040 617 c-30 -45 -86 -113 -123 -151 -47 -48 -67 -75 -64 -88 3
-11 0 -18 -9 -18 -7 0 -19 -10 -25 -22 -12 -22 -12 -22 14 -6 22 15 26 16 31
2 8 -21 8 -24 -4 -24 -19 0 -46 -34 -69 -85 -42 -92 -46 -100 -63 -119 -9 -10
-21 -15 -26 -12 -6 4 -8 -2 -5 -14 3 -11 0 -27 -7 -36 -11 -12 -10 -18 3 -32
16 -15 19 -14 46 13 15 17 44 44 62 62 58 53 110 173 76 173 -8 0 -8 3 2 9 7
5 15 21 16 36 2 15 10 34 18 43 8 10 20 34 28 54 7 21 21 39 32 42 13 3 17 10
14 20 -3 8 -2 18 4 22 6 3 8 11 6 17 -2 7 11 34 30 62 18 27 33 55 33 62 0 7
4 13 8 13 9 0 35 50 30 56 -2 1 -28 -34 -58 -79z"/>
<path d="M2720 486 c0 -2 9 -6 20 -9 11 -3 18 -1 14 4 -5 9 -34 13 -34 5z"/>
<path d="M2700 431 c23 -13 87 -25 75 -13 -5 5 -28 12 -50 16 -26 4 -35 3 -25
-3z"/>
<path d="M2966 363 c-6 -14 -5 -15 5 -6 7 7 10 15 7 18 -3 3 -9 -2 -12 -12z"/>
<path d="M2780 346 c0 -8 5 -18 10 -21 6 -3 10 3 10 14 0 12 -4 21 -10 21 -5
0 -10 -6 -10 -14z"/>
<path d="M2755 340 c3 -5 8 -10 11 -10 2 0 4 5 4 10 0 6 -5 10 -11 10 -5 0 -7
-4 -4 -10z"/>
<path d="M2385 315 c4 -11 15 -49 25 -85 33 -114 75 -229 84 -230 4 0 6 8 3
18 -39 129 -69 217 -91 262 -14 30 -24 46 -21 35z"/>
<path d="M2570 310 c0 -5 9 -10 21 -10 11 0 17 5 14 10 -3 6 -13 10 -21 10 -8
0 -14 -4 -14 -10z"/>
<path d="M2932 308 c-14 -18 -43 -78 -38 -78 2 0 16 20 29 45 25 45 29 57 9
33z"/>
<path d="M3383 246 c4 -10 7 -22 7 -27 0 -6 4 -8 9 -5 13 8 7 39 -9 44 -9 3
-11 -1 -7 -12z"/>
<path d="M2633 175 c0 -8 4 -15 9 -15 4 0 8 7 8 15 0 8 -4 15 -8 15 -5 0 -9
-7 -9 -15z"/>
<path d="M3393 165 c5 -37 17 -42 17 -7 0 18 -5 32 -10 32 -6 0 -9 -11 -7 -25z"/>
<path d="M2600 163 c0 -4 5 -15 10 -23 8 -13 10 -13 10 2 0 9 -4 20 -10 23 -5
3 -10 3 -10 -2z"/>
<path d="M3365 150 c3 -5 8 -10 11 -10 2 0 4 5 4 10 0 6 -5 10 -11 10 -5 0 -7
-4 -4 -10z"/>
<path d="M2635 140 c-3 -6 3 -22 14 -35 13 -18 22 -22 27 -14 4 7 -2 20 -14
30 -15 12 -18 19 -10 22 9 4 10 6 1 6 -6 1 -15 -4 -18 -9z"/>
<path d="M3358 103 c-7 -33 12 -69 42 -80 17 -6 30 -8 30 -3 0 4 -7 11 -16 14
-8 3 -14 14 -13 23 4 40 0 46 -17 32 -15 -12 -16 -11 -10 9 4 13 3 22 -3 22
-5 0 -11 -8 -13 -17z"/>
<path d="M3230 57 c-14 -7 -25 -21 -25 -32 0 -18 8 -20 88 -23 53 -2 87 1 87
7 0 17 -73 61 -100 61 -14 0 -36 -6 -50 -13z"/>
<path d="M2200 58 c0 -21 25 -58 39 -58 10 0 12 3 5 8 -5 4 -18 18 -27 32 -9
13 -17 21 -17 18z"/>
<path d="M2510 15 c0 -8 4 -15 10 -15 5 0 7 7 4 15 -4 8 -8 15 -10 15 -2 0 -4
-7 -4 -15z"/>
</g>
</svg>
