<?xml version="1.0" standalone="no"?>
<!DOCTYPE svg PUBLIC "-//W3C//DTD SVG 20010904//EN"
 "http://www.w3.org/TR/2001/REC-SVG-20010904/DTD/svg10.dtd">
<svg version="1.0" xmlns="http://www.w3.org/2000/svg"
 width="710.000000pt" height="419.000000pt" viewBox="0 0 710.000000 419.000000"
 preserveAspectRatio="xMidYMid meet">

<g transform="translate(0.000000,419.000000) scale(0.100000,-0.100000)"
fill="#080808" stroke="none">
<path d="M0 2095 l0 -2095 684 0 c538 0 685 3 689 13 4 9 7 9 14 -1 7 -9 51
-12 183 -10 165 3 175 4 185 24 15 30 43 56 54 50 5 -3 11 1 15 9 6 18 1 19
-26 4 -17 -9 -19 -8 -16 8 2 12 12 18 31 18 25 -1 27 2 22 25 -4 21 -3 22 5 8
9 -15 14 -16 30 -5 11 6 20 15 20 20 0 4 -5 5 -10 2 -20 -12 -24 27 -4 42 15
11 17 17 6 33 -15 24 -15 30 -2 30 6 0 10 -7 10 -16 0 -8 4 -13 9 -10 5 3 11
-1 15 -9 3 -8 10 -15 15 -15 13 0 1 40 -13 40 -6 0 -2 6 8 12 15 8 21 8 24 0
8 -24 22 -11 16 13 -3 14 -1 31 5 38 5 7 8 26 5 41 -6 34 11 31 39 -6 16 -21
17 -31 9 -62 -6 -21 -7 -36 -1 -36 5 0 9 -7 9 -16 0 -11 -6 -15 -19 -11 -29 7
-60 -18 -54 -44 4 -14 0 -25 -11 -31 -9 -5 -14 -13 -11 -18 4 -7 -29 -24 -45
-22 -3 0 -13 -4 -23 -10 -12 -6 -16 -16 -11 -30 4 -13 1 -24 -7 -29 -10 -6
-11 -9 -1 -9 6 0 12 -4 12 -10 0 -14 -44 -12 -59 2 -10 11 -12 9 -9 -7 3 -18
12 -20 79 -22 56 -2 76 1 75 10 0 6 4 12 9 12 6 0 9 -5 7 -13 -2 -10 19 -13
100 -11 98 1 135 10 122 30 -3 5 0 9 5 9 6 0 11 -6 11 -12 0 -7 11 -14 25 -14
19 -2 25 3 25 20 0 17 -2 18 -10 6 -15 -24 -21 -6 -12 36 6 29 14 40 32 44 14
3 25 12 25 20 0 18 57 26 82 11 16 -9 15 -10 -6 -11 -16 0 -21 -4 -18 -15 5
-10 -4 -16 -28 -21 -19 -3 -32 -10 -29 -15 3 -5 10 -7 15 -4 15 10 23 -26 12
-56 l-11 -29 133 0 c97 0 135 3 138 13 4 9 6 9 6 0 1 -18 277 -18 284 0 3 9 9
9 26 0 14 -9 66 -13 159 -13 134 0 139 1 161 24 22 23 22 46 0 46 -5 0 -21
-13 -36 -30 -26 -30 -66 -40 -78 -20 -4 6 -11 8 -16 4 -5 -3 -24 3 -42 14 -18
10 -45 22 -59 25 -15 4 -43 23 -64 42 -20 19 -41 35 -45 35 -5 0 -15 13 -24
29 -26 51 -39 50 -31 -3 11 -69 -6 -56 -34 27 -13 39 -27 77 -30 82 -11 15
-30 74 -46 135 -8 32 -16 144 -20 270 l-6 215 32 70 c18 39 41 80 52 92 15 16
19 29 14 47 -3 15 -10 26 -14 26 -4 0 -49 -39 -99 -87 -117 -113 -196 -181
-256 -222 -26 -17 -47 -38 -47 -46 0 -13 -5 -16 -25 -15 -12 1 -35 -30 -35
-47 0 -34 -17 -45 -69 -47 -45 -2 -56 -7 -94 -43 -75 -73 -85 -81 -91 -76 -3
3 -12 0 -21 -7 -8 -7 -15 -10 -15 -7 0 3 -16 -1 -35 -9 -19 -8 -38 -13 -42
-12 -10 2 -95 -23 -108 -33 -5 -4 -21 -9 -35 -11 -20 -2 -24 1 -22 17 2 16 1
17 -7 5 -5 -8 -7 -18 -5 -22 3 -4 2 -8 -3 -9 -4 0 -17 -2 -28 -4 -62 -11 -75
-11 -75 -1 0 6 -5 4 -10 -4 -5 -8 -10 -11 -10 -7 0 5 -10 1 -22 -7 -26 -19
-38 -20 -38 -5 0 5 4 8 9 5 5 -3 15 2 22 11 13 14 11 16 -13 11 -16 -3 -28 -1
-28 3 0 5 7 9 15 9 8 0 15 3 16 8 0 4 2 21 5 37 3 28 3 29 -8 7 -13 -25 -48
-30 -48 -6 0 14 3 15 18 3 9 -7 14 -9 9 -4 -4 4 0 17 9 27 13 13 14 21 5 31
-6 8 -8 17 -4 20 3 4 1 7 -5 7 -15 0 -15 -6 -2 -30 7 -13 7 -21 0 -25 -5 -3
-10 2 -10 12 -1 13 -5 11 -16 -9 -15 -29 -30 -39 -21 -14 3 8 1 17 -6 20 -9 3
-9 5 1 5 15 1 16 27 0 37 -7 4 -8 3 -4 -4 4 -7 1 -12 -9 -12 -13 0 -14 -4 -4
-21 8 -15 8 -24 0 -32 -8 -8 -11 -5 -11 12 0 13 -4 20 -11 16 -6 -4 -8 -12 -6
-19 3 -6 -1 -20 -9 -31 -17 -22 -17 -20 -5 22 8 27 6 35 -7 43 -15 8 -15 9 3
10 15 0 17 2 6 9 -11 7 -11 9 0 13 11 4 9 9 -6 24 -17 17 -18 17 -12 2 3 -10
2 -18 -3 -18 -5 0 -7 -27 -5 -61 4 -54 3 -60 -10 -49 -17 14 -20 24 -5 15 17
-11 11 17 -7 30 -15 11 -16 17 -4 41 8 18 9 30 2 32 -5 2 -7 10 -4 18 4 12 8
13 13 3 5 -7 7 -2 7 14 -1 17 -6 22 -13 16 -6 -5 -29 -8 -51 -6 -35 2 -39 5
-37 24 1 13 -1 25 -6 28 -11 7 -22 -24 -13 -38 3 -7 3 -9 -2 -5 -4 4 -14 0
-22 -10 -13 -15 -13 -15 -4 4 6 12 7 24 4 28 -3 3 -1 6 5 6 7 0 12 5 12 10 0
7 -7 7 -22 0 -21 -10 -22 -10 -5 3 11 9 14 18 8 21 -5 4 -12 2 -16 -4 -8 -13
-25 -13 -25 1 0 5 4 7 10 4 5 -3 16 9 23 27 11 26 11 35 1 45 -17 18 -27 16
-20 -2 3 -9 0 -15 -9 -15 -8 0 -15 -5 -15 -11 0 -5 -5 -7 -10 -4 -6 4 -4 12 5
21 20 20 19 41 -1 52 -18 10 -11 32 9 32 7 0 6 -4 -3 -10 -13 -8 -13 -10 1
-10 20 0 34 29 16 32 -34 4 -43 3 -49 -7 -5 -6 -8 -6 -8 2 0 12 19 28 34 28
18 0 16 20 -4 33 -13 8 -20 9 -20 1 0 -6 -9 -8 -21 -4 -15 5 -19 4 -15 -4 4
-6 1 -11 -7 -11 -13 0 -20 29 -8 31 34 5 63 3 67 -3 3 -5 10 -6 15 -2 5 3 1
15 -11 27 -11 12 -27 31 -35 42 l-15 20 7 -20 c3 -11 10 -25 15 -32 5 -6 5
-14 1 -16 -15 -10 -29 7 -31 37 -1 16 -10 35 -20 43 -13 10 -13 13 -2 11 9 -2
16 7 18 22 4 25 4 25 -17 6 -24 -22 -29 -5 -5 18 10 11 11 16 3 16 -6 0 -18 8
-25 18 -13 16 -13 16 -14 0 0 -11 -8 -18 -19 -18 -11 0 -21 -6 -24 -12 -2 -7
-8 -10 -12 -6 -11 11 18 35 35 30 13 -5 13 -3 1 12 -11 13 -12 19 -2 29 10 9
11 9 8 -3 -2 -8 -2 -12 0 -7 9 15 34 6 43 -16 9 -22 9 -22 9 -1 1 23 -49 51
-68 39 -6 -3 -11 -2 -11 3 0 10 30 26 43 23 4 -1 3 8 -3 19 -9 16 -15 18 -30
10 -27 -14 -25 -23 3 -15 20 5 20 5 -3 -9 -24 -14 -25 -14 -31 17 -3 18 -3 36
-1 40 6 11 55 -1 64 -16 4 -7 8 -7 8 -2 0 16 -13 31 -32 38 -10 3 -18 16 -18
27 0 17 -4 19 -27 14 -38 -9 -41 -14 -10 -14 30 0 35 -11 12 -30 -11 -10 -18
-9 -30 3 -21 21 -19 44 5 52 19 6 38 50 27 61 -3 3 -14 1 -25 -5 -19 -10 -20
-8 -16 15 3 19 1 24 -8 17 -7 -4 -17 -8 -23 -8 -5 0 -10 -7 -10 -15 0 -8 6
-14 13 -12 8 1 11 -2 7 -8 -3 -6 -11 -8 -16 -5 -5 4 -12 -1 -15 -9 -3 -9 -11
-16 -17 -16 -7 0 -7 4 1 12 18 18 15 46 -5 51 -17 4 -17 5 0 6 10 0 15 6 12
11 -8 13 1 13 27 -1 16 -9 19 -8 13 1 -6 10 -1 11 19 6 15 -4 26 -2 26 4 0 5
-6 10 -13 10 -8 0 -14 12 -14 29 0 22 4 28 15 23 10 -3 13 -1 8 6 -4 7 -1 12
8 12 8 0 19 -6 23 -13 6 -11 11 -10 24 3 15 16 15 18 -1 28 -15 9 -17 8 -12
-10 4 -18 3 -19 -15 -7 -11 6 -20 19 -19 28 1 11 -8 16 -24 17 -44 1 -49 4
-44 19 4 8 10 13 14 10 4 -3 7 3 6 13 0 9 -7 21 -13 25 -17 11 -16 37 1 37 8
0 17 7 20 16 10 25 8 25 -19 2 -22 -19 -25 -28 -20 -66 3 -28 2 -41 -5 -37 -5
3 -10 14 -10 23 -1 15 -2 15 -15 -2 -8 -11 -15 -16 -15 -11 0 5 7 17 17 27 15
17 14 18 -15 18 -23 0 -36 7 -48 26 -12 18 -19 22 -25 13 -4 -7 -5 -17 -2 -22
3 -5 -4 -4 -16 2 -24 13 -29 23 -7 15 9 -3 17 5 23 22 l9 27 13 -31 c15 -35
49 -52 62 -31 12 20 -7 35 -25 20 -11 -9 -15 -9 -18 1 -3 7 2 19 11 26 9 8 11
11 5 8 -7 -3 -14 3 -17 14 -3 10 0 21 7 24 6 2 4 5 -5 5 -9 1 -16 8 -16 16 0
12 3 12 16 2 12 -9 13 -9 7 1 -4 6 -3 12 3 12 15 0 19 -23 9 -44 -7 -13 -7
-16 1 -12 6 4 14 0 17 -8 3 -9 10 -13 16 -10 5 3 8 -1 6 -9 -2 -9 1 -17 6 -19
5 -2 10 7 11 19 1 12 -2 20 -7 17 -4 -3 -8 10 -8 28 l-1 33 -14 -25 c-13 -25
-13 -24 -10 13 2 21 -1 37 -7 37 -5 0 -8 6 -5 14 3 8 -1 17 -10 20 -11 4 -14
2 -10 -9 4 -8 3 -17 -2 -19 -11 -7 -51 22 -51 37 0 7 5 4 11 -5 14 -25 28 -22
35 7 3 14 10 25 16 25 5 0 6 5 2 12 -5 7 -3 8 5 4 7 -5 10 -15 7 -23 -4 -8 -1
-11 5 -8 6 4 8 14 5 22 -5 11 -2 13 10 9 8 -3 17 -6 19 -6 2 0 -2 -15 -10 -34
-14 -32 -12 -46 7 -46 5 0 9 10 8 23 -4 47 -1 52 21 28 12 -12 24 -19 28 -15
3 4 0 9 -7 11 -6 3 -10 9 -6 14 3 5 2 9 -3 8 -20 -4 -27 2 -13 12 13 9 13 10
0 6 -24 -7 -49 11 -45 33 5 28 -25 86 -36 69 -5 -9 -1 -21 10 -34 18 -20 18
-55 0 -55 -6 0 -7 5 -3 11 5 8 1 8 -14 0 -27 -14 -32 -14 -32 4 0 8 6 12 13 9
10 -4 13 4 12 28 -1 18 1 43 6 55 7 19 12 21 34 13 20 -7 25 -6 25 5 0 9 -6
12 -15 9 -14 -6 -18 3 -16 36 0 10 -1 11 -5 3 -8 -18 -24 -16 -24 2 0 9 -7 18
-15 21 -12 5 -13 10 -5 19 8 10 7 13 -4 11 -9 -1 -19 -6 -23 -11 -4 -4 -3 -6
2 -2 6 3 12 -4 12 -15 1 -12 8 -25 15 -29 14 -9 14 -9 -19 -13 -13 -2 -23 1
-23 6 0 5 -5 6 -12 2 -7 -4 -8 -3 -4 4 4 7 14 12 22 12 11 0 13 4 5 17 -5 10
-21 17 -37 18 -15 0 -29 5 -31 10 -2 6 14 9 37 9 36 -2 40 0 40 23 0 14 4 22
11 18 6 -4 8 -13 5 -20 -3 -9 2 -12 14 -10 14 3 17 -1 13 -13 -5 -14 -4 -15 8
-4 12 11 10 16 -11 33 l-25 19 47 -17 c33 -12 44 -21 40 -31 -3 -10 -1 -13 6
-8 18 11 14 36 -5 36 -15 0 -15 1 0 18 10 10 17 22 17 27 0 4 -9 -2 -19 -14
-16 -18 -23 -20 -39 -12 -11 6 -23 7 -27 3 -4 -4 -4 1 2 11 11 21 5 77 -8 77
-5 0 -9 -8 -10 -17 0 -13 -3 -12 -10 6 -7 18 -5 26 8 36 10 8 20 10 23 6 3 -5
16 -14 29 -21 19 -9 21 -14 10 -21 -12 -7 -11 -9 1 -9 17 0 51 19 35 20 -5 0
-18 7 -27 14 -14 10 -16 19 -9 44 8 25 6 30 -5 25 -8 -3 -14 0 -14 6 0 7 -11
23 -25 36 -13 14 -20 25 -15 25 6 0 10 7 10 15 0 8 5 15 10 15 6 0 10 -6 10
-12 0 -9 4 -8 10 2 5 8 10 11 11 5 0 -5 4 -1 8 9 11 29 -13 90 -37 94 -21 3
-37 48 -21 58 5 3 4 14 -2 25 -6 12 -8 23 -5 27 3 3 6 0 6 -7 0 -7 5 -9 11 -5
6 3 8 17 5 30 -5 17 1 30 21 49 15 14 33 25 40 25 6 0 15 4 18 10 3 6 -1 7
-10 4 -11 -5 -14 -2 -9 10 3 9 10 13 15 10 5 -3 9 0 9 5 0 6 -3 11 -7 11 -11
0 -40 -20 -29 -20 5 0 3 -7 -4 -15 -7 -8 -17 -12 -22 -9 -6 4 -14 0 -19 -7 -4
-7 -11 -10 -15 -7 -3 4 1 15 11 24 14 15 18 15 27 3 8 -12 9 -12 5 1 -2 9 -14
14 -26 13 -13 -2 -20 1 -16 7 3 6 12 10 20 10 8 0 12 8 10 20 -2 11 1 20 6 20
5 0 9 -7 7 -16 -2 -10 3 -19 10 -21 8 -3 10 1 5 13 -5 15 -2 16 25 11 39 -8
62 0 55 19 -3 8 -9 14 -14 14 -4 0 -6 -7 -3 -15 4 -8 1 -15 -6 -15 -6 0 -9 4
-5 9 3 5 1 12 -5 16 -16 10 -3 23 22 20 14 -1 16 0 5 2 -13 3 -17 11 -14 25 4
14 2 18 -9 14 -10 -4 -14 0 -12 11 2 9 -3 18 -10 21 -11 3 -13 -4 -9 -32 3
-20 1 -34 -3 -31 -5 3 -11 1 -15 -5 -3 -5 -2 -10 3 -10 5 0 9 -7 9 -15 0 -11
-7 -13 -26 -8 -35 8 -39 13 -11 13 18 0 21 3 13 11 -6 6 -9 18 -6 25 3 8 0 20
-6 28 -11 13 -5 26 10 26 5 0 5 -7 2 -17 -4 -11 -3 -14 5 -9 15 9 16 36 2 36
-5 0 -10 5 -10 11 0 8 5 8 15 -1 8 -7 24 -10 34 -7 26 6 53 -24 45 -49 -5 -16
-4 -16 5 -4 14 19 14 70 1 70 -5 0 -10 -6 -10 -12 0 -9 -4 -8 -10 2 -5 8 -9
22 -9 30 0 10 2 11 6 3 2 -7 9 -13 15 -13 6 0 8 7 4 15 -3 9 0 15 8 15 7 0 13
7 13 15 0 8 -6 15 -14 15 -7 0 -13 10 -13 23 0 18 -2 19 -10 7 -8 -12 -10 -11
-10 7 0 20 2 21 25 11 13 -6 22 -15 19 -20 -3 -5 6 -6 20 -2 22 5 26 3 26 -17
0 -19 -2 -21 -10 -9 -6 9 -10 10 -10 3 0 -6 5 -15 10 -18 8 -5 7 -12 -2 -23
-12 -16 -11 -16 6 -2 11 8 21 14 23 13 6 -5 3 11 -7 43 -8 22 -16 30 -33 30
-16 -1 -21 4 -19 17 2 9 -2 17 -8 17 -5 0 -10 6 -10 14 0 10 8 13 25 10 23 -4
25 -2 20 19 -5 17 -2 26 8 30 11 4 20 -6 32 -35 9 -22 18 -38 21 -35 3 3 1 15
-6 26 -6 12 -8 26 -5 31 7 12 -32 33 -47 24 -7 -4 -8 -3 -4 4 4 7 2 12 -3 12
-6 0 -11 4 -11 9 0 4 11 6 24 4 13 -3 27 0 30 6 5 7 -1 10 -16 8 -17 -1 -23 3
-24 22 -1 13 -8 27 -15 33 -12 7 -11 9 1 7 39 -4 48 1 43 24 l-5 22 17 -23
c14 -19 24 -23 46 -18 22 4 27 2 22 -9 -3 -8 0 -15 7 -15 6 0 9 4 5 9 -3 5 3
12 12 14 17 4 17 5 1 6 -11 1 -18 9 -18 20 0 10 -7 22 -16 25 -12 4 -15 14
-10 34 3 15 3 21 0 14 -5 -10 -9 -10 -20 -1 -10 8 -14 8 -14 0 0 -6 5 -11 11
-11 6 0 9 -8 7 -18 -3 -12 2 -24 14 -31 18 -11 17 -31 -3 -31 -6 0 -8 3 -6 8
3 4 -2 14 -11 22 -14 13 -15 12 -9 -3 3 -9 2 -17 -3 -17 -14 0 -12 24 2 38 9
9 7 16 -7 32 -14 15 -15 20 -4 21 8 1 19 2 24 4 6 1 18 3 28 3 16 2 17 4 3 17
-8 8 -19 15 -25 15 -6 0 -11 4 -11 10 0 11 32 1 43 -14 5 -7 7 -6 6 4 -3 30 3
85 8 72 4 -10 8 -10 19 -1 17 14 19 -2 2 -19 -7 -7 -8 -12 -2 -12 17 0 43 75
32 94 -11 20 -1 21 19 1 11 -11 12 -19 4 -29 -8 -9 -7 -16 2 -26 10 -12 9 -12
-5 -1 -12 9 -18 10 -18 2 0 -10 13 -15 31 -13 4 1 9 -12 11 -29 3 -20 0 -33
-11 -40 -14 -8 -13 -9 4 -7 16 3 19 10 17 37 -2 21 3 40 14 52 9 10 14 22 11
26 -4 3 -7 1 -7 -6 0 -7 -5 -9 -12 -5 -6 4 -8 3 -4 -4 3 -6 2 -13 -3 -16 -12
-8 -22 20 -15 39 4 8 10 12 15 9 5 -3 8 0 7 7 -2 6 3 14 11 17 10 3 12 0 8
-12 -4 -9 -3 -15 2 -12 7 5 8 39 2 78 -1 4 -9 5 -18 2 -11 -4 -14 -3 -7 3 6 4
14 19 17 33 3 14 13 34 22 45 12 16 14 17 9 3 -3 -10 -1 -18 5 -18 6 0 11 4
11 8 0 4 9 8 20 8 11 0 20 -6 20 -13 0 -7 -4 -13 -10 -13 -5 0 -10 -9 -10 -21
0 -22 -21 -22 -28 1 -3 8 0 10 8 5 9 -5 11 -4 6 4 -4 6 -11 9 -16 6 -4 -3 -11
1 -14 7 -3 7 -3 2 0 -11 4 -14 14 -33 24 -43 17 -19 18 -18 24 8 4 15 16 40
26 55 18 24 20 55 5 79 -9 14 4 52 16 45 5 -4 9 -11 9 -16 0 -6 -4 -7 -10 -4
-5 3 -10 1 -10 -4 0 -6 7 -11 16 -11 12 0 14 -4 7 -12 -12 -17 -11 -43 2 -43
6 0 17 -4 25 -10 13 -7 13 -6 2 7 -8 10 -9 19 -3 22 5 3 11 0 14 -6 2 -7 7
-10 11 -6 12 11 14 42 3 56 -7 10 -13 8 -23 -5 -11 -15 -13 -15 -14 -2 0 8 6
21 13 28 10 11 9 13 -5 8 -21 -8 -34 9 -13 17 8 3 15 12 15 21 0 8 7 15 16 15
11 0 15 -6 11 -19 -4 -17 -2 -18 19 -9 17 8 21 15 14 22 -14 14 -13 29 2 20 8
-5 9 -2 5 9 -3 10 -2 17 3 17 6 0 10 -5 10 -12 0 -6 3 -8 6 -5 12 12 -18 38
-37 32 -12 -4 -22 1 -29 16 -10 17 -9 20 2 13 7 -5 18 -9 23 -10 6 -1 17 -3
25 -5 9 -3 16 5 18 19 2 14 10 22 23 22 20 0 26 -15 10 -24 -5 -4 -12 0 -14 6
-3 8 -6 6 -6 -4 -1 -10 3 -18 9 -18 5 0 9 -3 9 -7 -4 -22 3 -32 15 -27 10 4
13 12 7 27 -4 12 -6 32 -5 45 1 16 -3 21 -12 18 -8 -3 -14 0 -14 6 0 7 -5 6
-15 -2 -29 -24 -22 -5 8 23 26 26 29 27 24 8 -4 -16 0 -22 19 -27 13 -3 22
-10 19 -14 -3 -5 -1 -11 5 -15 5 -3 11 -1 11 4 1 6 2 16 3 22 0 7 8 15 16 18
17 7 25 31 11 31 -5 0 -7 9 -4 20 l6 21 14 -21 c8 -11 12 -24 9 -29 -4 -5 0
-12 6 -14 10 -4 10 -6 0 -6 -7 -1 -10 -5 -7 -11 3 -5 1 -20 -5 -32 -11 -22
-10 -22 4 -4 9 11 16 25 17 30 0 6 2 21 3 34 2 12 -1 22 -5 22 -3 0 -9 9 -12
20 -3 11 -1 20 4 20 5 0 9 -4 9 -9 0 -16 41 -24 54 -11 8 9 6 11 -10 6 -14 -4
-24 -2 -27 8 -3 8 -20 14 -41 14 -20 0 -34 -4 -31 -8 3 -5 0 -10 -6 -12 -7 -2
-7 -12 -1 -28 7 -18 6 -28 -4 -37 -7 -7 -15 -9 -19 -4 -3 5 0 11 7 13 7 3 9
14 4 31 -7 31 -22 36 -29 10 -4 -17 -5 -17 -6 0 0 10 -5 15 -11 12 -5 -3 -10
-2 -10 4 0 5 8 12 18 14 9 3 -13 5 -50 6 -40 1 -68 -3 -68 -9 0 -5 -12 -10
-27 -9 l-28 1 25 8 c14 4 -305 8 -707 9 l-733 1 0 -2095z m1530 2000 c0 -2 -7
-5 -15 -9 -9 -3 -15 0 -15 9 0 9 6 12 15 9 8 -4 15 -7 15 -9z m-40 -19 c0 -2
-7 -7 -16 -10 -8 -3 -12 -2 -9 4 6 10 25 14 25 6z m-65 -106 c-3 -6 -1 -10 4
-10 6 0 11 8 11 17 0 9 3 14 6 10 4 -3 3 -14 -1 -24 -5 -10 -7 -24 -6 -30 1
-8 -5 -10 -15 -6 -10 4 -15 2 -11 -3 3 -6 -3 -15 -14 -22 -15 -10 -19 -10 -19
2 0 8 6 16 13 19 9 3 8 8 -3 23 -14 18 -14 18 3 5 22 -17 32 -9 19 16 -13 24
-3 53 10 29 5 -9 6 -21 3 -26z m-75 20 c0 -5 -2 -10 -4 -10 -3 0 -8 5 -11 10
-3 6 -1 10 4 10 6 0 11 -4 11 -10z m134 -15 c3 -9 0 -15 -9 -15 -9 0 -12 6 -9
15 4 8 7 15 9 15 2 0 5 -7 9 -15z m-127 -40 c0 -8 -4 -12 -9 -9 -5 3 -6 10 -3
15 9 13 12 11 12 -6z m-47 -31 c0 -8 -19 -13 -24 -6 -3 5 1 9 9 9 8 0 15 -2
15 -3z m55 -15 c-4 -5 -1 -9 4 -9 6 0 11 -8 11 -17 -1 -17 -1 -17 -11 0 -12
20 -28 23 -25 5 2 -7 8 -26 15 -42 12 -31 9 -42 -9 -31 -7 4 -9 17 -6 29 5 20
5 20 -9 2 -8 -11 -16 -18 -18 -15 -1 2 -10 13 -20 25 -14 17 -15 21 -2 21 8 0
15 -6 15 -14 0 -15 16 -17 25 -3 3 6 2 10 -3 10 -6 0 -13 7 -16 16 -3 8 -2 12
4 9 5 -3 14 4 20 15 6 11 15 18 21 15 5 -4 7 -11 4 -16z m-118 -11 c-3 -8 -6
-5 -6 6 -1 11 2 17 5 13 3 -3 4 -12 1 -19z m-40 -13 c0 -8 -4 -12 -9 -9 -5 3
-6 10 -3 15 9 13 12 11 12 -6z m273 -8 c0 -2 -13 -13 -29 -25 -25 -18 -29 -19
-27 -4 2 9 8 17 14 17 6 0 14 3 18 8 7 7 24 10 24 4z m-200 -27 c0 -5 -2 -10
-4 -10 -3 0 -8 5 -11 10 -3 6 -1 10 4 10 6 0 11 -4 11 -10z m110 -20 c0 -5 -2
-10 -4 -10 -3 0 -8 5 -11 10 -3 6 -1 10 4 10 6 0 11 -4 11 -10z m-215 -70 c3
-5 1 -10 -4 -10 -6 0 -11 5 -11 10 0 6 2 10 4 10 3 0 8 -4 11 -10z m92 -12
c-3 -8 -6 -5 -6 6 -1 11 2 17 5 13 3 -3 4 -12 1 -19z m-27 -3 c0 -8 -2 -15 -4
-15 -2 0 -6 7 -10 15 -3 8 -1 15 4 15 6 0 10 -7 10 -15z m-173 -57 c-3 -8 -6
-5 -6 6 -1 11 2 17 5 13 3 -3 4 -12 1 -19z m87 16 c9 -3 13 -10 10 -15 -8 -14
-21 -11 -28 6 -6 17 -4 18 18 9z m47 -17 c-10 -9 -11 -8 -5 6 3 10 9 15 12 12
3 -3 0 -11 -7 -18z m99 13 c0 -4 -10 -15 -22 -26 -17 -16 -20 -16 -15 -3 3 9
1 21 -4 26 -5 5 1 9 16 9 14 0 25 -3 25 -6z m-90 -60 c0 -5 -8 -10 -17 -10
-15 0 -16 2 -3 10 19 12 20 12 20 0z m-110 -15 c0 -8 -4 -15 -10 -15 -5 0 -7
7 -4 15 4 8 8 15 10 15 2 0 4 -7 4 -15z m74 -3 c2 -4 -4 -8 -14 -8 -10 0 -16
4 -14 8 3 4 9 8 14 8 5 0 11 -4 14 -8z m-55 -43 c-15 -9 -32 -2 -24 11 3 5 13
6 21 3 12 -4 13 -8 3 -14z m-104 -59 c-3 -5 -12 -10 -18 -10 -7 0 -6 4 3 10
19 12 23 12 15 0z m50 -19 c-6 -5 -25 10 -25 20 0 5 6 4 14 -3 8 -7 12 -15 11
-17z m-19 -11 c7 0 11 -6 8 -14 -3 -8 -14 -11 -32 -8 -18 4 -21 7 -10 10 9 2
16 9 14 15 -1 7 -1 9 1 5 3 -5 11 -8 19 -8z m-33 -37 c-7 -2 -19 -2 -25 0 -7
3 -2 5 12 5 14 0 19 -2 13 -5z m68 -10 c13 -16 12 -17 -3 -4 -10 7 -18 15 -18
17 0 8 8 3 21 -13z m-134 -55 c-3 -7 -5 -2 -5 12 0 14 2 19 5 13 2 -7 2 -19 0
-25z m59 -17 c-4 -6 -13 -11 -19 -10 -9 0 -9 2 0 6 10 3 10 10 2 26 -11 21
-10 21 6 5 10 -9 14 -21 11 -27z m40 26 c8 3 14 1 14 -4 0 -5 -9 -9 -20 -10
-13 -1 -20 4 -19 15 0 10 3 12 5 5 3 -7 12 -9 20 -6z m-23 -67 c3 -12 0 -20
-7 -20 -6 0 -12 9 -13 20 -1 11 2 20 6 20 5 0 11 -9 14 -20z m2 -78 c-7 -8
-35 7 -35 18 0 6 7 6 20 -2 10 -7 17 -14 15 -16z m-75 -2 c0 -5 -2 -10 -4 -10
-3 0 -8 5 -11 10 -3 6 -1 10 4 10 6 0 11 -4 11 -10z m37 -6 c-3 -3 -12 -4 -19
-1 -8 3 -5 6 6 6 11 1 17 -2 13 -5z m-47 -34 c0 -5 -4 -10 -10 -10 -5 0 -10 5
-10 10 0 6 5 10 10 10 6 0 10 -4 10 -10z m21 -27 c-12 -20 -14 -14 -5 12 4 9
9 14 11 11 3 -2 0 -13 -6 -23z m-31 -13 c0 -5 -5 -10 -11 -10 -5 0 -7 5 -4 10
3 6 8 10 11 10 2 0 4 -4 4 -10z m-60 -25 c0 -2 -10 -9 -22 -15 -22 -11 -22
-10 -4 4 21 17 26 19 26 11z m2 -47 c-7 -7 -12 -8 -12 -2 0 14 12 26 19 19 2
-3 -1 -11 -7 -17z m55 -3 c-4 -8 0 -27 8 -42 15 -29 13 -39 -5 -28 -6 4 -9 13
-6 20 3 8 0 15 -6 17 -10 4 -2 48 9 48 3 0 3 -7 0 -15z m-34 -15 c-3 -11 -9
-18 -13 -15 -5 3 -10 -3 -12 -12 -2 -13 -6 -14 -11 -6 -4 7 2 20 15 32 27 26
27 26 21 1z m-67 -28 c-17 -16 -18 -16 -5 5 7 12 15 20 18 17 3 -2 -3 -12 -13
-22z m61 -21 c0 -11 -5 -18 -9 -15 -4 3 -5 11 -1 19 7 21 12 19 10 -4z m-57
-82 c0 -6 -4 -7 -10 -4 -5 3 -10 11 -10 16 0 6 5 7 10 4 6 -3 10 -11 10 -16z
m31 -22 c-6 -8 -8 -17 -4 -20 3 -4 1 -7 -5 -7 -16 0 -15 27 1 33 19 8 20 8 8
-6z m-87 -32 c-10 -8 -23 -15 -28 -15 -6 0 -1 7 10 15 10 8 23 15 28 15 6 0 1
-7 -10 -15z m86 -30 c0 -12 -19 -12 -23 0 -4 9 -1 12 9 8 7 -3 14 -7 14 -8z
m-70 -70 c0 -12 -19 -12 -23 0 -4 9 -1 12 9 8 7 -3 14 -7 14 -8z m47 -26 c-15
-23 -16 -20 -10 14 4 19 8 25 13 16 5 -7 3 -20 -3 -30z m-62 -19 c3 -5 1 -10
-4 -10 -6 0 -11 5 -11 10 0 6 2 10 4 10 3 0 8 -4 11 -10z m52 -52 c-3 -8 -6
-5 -6 6 -1 11 2 17 5 13 3 -3 4 -12 1 -19z m-3 -33 c-3 -7 -1 -16 5 -20 13 -7
15 -25 3 -25 -5 0 -13 15 -19 34 -9 28 -8 33 3 29 7 -2 10 -11 8 -18z m-44
-25 c0 -5 -7 -7 -15 -4 -8 4 -15 8 -15 10 0 2 7 4 15 4 8 0 15 -4 15 -10z m25
-10 c3 -5 1 -10 -4 -10 -6 0 -11 5 -11 10 0 6 2 10 4 10 3 0 8 -4 11 -10z m35
-32 c0 -14 -51 -21 -63 -8 -9 10 -7 11 12 5 15 -5 21 -4 17 3 -4 6 2 10 14 9
11 -1 20 -5 20 -9z m22 -70 c-12 -32 -18 -37 -20 -23 -2 11 -8 24 -13 30 -5 5
-9 13 -9 19 0 5 7 1 15 -10 14 -19 15 -19 21 4 3 12 10 22 14 22 5 0 1 -19 -8
-42z m25 -10 c-15 -9 -19 -4 -11 16 5 14 9 15 15 5 5 -8 3 -17 -4 -21z m-136
4 c-7 -2 -18 1 -23 6 -8 8 -4 9 13 5 13 -4 18 -8 10 -11z m-40 -25 c-10 -9
-11 -8 -5 6 3 10 9 15 12 12 3 -3 0 -11 -7 -18z m80 -40 c-8 -8 -11 -7 -11 4
0 20 13 34 18 19 3 -7 -1 -17 -7 -23z m84 -37 c10 -15 -12 -12 -28 5 -13 13
-16 11 -21 -11 -4 -14 -11 -22 -16 -19 -11 7 -14 -8 -3 -18 3 -4 13 2 21 14
11 15 17 17 28 8 11 -9 11 -13 -1 -26 -8 -8 -19 -12 -24 -8 -16 9 -22 -12 -10
-39 10 -20 9 -28 -5 -41 -15 -15 -16 -15 -16 4 0 11 -4 22 -8 25 -9 5 -8 52 3
85 3 12 10 19 15 16 4 -3 10 5 13 16 5 17 9 19 26 10 11 -6 23 -16 26 -21z
m25 -46 c0 -8 -4 -12 -10 -9 -5 3 -10 10 -10 16 0 5 5 9 10 9 6 0 10 -7 10
-16z m-182 -25 c3 -12 2 -12 -6 0 -6 8 -15 10 -22 6 -9 -5 -11 -4 -6 4 10 15
28 10 34 -10z m40 -14 c-3 -3 -9 2 -12 12 -6 14 -5 15 5 6 7 -7 10 -15 7 -18z
m25 -42 c-7 -2 -19 -2 -25 0 -7 3 -2 5 12 5 14 0 19 -2 13 -5z m7 -26 c0 -7
-9 -13 -20 -13 -25 0 -26 13 -2 19 9 3 18 5 20 6 1 0 2 -5 2 -12z m45 4 c-3
-5 -1 -12 5 -16 5 -3 10 -11 10 -16 0 -6 -5 -7 -10 -4 -6 3 -13 -1 -16 -9 -3
-9 -13 -16 -22 -16 -13 0 -12 3 4 14 10 8 16 18 12 22 -4 4 -3 13 3 21 13 15
23 18 14 4z m-123 -93 c-7 -7 -12 -8 -12 -2 0 14 12 26 19 19 2 -3 -1 -11 -7
-17z m85 16 c-3 -3 -12 -4 -19 -1 -8 3 -5 6 6 6 11 1 17 -2 13 -5z m-57 -121
c-11 -17 -11 -17 -6 0 3 10 6 24 7 30 0 9 2 9 5 0 3 -7 0 -20 -6 -30z m100 17
c0 -5 -5 -10 -11 -10 -5 0 -7 5 -4 10 3 6 8 10 11 10 2 0 4 -4 4 -10z m21 -17
c-8 -15 -10 -15 -11 -2 0 17 10 32 18 25 2 -3 -1 -13 -7 -23z m-61 2 c-13 -16
-6 -20 30 -16 13 2 13 0 1 -8 -10 -6 -21 -6 -33 0 -10 6 -23 7 -28 4 -15 -9
-12 2 6 19 20 21 41 21 24 1z m-42 -75 c-14 -22 -24 -19 -15 5 4 8 11 15 17
15 6 0 6 -7 -2 -20z m81 4 c6 4 11 2 11 -4 0 -17 -33 -8 -37 10 -4 12 -3 13 5
1 5 -7 15 -10 21 -7z m-36 -29 c-3 -9 -8 -14 -10 -11 -3 3 -2 9 2 15 9 16 15
13 8 -4z m24 -17 c-3 -8 -6 -5 -6 6 -1 11 2 17 5 13 3 -3 4 -12 1 -19z m-38
-45 c2 -2 -3 -3 -11 -3 -9 0 -19 7 -22 16 -6 15 -4 15 11 3 10 -7 20 -15 22
-16z m73 20 c-6 -2 -10 -8 -8 -12 3 -4 1 -13 -3 -20 -6 -9 -8 -4 -8 13 0 18 5
26 16 25 10 0 12 -2 3 -6z m-22 -93 c-7 -4 -9 -14 -6 -21 4 -8 1 -6 -7 3 -8
10 -18 14 -23 10 -4 -4 -3 1 5 10 7 9 19 14 28 11 11 -4 12 -8 3 -13z m-70
-20 c0 -5 -4 -10 -10 -10 -5 0 -10 5 -10 10 0 6 5 10 10 10 6 0 10 -4 10 -10z
m45 -18 c-3 -3 -11 0 -18 7 -9 10 -8 11 6 5 10 -3 15 -9 12 -12z m28 -15 c3
-8 -1 -14 -9 -14 -15 0 -18 9 -7 20 9 9 10 9 16 -6z m-118 -77 c3 -5 1 -10 -4
-10 -6 0 -11 5 -11 10 0 6 2 10 4 10 3 0 8 -4 11 -10z m135 -65 c0 -19 -5 -25
-21 -25 -11 0 -17 5 -14 10 4 6 11 8 16 4 5 -3 9 -2 8 3 -2 14 1 33 6 33 3 0
5 -11 5 -25z m25 -17 c-1 -13 -3 -26 -4 -29 -2 -11 -41 -18 -47 -8 -3 5 0 10
5 10 6 1 17 2 23 3 7 0 13 8 14 16 1 22 4 30 8 30 2 0 2 -10 1 -22z m57 -20
c33 -20 58 -46 46 -50 -5 -2 -11 -19 -13 -38 -2 -30 -6 -35 -26 -32 -30 3 -37
11 -19 22 11 7 12 10 2 10 -7 0 -20 6 -27 14 -11 11 -8 13 24 10 29 -2 38 1
38 14 0 10 -5 20 -11 24 -16 11 -48 10 -42 -1 5 -7 -15 -21 -29 -21 -4 0 28
60 33 60 1 0 12 -6 24 -12z m73 -18 c-3 -5 -11 -10 -16 -10 -6 0 -7 5 -4 10 3
6 11 10 16 10 6 0 7 -4 4 -10z m-160 -38 c-3 -3 -11 0 -18 7 -9 10 -8 11 6 5
10 -3 15 -9 12 -12z m55 -67 c11 -13 10 -14 -4 -9 -9 3 -16 10 -16 15 0 13 6
11 20 -6z m-25 -38 c4 5 5 3 1 -4 -8 -15 -32 -7 -41 15 -5 14 -4 14 13 -1 10
-9 22 -14 27 -10z m134 -50 c-10 -10 -17 -11 -25 -3 -8 8 -6 13 10 21 24 13
33 2 15 -18z m-104 -21 c12 -12 11 -14 -10 -12 -14 0 -25 7 -25 14 0 16 18 15
35 -2z m46 -19 c-1 -12 -15 -9 -19 4 -3 6 1 10 8 8 6 -3 11 -8 11 -12z m-34
-22 c0 -8 -4 -15 -9 -15 -4 0 -8 7 -8 15 0 8 4 15 8 15 5 0 9 -7 9 -15z m28
-35 c1 -10 -2 -17 -7 -14 -4 3 -8 15 -8 26 0 26 13 15 15 -12z m55 -10 c14
-10 22 -22 18 -26 -4 -3 -14 1 -23 10 -9 9 -21 16 -26 16 -5 0 -9 5 -9 10 0
15 12 12 40 -10z m-53 -55 c0 -8 -4 -12 -9 -9 -4 3 -8 9 -8 15 0 5 4 9 8 9 5
0 9 -7 9 -15z m-21 -23 c-4 -3 -14 2 -24 12 -16 18 -16 18 6 6 13 -6 21 -14
18 -18z m44 -8 c0 -8 -19 -13 -24 -6 -3 5 1 9 9 9 8 0 15 -2 15 -3z m70 -4 c0
-5 -8 -10 -17 -10 -15 0 -16 2 -3 10 19 12 20 12 20 0z m-56 -45 c3 -8 1 -15
-4 -15 -6 0 -10 7 -10 15 0 8 2 15 4 15 2 0 6 -7 10 -15z m-28 -34 c-4 -6 -13
-11 -19 -11 -8 0 -7 3 2 9 8 5 10 14 6 22 -6 11 -5 11 5 2 7 -6 9 -16 6 -22z
m147 13 c3 -3 3 -13 0 -21 -5 -12 -7 -12 -14 -1 -15 23 -4 40 14 22z m-46 -61
c-3 -10 -5 -4 -5 12 0 17 2 24 5 18 2 -7 2 -21 0 -30z m-60 1 c-3 -3 -12 -4
-19 -1 -8 3 -5 6 6 6 11 1 17 -2 13 -5z m126 -31 c-3 -8 2 -13 13 -13 14 -1
10 -5 -11 -15 -17 -9 -21 -13 -8 -9 12 2 24 0 28 -6 4 -6 1 -11 -6 -9 -8 1
-21 1 -29 0 -13 -1 -13 -2 0 -11 8 -5 11 -12 7 -16 -3 -4 -13 -2 -20 4 -8 7
-16 11 -18 9 -2 -1 2 4 10 11 8 6 12 12 8 12 -4 0 -3 10 4 21 9 17 8 23 -2 30
-10 6 -8 8 8 7 12 -1 19 -7 16 -15z m-59 -58 c-7 -16 -24 -21 -24 -6 0 8 7 13
27 20 1 1 0 -6 -3 -14z m33 -85 c-1 -14 -4 -16 -14 -8 -16 13 -17 22 -1 12 8
-5 9 -2 5 10 -4 9 -3 15 2 11 6 -3 9 -14 8 -25z m73 21 c0 -5 -7 -11 -15 -15
-15 -5 -20 5 -8 17 9 10 23 9 23 -2z m13 -47 c-6 -16 -23 -19 -23 -4 0 5 -8 7
-17 4 -12 -4 -14 -3 -6 3 21 15 52 13 46 -3z m1427 -4 c0 -5 -4 -10 -10 -10
-5 0 -10 5 -10 10 0 6 5 10 10 10 6 0 10 -4 10 -10z m-10 -32 c0 -13 -23 -5
-28 10 -2 7 2 10 12 6 9 -3 16 -11 16 -16z m-1411 -48 c1 -13 0 -13 -9 0 -5 8
-10 11 -10 6 0 -5 -7 -3 -15 4 -12 10 -15 9 -15 -5 0 -10 -3 -16 -6 -12 -4 3
-4 14 0 23 5 14 9 14 22 3 14 -11 16 -10 14 6 -1 11 -1 25 0 30 2 12 18 -33
19 -55z m1437 -7 c-10 -10 -19 5 -10 18 6 11 8 11 12 0 2 -7 1 -15 -2 -18z
m-1476 -23 c0 -5 -2 -10 -4 -10 -3 0 -8 5 -11 10 -3 6 -1 10 4 10 6 0 11 -4
11 -10z m-60 -14 c0 -3 -4 -8 -10 -11 -5 -3 -10 -1 -10 4 0 6 5 11 10 11 6 0
10 -2 10 -4z m100 -20 c0 -3 -4 -8 -10 -11 -5 -3 -10 -1 -10 4 0 6 5 11 10 11
6 0 10 -2 10 -4z m37 -2 c-3 -3 -12 -4 -19 -1 -8 3 -5 6 6 6 11 1 17 -2 13 -5z
m1333 -20 c0 -8 -4 -12 -10 -9 -5 3 -10 10 -10 16 0 5 5 9 10 9 6 0 10 -7 10
-16z m-1361 -20 c-6 -8 -15 -12 -18 -8 -3 4 0 9 7 11 6 3 9 10 6 15 -4 7 -2 8
5 4 9 -6 9 -11 0 -22z m1329 2 c9 -20 8 -27 -5 -38 -11 -8 -14 -8 -10 -1 4 6
3 14 -3 18 -12 7 -14 45 -2 45 5 0 14 -11 20 -24z m-158 -4 c0 -5 -7 -9 -15
-9 -8 0 -12 4 -9 9 3 4 9 8 15 8 5 0 9 -4 9 -8z m-1067 -25 c3 -8 1 -20 -4
-28 -8 -11 -9 -9 -7 6 2 15 -2 19 -17 17 -16 -2 -17 -1 -5 7 20 14 27 14 33
-2z m1147 -12 c0 -8 -5 -17 -12 -21 -8 -5 -9 -2 -5 10 5 12 3 16 -5 13 -7 -2
-12 -10 -10 -16 1 -6 -2 -11 -8 -11 -16 0 -12 22 7 36 20 14 33 10 33 -11z
m-220 -1 c0 -8 -4 -12 -10 -9 -5 3 -10 10 -10 16 0 5 5 9 10 9 6 0 10 -7 10
-16z m-890 -4 c0 -5 -2 -10 -4 -10 -3 0 -8 5 -11 10 -3 6 -1 10 4 10 6 0 11
-4 11 -10z m1250 0 c0 -5 -4 -10 -10 -10 -5 0 -10 5 -10 10 0 6 5 10 10 10 6
0 10 -4 10 -10z m-200 -16 c0 -8 -5 -12 -10 -9 -6 4 -8 11 -5 16 9 14 15 11
15 -7z m-1000 2 c0 -2 -11 -6 -25 -8 -13 -3 -22 -1 -19 3 5 9 44 13 44 5z
m-70 -36 c-6 -11 -17 -17 -25 -14 -8 4 -12 11 -9 16 4 6 10 5 15 -3 6 -10 9
-8 9 9 0 13 4 20 10 17 7 -4 7 -13 0 -25z m1131 -60 c5 0 9 -8 9 -19 0 -14 -7
-18 -30 -17 -38 2 -59 21 -42 38 9 9 12 9 12 -1 0 -7 4 -10 10 -6 5 3 6 13 3
23 -6 16 -6 16 11 0 9 -10 22 -18 27 -18z m-133 6 c-13 -14 -28 -12 -28 5 0 5
9 9 20 9 17 0 19 -2 8 -14z m-794 -21 l16 -25 -40 2 c-23 1 -36 5 -29 9 6 4 9
11 5 17 -3 6 2 13 11 15 10 3 19 5 19 6 1 0 9 -10 18 -24z m986 -24 c0 -7 -8
-3 -19 10 -11 13 -17 28 -14 32 6 10 32 -23 33 -42z m-300 29 c0 -5 -2 -10 -4
-10 -3 0 -8 5 -11 10 -3 6 -1 10 4 10 6 0 11 -4 11 -10z m-86 -35 c9 -34 -2
-51 -18 -29 -12 16 -13 16 -19 0 -4 -10 -11 -14 -17 -11 -6 4 -8 11 -4 16 3 5
0 17 -8 26 -11 15 -10 16 9 11 13 -4 26 -2 29 3 10 16 22 9 28 -16z m226 10
c-8 -9 -25 -10 -75 -6 -5 1 -3 5 4 10 21 13 82 9 71 -4z m-176 -37 c-3 -4 -11
-5 -20 -1 -11 4 -12 8 -3 20 10 11 14 11 20 1 4 -6 6 -15 3 -20z m-669 12 c-6
-10 7 -14 33 -11 7 1 12 -8 11 -21 0 -22 -1 -22 -9 -3 l-9 20 -1 -20 c-2 -17
-3 -18 -7 -2 -2 9 -9 15 -14 12 -5 -4 -9 -1 -9 4 0 6 -10 11 -22 12 -22 0 -22
1 -3 9 28 12 37 12 30 0z m769 -13 c19 -14 12 -51 -8 -44 -6 2 -19 0 -28 -5
-13 -6 -18 -5 -18 4 0 9 -3 9 -12 0 -16 -16 -28 -15 -28 3 0 8 7 15 15 15 8 0
15 4 15 10 0 5 8 6 17 3 12 -5 15 -2 10 10 -8 20 12 23 37 4z m276 9 c0 -3 -4
-8 -10 -11 -5 -3 -10 -1 -10 4 0 6 5 11 10 11 6 0 10 -2 10 -4z m-164 -27 c9
-15 -13 -28 -37 -22 -22 6 -25 19 -6 26 21 9 36 7 43 -4z m54 -8 c0 -12 -20
-25 -27 -18 -7 7 6 27 18 27 5 0 9 -4 9 -9z m100 5 c0 -3 -4 -8 -10 -11 -5 -3
-10 -1 -10 4 0 6 5 11 10 11 6 0 10 -2 10 -4z m-440 -21 c0 -8 -7 -15 -15 -15
-8 0 -15 7 -15 15 0 8 7 15 15 15 8 0 15 -7 15 -15z m510 5 c0 -5 -5 -10 -11
-10 -5 0 -7 5 -4 10 3 6 8 10 11 10 2 0 4 -4 4 -10z m-560 -19 c0 -6 -4 -12
-8 -15 -5 -3 -9 1 -9 9 0 8 4 15 9 15 4 0 8 -4 8 -9z m285 -1 c-3 -5 -11 -10
-16 -10 -6 0 -7 5 -4 10 3 6 11 10 16 10 6 0 7 -4 4 -10z m222 -12 c-3 -8 -6
-5 -6 6 -1 11 2 17 5 13 3 -3 4 -12 1 -19z m-153 -14 c4 -10 1 -14 -6 -12 -15
5 -23 28 -10 28 5 0 13 -7 16 -16z m-144 -51 c2 4 3 13 4 20 1 6 7 11 14 10 6
-2 9 3 6 11 -4 10 4 14 30 14 39 0 57 -14 32 -24 -18 -7 -22 -34 -5 -34 8 0 8
-5 -1 -15 -7 -8 -17 -12 -22 -9 -6 4 -14 0 -19 -7 -5 -8 -23 -14 -40 -14 -18
0 -33 -6 -35 -13 -1 -7 0 -8 3 -2 7 15 23 12 23 -3 0 -8 -12 -19 -26 -25 -28
-13 -25 -27 6 -35 15 -4 20 0 20 14 0 10 5 19 10 19 6 0 10 -2 10 -4 0 -2 3
-11 6 -20 4 -11 1 -16 -11 -16 -9 0 -19 -9 -22 -20 l-6 -21 -14 21 c-17 25
-31 26 -29 3 1 -14 -5 -17 -26 -15 -16 2 -28 -1 -28 -7 0 -6 5 -11 10 -11 6 0
10 -5 10 -10 0 -6 -6 -10 -13 -8 -18 4 -57 -39 -51 -57 5 -12 2 -14 -17 -6
-31 11 -31 34 0 41 24 6 30 17 51 98 6 26 5 31 -5 22 -14 -12 -41 12 -31 29 4
5 2 12 -4 16 -16 10 -12 23 10 30 12 4 27 1 35 -5 11 -9 16 -7 25 10 7 14 17
19 29 15 18 -5 43 15 40 31 -5 31 5 33 16 4 7 -19 14 -32 15 -27z m270 45 c0
-4 -18 -8 -40 -8 -22 0 -40 4 -40 9 0 5 18 8 40 8 22 -1 40 -5 40 -9z m-430
-24 c0 -3 -6 -12 -14 -19 -12 -12 -16 -11 -31 5 -18 19 -17 20 13 20 18 0 32
-3 32 -6z m429 -14 c14 -8 13 -9 -3 -10 -12 0 -16 -5 -13 -14 4 -11 -2 -14
-24 -14 -32 1 -35 7 -16 27 8 10 8 12 0 7 -6 -3 -14 -2 -18 4 -4 6 -11 8 -16
5 -5 -4 -9 -2 -9 4 0 11 76 4 99 -9z m-488 -23 c-1 -12 -15 -9 -19 4 -3 6 1
10 8 8 6 -3 11 -8 11 -12z m-276 -27 c3 -5 1 -10 -4 -10 -6 0 -11 5 -11 10 0
6 2 10 4 10 3 0 8 -4 11 -10z m655 -5 c0 -8 -4 -15 -10 -15 -5 0 -7 7 -4 15 4
8 8 15 10 15 2 0 4 -7 4 -15z m-19 -50 c5 4 9 -2 9 -13 0 -17 -11 -20 -49 -13
-3 1 0 6 6 12 6 6 9 18 6 25 -3 8 -2 22 3 32 6 13 9 10 12 -16 2 -18 8 -30 13
-27z m-334 12 c-5 -16 -21 -9 -29 12 -6 19 -5 19 12 8 11 -6 19 -16 17 -20z
m243 13 c0 -5 -8 -10 -17 -10 -15 0 -16 2 -3 10 19 12 20 12 20 0z m150 0 c0
-5 -2 -10 -4 -10 -3 0 -8 5 -11 10 -3 6 -1 10 4 10 6 0 11 -4 11 -10z m-110
-10 c0 -5 -4 -10 -10 -10 -5 0 -10 5 -10 10 0 6 5 10 10 10 6 0 10 -4 10 -10z
m-956 -26 c4 -10 -3 -25 -18 -39 l-25 -23 25 -5 c13 -2 24 0 24 4 0 21 19 6
29 -23 12 -33 6 -52 -8 -29 -5 7 -14 10 -21 6 -6 -4 -19 0 -29 9 -22 20 -54
11 -46 -14 4 -14 1 -16 -20 -12 -27 5 -35 22 -9 22 9 0 21 13 27 29 6 16 21
35 34 42 16 9 21 18 17 31 -7 22 11 24 20 2z m922 1 c10 -9 11 -15 4 -15 -6 0
-18 7 -26 15 -10 9 -11 15 -4 15 6 0 18 -7 26 -15z m334 -5 c0 -5 -5 -10 -11
-10 -5 0 -7 5 -4 10 3 6 8 10 11 10 2 0 4 -4 4 -10z m-543 -42 c-3 -8 -6 -5
-6 6 -1 11 2 17 5 13 3 -3 4 -12 1 -19z m-297 -8 c0 -5 -5 -10 -11 -10 -5 0
-7 5 -4 10 3 6 8 10 11 10 2 0 4 -4 4 -10z m-540 -35 c0 -8 -4 -15 -10 -15 -5
0 -7 7 -4 15 4 8 8 15 10 15 2 0 4 -7 4 -15z m815 5 c-3 -5 -14 -10 -23 -10
-15 0 -15 2 -2 10 20 13 33 13 25 0z m125 0 c0 -5 -14 -17 -31 -25 -23 -13
-29 -20 -23 -37 4 -15 2 -19 -7 -16 -27 9 -20 42 13 66 36 24 48 27 48 12z
m410 -16 c0 -8 -5 -12 -10 -9 -6 4 -8 11 -5 16 9 14 15 11 15 -7z m-255 -25
c-7 -11 -35 -12 -35 -1 0 4 9 8 20 9 11 1 18 -2 15 -8z m-1170 -38 c-3 -6 -11
-11 -16 -11 -5 0 -4 6 3 14 14 16 24 13 13 -3z m80 -11 c-3 -5 -10 -10 -16
-10 -5 0 -9 5 -9 10 0 6 7 10 16 10 8 0 12 -4 9 -10z m1118 3 c-7 -2 -19 -2
-25 0 -7 3 -2 5 12 5 14 0 19 -2 13 -5z"/>
<path d="M797 2314 c-3 -5 1 -15 9 -22 16 -14 18 -5 5 17 -5 7 -11 9 -14 5z"/>
<path d="M2123 231 c-1 -14 3 -17 17 -14 11 3 16 11 13 19 -8 20 -29 17 -30
-5z"/>
<path d="M1770 4183 c0 -4 5 -15 10 -23 8 -13 10 -13 10 2 0 9 -4 20 -10 23
-5 3 -10 3 -10 -2z"/>
<path d="M5028 4183 c7 -3 16 -2 19 1 4 3 -2 6 -13 5 -11 0 -14 -3 -6 -6z"/>
<path d="M5120 4181 c0 -5 -3 -16 -6 -25 -4 -11 -1 -16 12 -15 11 0 14 3 8 5
-7 3 -10 14 -7 24 3 11 3 20 -1 20 -3 0 -6 -4 -6 -9z"/>
<path d="M5146 4183 c-10 -10 -7 -23 5 -23 5 0 7 5 4 10 -3 6 -1 10 4 10 6 0
11 -4 11 -10 0 -5 6 -10 14 -10 8 0 17 -6 19 -12 3 -8 6 -7 6 4 1 24 -46 48
-63 31z"/>
<path d="M5240 4174 c0 -8 4 -13 9 -9 5 3 13 0 17 -6 4 -8 3 -9 -5 -5 -6 4
-13 0 -17 -11 -3 -10 -10 -26 -16 -37 -9 -16 -7 -18 15 -12 13 3 27 3 31 -1
10 -10 46 -11 52 -1 3 5 2 8 -3 7 -22 -4 -43 2 -43 12 0 6 7 9 15 5 20 -7 19
4 -2 20 -15 11 -16 15 -4 23 8 5 21 7 29 3 14 -5 14 -6 0 -11 -15 -5 -15 -8
-2 -25 14 -20 14 -20 15 0 0 10 6 2 12 -19 7 -22 15 -36 20 -33 4 3 3 0 -3 -6
-17 -21 -12 -48 10 -48 11 0 20 -5 20 -11 0 -7 -10 -9 -26 -5 -15 4 -23 3 -20
-2 10 -17 47 -21 53 -6 4 11 9 12 19 3 19 -16 18 -30 -3 -22 -10 4 -14 2 -10
-4 4 -6 1 -14 -5 -16 -13 -5 23 -11 52 -8 8 1 3 -6 -13 -14 -23 -13 -26 -19
-17 -35 14 -26 23 -26 15 0 -3 11 -5 20 -3 20 2 0 17 4 34 9 37 11 57 1 48
-23 -6 -16 -8 -16 -25 0 -26 23 -41 14 -45 -31 -2 -21 -7 -41 -12 -44 -5 -3
-2 -14 7 -23 15 -15 16 -13 16 25 0 32 3 41 15 38 8 -2 21 -4 29 -5 7 -2 17
-10 23 -19 7 -14 4 -17 -17 -17 -14 0 -25 6 -25 13 0 8 -4 7 -10 -3 -16 -25
-12 -29 23 -23 28 4 33 2 34 -15 1 -14 -3 -19 -13 -15 -7 3 -11 9 -8 14 3 5 1
9 -5 9 -21 0 -20 -19 1 -26 41 -13 59 -12 47 3 -7 8 -8 13 -1 13 5 0 15 -7 22
-15 7 -8 17 -12 23 -8 6 3 7 1 3 -5 -5 -8 1 -12 15 -12 16 0 20 -5 16 -20 -3
-11 -1 -20 4 -20 5 0 9 -4 9 -10 0 -5 -7 -7 -15 -4 -8 4 -15 1 -15 -5 0 -6 5
-11 10 -11 6 0 10 -5 10 -11 0 -8 -6 -7 -17 2 -15 12 -16 12 -10 -4 4 -10 7
-21 7 -23 0 -2 10 -4 23 -4 21 -1 20 -2 -5 -16 -16 -8 -28 -17 -28 -20 0 -2
10 1 23 7 12 7 24 11 27 10 3 -1 7 6 10 17 5 18 6 18 25 -1 11 -11 16 -18 10
-15 -5 3 -17 -1 -24 -10 -13 -14 -13 -15 5 -10 20 5 20 3 13 -41 -5 -25 -11
-56 -14 -68 -3 -13 -1 -23 5 -23 6 0 9 4 6 9 -8 13 21 22 48 15 23 -6 30 -30
14 -51 -7 -8 -3 -10 11 -6 15 4 21 1 21 -11 0 -10 5 -14 11 -11 6 4 10 1 8 -6
-3 -28 1 -38 15 -33 8 3 17 -1 22 -8 4 -7 4 -10 -1 -6 -9 9 -35 -9 -35 -24 0
-6 8 -8 19 -5 14 3 19 -1 19 -21 0 -21 -2 -22 -10 -8 -10 17 -28 13 -28 -7 0
-8 3 -8 9 1 6 11 10 10 15 -3 3 -9 12 -15 19 -12 9 3 13 -4 13 -22 -1 -21 3
-25 19 -23 18 3 18 2 -3 -13 -13 -10 -26 -14 -29 -11 -4 3 0 6 8 6 9 1 7 5 -5
12 -15 8 -21 8 -24 0 -2 -6 -11 -8 -20 -5 -14 4 -14 3 -2 -5 8 -6 18 -8 22 -6
4 3 8 -2 8 -11 0 -9 -6 -15 -13 -13 -14 3 -17 -3 -17 -29 0 -15 2 -15 9 -4 8
12 10 12 14 0 2 -8 3 -6 2 3 -2 10 4 23 13 30 14 11 15 10 8 -7 -6 -16 -5 -18
5 -7 19 18 28 15 22 -8 -3 -11 -10 -20 -17 -20 -6 0 -4 -5 4 -10 11 -7 16 -4
20 12 3 12 12 24 20 26 13 5 13 3 0 -13 -13 -16 -12 -17 5 -13 13 2 20 11 19
26 -1 31 12 27 24 -7 9 -25 8 -28 -8 -24 -18 5 -35 -21 -24 -38 3 -5 0 -9 -7
-9 -6 0 -9 8 -6 20 3 11 1 20 -4 20 -8 0 -13 -15 -10 -33 1 -4 -4 -18 -10 -30
-12 -22 -12 -22 10 -3 20 18 31 10 11 -10 -5 -5 -6 -15 0 -24 8 -13 11 -12 24
5 14 19 15 19 26 -10 6 -16 16 -32 21 -36 6 -4 4 -9 -6 -12 -9 -4 -13 -3 -10
3 4 6 -1 7 -11 3 -13 -5 -15 -2 -10 18 3 13 3 18 0 12 -3 -7 -21 -13 -40 -13
-19 0 -34 -5 -34 -10 0 -6 11 -8 25 -6 22 4 25 2 20 -14 -3 -10 0 -22 6 -26 9
-5 10 -2 6 9 -8 21 18 23 39 3 16 -17 19 -30 4 -21 -5 3 -10 -2 -11 -12 0 -16
-1 -16 -8 1 -11 30 -21 4 -11 -30 4 -16 9 -21 9 -11 1 9 6 17 12 17 5 0 7 -5
3 -12 -5 -8 0 -9 15 -5 18 4 21 2 16 -14 -5 -14 -3 -17 9 -13 9 3 14 10 11 14
-9 15 10 18 23 4 11 -12 10 -14 -5 -14 -15 0 -15 -2 -3 -9 8 -6 18 -7 22 -5
14 9 9 -9 -8 -27 -18 -20 -11 -41 11 -32 8 3 15 0 15 -6 0 -6 -5 -11 -11 -11
-6 0 -8 -7 -5 -16 3 -8 2 -12 -4 -9 -15 9 -12 -8 6 -33 10 -15 12 -27 6 -35
-17 -22 -20 -44 -7 -44 7 0 12 7 11 15 0 8 5 16 12 18 7 1 8 0 2 -3 -5 -2 -8
-9 -5 -14 4 -5 1 -17 -4 -26 -6 -10 -11 -13 -11 -8 0 6 -9 11 -21 12 -17 2
-18 -1 -9 -12 10 -12 9 -16 -4 -21 -22 -9 -20 -24 4 -24 11 0 19 6 17 13 -1 6
5 12 13 12 14 0 17 -13 9 -44 -2 -8 7 -20 19 -27 31 -15 58 -64 36 -64 -14 0
-18 11 -15 38 1 6 -5 12 -14 12 -10 0 -13 -5 -9 -12 4 -7 3 -8 -4 -4 -7 4 -12
14 -12 22 0 9 -5 12 -12 8 -7 -4 -10 -4 -6 1 4 4 3 14 -3 22 -13 15 -33 18
-24 3 3 -5 1 -10 -4 -10 -6 0 -11 5 -11 10 0 6 -5 10 -10 10 -6 0 -2 -12 7
-27 10 -15 12 -24 6 -20 -17 11 -16 -1 1 -19 13 -12 17 -12 32 3 13 13 16 14
12 3 -8 -23 10 -50 29 -43 12 5 15 2 10 -10 -4 -10 -2 -17 5 -17 7 0 6 -5 -2
-15 -7 -8 -9 -15 -4 -16 5 0 -1 -4 -13 -9 -13 -5 -23 -16 -23 -25 0 -8 -4 -15
-9 -15 -12 0 -8 24 6 42 10 11 8 14 -8 15 -14 1 -19 -3 -15 -12 3 -8 0 -14 -6
-12 -5 1 -12 -6 -13 -16 -2 -9 0 -15 5 -12 4 3 13 -2 20 -10 7 -8 22 -15 34
-16 11 0 15 -3 9 -6 -7 -2 -13 -11 -13 -18 0 -8 -5 -17 -12 -21 -8 -5 -9 0 -6
14 4 12 2 20 -2 17 -4 -3 -8 -20 -7 -39 0 -19 4 -33 8 -30 4 2 10 0 13 -5 3
-5 -13 -8 -38 -8 -28 1 -42 -2 -39 -9 2 -6 24 -10 48 -9 43 1 56 -7 35 -20 -5
-3 -10 0 -10 7 0 10 -3 9 -10 -2 -5 -8 -5 -19 -1 -25 9 -12 8 -26 -2 -42 -6
-9 -3 -11 7 -7 8 3 25 -1 38 -10 l23 -17 -25 3 c-23 3 -25 -1 -28 -39 -3 -34
-6 -41 -19 -36 -12 5 -15 2 -10 -10 3 -9 2 -17 -3 -17 -14 0 -1 -28 16 -34 11
-4 13 0 8 19 -5 22 -3 25 17 24 19 -1 20 -2 6 -6 -11 -3 -16 -10 -13 -19 3 -8
9 -21 12 -29 8 -19 -3 -19 -38 -1 -17 9 -28 11 -28 4 0 -5 9 -12 19 -15 11 -3
19 -13 18 -23 -1 -15 -6 -16 -31 -9 -41 12 -43 5 -4 -14 28 -14 30 -17 11 -17
-13 0 -23 4 -23 9 0 5 -9 11 -20 14 -23 6 -27 -11 -5 -19 8 -4 13 -9 10 -13
-2 -4 -7 -23 -10 -42 -4 -23 -2 -29 4 -19 5 8 7 18 5 22 -3 5 2 11 10 14 9 3
13 10 10 15 -3 5 0 9 7 9 6 0 9 -8 6 -20 -3 -11 -1 -20 3 -20 5 0 11 -9 15
-19 4 -12 12 -18 21 -14 7 3 14 0 14 -7 0 -6 -4 -8 -10 -5 -6 3 -10 -4 -11
-17 l0 -23 -9 23 c-10 23 -30 30 -30 10 0 -9 -3 -9 -12 0 -16 16 -33 15 -19
-1 6 -8 8 -16 5 -20 -3 -3 -1 -15 6 -26 8 -15 8 -21 0 -21 -6 0 -8 -5 -5 -10
4 -6 11 -7 17 -4 7 4 8 2 4 -4 -4 -7 -2 -12 3 -12 6 0 11 -5 11 -10 0 -6 -6
-10 -12 -9 -28 3 -36 -2 -31 -19 3 -12 -1 -19 -11 -19 -8 0 -12 5 -8 11 10 17
11 35 1 42 -5 3 -9 2 -8 -3 4 -21 -2 -24 -18 -12 -17 13 -17 12 -3 -5 8 -10
15 -25 16 -33 2 -8 12 -24 23 -34 23 -22 26 -35 11 -44 -6 -4 -8 -11 -5 -16 4
-5 3 -9 -2 -9 -12 0 -33 50 -27 65 3 7 0 16 -7 21 -8 5 -11 2 -7 -7 6 -17 -16
-41 -28 -31 -5 4 0 -3 10 -15 11 -13 16 -23 12 -23 -4 0 -2 -10 5 -21 8 -15 8
-19 0 -15 -6 4 -11 3 -11 -3 0 -5 -3 -17 -7 -27 -5 -13 -3 -15 7 -9 10 6 11 2
6 -19 -4 -15 -2 -26 4 -26 5 0 10 -4 10 -10 0 -5 -7 -6 -17 -3 -12 5 -14 3 -8
-7 5 -9 4 -11 -4 -6 -7 5 -9 16 -5 29 6 19 5 20 -9 8 -11 -8 -14 -19 -9 -30 4
-9 7 -31 7 -49 0 -22 3 -31 12 -28 7 3 13 -2 13 -10 0 -10 -5 -14 -15 -10 -8
3 -23 9 -32 12 -17 5 -17 5 0 -6 9 -6 17 -15 17 -20 0 -19 -22 -10 -51 21 -16
17 -29 27 -29 22 0 -5 6 -15 12 -21 10 -10 10 -15 -2 -22 -13 -9 -13 -10 0
-11 8 -1 21 -1 28 0 7 1 15 -5 18 -13 3 -8 12 -12 20 -9 9 3 14 -1 14 -13 0
-12 -3 -15 -8 -8 -4 6 -15 10 -24 8 -10 -1 -18 2 -18 7 0 6 -4 7 -10 4 -5 -3
-10 -1 -10 5 0 6 -5 8 -10 5 -6 -4 -8 -10 -6 -14 3 -4 -1 -8 -8 -8 -9 0 -13 9
-10 22 3 18 -1 23 -21 23 -23 -1 -24 -2 -8 -13 10 -8 15 -17 11 -21 -4 -4 -13
-2 -21 4 -10 8 -12 5 -11 -16 1 -15 3 -29 4 -32 1 -3 2 -9 1 -13 -1 -5 3 -6 8
-3 5 4 8 15 6 26 -5 25 11 26 24 2 7 -14 5 -21 -11 -31 -17 -11 -18 -15 -7
-22 12 -7 12 -9 -1 -9 -12 -1 -11 -3 3 -11 9 -5 17 -15 17 -20 0 -6 -5 -7 -12
-3 -7 4 -8 3 -4 -4 4 -7 14 -12 22 -12 10 0 12 5 8 13 -5 8 -2 8 9 -2 23 -19
21 -30 -4 -24 -21 6 -21 6 -3 -16 17 -20 20 -20 31 -5 8 11 18 14 30 9 10 -5
22 -7 26 -6 5 1 5 -3 2 -10 -4 -6 -18 -8 -31 -5 -25 7 -28 1 -25 -40 1 -12 -5
-24 -13 -27 -9 -4 -16 -2 -16 3 0 6 5 10 10 10 13 0 13 21 -1 40 -8 11 -12 12
-16 3 -2 -7 -10 -13 -17 -13 -7 0 -18 -12 -25 -26 -9 -21 -9 -30 1 -42 11 -13
11 -14 -1 -7 -11 6 -13 2 -9 -18 5 -27 -16 -28 -26 -1 -3 9 -1 12 4 9 6 -3 10
2 10 12 0 12 -8 19 -21 20 -15 1 -19 -3 -15 -13 3 -8 2 -12 -3 -9 -5 3 -12 1
-16 -5 -3 -6 0 -12 7 -15 8 -3 14 -14 15 -25 2 -18 0 -19 -13 -5 -19 18 -30
20 -17 3 6 -7 9 -26 8 -43 0 -16 3 -35 7 -41 12 -16 -14 -35 -32 -24 -12 8
-10 10 8 10 21 0 22 2 8 15 -9 9 -13 27 -11 45 3 29 -8 40 -20 20 -3 -5 -1
-10 6 -10 7 0 5 -8 -6 -20 -16 -18 -16 -20 -2 -20 10 0 17 -4 17 -9 0 -13 -28
-33 -38 -27 -6 3 -9 -2 -8 -11 2 -24 -21 -27 -27 -4 -4 15 2 23 22 30 l26 10
-25 -2 c-33 -3 -40 -15 -29 -45 5 -14 7 -27 4 -30 -2 -3 -8 5 -13 18 -7 20
-10 21 -15 6 -4 -9 1 -25 11 -36 9 -12 17 -26 17 -33 0 -6 8 -13 18 -15 9 -2
17 1 17 7 0 6 12 10 28 10 25 -2 25 -2 3 -6 -13 -3 -26 -13 -28 -24 -6 -22
-19 -25 -26 -6 -3 6 -6 2 -6 -11 -1 -13 3 -21 8 -17 5 3 12 1 15 -4 7 -10 -19
-9 -29 1 -6 5 -13 36 -17 75 -1 7 -5 10 -9 8 -4 -3 -9 2 -13 10 -6 18 -32 20
-42 3 -4 -7 -3 -8 5 -4 6 4 19 0 28 -10 20 -20 29 -64 13 -64 -6 0 -8 -4 -5
-10 10 -17 -5 -32 -20 -20 -15 13 -14 32 3 53 9 11 10 17 2 22 -6 4 -9 1 -8
-7 2 -7 -4 -11 -12 -9 -35 9 -60 9 -66 0 -3 -5 3 -9 13 -9 15 0 16 -2 3 -11
-12 -9 -12 -10 3 -5 10 3 21 6 23 6 3 0 2 5 -2 12 -4 6 -3 8 4 4 7 -4 6 -15
-4 -36 -16 -31 -12 -50 9 -50 9 0 9 2 1 8 -7 4 -8 15 -3 30 12 31 16 27 14
-13 -3 -33 -1 -35 25 -30 26 5 29 3 28 -25 l-1 -31 -17 27 c-10 14 -20 21 -24
16 -3 -6 1 -18 10 -27 9 -9 14 -18 11 -21 -9 -9 -27 6 -27 22 0 8 -4 12 -10 9
-6 -3 -7 1 -4 9 3 9 1 16 -5 16 -6 0 -11 -9 -11 -19 0 -21 -22 -34 -61 -35
-21 -1 -25 3 -23 22 1 13 0 21 -3 18 -3 -3 -11 2 -18 11 -11 14 -12 14 -18 -1
-4 -11 -3 -15 4 -10 7 4 9 -1 5 -17 -3 -13 -3 -18 0 -11 3 6 10 12 15 12 6 0
6 -7 0 -18 -8 -15 -5 -18 17 -20 14 -1 31 -7 37 -13 7 -7 4 -8 -10 -4 l-20 7
20 -18 c18 -15 18 -16 2 -10 -10 3 -23 6 -28 6 -6 0 -7 5 -3 12 5 8 2 9 -10 5
-10 -4 -19 -1 -23 9 -4 10 -8 12 -12 5 -5 -7 -17 -7 -36 -2 -23 7 -25 10 -10
11 11 1 23 2 28 1 10 -1 9 11 -3 29 -8 13 -10 13 -10 -2 0 -12 -5 -15 -16 -11
-9 3 -20 0 -25 -8 -8 -12 -12 -11 -24 5 -8 11 -15 15 -15 9 0 -10 -158 24
-170 37 -3 3 -39 16 -80 28 -356 110 -419 134 -512 194 -107 69 -138 95 -138
116 0 18 -138 264 -154 274 -6 4 -15 9 -19 11 -5 1 -2 34 7 72 8 39 17 103 20
143 4 40 17 115 31 165 13 51 29 111 35 134 9 35 16 43 46 53 27 9 34 16 29
29 -4 9 -9 34 -13 55 -4 31 -2 38 9 34 8 -3 20 1 27 8 10 11 8 15 -13 20 -33
8 -32 17 8 36 23 11 38 12 54 5 28 -12 49 -4 55 21 5 17 2 20 -20 16 -23 -5
-24 -3 -11 13 8 10 16 20 19 23 11 10 60 128 60 144 0 9 6 16 13 16 8 0 19 22
27 55 7 30 18 55 25 55 13 0 45 94 45 133 0 21 -5 27 -21 27 -12 0 -17 4 -14
11 4 6 14 8 22 4 13 -4 14 -3 3 10 -7 8 -28 15 -46 15 l-34 0 -1 68 c0 37 -3
76 -5 87 -7 30 -5 156 2 180 4 11 16 36 28 55 12 19 28 53 35 75 7 22 29 71
47 108 38 76 46 144 17 133 -15 -6 -15 -5 1 13 22 24 13 61 -15 61 -24 0 -24
11 1 43 19 24 20 30 9 69 -14 48 -34 84 -61 111 -10 10 -16 22 -13 28 4 5 -1
9 -9 9 -9 0 -16 6 -16 13 0 9 -2 9 -9 -1 -7 -11 -9 -11 -14 2 -6 14 -10 14
-43 0 -70 -29 -106 -9 -226 123 -21 23 -49 65 -62 95 -14 29 -39 68 -55 86
-17 18 -31 39 -31 46 0 8 -7 19 -15 26 -8 7 -15 18 -15 24 0 14 -36 46 -44 39
-2 -3 -18 4 -34 16 -17 12 -35 21 -41 21 -6 0 -28 9 -48 20 -21 11 -47 20 -58
20 -12 0 -26 5 -32 11 -9 9 -10 7 -6 -10 3 -12 1 -21 -6 -21 -6 0 -11 -8 -12
-17 0 -13 -3 -11 -10 7 -14 33 -12 33 -58 19 -37 -11 -43 -10 -62 7 -12 10
-29 18 -39 16 -10 -2 -25 7 -34 20 -10 14 -19 19 -24 13 -9 -13 -28 -12 -75 4
-20 7 -35 17 -32 22 13 20 -50 -2 -66 -23 -3 -5 -17 -9 -32 -10 -15 -1 -27 -5
-27 -8 0 -3 -30 -5 -67 -4 -38 1 -75 -2 -83 -7 -9 -4 -30 -9 -47 -11 -18 -2
-45 -15 -61 -29 -16 -15 -44 -29 -63 -33 -19 -3 -48 -20 -66 -36 -18 -17 -40
-30 -50 -30 -10 0 -25 -14 -34 -33 -9 -17 -22 -32 -30 -32 -8 -1 -27 -13 -43
-28 -16 -15 -40 -30 -53 -33 -12 -4 -20 -10 -17 -15 3 -5 -4 -9 -15 -9 -20 0
-32 -10 -66 -55 -11 -15 -33 -42 -50 -60 -65 -74 -85 -105 -85 -135 0 -14 -5
-31 -10 -36 -8 -8 -8 -19 0 -38 12 -33 13 -143 1 -150 -4 -3 -14 -32 -20 -65
-7 -33 -16 -63 -22 -67 -6 -3 -10 -53 -10 -117 0 -158 -3 -197 -13 -197 -5 0
-6 -25 -2 -55 4 -35 2 -64 -5 -77 -9 -17 -8 -23 4 -29 11 -7 14 -20 10 -54 -4
-38 -2 -44 11 -39 9 3 16 10 16 15 0 5 7 9 15 9 12 0 13 -4 3 -26 -8 -17 -18
-24 -30 -21 -18 5 -25 -7 -9 -17 4 -3 11 -19 14 -36 6 -27 27 -43 27 -20 0 6
4 10 8 10 4 0 8 -25 9 -56 1 -61 9 -78 24 -51 6 9 16 17 23 17 8 0 21 12 31
26 14 22 15 28 4 35 -12 7 -11 15 5 41 11 18 24 43 30 55 6 13 17 23 24 23 15
0 16 32 0 48 -9 9 -6 18 13 39 13 16 30 32 37 36 6 4 12 13 12 18 0 6 -4 7
-10 4 -13 -8 -13 -4 5 39 15 34 14 36 -4 36 -11 0 -26 -7 -35 -15 -23 -24 -26
-18 -11 25 9 25 10 40 4 40 -6 0 -8 9 -4 20 5 14 2 20 -9 20 -22 0 -20 14 10
61 14 23 23 44 19 47 -13 13 -36 9 -49 -10 -10 -14 -16 -16 -21 -8 -4 7 -4 15
1 19 5 3 9 13 9 21 0 8 5 14 11 13 22 -4 82 66 99 114 15 45 26 67 86 180 30
56 62 69 114 47 58 -24 110 -65 94 -74 -9 -6 -9 -12 4 -25 10 -9 17 -14 17
-10 0 4 7 -1 16 -9 15 -16 32 -20 67 -17 9 1 17 -3 17 -8 0 -6 -6 -11 -14 -11
-8 0 -17 -4 -21 -9 -3 -6 3 -10 12 -9 58 0 203 -40 210 -59 3 -7 11 -13 19
-13 8 0 14 -5 14 -12 0 -6 3 -8 7 -5 3 4 13 1 21 -6 12 -9 16 -9 19 1 3 6 11
12 19 12 11 0 12 -4 4 -19 -7 -13 -7 -28 0 -45 10 -28 4 -59 -11 -51 -5 3 -11
-6 -15 -20 -5 -19 -1 -30 12 -40 29 -22 40 -18 18 6 -11 13 -13 20 -6 18 8 -3
21 -18 30 -34 20 -36 31 -45 55 -45 14 0 17 5 12 20 -4 11 -2 20 4 20 6 0 8 6
5 14 -7 19 16 32 27 15 5 -9 9 -10 9 -2 0 6 9 9 20 6 11 -3 20 -10 20 -15 0
-5 4 -7 9 -4 4 3 17 -4 27 -16 11 -12 13 -18 7 -14 -7 4 -21 2 -30 -3 -19 -11
-22 -10 40 -15 6 -1 11 7 11 17 -2 18 2 18 91 18 71 0 77 0 70 -11 -3 -5 3
-10 13 -10 24 0 37 -29 17 -36 -8 -4 -26 -3 -40 0 -41 11 -28 -10 16 -24 30
-10 44 -22 51 -42 6 -18 17 -28 30 -28 11 0 16 4 13 11 -4 6 2 5 14 -3 17 -10
18 -14 6 -21 -9 -4 -12 -13 -9 -19 5 -7 -1 -9 -17 -5 -58 14 -117 18 -123 9
-3 -5 18 -12 50 -15 30 -3 61 -10 68 -16 6 -6 31 -13 54 -17 23 -3 39 -10 37
-15 -3 -4 -1 -10 5 -14 6 -4 8 -10 5 -15 -3 -5 -1 -20 4 -33 7 -17 7 -27 0
-29 -6 -2 -3 -17 7 -36 16 -32 11 -60 -5 -33 -7 10 -10 10 -13 1 -3 -10 -8 -9
-19 3 -18 17 -139 33 -139 17 0 -5 -6 -7 -14 -4 -7 3 -21 -2 -30 -11 -9 -9
-16 -13 -16 -9 0 3 -6 2 -12 -3 -7 -6 -30 -13 -50 -17 -21 -4 -42 -14 -47 -24
-6 -9 -11 -14 -11 -9 0 4 -9 -2 -20 -13 -11 -11 -26 -17 -34 -14 -8 3 -23 1
-33 -4 -13 -8 -21 -5 -35 10 -17 20 -18 20 -25 2 -3 -11 -11 -22 -16 -25 -6
-4 -7 -14 -4 -23 5 -12 14 -15 33 -10 24 6 26 5 19 -17 -4 -13 -13 -27 -19
-31 -6 -4 -8 -8 -4 -8 4 0 3 -12 -3 -27 -6 -16 -14 -39 -17 -53 -7 -36 -3
-236 7 -303 0 -5 4 -6 9 -4 11 8 7 -85 -6 -116 -7 -16 -12 -32 -12 -36 0 -4
-11 -13 -25 -19 -14 -6 -25 -17 -25 -23 0 -6 -6 -9 -12 -6 -17 6 -48 -11 -48
-25 0 -6 -7 -19 -15 -27 -8 -9 -16 -33 -18 -52 -3 -32 0 -39 25 -53 l29 -17
10 30 c13 36 16 37 80 14 52 -19 64 -39 50 -88 -5 -20 -14 -30 -27 -30 -10 0
-43 -9 -72 -19 -45 -15 -58 -16 -83 -6 -34 15 -164 9 -181 -8 -6 -6 -30 -8
-58 -5 -30 3 -50 1 -54 -6 -4 -6 0 -12 11 -13 62 -5 88 -7 177 -12 54 -4 102
-8 106 -11 9 -6 73 -16 111 -19 14 0 34 -9 44 -19 14 -15 20 -16 26 -5 7 10 9
9 9 -4 0 -9 3 -25 6 -35 4 -13 3 -15 -4 -4 -7 9 -12 10 -16 2 -4 -6 -10 -9
-14 -7 -9 5 -48 -22 -45 -32 2 -4 -8 -7 -22 -7 -32 0 -55 -22 -36 -35 13 -7
13 -11 0 -26 -13 -16 -12 -16 8 -6 23 12 26 2 9 -26 -4 -7 -5 -16 -2 -19 3 -3
1 -12 -5 -20 -9 -10 -6 -13 17 -13 33 0 49 9 57 30 4 12 6 11 6 -2 1 -21 5
-22 33 -6 29 17 44 28 73 56 13 12 28 22 34 22 5 0 11 6 14 13 3 6 5 3 4 -9
-1 -12 -7 -21 -17 -20 -8 1 -14 -5 -12 -11 1 -7 -4 -13 -12 -13 -8 0 -16 -7
-20 -15 -7 -19 17 -20 33 -1 13 16 61 13 72 -5 4 -7 6 -24 4 -38 -1 -14 2 -31
7 -38 5 -7 6 -17 2 -24 -5 -8 -9 -7 -16 5 -8 14 -11 14 -24 2 -8 -8 -14 -23
-14 -33 0 -14 -2 -15 -9 -4 -7 11 -12 9 -22 -10 -7 -13 -19 -29 -27 -35 -9 -7
-12 -16 -7 -24 6 -10 4 -12 -8 -7 -9 3 -16 3 -16 -1 4 -22 -3 -33 -16 -28 -8
3 -19 -3 -25 -12 -7 -11 -13 -13 -16 -6 -3 7 -14 9 -26 6 -14 -3 -19 -1 -14 6
4 7 2 12 -4 12 -8 0 -8 6 0 20 13 24 10 24 -33 7 -18 -8 -38 -12 -46 -9 -9 3
-11 -1 -7 -14 5 -16 0 -19 -36 -20 -23 0 -43 -5 -46 -12 -2 -7 -20 -12 -41
-12 -20 0 -42 -5 -49 -12 -6 -6 -24 -12 -39 -13 -34 -2 -133 51 -133 71 0 8
-4 13 -8 11 -4 -1 -20 10 -34 25 -15 14 -41 29 -58 33 -16 4 -30 11 -30 15 0
5 -7 7 -15 4 -8 -4 -12 -10 -9 -15 3 -5 10 -7 15 -4 5 4 9 0 9 -8 0 -29 100
-117 150 -132 14 -4 36 -15 49 -23 13 -9 31 -17 40 -17 9 -1 41 -9 71 -18 30
-9 68 -19 83 -22 20 -4 27 -10 23 -20 -3 -8 -1 -17 5 -20 5 -4 7 -11 4 -16 -4
-5 2 -9 12 -10 14 0 15 -2 3 -7 -10 -5 -15 -21 -15 -50 0 -24 -4 -42 -11 -42
-6 0 -19 -9 -29 -20 -18 -20 -18 -21 9 -49 25 -26 31 -28 62 -19 27 7 38 6 51
-7 14 -14 14 -18 2 -26 -10 -7 -5 -8 14 -3 18 4 27 2 27 -6 0 -8 9 -10 25 -6
14 4 25 3 25 -1 -1 -13 -24 -39 -45 -51 -20 -11 -20 -11 2 -12 12 0 24 -4 27
-9 3 -4 17 -6 31 -3 18 3 25 0 25 -12 0 -9 6 -16 13 -16 6 0 1 -9 -12 -19 -18
-13 -22 -23 -16 -37 5 -13 9 -15 12 -6 3 6 12 12 21 12 15 0 15 2 2 10 -13 9
-13 12 1 23 9 6 14 22 13 34 -2 12 1 25 6 28 6 3 10 1 10 -4 0 -6 5 -11 11
-11 6 0 8 9 4 20 -5 15 -3 18 9 14 12 -5 15 -2 10 10 -4 10 0 18 10 21 45 14
51 17 39 22 -19 7 -15 25 5 22 33 -3 44 1 39 15 -3 8 1 20 9 27 27 22 28 -1 1
-38 -14 -20 -23 -42 -19 -47 14 -21 7 -47 -18 -67 -21 -16 -23 -20 -10 -30 11
-7 12 -12 3 -15 -7 -3 -9 -12 -6 -20 3 -8 1 -20 -5 -27 -5 -6 -12 -32 -15 -57
-3 -25 -9 -62 -15 -83 -12 -46 -3 -53 34 -25 41 32 52 48 65 93 30 107 43 137
73 177 18 24 59 81 91 127 31 46 70 95 86 109 16 13 29 32 29 43 0 10 5 19 10
19 6 0 10 5 10 11 0 6 10 19 22 29 13 10 23 26 23 36 2 38 18 104 25 104 7 0
11 12 25 63 2 4 4 10 5 15 1 4 2 16 1 27 -1 16 1 15 10 -5 15 -36 12 -120 -7
-198 -20 -79 -69 -213 -97 -262 -34 -60 -74 -144 -86 -180 -10 -30 -73 -90
-95 -90 -16 0 -3 40 24 70 16 19 29 38 30 43 1 17 -48 5 -69 -17 -20 -21 -23
-37 -26 -118 -3 -109 -20 -202 -41 -223 -9 -8 -27 -18 -42 -22 -15 -3 -50 -17
-79 -29 -48 -22 -54 -22 -82 -8 -74 37 -268 12 -259 -33 3 -15 16 -19 73 -21
38 -2 75 -8 81 -13 16 -13 564 -10 564 3 0 7 5 6 14 -1 16 -14 256 -14 256 -1
0 5 -7 13 -16 18 -14 8 -11 10 15 14 30 4 41 -4 21 -17 -36 -22 24 -25 504
-25 389 1 516 4 520 13 3 9 5 9 5 0 1 -10 178 -13 851 -13 l850 0 0 2095 0
2095 -930 0 c-822 -1 -930 -3 -930 -16z m130 -59 c0 -5 -5 -3 -10 5 -5 8 -10
20 -10 25 0 6 5 3 10 -5 5 -8 10 -19 10 -25z m80 -35 c9 -16 8 -18 -5 -14 -10
4 -15 0 -15 -11 0 -10 4 -13 13 -9 7 5 6 0 -3 -11 -14 -17 -15 -17 -18 11 -2
15 1 30 7 32 6 2 9 8 5 13 -3 5 -3 9 0 9 3 0 10 -9 16 -20z m-53 -35 c-15 -16
-19 -13 -11 9 3 9 10 13 15 10 5 -3 3 -11 -4 -19z m157 -13 c3 -5 -1 -9 -9 -9
-8 0 -12 4 -9 9 3 4 7 8 9 8 2 0 6 -4 9 -8z m-81 -19 c2 -5 -2 -19 -9 -33 -8
-14 -14 -22 -15 -17 -1 4 -2 10 -3 15 -1 4 -5 12 -9 19 -4 6 -1 14 5 16 19 8
26 8 31 0z m44 -45 c-3 -8 -6 -5 -6 6 -1 11 2 17 5 13 3 -3 4 -12 1 -19z m18
-29 c11 -17 -1 -21 -15 -4 -8 9 -8 15 -2 15 6 0 14 -5 17 -11z m-1878 -29 c-1
-20 -17 -27 -30 -13 -8 7 11 33 24 33 4 0 7 -9 6 -20z m1917 -6 c3 -8 2 -12
-4 -9 -6 3 -10 10 -10 16 0 14 7 11 14 -7z m-2674 -3 c0 -12 -20 -25 -27 -18
-7 7 6 27 18 27 5 0 9 -4 9 -9z m14 -38 c-38 -34 -48 -27 -17 12 19 24 30 30
35 22 5 -7 -2 -21 -18 -34z m166 32 c0 -19 24 -19 40 0 7 9 15 13 18 11 2 -3
-12 -24 -32 -48 -27 -31 -45 -43 -65 -43 l-28 -1 14 36 c24 56 53 81 53 45z
m-250 -35 c-20 -28 -40 -39 -40 -23 0 6 50 52 58 53 2 0 -6 -13 -18 -30z
m2732 -9 c8 11 9 11 4 -3 -3 -10 -1 -20 4 -23 15 -9 12 -25 -3 -19 -21 8 -37
42 -29 61 6 15 7 15 10 -6 3 -19 6 -21 14 -10z m-2252 9 c0 -5 -4 -10 -9 -10
-6 0 -13 5 -16 10 -3 6 1 10 9 10 9 0 16 -4 16 -10z m2306 -25 c0 -29 -8 -32
-27 -8 -8 9 -9 14 -3 10 7 -4 14 0 18 8 8 22 12 18 12 -10z m-2672 -27 c-10
-12 -28 -31 -39 -41 -11 -10 -14 -15 -6 -12 10 6 11 2 6 -16 -10 -31 -17 -37
-23 -20 -4 11 -6 11 -13 0 -4 -7 -19 -14 -33 -14 -13 -1 -33 -8 -42 -16 -16
-13 -17 -11 -11 20 7 35 26 65 35 56 3 -2 0 -11 -7 -18 -9 -11 -8 -17 2 -25
10 -9 28 3 76 48 63 60 91 79 55 38z m2758 -7 c-4 -10 -7 -11 -10 -3 -2 7 -9
9 -14 6 -6 -4 -8 -3 -5 3 10 16 36 11 29 -6z m-2157 -11 c3 -5 19 -10 34 -10
15 0 31 -4 37 -9 5 -5 18 -11 29 -14 19 -5 19 -5 -2 -12 -13 -4 -20 -12 -17
-17 4 -6 -3 -5 -15 2 -22 11 -22 11 -6 -20 9 -18 14 -38 11 -46 -3 -8 1 -14 9
-14 8 0 15 -4 15 -10 0 -26 -30 -6 -41 28 -16 49 -58 112 -75 112 -7 0 -16 5
-19 10 -3 6 3 10 14 10 11 0 23 -4 26 -10z m-835 -20 c-19 -13 -30 -13 -30 0
0 6 10 10 23 10 18 0 19 -2 7 -10z m312 -22 c-7 -7 -12 -8 -12 -2 0 6 3 14 7
17 3 4 9 5 12 2 2 -3 -1 -11 -7 -17z m2645 -3 c-7 -17 -27 -21 -27 -4 0 5 5 7
10 4 6 -3 10 2 10 11 0 10 3 15 6 11 4 -3 4 -13 1 -22z m-2480 -108 c-3 -21
-10 -44 -17 -50 -10 -10 -11 0 -6 46 3 35 2 57 -4 57 -6 0 -10 8 -10 18 1 14
4 13 21 -7 15 -19 19 -35 16 -64z m203 63 c0 -5 -4 -10 -10 -10 -5 0 -10 5
-10 10 0 6 5 10 10 10 6 0 10 -4 10 -10z m2310 0 c0 -5 -2 -10 -4 -10 -3 0 -8
5 -11 10 -3 6 -1 10 4 10 6 0 11 -4 11 -10z m-2480 -42 c0 -5 -4 -8 -10 -8 -5
0 -10 10 -10 23 0 18 2 19 10 7 5 -8 10 -18 10 -22z m2520 8 c8 -3 5 -4 -7 -2
-13 2 -23 -1 -23 -7 0 -6 -3 -8 -6 -4 -4 3 -3 14 0 24 5 11 10 13 14 7 4 -6
14 -14 22 -18z m-1480 0 c0 -3 -4 -8 -10 -11 -5 -3 -10 -1 -10 4 0 6 5 11 10
11 6 0 10 -2 10 -4z m1475 -54 c-3 -3 -11 0 -18 7 -9 10 -8 11 6 5 10 -3 15
-9 12 -12z m-3100 -15 c-4 -8 -16 -17 -27 -20 -19 -5 -19 -5 3 19 24 26 33 26
24 1z m3089 -3 c14 -5 14 -8 0 -21 -11 -12 -12 -18 -3 -29 16 -19 31 -18 57 6
25 24 30 10 5 -15 -15 -16 -15 -19 1 -46 9 -16 13 -29 8 -29 -5 0 -15 13 -22
29 -10 25 -17 29 -46 27 -31 -1 -34 1 -30 19 3 11 6 30 6 43 0 24 1 25 24 16z
m56 -20 c0 -8 -5 -12 -10 -9 -6 4 -8 11 -5 16 9 14 15 11 15 -7z m-35 -24 c3
-6 -1 -7 -9 -4 -18 7 -21 14 -7 14 6 0 13 -4 16 -10z m-2769 -56 c15 -12 16
-15 2 -10 -9 2 -22 -1 -28 -9 -12 -15 -44 -9 -34 6 3 5 -1 9 -8 9 -9 0 -9 3 2
10 22 14 44 12 66 -6z m2851 -10 c-3 -3 -12 -4 -19 -1 -8 3 -5 6 6 6 11 1 17
-2 13 -5z m20 -40 c-3 -3 -12 -4 -19 -1 -8 3 -5 6 6 6 11 1 17 -2 13 -5z m63
2 c0 -3 -4 -8 -10 -11 -5 -3 -10 -1 -10 4 0 6 5 11 10 11 6 0 10 -2 10 -4z
m-30 -16 c0 -5 -2 -10 -4 -10 -3 0 -8 5 -11 10 -3 6 -1 10 4 10 6 0 11 -4 11
-10z m3 -104 c4 -10 1 -13 -8 -9 -8 3 -12 9 -9 14 7 12 11 11 17 -5z m57 2 c0
-10 -9 -9 -35 2 -17 8 -16 8 8 7 15 -1 27 -5 27 -9z m48 -32 c-7 -8 -15 -12
-17 -11 -5 6 10 25 20 25 5 0 4 -6 -3 -14z m-73 -26 c-3 -5 4 -11 15 -15 11
-3 20 -11 20 -16 0 -11 -50 -32 -58 -24 -3 3 -1 5 5 5 7 0 8 12 3 34 -6 27 -5
33 6 29 8 -3 12 -9 9 -13z m-30 0 c3 -5 1 -10 -4 -10 -6 0 -11 5 -11 10 0 6 2
10 4 10 3 0 8 -4 11 -10z m80 -60 c3 -5 1 -10 -4 -10 -6 0 -11 5 -11 10 0 6 2
10 4 10 3 0 8 -4 11 -10z m-3355 -24 c0 -23 -27 -39 -46 -28 -16 9 -15 10 4
16 12 4 22 12 22 17 0 5 5 9 10 9 6 0 10 -6 10 -14z m3377 -2 c-3 -3 -12 -4
-19 -1 -8 3 -5 6 6 6 11 1 17 -2 13 -5z m7 -60 c5 -14 4 -15 -9 -4 -17 14 -19
20 -6 20 5 0 12 -7 15 -16z m-3414 -4 c0 -5 -7 -10 -16 -10 -8 0 -12 5 -9 10
3 6 10 10 16 10 5 0 9 -4 9 -10z m3480 0 c0 -5 -5 -10 -11 -10 -5 0 -7 5 -4
10 3 6 8 10 11 10 2 0 4 -4 4 -10z m-102 -11 c-10 -5 -15 -16 -11 -25 5 -13 7
-13 14 -2 6 9 9 9 9 1 0 -19 -14 -22 -35 -6 -20 14 -20 14 -1 29 11 8 25 14
30 14 6 0 3 -5 -6 -11z m-2508 -40 c0 -5 -4 -9 -10 -9 -5 0 -10 7 -10 16 0 8
5 12 10 9 6 -3 10 -10 10 -16z m2536 -40 c19 -22 19 -22 -3 -8 -13 8 -23 17
-23 21 0 12 6 9 26 -13z m69 1 c3 -5 1 -10 -4 -10 -6 0 -11 5 -11 10 0 6 2 10
4 10 3 0 8 -4 11 -10z m-21 -43 c-7 -19 -20 -22 -29 -7 -4 6 -1 9 7 8 7 -2 12
5 11 16 -1 11 2 15 8 9 5 -5 7 -17 3 -26z m-3544 -82 c10 -13 9 -15 -8 -15
-15 0 -20 5 -16 15 4 8 7 15 9 15 1 0 8 -7 15 -15z m130 -65 c18 -11 9 -21
-23 -24 -22 -3 -24 -1 -14 15 13 22 16 22 37 9z m3470 -6 c0 -8 -19 -13 -24
-6 -3 5 1 9 9 9 8 0 15 -2 15 -3z m-3470 -29 c0 -1 -10 -10 -22 -21 -12 -10
-18 -13 -14 -6 4 7 2 12 -6 12 -11 0 -11 2 0 8 11 7 42 12 42 7z m3487 -11
c-3 -3 -12 -4 -19 -1 -8 3 -5 6 6 6 11 1 17 -2 13 -5z m-21 -25 c3 -6 0 -15
-7 -20 -22 -14 -28 -11 -22 11 6 22 18 26 29 9z m-3537 -50 c-13 -26 -23 -18
-14 10 3 12 11 19 16 16 5 -4 5 -14 -2 -26z m3580 -53 c15 -8 20 -16 12 -20
-6 -4 -11 -2 -11 3 0 6 -5 11 -11 11 -5 0 -8 -4 -5 -8 2 -4 -3 -8 -13 -8 -12
0 -17 6 -13 18 5 21 9 22 41 4z m-29 -40 c0 -11 -19 -15 -25 -6 -3 5 1 10 9
10 9 0 16 -2 16 -4z m35 -6 c3 -5 1 -10 -4 -10 -6 0 -11 5 -11 10 0 6 2 10 4
10 3 0 8 -4 11 -10z m-2047 -31 c-3 -8 -7 -3 -11 10 -4 17 -3 21 5 13 5 -5 8
-16 6 -23z m451 -117 c-14 -22 -48 -46 -56 -38 -8 7 30 54 47 59 21 5 23 1 9
-21z m1641 4 c0 -2 -9 -6 -20 -9 -11 -3 -18 -1 -14 4 5 9 34 13 34 5z m34 -52
c3 -8 2 -12 -4 -9 -6 3 -10 10 -10 16 0 14 7 11 14 -7z m-2420 -34 c14 -22 30
-39 34 -39 4 1 15 1 25 0 15 -1 16 -5 7 -21 -6 -11 -7 -20 -2 -20 6 0 12 9 15
21 6 24 33 20 31 -4 -1 -9 2 -15 6 -12 4 3 11 -3 14 -12 8 -19 -12 -35 -33
-28 -9 4 -11 0 -7 -10 3 -9 0 -15 -10 -15 -8 0 -12 5 -9 11 4 6 -4 9 -22 7
-22 -2 -27 1 -25 15 2 10 -3 17 -13 17 -8 0 -15 -4 -15 -9 0 -6 -9 -9 -20 -8
-11 1 -20 7 -20 13 0 7 -6 14 -12 17 -8 2 -2 10 14 17 28 13 46 40 26 40 -6 0
-19 7 -29 16 -14 13 -15 19 -6 30 18 20 22 18 51 -26z m2326 0 c0 -5 -10 -14
-21 -21 -17 -9 -20 -8 -14 2 6 9 3 11 -8 6 -11 -4 -14 -2 -10 9 4 11 9 12 19
3 13 -11 18 -5 15 14 -1 5 3 6 9 2 5 -3 10 -10 10 -15z m70 10 c0 -5 -2 -10
-4 -10 -3 0 -8 5 -11 10 -3 6 -1 10 4 10 6 0 11 -4 11 -10z m-2245 -27 c-28
-20 -41 -16 -20 7 10 11 22 17 28 13 6 -4 3 -12 -8 -20z m2226 10 c13 -15 12
-15 -8 -4 -24 12 -29 21 -14 21 5 0 15 -7 22 -17z m-2021 -23 c0 -5 -2 -10 -4
-10 -3 0 -8 5 -11 10 -3 6 -1 10 4 10 6 0 11 -4 11 -10z m-403 -6 c-3 -3 -12
-4 -19 -1 -8 3 -5 6 6 6 11 1 17 -2 13 -5z m2360 -9 c0 -8 -4 -12 -9 -9 -5 3
-6 10 -3 15 9 13 12 11 12 -6z m-1887 -5 c0 -5 -4 -10 -10 -10 -5 0 -10 5 -10
10 0 6 5 10 10 10 6 0 10 -4 10 -10z m1874 -42 c-5 -7 -8 -22 -7 -33 1 -16 1
-16 -3 -2 -3 9 -10 17 -15 17 -5 0 -9 7 -9 16 0 10 6 14 15 10 8 -3 15 0 15 6
0 6 3 9 6 5 3 -3 2 -12 -2 -19z m64 -15 c17 -16 15 -28 -2 -14 -12 10 -14 5
-10 -29 2 -22 0 -40 -5 -40 -10 0 -23 59 -15 71 3 5 -2 9 -11 9 -9 0 -14 4
-11 9 8 12 38 9 54 -6z m-2118 -23 c0 -5 -2 -10 -4 -10 -3 0 -8 5 -11 10 -3 6
-1 10 4 10 6 0 11 -4 11 -10z m-28 -16 c-2 -10 -77 -13 -102 -5 -22 8 28 19
70 16 19 -2 34 -7 32 -11z m153 8 c6 -4 16 -19 23 -35 l12 -27 -30 22 c-17 12
-30 28 -30 35 0 14 10 17 25 5z m-111 -28 c3 -8 2 -12 -4 -9 -6 3 -10 10 -10
16 0 14 7 11 14 -7z m2047 1 c5 4 6 -1 2 -10 -5 -13 -7 -14 -14 -3 -5 7 -8 18
-8 23 0 6 3 4 6 -3 2 -6 9 -10 14 -7z m-2140 -15 c5 0 9 -4 9 -10 0 -5 -8 -10
-17 -10 -15 0 -16 -2 -3 -10 12 -8 10 -10 -10 -11 -14 -1 -30 -2 -36 -2 -6 0
-9 -9 -7 -21 6 -30 63 -36 63 -7 0 11 9 23 20 26 11 3 20 14 21 23 0 14 2 13
9 -3 5 -11 9 -14 9 -7 1 17 28 15 35 -3 9 -25 29 -17 24 10 -6 29 15 35 31 8
9 -16 10 -16 11 5 0 19 2 21 19 10 26 -16 34 -69 13 -86 -11 -8 -19 -9 -26 -2
-15 15 -29 12 -22 -6 5 -12 1 -14 -15 -9 -16 5 -20 3 -17 -6 3 -8 15 -13 27
-12 27 3 27 -14 0 -22 -13 -5 -25 -2 -31 6 -6 10 -7 7 -3 -9 5 -19 2 -25 -15
-29 -16 -4 -18 -8 -9 -14 8 -4 18 -1 26 9 11 16 12 16 13 -2 0 -17 2 -17 20 4
11 13 20 19 20 14 0 -5 4 -3 9 5 6 9 9 5 9 -13 0 -14 -4 -26 -9 -26 -5 0 -9 5
-9 11 0 5 -5 7 -10 4 -6 -4 -8 -16 -5 -28 2 -12 2 -16 -1 -9 -7 15 -44 16 -44
1 0 -6 7 -8 16 -5 8 3 13 2 9 -3 -3 -5 1 -11 7 -13 7 -3 1 -7 -14 -10 -15 -3
-25 -1 -22 3 3 5 -2 6 -10 3 -9 -3 -16 -13 -16 -21 0 -8 -4 -12 -9 -8 -5 3
-13 0 -17 -6 -4 -8 -3 -9 4 -5 16 10 15 -5 -2 -26 -7 -10 -16 -15 -19 -12 -3
3 -5 -7 -5 -22 1 -56 -2 -64 -22 -64 -13 0 -20 -7 -20 -20 0 -11 -5 -20 -12
-20 -9 0 -9 -3 0 -12 19 -19 14 -38 -9 -38 -11 0 -18 -4 -14 -9 3 -5 -2 -16
-11 -25 -8 -9 -12 -21 -8 -27 4 -8 3 -9 -4 -5 -8 4 -12 0 -12 -10 0 -14 -3
-15 -12 -6 -16 16 -47 15 -54 -2 -3 -8 -1 -24 5 -35 9 -17 9 -20 -3 -15 -8 3
-24 0 -36 -6 -12 -6 -25 -8 -28 -4 -4 4 -1 9 6 11 16 6 -3 33 -24 33 -8 0 -14
9 -14 20 0 11 5 20 10 20 6 0 10 -5 10 -11 0 -6 6 -9 13 -6 6 2 20 0 31 -5 12
-7 16 -7 12 0 -3 6 -2 13 4 17 15 10 12 32 -5 32 -10 0 -13 -6 -9 -19 3 -10 1
-18 -5 -18 -6 0 -11 4 -11 10 0 5 -7 7 -16 3 -14 -5 -16 -2 -10 21 6 25 5 26
-13 16 -17 -9 -19 -7 -16 10 2 11 0 18 -5 15 -18 -11 -50 -14 -50 -4 0 5 9 9
19 9 11 0 23 5 26 10 3 6 -3 10 -14 10 -26 0 -27 18 -3 36 13 11 14 15 4 22
-18 12 11 36 36 30 25 -7 46 26 33 51 -6 10 -8 20 -6 23 8 8 -43 97 -75 131
-20 21 -30 42 -30 63 0 17 -2 44 -5 60 -7 39 8 63 32 48 10 -5 36 -21 57 -34
22 -13 36 -19 32 -12 -4 7 4 5 21 -3 15 -8 35 -15 43 -15 8 0 24 -7 34 -15 21
-16 36 -11 36 11 0 10 -7 13 -25 8 -16 -4 -25 -2 -25 6 0 6 8 14 19 17 13 3
17 11 14 24 -6 20 20 28 32 9 3 -5 12 -10 18 -9 9 0 8 2 -1 6 -6 2 -9 9 -6 15
3 5 13 7 21 4 8 -3 19 -6 24 -6z m2149 -41 c6 11 10 9 19 -8 8 -14 8 -21 1
-21 -5 0 -10 5 -10 11 0 8 -5 8 -15 -1 -9 -8 -15 -8 -15 -2 0 6 -9 14 -20 17
-11 4 -18 11 -14 16 4 6 14 3 26 -7 16 -15 21 -16 28 -5z m43 6 c-3 -9 -8 -14
-10 -11 -3 3 -2 9 2 15 9 16 15 13 8 -4z m23 -12 c-2 -10 1 -21 6 -24 5 -3 2
-9 -6 -12 -13 -5 -16 -1 -12 21 5 33 5 32 10 32 2 0 3 -8 2 -17z m-2226 -7 c0
-11 -19 -15 -25 -6 -3 5 1 10 9 10 9 0 16 -2 16 -4z m2138 -70 c3 -12 -1 -17
-10 -14 -7 3 -15 13 -16 22 -3 12 1 17 10 14 7 -3 15 -13 16 -22z m62 -47 c0
-6 -4 -7 -10 -4 -5 3 -10 11 -10 16 0 6 5 7 10 4 6 -3 10 -11 10 -16z m-65
-39 c3 -5 1 -10 -4 -10 -6 0 -11 5 -11 10 0 6 2 10 4 10 3 0 8 -4 11 -10z
m-2423 -34 c13 -19 9 -26 -14 -22 -13 3 -25 5 -28 6 -3 2 -9 2 -13 1 -4 -1 -3
8 3 18 11 21 37 19 52 -3z m2474 -18 c-10 -6 -22 -6 -26 -2 -5 5 3 10 18 11
22 1 24 0 8 -9z m-66 -2 c0 -3 -4 -8 -10 -11 -5 -3 -10 -1 -10 4 0 6 5 11 10
11 6 0 10 -2 10 -4z m67 -22 c-3 -3 -12 -4 -19 -1 -8 3 -5 6 6 6 11 1 17 -2
13 -5z m-27 -19 c0 -2 -14 -3 -31 -3 -17 1 -25 4 -18 8 10 7 49 2 49 -5z m-50
-41 c0 -8 -4 -12 -10 -9 -5 3 -10 -2 -10 -12 0 -15 -2 -16 -10 -3 -12 19 -13
33 -1 25 5 -3 12 -1 16 5 9 15 15 12 15 -6z m93 -11 c-3 -7 -9 -10 -14 -7 -14
8 -11 21 5 21 8 0 12 -6 9 -14z m-76 -15 c-3 -8 -6 -5 -6 6 -1 11 2 17 5 13 3
-3 4 -12 1 -19z m103 -2 c0 -2 -7 -7 -16 -10 -8 -3 -12 -2 -9 4 6 10 25 14 25
6z m-50 -36 c8 -5 11 -10 5 -10 -5 0 -17 5 -25 10 -8 5 -10 10 -5 10 6 0 17
-5 25 -10z m-60 -20 c0 -5 -5 -10 -11 -10 -5 0 -7 5 -4 10 3 6 8 10 11 10 2 0
4 -4 4 -10z m-70 -20 c0 -5 -2 -10 -4 -10 -3 0 -8 5 -11 10 -3 6 -1 10 4 10 6
0 11 -4 11 -10z m-2040 -10 c0 -5 -4 -10 -10 -10 -5 0 -10 5 -10 10 0 6 5 10
10 10 6 0 10 -4 10 -10z m2087 -12 c-3 -8 -6 -5 -6 6 -1 11 2 17 5 13 3 -3 4
-12 1 -19z m93 -19 c0 -6 -4 -7 -10 -4 -5 3 -10 11 -10 16 0 6 5 7 10 4 6 -3
10 -11 10 -16z m-106 -14 c-4 -8 -10 -12 -15 -9 -14 8 -10 24 6 24 9 0 12 -6
9 -15z m76 -6 c0 -5 -6 -9 -12 -9 -9 0 -8 -4 2 -10 13 -9 13 -10 0 -10 -13 0
-13 -1 0 -11 13 -9 13 -10 0 -6 -8 2 -15 10 -15 18 -1 8 -6 13 -13 12 -7 -2
-12 2 -12 8 0 5 -5 7 -12 3 -7 -4 -8 -3 -4 4 5 9 13 9 28 1 18 -10 20 -9 15 4
-4 11 -2 14 9 10 7 -3 14 -9 14 -14z m-2170 -9 c0 -5 -5 -10 -11 -10 -6 0 -9
-7 -5 -15 3 -8 1 -15 -4 -15 -11 0 -14 33 -3 43 10 10 23 8 23 -3z m2083 -17
c-7 -2 -13 -9 -13 -14 0 -6 4 -8 9 -5 5 3 11 -7 14 -22 4 -22 3 -24 -6 -10
-10 15 -12 15 -27 -1 -13 -16 -17 -16 -28 -5 -13 14 -5 19 21 15 4 0 7 4 7 9
0 6 -6 10 -12 10 -8 0 -5 7 6 15 11 8 25 15 30 14 6 0 5 -3 -1 -6z m-2349 -12
c4 -5 2 -11 -3 -13 -6 -2 -7 -17 -2 -40 8 -36 7 -38 -15 -38 -13 0 -24 6 -25
13 0 10 -2 10 -6 0 -2 -7 -11 -13 -20 -13 -23 0 -9 25 16 28 14 2 21 9 17 17
-3 9 0 12 8 9 10 -4 12 2 9 20 -5 25 10 36 21 17z m-80 -39 c3 -5 -1 -9 -9 -9
-8 0 -15 4 -15 9 0 4 4 8 9 8 6 0 12 -4 15 -8z m240 -1 c3 -5 -1 -11 -9 -15
-9 -3 -15 0 -15 9 0 16 16 20 24 6z m2201 -40 c3 -5 1 -12 -5 -16 -5 -3 -10 1
-10 9 0 18 6 21 15 7z m-95 -37 c0 -8 -5 -12 -10 -9 -6 4 -8 11 -5 16 9 14 15
11 15 -7z m67 10 c-3 -3 -12 -4 -19 -1 -8 3 -5 6 6 6 11 1 17 -2 13 -5z m-4
-44 c-3 -11 -9 -23 -14 -26 -5 -3 -6 2 -3 10 7 19 0 20 -27 6 -29 -16 -23 3 8
22 32 19 43 16 36 -12z m27 -19 c7 -14 7 -22 -2 -27 -6 -4 -8 -3 -4 4 3 6 2
13 -4 17 -10 6 -14 25 -5 25 2 0 9 -9 15 -19z m-2150 -37 c0 -3 -10 -3 -22 0
-13 3 -17 3 -10 0 17 -8 15 -24 -3 -24 -8 0 -15 -5 -15 -12 0 -6 -2 -9 -5 -6
-3 2 0 19 6 36 9 27 14 30 30 22 10 -6 19 -13 19 -16z m-176 -8 c-8 -20 -34
-21 -34 0 0 8 4 13 9 9 5 -3 13 0 16 6 10 15 17 5 9 -15z m2296 -22 c0 -3 -7
0 -16 7 -14 11 -18 10 -30 -6 -8 -10 -14 -14 -14 -8 0 7 7 19 16 27 13 14 17
14 30 2 8 -8 14 -18 14 -22z m35 10 c13 -5 14 -8 3 -15 -19 -13 -28 -11 -28 6
0 17 2 18 25 9z m-111 -76 c-3 -5 -12 -2 -20 6 -20 21 -17 28 5 14 11 -7 17
-16 15 -20z m65 29 c-2 -1 -13 -9 -24 -17 -19 -14 -19 -14 -6 3 7 9 18 17 24
17 6 0 8 -1 6 -3z m-2259 -37 c0 -5 -7 -10 -16 -10 -8 0 -12 5 -9 10 3 6 10
10 16 10 5 0 9 -4 9 -10z m2270 4 c0 -8 -19 -13 -24 -6 -3 5 1 9 9 9 8 0 15
-2 15 -3z m-40 -8 c0 -2 -7 -7 -16 -10 -8 -3 -12 -2 -9 4 6 10 25 14 25 6z
m-2215 -36 c-10 -11 -22 -17 -27 -14 -5 3 -1 12 9 20 27 20 39 17 18 -6z
m2195 -6 c0 -8 -4 -12 -10 -9 -5 3 -10 10 -10 16 0 5 5 9 10 9 6 0 10 -7 10
-16z m100 1 c0 -8 -4 -15 -10 -15 -5 0 -7 7 -4 15 4 8 8 15 10 15 2 0 4 -7 4
-15z m-100 -41 c0 -2 -7 -4 -15 -4 -8 0 -15 4 -15 10 0 5 7 7 15 4 8 -4 15 -8
15 -10z m-105 -24 c3 -5 1 -10 -4 -10 -6 0 -11 5 -11 10 0 6 2 10 4 10 3 0 8
-4 11 -10z m-17 -20 c12 -1 10 -5 -8 -15 -14 -8 -20 -14 -15 -15 6 0 15 -11
21 -24 9 -20 9 -23 -2 -19 -8 3 -14 11 -14 18 0 7 -8 16 -17 20 -17 6 -17 7
-1 16 9 5 16 15 14 22 -1 6 -1 9 1 5 3 -5 12 -8 21 -8z m82 3 c10 9 11 9 6 0
-5 -8 -1 -13 9 -13 9 0 13 4 10 10 -4 6 1 7 11 3 14 -5 14 -7 -5 -18 -12 -6
-18 -14 -14 -19 4 -4 0 -4 -9 -1 -9 4 -18 0 -21 -9 -5 -12 -12 -13 -37 -5 -16
6 -30 15 -30 21 0 5 4 7 9 4 10 -6 26 23 22 39 -1 5 6 2 16 -8 15 -13 22 -14
33 -4z m67 -39 c-3 -3 -12 -4 -19 -1 -8 3 -5 6 6 6 11 1 17 -2 13 -5z m-7 -18
c0 -2 -7 -6 -15 -10 -8 -3 -15 -1 -15 4 0 6 7 10 15 10 8 0 15 -2 15 -4z m-90
-36 c0 -5 -2 -10 -4 -10 -3 0 -8 5 -11 10 -3 6 -1 10 4 10 6 0 11 -4 11 -10z
m-90 -100 c0 -5 -5 -10 -11 -10 -5 0 -7 5 -4 10 3 6 8 10 11 10 2 0 4 -4 4
-10z m90 0 c0 -5 -2 -10 -4 -10 -3 0 -8 5 -11 10 -3 6 -1 10 4 10 6 0 11 -4
11 -10z m-100 -30 c0 -5 -2 -10 -4 -10 -3 0 -8 5 -11 10 -3 6 -1 10 4 10 6 0
11 -4 11 -10z m67 -18 c1 -10 -7 -29 -18 -42 -10 -14 -19 -20 -19 -14 0 6 7
17 15 24 18 15 20 34 3 24 -9 -5 -9 -2 1 9 17 21 16 21 18 -1z m-50 -24 c-3
-7 -5 -2 -5 12 0 14 2 19 5 13 2 -7 2 -19 0 -25z m-20 -20 c-3 -8 -6 -5 -6 6
-1 11 2 17 5 13 3 -3 4 -12 1 -19z m-40 -23 c0 -8 -4 -15 -9 -15 -10 0 -11 14
-1 23 9 10 10 9 10 -8z m20 -17 c-3 -8 -6 -5 -6 6 -1 11 2 17 5 13 3 -3 4 -12
1 -19z m58 -25 c-1 -16 4 -34 9 -42 10 -12 8 -12 -12 0 -12 8 -18 15 -12 17 6
2 7 8 4 13 -5 9 1 39 9 39 1 0 2 -12 2 -27z m-71 -38 c11 -9 14 -15 7 -15 -7
0 -19 7 -27 15 -20 19 -5 19 20 0z m-10 -40 c3 -8 1 -17 -3 -20 -5 -3 -11 2
-15 10 -3 9 -12 12 -23 8 -16 -6 -16 -5 -5 10 15 17 37 13 46 -8z m66 15 c0
-5 -5 -10 -11 -10 -5 0 -7 5 -4 10 3 6 8 10 11 10 2 0 4 -4 4 -10z m-160 -15
c-9 -11 -9 -15 -1 -15 7 0 9 -4 6 -10 -3 -5 -16 -9 -28 -9 -17 1 -18 2 -4 6 9
2 15 9 12 14 -8 11 3 29 17 29 7 0 6 -6 -2 -15z m25 -45 c3 -5 1 -10 -4 -10
-6 0 -11 5 -11 10 0 6 2 10 4 10 3 0 8 -4 11 -10z m-25 -4 c0 -2 -9 -6 -20 -9
-11 -3 -20 -1 -20 4 0 5 9 9 20 9 11 0 20 -2 20 -4z m-1810 -13 c0 -5 -7 -16
-14 -26 -13 -17 -14 -16 -12 7 0 15 7 26 14 26 6 0 12 -3 12 -7z m1984 -19 c3
-8 2 -12 -4 -9 -6 3 -10 10 -10 16 0 14 7 11 14 -7z m-144 -8 c0 -3 -4 -8 -10
-11 -5 -3 -10 -1 -10 4 0 6 5 11 10 11 6 0 10 -2 10 -4z m13 -81 c-3 -9 -8
-14 -10 -11 -3 3 -2 9 2 15 9 16 15 13 8 -4z m-133 -115 c0 -5 -4 -10 -10 -10
-5 0 -10 5 -10 10 0 6 5 10 10 10 6 0 10 -4 10 -10z m-790 -360 c0 -5 -2 -10
-4 -10 -3 0 -8 5 -11 10 -3 6 -1 10 4 10 6 0 11 -4 11 -10z m-469 -73 c-8 -8
-11 -1 -11 24 0 46 14 60 18 19 2 -18 -1 -37 -7 -43z m-111 -43 c0 -8 -4 -12
-10 -9 -5 3 -10 10 -10 16 0 5 5 9 10 9 6 0 10 -7 10 -16z m1010 7 c0 -6 -4
-13 -10 -16 -5 -3 -10 1 -10 9 0 9 5 16 10 16 6 0 10 -4 10 -9z m-930 -11 c0
-5 -4 -10 -10 -10 -5 0 -10 5 -10 10 0 6 5 10 10 10 6 0 10 -4 10 -10z m50 0
c-19 -13 -30 -13 -30 0 0 6 10 10 23 10 18 0 19 -2 7 -10z"/>
<path d="M3950 1830 c0 -5 5 -10 11 -10 5 0 7 5 4 10 -3 6 -8 10 -11 10 -2 0
-4 -4 -4 -10z"/>
<path d="M3746 1791 c-4 -5 3 -7 14 -4 23 6 26 13 6 13 -8 0 -17 -4 -20 -9z"/>
<path d="M3850 1659 c0 -5 5 -7 10 -4 6 3 10 8 10 11 0 2 -4 4 -10 4 -5 0 -10
-5 -10 -11z"/>
<path d="M5856 1211 c-4 -6 -1 -11 6 -12 7 0 4 -4 -7 -9 -20 -8 -19 -9 1 -9
12 -1 28 7 35 16 12 14 12 15 0 9 -8 -5 -16 -4 -21 4 -5 9 -9 9 -14 1z"/>
<path d="M5065 4169 c-4 -6 -5 -12 -2 -15 2 -3 7 2 10 11 7 17 1 20 -8 4z"/>
<path d="M1845 4162 c-12 -9 -16 -44 -4 -36 5 3 9 11 9 19 0 7 6 16 13 18 6 3
8 6 2 6 -5 0 -14 -3 -20 -7z"/>
<path d="M1747 4125 c-4 -8 -3 -16 1 -19 4 -3 9 4 9 15 2 23 -3 25 -10 4z"/>
<path d="M1785 4130 c-3 -5 -1 -10 4 -10 6 0 11 5 11 10 0 6 -2 10 -4 10 -3 0
-8 -4 -11 -10z"/>
<path d="M5220 4132 c0 -6 -6 -9 -14 -6 -16 6 -31 -12 -18 -20 12 -7 49 21 39
30 -4 4 -7 2 -7 -4z"/>
<path d="M5096 4115 c-3 -8 -1 -15 4 -15 6 0 10 7 10 15 0 8 -2 15 -4 15 -2 0
-6 -7 -10 -15z"/>
<path d="M1770 4100 c0 -5 5 -10 10 -10 6 0 10 5 10 10 0 6 -4 10 -10 10 -5 0
-10 -4 -10 -10z"/>
<path d="M5196 4075 c-3 -8 -1 -15 4 -15 6 0 10 7 10 15 0 8 -2 15 -4 15 -2 0
-6 -7 -10 -15z"/>
<path d="M1728 4073 c6 -2 10 -9 7 -13 -3 -5 0 -12 6 -16 8 -4 9 -3 5 4 -4 7
-1 12 6 12 9 0 9 3 -2 10 -8 5 -19 9 -25 9 -5 0 -4 -3 3 -6z"/>
<path d="M5153 4065 c0 -8 4 -12 9 -9 5 3 6 10 3 15 -9 13 -12 11 -12 -6z"/>
<path d="M5235 4070 c-7 -11 14 -55 22 -46 3 3 0 12 -6 20 -7 8 -10 20 -6 26
3 5 4 10 1 10 -3 0 -8 -4 -11 -10z"/>
<path d="M5277 4072 c-12 -2 -16 -9 -13 -19 3 -8 6 -23 6 -34 0 -10 4 -19 9
-19 6 0 6 12 1 30 -5 17 -5 28 -1 26 4 -3 13 -1 20 3 16 11 2 19 -22 13z"/>
<path d="M5304 4045 c-18 -15 -18 -15 0 -8 17 6 18 3 13 -25 -4 -18 -3 -32 2
-32 13 0 20 36 10 51 -5 8 -3 17 4 21 7 5 8 8 1 8 -5 0 -19 -7 -30 -15z"/>
<path d="M1715 4030 c3 -5 11 -10 16 -10 6 0 7 5 4 10 -3 6 -11 10 -16 10 -6
0 -7 -4 -4 -10z"/>
<path d="M1623 4015 c0 -7 6 -12 13 -12 7 0 11 4 8 8 -2 4 2 9 8 12 7 3 4 5
-8 4 -11 -1 -21 -6 -21 -12z"/>
<path d="M1656 3993 c-6 -14 -5 -15 5 -6 7 7 10 15 7 18 -3 3 -9 -2 -12 -12z"/>
<path d="M1600 3980 c-9 -6 -10 -10 -3 -10 6 0 15 5 18 10 8 12 4 12 -15 0z"/>
<path d="M5340 3971 c0 -6 4 -13 10 -16 6 -3 7 1 4 9 -7 18 -14 21 -14 7z"/>
<path d="M1537 3963 c-26 -7 -14 -28 14 -25 22 2 23 2 7 -11 -10 -8 -18 -18
-18 -22 0 -4 -8 -13 -17 -20 -9 -7 -18 -24 -18 -38 -1 -19 2 -23 17 -19 10 2
20 8 23 12 3 5 -4 6 -16 3 -19 -5 -20 -4 -10 16 7 11 15 21 20 21 4 0 14 11
21 25 7 14 19 25 25 25 7 0 19 8 26 18 11 14 11 15 -1 5 -8 -7 -21 -13 -29
-13 -13 0 -13 2 -3 9 11 7 10 10 -3 15 -9 3 -17 5 -18 5 -1 -1 -10 -3 -20 -6z"/>
<path d="M5190 3959 c0 -5 5 -7 10 -4 6 3 10 8 10 11 0 2 -4 4 -10 4 -5 0 -10
-5 -10 -11z"/>
<path d="M5220 3956 c0 -2 7 -7 16 -10 8 -3 12 -2 9 4 -6 10 -25 14 -25 6z"/>
<path d="M5267 3943 c3 -7 6 -13 8 -13 1 0 7 6 13 13 8 10 6 13 -7 13 -11 0
-17 -6 -14 -13z"/>
<path d="M5315 3950 c3 -5 8 -10 11 -10 2 0 4 5 4 10 0 6 -5 10 -11 10 -5 0
-7 -4 -4 -10z"/>
<path d="M1650 3941 c0 -5 5 -13 10 -16 6 -3 10 -2 10 4 0 5 -4 13 -10 16 -5
3 -10 2 -10 -4z"/>
<path d="M5380 3912 c0 -5 7 -15 15 -22 8 -7 15 -9 15 -6 0 4 -7 14 -15 22 -8
9 -15 11 -15 6z"/>
<path d="M1615 3890 c-3 -5 -1 -10 4 -10 6 0 11 5 11 10 0 6 -2 10 -4 10 -3 0
-8 -4 -11 -10z"/>
<path d="M5313 3867 c-4 -6 -1 -7 7 -2 10 6 12 4 7 -8 -9 -23 0 -22 12 1 8 14
6 19 -5 19 -8 0 -18 -5 -21 -10z"/>
<path d="M5355 3861 c-3 -5 -1 -12 4 -15 5 -3 11 1 15 9 6 16 -9 21 -19 6z"/>
<path d="M5385 3850 c-3 -5 -1 -10 4 -10 6 0 11 5 11 10 0 6 -2 10 -4 10 -3 0
-8 -4 -11 -10z"/>
<path d="M1576 3828 c3 -5 10 -6 15 -3 13 9 11 12 -6 12 -8 0 -12 -4 -9 -9z"/>
<path d="M1539 3813 c-13 -16 -12 -17 4 -4 9 7 17 15 17 17 0 8 -8 3 -21 -13z"/>
<path d="M5357 3819 c7 -7 15 -10 18 -7 3 3 -2 9 -12 12 -14 6 -15 5 -6 -5z"/>
<path d="M1420 3744 c0 -27 -1 -27 -16 -8 -8 10 -13 13 -9 7 3 -7 1 -13 -5
-13 -6 0 -8 -5 -5 -10 4 -6 10 -8 15 -5 4 3 10 0 12 -7 3 -7 10 2 16 20 6 19
7 34 1 37 -5 4 -9 -6 -9 -21z"/>
<path d="M5477 3763 c-10 -9 -9 -23 2 -23 5 0 11 7 15 15 5 15 -5 20 -17 8z"/>
<path d="M5536 3761 c-26 -5 -28 -7 -13 -20 14 -11 17 -11 17 0 0 11 2 11 10
-1 8 -12 10 -12 10 -1 0 8 8 4 21 -10 11 -13 18 -18 14 -11 -3 6 -1 12 4 12 6
0 11 5 11 11 0 8 -5 7 -16 -2 -13 -11 -15 -10 -12 6 4 21 -6 25 -46 16z"/>
<path d="M1530 3751 c0 -6 4 -13 10 -16 6 -3 7 1 4 9 -7 18 -14 21 -14 7z"/>
<path d="M5482 3716 c4 -5 3 -18 -3 -30 -9 -18 -8 -19 3 -5 7 9 20 14 28 11
16 -5 15 -3 -15 18 -11 8 -17 11 -13 6z"/>
<path d="M1310 3707 c0 -2 9 -14 20 -27 22 -25 26 -20 10 11 -9 16 -30 27 -30
16z"/>
<path d="M5442 3669 c-1 -37 5 -35 12 4 2 15 1 27 -3 27 -4 0 -8 -14 -9 -31z"/>
<path d="M5531 3683 c-1 -24 13 -31 25 -11 4 6 3 8 -4 4 -6 -3 -13 2 -15 11
-4 14 -5 13 -6 -4z"/>
<path d="M5577 3693 c-10 -9 -9 -23 2 -23 5 0 11 7 15 15 5 15 -5 20 -17 8z"/>
<path d="M5570 3651 c0 -5 5 -13 10 -16 6 -3 10 -2 10 4 0 5 -4 13 -10 16 -5
3 -10 2 -10 -4z"/>
<path d="M5520 3629 c0 -5 5 -7 10 -4 6 3 10 8 10 11 0 2 -4 4 -10 4 -5 0 -10
-5 -10 -11z"/>
<path d="M1478 3623 c7 -3 16 -2 19 1 4 3 -2 6 -13 5 -11 0 -14 -3 -6 -6z"/>
<path d="M5540 3615 c-7 -9 -8 -15 -2 -15 5 0 12 7 16 15 3 8 4 15 2 15 -2 0
-9 -7 -16 -15z"/>
<path d="M1310 3589 c0 -11 4 -18 10 -14 5 3 7 12 3 20 -7 21 -13 19 -13 -6z"/>
<path d="M5635 3599 c3 -4 -3 -10 -12 -12 -10 -2 -4 -3 12 -1 17 1 24 0 18 -3
-19 -7 -16 -26 3 -19 12 5 15 2 10 -10 -3 -9 -9 -28 -12 -42 -4 -21 -3 -24 5
-11 6 9 13 34 15 56 5 37 3 41 -19 45 -13 3 -22 2 -20 -3z"/>
<path d="M5446 3592 c-3 -5 1 -9 9 -9 8 0 12 4 9 9 -3 4 -7 8 -9 8 -2 0 -6 -4
-9 -8z"/>
<path d="M1355 3580 c-3 -6 1 -7 9 -4 18 7 21 14 7 14 -6 0 -13 -4 -16 -10z"/>
<path d="M5566 3568 c3 -5 10 -6 15 -3 13 9 11 12 -6 12 -8 0 -12 -4 -9 -9z"/>
<path d="M5593 3558 c-11 -14 -14 -52 -4 -42 3 3 7 10 7 15 1 5 2 13 3 18 0 5
9 12 19 14 14 4 14 5 1 6 -9 0 -21 -5 -26 -11z"/>
<path d="M1285 3550 c-3 -5 -1 -10 4 -10 6 0 11 5 11 10 0 6 -2 10 -4 10 -3 0
-8 -4 -11 -10z"/>
<path d="M1220 3542 c0 -5 7 -13 16 -16 10 -4 14 -1 12 6 -5 15 -28 23 -28 10z"/>
<path d="M1315 3510 c3 -5 8 -10 11 -10 2 0 4 5 4 10 0 6 -5 10 -11 10 -5 0
-7 -4 -4 -10z"/>
<path d="M1173 3492 c0 -10 7 -19 13 -19 9 0 10 5 3 19 -5 10 -12 18 -14 18
-2 0 -3 -8 -2 -18z"/>
<path d="M5707 3485 c-4 -8 -14 -15 -22 -15 -9 0 -14 -4 -10 -9 3 -5 -3 -12
-12 -14 -14 -4 -14 -5 -2 -6 8 0 24 7 35 17 11 10 26 17 34 15 9 -3 11 -1 5 4
-5 4 -13 12 -16 16 -4 4 -9 1 -12 -8z"/>
<path d="M5610 3470 c0 -5 5 -10 10 -10 6 0 10 5 10 10 0 6 -4 10 -10 10 -5 0
-10 -4 -10 -10z"/>
<path d="M5700 3441 c0 -6 4 -13 10 -16 6 -3 7 1 4 9 -7 18 -14 21 -14 7z"/>
<path d="M1156 3431 c-4 -6 0 -14 8 -17 9 -3 16 -16 16 -28 0 -16 2 -18 9 -7
5 8 16 11 26 8 9 -4 14 -3 10 3 -3 6 -13 10 -20 10 -9 0 -12 6 -8 17 5 11 3
14 -6 8 -8 -4 -16 -2 -21 5 -5 9 -9 9 -14 1z"/>
<path d="M5743 3433 c-19 -7 -15 -24 5 -21 12 2 17 -4 17 -22 0 -32 -25 -33
-41 -3 -6 13 -14 20 -17 17 -3 -4 -2 -15 3 -25 6 -9 8 -24 5 -31 -3 -8 3 -24
14 -37 19 -22 20 -22 18 -2 -1 12 -7 21 -15 21 -7 0 -12 5 -10 11 2 6 7 10 11
10 4 -1 14 -1 23 -1 11 0 14 -6 10 -22 -3 -13 -3 -17 0 -10 3 6 10 10 15 6 5
-3 9 2 9 10 0 9 -4 16 -10 16 -5 0 -10 5 -10 11 0 5 5 7 11 3 7 -4 9 1 5 15
-3 11 -9 30 -12 41 -5 20 -10 22 -31 13z"/>
<path d="M5635 3420 c3 -5 8 -10 11 -10 2 0 4 5 4 10 0 6 -5 10 -11 10 -5 0
-7 -4 -4 -10z"/>
<path d="M5741 3397 c-6 -8 -8 -17 -4 -20 11 -12 19 -7 20 13 2 24 -1 25 -16
7z"/>
<path d="M5650 3380 c0 -5 5 -10 11 -10 5 0 7 5 4 10 -3 6 -8 10 -11 10 -2 0
-4 -4 -4 -10z"/>
<path d="M1069 3343 c-10 -2 -16 -14 -16 -30 0 -14 3 -20 7 -14 4 7 13 11 21
9 8 -2 15 7 17 20 3 22 1 23 -29 15z"/>
<path d="M1190 3330 c-18 -12 -2 -12 25 0 13 6 15 9 5 9 -8 0 -22 -4 -30 -9z"/>
<path d="M2970 3330 c0 -5 7 -10 16 -10 8 0 12 5 9 10 -3 6 -10 10 -16 10 -5
0 -9 -4 -9 -10z"/>
<path d="M1121 3316 c-9 -11 -9 -16 0 -22 7 -4 9 -3 5 4 -3 6 2 12 11 14 12 2
14 6 7 11 -7 4 -17 0 -23 -7z"/>
<path d="M3002 3313 c-19 -8 -4 -22 18 -16 11 3 17 9 14 14 -6 10 -12 10 -32
2z"/>
<path d="M5680 3310 c-8 -5 -10 -10 -5 -10 6 0 17 5 25 10 8 5 11 10 5 10 -5
0 -17 -5 -25 -10z"/>
<path d="M5690 3280 c0 -5 5 -10 11 -10 5 0 7 5 4 10 -3 6 -8 10 -11 10 -2 0
-4 -4 -4 -10z"/>
<path d="M1107 3260 c3 -11 7 -20 9 -20 2 0 4 9 4 20 0 11 -4 20 -9 20 -5 0
-7 -9 -4 -20z"/>
<path d="M1139 3262 c12 -23 13 -23 26 -5 7 10 11 20 8 23 -3 3 -8 -1 -10 -8
-4 -10 -8 -10 -21 0 -14 12 -14 10 -3 -10z"/>
<path d="M5777 3267 c-5 -13 9 -16 33 -7 3 1 14 2 25 1 16 -1 15 1 -5 10 -18
7 -26 7 -29 -2 -2 -8 -5 -8 -11 1 -5 9 -9 8 -13 -3z"/>
<path d="M3160 3260 c-8 -5 -12 -11 -9 -14 2 -3 11 -1 19 4 8 5 12 11 9 14 -2
3 -11 1 -19 -4z"/>
<path d="M1186 3233 c-6 -14 -5 -15 5 -6 7 7 10 15 7 18 -3 3 -9 -2 -12 -12z"/>
<path d="M5753 3239 c9 -6 14 -16 11 -22 -5 -8 -2 -7 7 1 12 11 12 14 -1 22
-8 5 -19 10 -25 10 -5 -1 -2 -5 8 -11z"/>
<path d="M5676 3217 c3 -10 9 -15 12 -12 3 3 0 11 -7 18 -10 9 -11 8 -5 -6z"/>
<path d="M1060 3188 c0 -15 5 -30 10 -33 6 -4 8 -10 5 -15 -3 -5 0 -12 6 -16
8 -4 9 3 4 27 -11 50 -24 71 -25 37z"/>
<path d="M5815 3124 c8 -6 15 -16 15 -23 0 -6 5 -11 12 -11 6 0 9 -2 6 -5 -8
-8 -39 6 -33 15 3 4 -5 10 -16 13 -12 3 -18 3 -15 0 3 -3 1 -14 -4 -24 -7 -12
-7 -20 0 -24 6 -4 10 -3 9 2 -5 31 3 37 21 15 14 -17 18 -32 13 -54 -5 -23 -3
-29 6 -23 8 4 11 20 9 36 -3 16 -1 29 4 29 4 0 8 -7 8 -15 0 -8 8 -15 18 -14
10 0 12 3 5 6 -7 2 -13 15 -13 28 0 13 -6 26 -12 29 -10 5 -10 7 0 12 22 10
12 22 -18 20 -25 -1 -28 -3 -15 -12z"/>
<path d="M1063 3016 c0 -8 6 -12 14 -9 7 3 10 9 7 14 -8 14 -21 11 -21 -5z"/>
<path d="M1071 2971 c-7 -5 -9 -11 -5 -14 5 -3 15 1 22 9 14 16 5 18 -17 5z"/>
<path d="M5844 2964 c-19 -15 -19 -15 1 -6 11 5 27 12 35 15 13 5 13 6 -1 6
-8 1 -24 -6 -35 -15z"/>
<path d="M5765 2960 c-3 -6 1 -7 9 -4 18 7 21 14 7 14 -6 0 -13 -4 -16 -10z"/>
<path d="M906 2923 c-6 -14 -5 -15 5 -6 7 7 10 15 7 18 -3 3 -9 -2 -12 -12z"/>
<path d="M1075 2910 c3 -5 8 -10 11 -10 2 0 4 5 4 10 0 6 -5 10 -11 10 -5 0
-7 -4 -4 -10z"/>
<path d="M5852 2915 c4 -4 3 -14 -3 -22 -9 -10 -8 -13 1 -13 7 0 10 -7 6 -16
-3 -8 -2 -13 3 -10 12 8 10 55 -3 63 -6 3 -8 3 -4 -2z"/>
<path d="M5906 2898 c1 -13 3 -26 3 -29 2 -13 45 -3 49 11 3 12 2 12 -8 3 -18
-16 -39 -5 -33 18 3 10 1 19 -4 19 -5 0 -9 -10 -7 -22z"/>
<path d="M1030 2899 c0 -5 5 -7 10 -4 6 4 19 1 28 -7 15 -12 16 -11 3 5 -15
19 -41 23 -41 6z"/>
<path d="M1043 2867 c0 -8 6 -14 14 -14 9 0 10 4 2 14 -6 7 -12 13 -14 13 -1
0 -2 -6 -2 -13z"/>
<path d="M5804 2868 c-4 -6 -3 -8 4 -4 5 3 12 1 14 -6 3 -8 6 -9 11 -1 4 6 0
13 -8 17 -8 3 -17 0 -21 -6z"/>
<path d="M5966 2858 c-21 -8 -25 -13 -15 -19 8 -5 19 -9 24 -9 6 0 3 5 -5 10
-13 8 -13 10 2 10 30 0 29 -18 -2 -33 -26 -13 -30 -13 -30 -1 0 8 -5 14 -10
14 -17 0 -23 -27 -11 -47 6 -10 11 -13 11 -6 0 7 7 10 16 6 17 -6 64 33 64 54
0 7 6 13 13 13 8 0 7 4 -3 10 -18 11 -17 11 -54 -2z"/>
<path d="M1021 2844 c0 -11 3 -14 6 -6 3 7 2 16 -1 19 -3 4 -6 -2 -5 -13z"/>
<path d="M5880 2820 c0 -5 5 -10 11 -10 5 0 7 5 4 10 -3 6 -8 10 -11 10 -2 0
-4 -4 -4 -10z"/>
<path d="M977 2795 c3 -8 9 -12 14 -9 12 7 11 11 -5 17 -10 4 -13 1 -9 -8z"/>
<path d="M6010 2791 c0 -12 -4 -19 -10 -16 -16 10 -12 -5 11 -37 12 -16 18
-32 15 -35 -3 -4 -6 -1 -6 5 0 7 -5 12 -11 12 -6 0 -8 -7 -5 -15 4 -10 1 -15
-9 -13 -7 2 -21 -6 -30 -17 -16 -20 -16 -20 -6 1 9 18 7 23 -8 27 -16 4 -17 0
-11 -28 10 -44 18 -55 38 -54 15 1 15 2 -1 6 -21 5 -18 27 4 29 8 1 19 3 24 4
6 1 13 2 18 1 4 0 6 2 5 7 -1 4 2 18 6 31 6 16 3 28 -7 38 -12 12 -13 20 -4
34 9 14 9 21 -1 31 -9 9 -12 7 -12 -11z"/>
<path d="M5875 2770 c-3 -5 -1 -10 4 -10 6 0 11 5 11 10 0 6 -2 10 -4 10 -3 0
-8 -4 -11 -10z"/>
<path d="M891 2742 c-29 -32 -27 -38 5 -13 33 26 47 27 39 2 -3 -12 0 -21 10
-25 8 -3 15 -1 15 4 0 6 -6 10 -12 10 -8 1 -6 6 5 14 14 11 15 16 5 22 -24 15
-45 11 -67 -14z"/>
<path d="M5950 2750 c-8 -5 -10 -10 -5 -10 6 0 17 5 25 10 8 5 11 10 5 10 -5
0 -17 -5 -25 -10z"/>
<path d="M5798 2733 c7 -3 16 -2 19 1 4 3 -2 6 -13 5 -11 0 -14 -3 -6 -6z"/>
<path d="M5978 2733 c7 -3 16 -2 19 1 4 3 -2 6 -13 5 -11 0 -14 -3 -6 -6z"/>
<path d="M975 2720 c3 -5 8 -10 11 -10 2 0 4 5 4 10 0 6 -5 10 -11 10 -5 0 -7
-4 -4 -10z"/>
<path d="M3920 2706 c0 -2 11 -6 25 -8 14 -3 25 -1 25 3 0 5 -11 9 -25 9 -14
0 -25 -2 -25 -4z"/>
<path d="M917 2685 c-18 -17 -31 -20 -22 -4 4 6 -2 5 -13 -2 -27 -17 -21 -25
15 -23 15 1 34 3 41 3 14 1 16 27 3 36 -5 3 -16 -2 -24 -10z m23 -5 c0 -5 -5
-10 -11 -10 -5 0 -7 5 -4 10 3 6 8 10 11 10 2 0 4 -4 4 -10z"/>
<path d="M967 2676 c-4 -10 -1 -13 9 -9 7 3 14 9 14 14 0 14 -17 10 -23 -5z"/>
<path d="M5909 2653 c-13 -16 -12 -17 4 -4 16 13 21 21 13 21 -2 0 -10 -8 -17
-17z"/>
<path d="M890 2642 c0 -7 -6 -12 -13 -10 -13 3 -17 -3 -17 -24 0 -9 4 -8 10 2
8 13 10 12 10 -2 0 -10 8 -18 17 -18 13 0 14 3 5 12 -7 7 -12 17 -12 23 0 5 5
3 10 -5 5 -8 10 -10 10 -5 0 6 -5 17 -10 25 -7 11 -10 11 -10 2z"/>
<path d="M926 2634 c-10 -25 -2 -26 24 -4 22 19 22 20 3 20 -12 0 -24 -7 -27
-16z"/>
<path d="M2976 2622 c-3 -5 -18 -7 -34 -4 -21 3 -36 -4 -61 -27 -17 -16 -35
-30 -39 -30 -11 1 -19 -33 -14 -59 3 -13 14 -27 26 -32 11 -5 15 -9 7 -9 -7
-1 -11 -7 -8 -15 3 -8 -6 -26 -20 -40 -23 -23 -24 -26 -7 -26 17 0 16 -3 -6
-20 -28 -22 -24 -25 16 -10 14 6 35 22 46 35 11 14 28 25 39 25 10 0 19 6 19
13 0 8 9 22 20 32 19 17 20 17 29 -6 17 -45 54 -70 99 -68 22 2 39 5 37 9 -2
3 5 17 15 30 15 20 21 23 31 13 10 -10 10 -16 2 -24 -8 -8 -7 -16 4 -29 13
-15 19 -16 51 -4 21 7 36 18 34 25 -2 7 3 9 13 5 8 -3 21 -8 28 -11 11 -5 13
6 11 44 -3 47 -1 51 30 71 19 11 37 27 40 36 8 21 8 24 -5 24 -5 0 -7 -5 -4
-11 4 -6 -2 -13 -14 -16 -11 -3 -19 -9 -16 -13 10 -16 -50 -5 -66 12 -8 9 -36
22 -62 29 -26 6 -47 15 -47 19 0 4 -17 11 -37 15 -21 5 -45 10 -53 12 -37 10
-99 13 -104 5z m-16 -122 c-20 -13 -33 -13 -25 0 3 6 14 10 23 10 15 0 15 -2
2 -10z"/>
<path d="M5910 2615 c0 -8 2 -15 4 -15 2 0 6 7 10 15 3 8 1 15 -4 15 -6 0 -10
-7 -10 -15z"/>
<path d="M957 2596 c-4 -10 1 -12 14 -9 23 6 24 9 5 16 -8 3 -17 0 -19 -7z"/>
<path d="M5929 2597 c-1 -7 -1 -18 0 -26 2 -8 -2 -10 -10 -5 -8 4 -10 3 -5 -5
10 -15 29 -3 22 14 -3 8 3 15 12 17 16 3 16 4 0 10 -11 5 -18 3 -19 -5z"/>
<path d="M6043 2595 c0 -8 4 -12 9 -9 4 3 8 9 8 15 0 5 -4 9 -8 9 -5 0 -9 -7
-9 -15z"/>
<path d="M921 2593 c0 -4 4 -17 9 -28 8 -19 9 -19 9 2 1 12 -3 25 -9 28 -5 3
-10 3 -9 -2z"/>
<path d="M2351 2549 c-20 -58 -6 -196 26 -253 10 -19 11 -19 16 0 12 39 26
140 23 159 -2 11 2 26 8 34 8 11 8 15 -1 18 -7 3 -13 12 -13 20 0 12 -35 53
-46 53 -1 0 -7 -14 -13 -31z"/>
<path d="M5867 2509 c7 -7 15 -10 18 -7 3 3 -2 9 -12 12 -14 6 -15 5 -6 -5z"/>
<path d="M5937 2509 c7 -9 22 -15 33 -14 27 2 38 15 12 15 -11 0 -29 3 -39 7
-15 6 -16 4 -6 -8z"/>
<path d="M5846 2497 c3 -10 9 -15 12 -12 3 3 0 11 -7 18 -10 9 -11 8 -5 -6z"/>
<path d="M6026 2492 c-4 -4 -13 -7 -19 -7 -7 0 -12 -15 -13 -32 -1 -18 2 -33
6 -33 15 0 30 28 24 46 -5 15 -2 14 15 -5 24 -27 26 -24 8 13 -8 14 -17 22
-21 18z m-6 -47 c0 -5 -5 -3 -10 5 -5 8 -10 20 -10 25 0 6 5 3 10 -5 5 -8 10
-19 10 -25z"/>
<path d="M934 2465 c-11 -15 -25 -23 -34 -20 -12 5 -13 4 -2 -7 10 -10 17 -7
39 15 15 14 24 29 21 32 -3 3 -14 -6 -24 -20z"/>
<path d="M5910 2481 c0 -5 -3 -16 -6 -25 -4 -10 -1 -16 10 -16 10 0 13 -6 10
-17 -5 -15 -4 -16 5 -3 8 11 7 18 -2 25 -7 6 -11 18 -9 28 2 9 1 17 -2 17 -3
0 -6 -4 -6 -9z"/>
<path d="M966 2432 c-3 -5 1 -9 9 -9 8 0 12 4 9 9 -3 4 -7 8 -9 8 -2 0 -6 -4
-9 -8z"/>
<path d="M5956 2408 c3 -4 9 -8 15 -8 5 0 9 4 9 8 0 5 -7 9 -15 9 -8 0 -12 -4
-9 -9z"/>
<path d="M5886 2395 c-11 -8 -15 -15 -9 -15 6 0 16 7 23 15 16 19 11 19 -14 0z"/>
<path d="M947 2384 c-3 -5 1 -15 9 -22 16 -14 18 -5 5 17 -5 7 -11 9 -14 5z"/>
<path d="M2486 2326 c-27 -28 -33 -42 -32 -74 2 -77 56 -70 100 12 15 28 17
43 10 64 -14 39 -40 39 -78 -2z"/>
<path d="M5962 2349 c2 -7 10 -15 17 -17 8 -3 12 1 9 9 -2 7 -10 15 -17 17 -8
3 -12 -1 -9 -9z"/>
<path d="M3166 2325 c-24 -12 -52 -25 -62 -28 -11 -3 -37 -13 -59 -21 -40 -15
-40 -15 -10 -17 56 -3 60 -4 58 -16 -2 -7 4 -13 12 -13 8 0 12 6 9 14 -6 15
23 25 91 32 29 3 47 12 68 35 15 18 27 32 27 33 0 0 -20 2 -45 2 -28 1 -61 -7
-89 -21z"/>
<path d="M5920 2330 c0 -5 5 -10 10 -10 6 0 10 5 10 10 0 6 -4 10 -10 10 -5 0
-10 -4 -10 -10z"/>
<path d="M966 2293 c-6 -14 -5 -15 5 -6 7 7 10 15 7 18 -3 3 -9 -2 -12 -12z"/>
<path d="M5960 2291 c0 -6 4 -13 10 -16 6 -3 7 1 4 9 -7 18 -14 21 -14 7z"/>
<path d="M5998 2263 c7 -3 16 -2 19 1 4 3 -2 6 -13 5 -11 0 -14 -3 -6 -6z"/>
<path d="M5945 2250 c-3 -5 -1 -10 4 -10 6 0 11 5 11 10 0 6 -2 10 -4 10 -3 0
-8 -4 -11 -10z"/>
<path d="M6010 2205 c-1 -5 -3 -18 -5 -27 -2 -10 1 -18 5 -18 16 0 21 20 11
37 -6 10 -11 14 -11 8z"/>
<path d="M5949 2187 c6 -8 7 -17 3 -22 -4 -4 3 -1 15 6 21 12 21 14 5 21 -27
11 -35 9 -23 -5z"/>
<path d="M5784 2170 c0 -13 4 -16 10 -10 7 7 7 13 0 20 -6 6 -10 3 -10 -10z"/>
<path d="M5875 2179 c-11 -16 -1 -19 13 -3 7 8 8 14 3 14 -5 0 -13 -5 -16 -11z"/>
<path d="M5975 2160 c3 -5 8 -10 11 -10 2 0 4 5 4 10 0 6 -5 10 -11 10 -5 0
-7 -4 -4 -10z"/>
<path d="M957 2153 c-12 -12 -7 -21 16 -26 20 -5 20 -5 5 7 -10 7 -15 16 -11
19 3 4 4 7 1 7 -2 0 -8 -3 -11 -7z"/>
<path d="M926 2125 c-9 -26 -7 -32 5 -12 6 10 9 21 6 23 -2 3 -7 -2 -11 -11z"/>
<path d="M5976 2115 c4 -8 1 -15 -6 -15 -6 0 -8 -5 -4 -11 3 -6 9 -7 13 -3 9
13 41 16 41 4 0 -5 5 -10 11 -10 6 0 9 8 7 18 -2 9 -10 16 -16 14 -7 -1 -22 2
-32 8 -16 8 -18 8 -14 -5z"/>
<path d="M5920 2104 c0 -3 15 -19 33 -36 30 -29 31 -30 7 -23 -19 5 -21 4 -10
-4 14 -10 7 -15 -13 -12 -5 1 -6 -2 -3 -7 3 -5 15 -8 28 -6 13 1 28 3 33 3 6
1 4 5 -3 10 -8 4 -13 11 -13 15 2 10 -42 66 -51 66 -4 0 -8 -3 -8 -6z"/>
<path d="M980 2041 c0 -6 4 -13 10 -16 6 -3 7 1 4 9 -7 18 -14 21 -14 7z"/>
<path d="M900 2033 c0 -4 5 -15 10 -23 8 -13 10 -13 10 2 0 9 -4 20 -10 23 -5
3 -10 3 -10 -2z"/>
<path d="M5910 2020 c6 -11 13 -20 16 -20 2 0 0 9 -6 20 -6 11 -13 20 -16 20
-2 0 0 -9 6 -20z"/>
<path d="M3136 1976 c-14 -19 -26 -39 -26 -44 0 -6 -6 -12 -12 -14 -7 -3 -13
-22 -13 -46 0 -39 1 -40 19 -28 18 11 72 154 62 163 -2 2 -15 -12 -30 -31z"/>
<path d="M5946 1992 c-3 -6 -1 -14 5 -18 8 -4 7 -9 -2 -15 -11 -7 -10 -9 4 -9
18 0 22 17 8 39 -5 8 -11 9 -15 3z"/>
<path d="M931 1964 c0 -11 3 -14 6 -6 3 7 2 16 -1 19 -3 4 -6 -2 -5 -13z"/>
<path d="M980 1969 c0 -5 5 -7 10 -4 6 3 10 8 10 11 0 2 -4 4 -10 4 -5 0 -10
-5 -10 -11z"/>
<path d="M5992 1954 c10 -10 20 -16 22 -13 3 3 -5 11 -17 18 -21 13 -21 12 -5
-5z"/>
<path d="M5912 1896 c0 -20 4 -34 8 -31 5 3 6 18 4 32 -7 40 -12 39 -12 -1z"/>
<path d="M1013 1895 c0 -8 4 -12 9 -9 5 3 6 10 3 15 -9 13 -12 11 -12 -6z"/>
<path d="M3240 1900 c0 -5 7 -10 16 -10 8 0 12 5 9 10 -3 6 -10 10 -16 10 -5
0 -9 -4 -9 -10z"/>
<path d="M5995 1830 c-3 -5 -1 -10 4 -10 6 0 11 5 11 10 0 6 -2 10 -4 10 -3 0
-8 -4 -11 -10z"/>
<path d="M938 1823 c-16 -4 -16 -6 -3 -20 8 -8 13 -19 10 -24 -4 -5 1 -6 9 -3
10 4 16 1 16 -9 0 -9 4 -18 8 -21 4 -2 8 11 8 30 0 20 -3 29 -8 21 -6 -9 -10
-9 -17 3 -5 8 -7 18 -5 22 3 4 4 7 2 7 -2 -1 -11 -3 -20 -6z"/>
<path d="M5927 1785 c-2 -14 -1 -28 3 -30 4 -3 10 7 13 20 2 14 1 28 -3 30 -4
3 -10 -7 -13 -20z"/>
<path d="M5899 1755 c-6 -25 -15 -45 -19 -45 -7 0 -6 -29 0 -37 2 -2 3 -9 4
-15 0 -7 9 -14 18 -16 21 -4 14 23 -8 32 -11 4 -12 10 -2 33 7 15 15 30 18 33
6 6 10 60 5 60 -3 0 -10 -20 -16 -45z"/>
<path d="M5945 1739 c-4 -6 -5 -12 -2 -15 2 -3 7 2 10 11 7 17 1 20 -8 4z"/>
<path d="M5915 1710 c3 -5 8 -10 11 -10 2 0 4 5 4 10 0 6 -5 10 -11 10 -5 0
-7 -4 -4 -10z"/>
<path d="M5960 1700 c0 -5 5 -10 10 -10 6 0 10 5 10 10 0 6 -4 10 -10 10 -5 0
-10 -4 -10 -10z"/>
<path d="M5775 1670 c-3 -6 1 -7 9 -4 18 7 21 14 7 14 -6 0 -13 -4 -16 -10z"/>
<path d="M1010 1642 c-16 -7 -25 -32 -12 -32 4 0 15 9 25 20 17 20 14 24 -13
12z"/>
<path d="M5807 1593 c-4 -3 -7 -11 -7 -17 0 -6 5 -5 12 2 6 6 9 14 7 17 -3 3
-9 2 -12 -2z"/>
<path d="M5940 1596 c0 -2 7 -9 15 -16 9 -7 15 -8 15 -2 0 5 -7 12 -15 16 -8
3 -15 4 -15 2z"/>
<path d="M5885 1550 c-3 -5 -13 -7 -23 -4 -13 4 -11 1 5 -14 12 -11 19 -22 16
-26 -4 -3 -2 -6 4 -6 15 0 24 28 11 36 -7 4 -6 9 3 15 10 6 10 9 2 9 -6 0 -14
-4 -18 -10z"/>
<path d="M5844 1510 c0 -13 4 -16 10 -10 7 7 7 13 0 20 -6 6 -10 3 -10 -10z"/>
<path d="M1061 1464 c0 -11 3 -14 6 -6 3 7 2 16 -1 19 -3 4 -6 -2 -5 -13z"/>
<path d="M5791 1453 c-1 -13 4 -23 10 -23 5 0 7 -6 3 -12 -4 -7 1 -6 12 3 10
9 25 15 32 13 7 -1 8 0 2 3 -5 2 -7 10 -3 16 3 7 -3 4 -15 -7 -21 -19 -22 -18
-31 5 -10 24 -10 24 -10 2z"/>
<path d="M1041 1444 c0 -11 3 -14 6 -6 3 7 2 16 -1 19 -3 4 -6 -2 -5 -13z"/>
<path d="M1080 1399 c0 -5 5 -7 10 -4 6 3 10 8 10 11 0 2 -4 4 -10 4 -5 0 -10
-5 -10 -11z"/>
<path d="M1056 1385 c4 -8 8 -15 10 -15 2 0 4 7 4 15 0 8 -4 15 -10 15 -5 0
-7 -7 -4 -15z"/>
<path d="M5726 1378 c3 -5 10 -6 15 -3 13 9 11 12 -6 12 -8 0 -12 -4 -9 -9z"/>
<path d="M5855 1376 c-5 -11 -3 -21 6 -26 19 -12 21 -7 10 21 -8 22 -10 22
-16 5z"/>
<path d="M1105 1332 c-32 -6 -40 -21 -11 -18 26 3 44 13 35 19 -2 2 -13 1 -24
-1z"/>
<path d="M3411 1304 c0 -11 3 -14 6 -6 3 7 2 16 -1 19 -3 4 -6 -2 -5 -13z"/>
<path d="M1135 1299 c-4 -6 -5 -12 -2 -15 2 -3 7 2 10 11 7 17 1 20 -8 4z"/>
<path d="M1146 1263 c-10 -10 -7 -25 4 -18 6 3 13 0 16 -8 6 -16 28 -17 41 -2
4 4 3 5 -3 2 -6 -3 -20 2 -31 13 -12 10 -24 16 -27 13z"/>
<path d="M1200 1260 c0 -5 5 -10 11 -10 5 0 7 5 4 10 -3 6 -8 10 -11 10 -2 0
-4 -4 -4 -10z"/>
<path d="M1124 1222 c4 -7 1 -12 -6 -12 -8 0 -6 -5 5 -11 10 -6 21 -8 24 -5 4
3 1 6 -6 6 -7 0 -10 4 -6 9 3 5 0 13 -6 17 -8 4 -9 3 -5 -4z"/>
<path d="M5683 1176 c-9 -11 -9 -15 0 -19 7 -3 14 3 14 14 2 22 2 22 -14 5z"/>
<path d="M5723 1183 c4 -3 1 -13 -6 -22 -11 -14 -10 -14 6 -2 20 15 22 31 5
31 -6 0 -8 -3 -5 -7z"/>
<path d="M1177 1148 c5 -23 5 -23 -10 -3 -9 11 -17 15 -17 10 0 -13 20 -35 32
-35 4 0 8 11 8 25 0 14 -4 25 -9 25 -5 0 -7 -10 -4 -22z"/>
<path d="M5700 1110 c0 -6 -4 -9 -9 -5 -5 3 -13 1 -16 -5 -4 -6 -2 -9 3 -8 9
3 12 -2 12 -17 0 -3 -9 -1 -20 5 -14 7 -20 7 -20 0 0 -5 6 -10 13 -10 8 0 14
-7 14 -15 0 -10 -6 -13 -18 -10 -14 5 -16 1 -12 -15 3 -11 9 -20 14 -20 5 0 9
-8 9 -17 0 -15 2 -16 10 -3 6 10 6 16 0 18 -6 2 -8 8 -5 12 3 5 17 5 31 0 33
-13 41 -13 27 1 -14 14 14 50 32 43 7 -3 15 2 18 10 8 21 -1 20 -40 -4 l-33
-20 0 26 c0 23 2 25 16 14 12 -11 18 -11 30 2 14 14 14 16 0 21 -11 4 -13 1
-8 -11 6 -16 4 -16 -21 1 -15 10 -27 13 -27 7z m0 -50 c0 -5 -5 -10 -11 -10
-5 0 -7 5 -4 10 3 6 8 10 11 10 2 0 4 -4 4 -10z"/>
<path d="M1182 1076 c7 -8 15 -12 17 -11 5 6 -10 25 -20 25 -5 0 -4 -6 3 -14z"/>
<path d="M1400 1076 c0 -2 7 -7 16 -10 8 -3 12 -2 9 4 -6 10 -25 14 -25 6z"/>
<path d="M5541 1067 c-8 -10 -7 -14 2 -14 8 0 14 6 14 14 0 7 -1 13 -2 13 -2
0 -8 -6 -14 -13z"/>
<path d="M1221 1044 c1 -21 16 -47 21 -38 4 5 0 18 -8 29 -8 10 -14 15 -13 9z"/>
<path d="M1274 999 c-4 -8 -3 -9 4 -5 7 4 12 2 12 -3 0 -6 -5 -11 -11 -11 -5
0 -7 -4 -4 -10 3 -5 11 -10 16 -10 6 0 8 4 5 9 -4 5 -1 11 5 13 7 2 6 8 -4 16
-12 10 -17 10 -23 1z"/>
<path d="M2754 983 c-21 -50 -23 -88 -9 -188 20 -146 27 -179 38 -192 5 -7 6
-25 3 -39 -5 -18 -2 -32 9 -45 10 -10 14 -22 11 -27 -3 -5 4 -12 15 -15 15 -4
20 -11 15 -22 -4 -11 2 -23 16 -35 18 -14 22 -27 20 -66 -1 -41 4 -57 33 -101
19 -29 35 -59 35 -66 0 -8 11 -19 24 -25 19 -9 27 -8 36 4 7 8 17 14 23 14 5
0 15 7 22 17 7 9 23 17 36 18 21 1 24 7 27 43 2 30 -1 44 -11 48 -8 3 -13 13
-10 23 2 9 -5 25 -16 35 -12 11 -21 26 -21 34 0 8 -8 29 -19 46 -10 17 -22 42
-26 55 -4 13 -18 35 -31 48 -13 13 -24 29 -24 36 0 7 4 6 10 -3 8 -13 10 -13
10 1 0 9 -7 19 -15 22 -8 4 -27 25 -42 49 -15 24 -37 52 -48 63 -11 11 -33 45
-49 75 -24 44 -31 70 -34 137 -3 46 -7 83 -11 83 -3 0 -11 -12 -17 -27z"/>
<path d="M5595 1000 c-3 -5 -1 -10 4 -10 6 0 11 5 11 10 0 6 -2 10 -4 10 -3 0
-8 -4 -11 -10z"/>
<path d="M5561 984 c0 -11 3 -14 6 -6 3 7 2 16 -1 19 -3 4 -6 -2 -5 -13z"/>
<path d="M5603 973 c9 -2 17 -9 17 -14 0 -6 -4 -7 -10 -4 -5 3 -10 1 -10 -5 0
-18 25 -6 28 13 3 12 -3 17 -20 16 -17 -1 -18 -3 -5 -6z"/>
<path d="M5646 953 c-6 -14 -5 -15 5 -6 7 7 10 15 7 18 -3 3 -9 -2 -12 -12z"/>
<path d="M1327 934 c-14 -18 -14 -23 -2 -27 7 -3 19 1 25 9 7 8 9 14 4 14 -4
0 0 6 10 13 16 12 16 13 -2 13 -10 0 -26 -10 -35 -22z"/>
<path d="M5546 923 c1 -15 2 -34 3 -40 1 -7 6 -13 11 -13 6 0 8 13 5 33 -8 41
-23 57 -19 20z"/>
<path d="M1245 910 c-3 -5 -1 -10 4 -10 6 0 11 5 11 10 0 6 -2 10 -4 10 -3 0
-8 -4 -11 -10z"/>
<path d="M1270 893 c0 -8 4 -12 9 -9 5 4 11 1 13 -6 3 -8 6 -6 10 4 5 11 0 18
-13 21 -12 3 -19 0 -19 -10z"/>
<path d="M1411 884 c0 -11 3 -14 6 -6 3 7 2 16 -1 19 -3 4 -6 -2 -5 -13z"/>
<path d="M1270 844 c-11 -12 -11 -15 1 -12 8 2 13 -3 11 -10 -1 -8 2 -11 8 -7
5 3 10 -1 10 -10 0 -12 4 -14 19 -5 11 5 27 7 35 4 9 -3 16 -1 16 5 0 6 -5 10
-12 9 -7 -2 -12 4 -13 12 0 17 -45 27 -45 10 0 -6 -5 -8 -10 -5 -6 4 -8 11 -5
16 10 15 -1 10 -15 -7z m65 -14 c-3 -5 -13 -10 -21 -10 -8 0 -12 5 -9 10 3 6
13 10 21 10 8 0 12 -4 9 -10z"/>
<path d="M1406 818 c3 -5 10 -6 15 -3 13 9 11 12 -6 12 -8 0 -12 -4 -9 -9z"/>
<path d="M5500 820 c-9 -6 -10 -10 -3 -10 6 0 15 5 18 10 8 12 4 12 -15 0z"/>
<path d="M5442 808 c-15 -15 -16 -38 -1 -38 5 0 7 -6 3 -12 -5 -10 -3 -10 7 0
12 11 12 14 0 22 -12 7 -12 11 -2 24 16 19 10 21 -7 4z"/>
<path d="M1380 801 c0 -6 4 -13 10 -16 6 -3 7 1 4 9 -7 18 -14 21 -14 7z"/>
<path d="M1344 775 c3 -16 -1 -28 -12 -35 -9 -5 -12 -10 -5 -10 6 0 10 -9 8
-20 -2 -12 4 -24 16 -30 18 -10 24 -6 20 14 -1 5 5 4 13 -3 16 -13 36 -7 36
11 0 5 -7 8 -15 5 -8 -4 -17 -1 -21 5 -4 6 -3 8 2 5 16 -9 31 6 37 38 l6 30
-12 -27 c-11 -28 -49 -39 -62 -18 -3 6 0 10 7 10 9 0 9 3 -2 10 -10 6 -11 10
-2 10 17 0 15 17 -3 24 -12 4 -14 0 -11 -19z"/>
<path d="M5500 789 c0 -5 5 -7 10 -4 6 3 10 8 10 11 0 2 -4 4 -10 4 -5 0 -10
-5 -10 -11z"/>
<path d="M1320 780 c0 -5 -6 -7 -14 -4 -8 3 -17 1 -20 -4 -3 -6 2 -13 11 -16
9 -4 20 -1 25 6 9 15 10 28 3 28 -3 0 -5 -4 -5 -10z"/>
<path d="M1290 741 c0 -5 5 -13 10 -16 6 -3 10 -2 10 4 0 5 -4 13 -10 16 -5 3
-10 2 -10 -4z"/>
<path d="M1486 735 c-3 -8 -1 -15 4 -15 6 0 10 7 10 15 0 8 -2 15 -4 15 -2 0
-6 -7 -10 -15z"/>
<path d="M1426 725 c-6 -18 41 -65 65 -65 9 0 19 7 23 15 4 13 2 14 -14 5 -16
-8 -24 -7 -35 3 -8 8 -11 18 -7 22 4 4 0 5 -8 3 -10 -2 -14 3 -12 15 4 21 -4
23 -12 2z"/>
<path d="M1531 674 c0 -11 3 -14 6 -6 3 7 2 16 -1 19 -3 4 -6 -2 -5 -13z"/>
<path d="M1550 671 c0 -6 4 -13 10 -16 6 -3 7 1 4 9 -7 18 -14 21 -14 7z"/>
<path d="M1440 660 c0 -5 5 -10 11 -10 5 0 7 5 4 10 -3 6 -8 10 -11 10 -2 0
-4 -4 -4 -10z"/>
<path d="M5211 654 c0 -11 3 -14 6 -6 3 7 2 16 -1 19 -3 4 -6 -2 -5 -13z"/>
<path d="M1532 634 c-18 -20 -6 -37 19 -24 11 6 25 8 31 4 7 -4 8 -3 4 5 -4 6
-16 9 -27 6 -14 -5 -17 -3 -13 9 8 20 3 20 -14 0z"/>
<path d="M5368 633 c6 -2 18 -2 25 0 6 3 1 5 -13 5 -14 0 -19 -2 -12 -5z"/>
<path d="M3380 620 c0 -5 9 -10 20 -10 11 0 20 5 20 10 0 6 -9 10 -20 10 -11
0 -20 -4 -20 -10z"/>
<path d="M1600 589 c0 -5 5 -7 10 -4 6 3 10 8 10 11 0 2 -4 4 -10 4 -5 0 -10
-5 -10 -11z"/>
<path d="M1653 585 c0 -8 6 -16 14 -19 11 -4 11 -1 3 14 -13 24 -17 25 -17 5z"/>
<path d="M5440 591 c-8 -6 -18 -7 -22 -5 -4 3 -5 -2 -2 -10 8 -22 21 -20 34 4
12 22 11 24 -10 11z"/>
<path d="M1626 512 c-2 -4 -1 -14 5 -22 7 -12 9 -10 9 8 0 23 -5 28 -14 14z"/>
<path d="M3675 504 c9 -9 19 -13 23 -10 3 4 0 11 -8 16 -24 15 -33 11 -15 -6z"/>
<path d="M1787 489 c7 -7 15 -10 18 -7 3 3 -2 9 -12 12 -14 6 -15 5 -6 -5z"/>
<path d="M1695 470 c-16 -7 -17 -9 -3 -9 9 -1 20 4 23 9 7 11 7 11 -20 0z"/>
<path d="M3290 424 c0 -8 5 -12 10 -9 6 3 10 10 10 16 0 5 -4 9 -10 9 -5 0
-10 -7 -10 -16z"/>
<path d="M3502 416 c7 -7 22 -11 35 -8 31 6 21 19 -16 20 -24 0 -28 -2 -19
-12z"/>
<path d="M2753 409 c-19 -19 -16 -53 6 -73 10 -10 22 -34 26 -54 9 -48 14 -55
29 -39 16 15 16 167 1 167 -5 0 -19 3 -30 6 -11 3 -26 -1 -32 -7z"/>
<path d="M3314 409 c-3 -5 2 -16 10 -25 14 -14 18 -14 31 0 12 11 12 16 3 23
-19 11 -37 12 -44 2z"/>
<path d="M3425 410 c-4 -6 -15 -8 -26 -5 -11 4 -19 2 -19 -4 0 -6 4 -11 9 -11
5 0 12 -8 14 -17 4 -17 5 -17 6 0 1 13 7 16 26 11 15 -4 25 -2 25 5 0 6 8 11
17 11 22 0 14 6 -19 14 -15 3 -30 1 -33 -4z"/>
<path d="M3274 365 c3 -9 0 -15 -8 -15 -20 0 -36 -24 -27 -39 12 -18 59 -21
73 -3 11 13 10 14 -10 8 -13 -5 -22 -3 -22 3 0 6 4 11 8 11 5 0 9 7 9 15 0 8
-4 15 -9 15 -5 0 -6 5 -3 10 3 6 1 10 -5 10 -7 0 -10 -7 -6 -15z"/>
<path d="M1986 306 c3 -9 11 -16 16 -16 13 0 5 23 -10 28 -7 2 -10 -2 -6 -12z"/>
<path d="M3228 273 c6 -2 18 -2 25 0 6 3 1 5 -13 5 -14 0 -19 -2 -12 -5z"/>
<path d="M3110 200 c0 -5 5 -10 11 -10 5 0 7 5 4 10 -3 6 -8 10 -11 10 -2 0
-4 -4 -4 -10z"/>
<path d="M2277 43 c-10 -9 -9 -43 1 -43 4 0 9 11 10 25 2 26 0 29 -11 18z"/>
</g>
</svg>
